<?xml version="1.0" encoding="UTF-8" standalone="no"?>
<svg
   height="2880pt"
   viewBox="0 -31 2880.004 2880"
   width="2880pt"
   id="svg2"
   version="1.1"
   inkscape:version="1.1.2 (0a00cf5339, 2022-02-04)"
   sodipodi:docname="dice.svg"
   inkscape:export-filename="/home/gram/projects/other/stickers/3sticker/dice.png"
   inkscape:export-xdpi="202.49998"
   inkscape:export-ydpi="202.49998"
   xmlns:inkscape="http://www.inkscape.org/namespaces/inkscape"
   xmlns:sodipodi="http://sodipodi.sourceforge.net/DTD/sodipodi-0.dtd"
   xmlns="http://www.w3.org/2000/svg"
   xmlns:svg="http://www.w3.org/2000/svg"
   xmlns:rdf="http://www.w3.org/1999/02/22-rdf-syntax-ns#"
   xmlns:cc="http://creativecommons.org/ns#"
   xmlns:dc="http://purl.org/dc/elements/1.1/">
  <metadata
     id="metadata54">
    <rdf:RDF>
      <cc:Work
         rdf:about="">
        <dc:format>image/svg+xml</dc:format>
        <dc:type
           rdf:resource="http://purl.org/dc/dcmitype/StillImage" />
      </cc:Work>
    </rdf:RDF>
  </metadata>
  <defs
     id="defs52" />
  <sodipodi:namedview
     pagecolor="#ffffff"
     bordercolor="#666666"
     borderopacity="1"
     objecttolerance="10"
     gridtolerance="10"
     guidetolerance="10"
     inkscape:pageopacity="0"
     inkscape:pageshadow="2"
     inkscape:window-width="1712"
     inkscape:window-height="860"
     id="namedview50"
     showgrid="false"
     inkscape:snap-bbox="true"
     inkscape:snap-bbox-midpoints="true"
     inkscape:zoom="0.092187499"
     inkscape:cx="1936.2712"
     inkscape:cy="2657.6271"
     inkscape:window-x="0"
     inkscape:window-y="30"
     inkscape:window-maximized="1"
     inkscape:current-layer="svg2"
     inkscape:bbox-paths="true"
     inkscape:bbox-nodes="true"
     inkscape:snap-bbox-edge-midpoints="true"
     inkscape:object-paths="true"
     inkscape:snap-global="false"
     fit-margin-top="0"
     fit-margin-left="0"
     fit-margin-right="0"
     fit-margin-bottom="0"
     inkscape:pagecheckerboard="0"
     inkscape:document-units="pt">
    <inkscape:grid
       type="xygrid"
       id="grid4155"
       originx="1184.0016"
       originy="1184.0001" />
  </sodipodi:namedview>
  <ellipse
     style="fill:#ffffff;stroke:none;stroke-width:12.78162098;stroke-opacity:1"
     id="path4153"
     cx="1440.0018"
     cy="1409.0015"
     rx="1433.611"
     ry="1433.6111" />
  <path
     d="m 1440.0003,1376.2535 0,1005.2578 -844.36518,-467.3672 0,-1005.25775"
     id="path4"
     inkscape:connector-curvature="0"
     style="fill:#ffe681" />
  <path
     d="m 1440.0003,1376.2535 0,1005.2578 844.3653,-467.3672 0,-1005.25775"
     id="path6"
     inkscape:connector-curvature="0"
     style="fill:#00d2d7" />
  <path
     d="m 595.63512,908.88635 844.36518,-467.38472 844.3653,467.38472 -844.3653,467.36715 z m 0,0"
     id="path8"
     inkscape:connector-curvature="0"
     style="fill:#52607e" />
  <path
     d="m 2472.2581,922.9137 c -20.3027,0 -38.707,-13.83399 -43.6992,-34.43553 -5.8359,-24.15235 9.0176,-48.48048 33.1699,-54.31639 l 74.6895,-18.05274 c 24.1699,-5.8711 48.4804,9 54.3164,33.1699 5.8359,24.15236 -9.0176,48.46289 -33.1699,54.2988 l -74.6895,18.07034 c -3.5508,0.84375 -7.1191,1.26562 -10.6172,1.26562 z m 0,0"
     id="path34"
     inkscape:connector-curvature="0" />
  <path
     d="m 2280.4281,659.73405 c -7.9981,0 -16.084,-2.12697 -23.4141,-6.59183 -21.1992,-12.95505 -27.8965,-40.64062 -14.9414,-61.8574 l 40.043,-65.58397 c 12.955,-21.19922 40.6406,-27.89649 61.8574,-14.94141 21.2168,12.9375 27.8964,40.64062 14.9414,61.8574 l -40.043,65.56644 c -8.4727,13.88668 -23.2734,21.55077 -38.4433,21.55077 z m 0,0"
     id="path36"
     inkscape:connector-curvature="0" />
  <path
     d="m 2487.4105,1284.6715 c -7.9981,0 -16.084,-2.127 -23.4141,-6.5918 l -65.584,-40.043 c -21.2168,-12.955 -27.9141,-40.6582 -14.959,-61.8574 12.9551,-21.2168 40.6583,-27.9141 61.8574,-14.959 l 65.584,40.043 c 21.2169,12.9551 27.9141,40.6406 14.959,61.8574 -8.4726,13.8867 -23.291,21.5508 -38.4433,21.5508 z m 0,0"
     id="path38"
     inkscape:connector-curvature="0" />
  <path
     d="m 407.74256,922.9137 c -3.49805,0 -7.06641,-0.42165 -10.61719,-1.26562 l -74.68945,-18.07034 c -24.15234,-5.83591 -39.00586,-30.14644 -33.16992,-54.2988 5.83594,-24.1699 30.16406,-39.02341 54.3164,-33.1699 l 74.68946,18.05274 c 24.15234,5.83591 39.00586,30.16404 33.1699,54.31639 -4.97459,20.60154 -23.39647,34.43553 -43.6992,34.43553 z m 0,0"
     id="path40"
     inkscape:connector-curvature="0" />
  <path
     d="m 599.57262,659.73405 c -15.1699,0 -29.97072,-7.66409 -38.44336,-21.55077 l -40.04298,-65.56644 c -12.97264,-21.21678 -6.27538,-48.9199 14.94144,-61.8574 21.21678,-12.95508 48.90231,-6.25781 61.8574,14.94141 l 40.04298,65.58397 c 12.95505,21.21678 6.25779,48.90235 -14.94139,61.8574 -7.3125,4.48245 -15.41606,6.59183 -23.41409,6.59183 z m 0,0"
     id="path42"
     inkscape:connector-curvature="0" />
  <path
     d="m 392.60779,1284.6715 c -15.16992,0 -29.9707,-7.6641 -38.46093,-21.5508 -12.95508,-21.2168 -6.25781,-48.9023 14.95898,-61.8574 l 65.58398,-40.043 c 21.2168,-12.9551 48.90233,-6.2578 61.85742,14.959 12.9551,21.1992 6.25779,48.9024 -14.95899,61.8574 l -65.58398,40.043 c -7.33007,4.4648 -15.41601,6.5918 -23.39648,6.5918 z m 0,0"
     id="path44"
     inkscape:connector-curvature="0" />
  <path
     d="m 1296.3167,1542.2262 c -2.918,0 -5.8886,-0.2637 -8.7715,-0.8438 -2.8828,-0.5801 -5.7129,-1.4414 -8.4199,-2.5664 -2.7422,-1.125 -5.3437,-2.5137 -7.7871,-4.1308 -2.4785,-1.67 -4.7636,-3.5684 -6.8379,-5.625 -2.0742,-2.0743 -3.9551,-4.377 -5.5722,-6.8555 -1.6172,-2.4258 -3.0235,-5.0274 -4.1485,-7.7344 -1.125,-2.7422 -1.9687,-5.5723 -2.5664,-8.4199 -0.5801,-2.918 -0.8965,-5.8887 -0.8965,-8.8067 0,-2.9355 0.3164,-5.9062 0.8965,-8.789 0.5977,-2.8829 1.4414,-5.7129 2.5664,-8.4024 1.125,-2.7421 2.5313,-5.3613 4.1485,-7.7871 1.6171,-2.4785 3.498,-4.7636 5.5722,-6.8379 2.0743,-2.0742 4.3594,-3.9726 6.8379,-5.5898 2.4434,-1.6172 5.0449,-3.0058 7.7871,-4.1308 2.707,-1.125 5.5371,-1.9864 8.4199,-2.5665 5.7481,-1.1777 11.7422,-1.1777 17.543,0 2.8828,0.5801 5.7129,1.4415 8.4551,2.5665 2.707,1.125 5.3262,2.5136 7.7519,4.1308 2.4785,1.6172 4.7637,3.5156 6.8379,5.5898 2.0742,2.0567 3.9551,4.3594 5.5723,6.8379 1.6348,2.4258 3.0234,5.045 4.1484,7.7871 1.125,2.6895 1.9864,5.5195 2.5664,8.4024 0.5801,2.8828 0.8965,5.8535 0.8965,8.789 0,2.918 -0.3163,5.8887 -0.8965,8.8067 -0.58,2.8476 -1.4414,5.6777 -2.5664,8.4199 -1.125,2.707 -2.5136,5.3086 -4.1484,7.7344 -1.6172,2.4785 -3.4981,4.7812 -5.5723,6.8555 -8.3672,8.3496 -19.9863,13.166 -31.8164,13.166 z m 0,0"
     id="path46"
     inkscape:connector-curvature="0" />
  <path
     d="M 2305.512,869.15981 1461.7972,402.12663 c -13.5703,-7.50586 -30.0235,-7.50586 -43.5938,0 L 574.48863,869.15981 c -1.56442,0.82615 -23.85351,15.66211 -23.85351,39.72654 l 0,1005.25775 c 0,16.3653 8.89452,31.4297 23.20313,39.3574 l 843.97845,467.1563 c 22.1836,12.5332 43.8223,0.3163 44.3672,0 l 843.9785,-467.1563 c 14.3086,-7.9277 23.2032,-22.9922 23.2032,-39.3574 l 0,-1005.25775 c 0,-0.35145 0,-26.96486 -23.8536,-39.72654 z M 1440.0003,492.93522 2191.4476,908.88635 1440.0003,1324.8199 688.5531,908.88635 Z m -799.36518,492.2929 754.36518,417.55078 0,902.3906 -53.6836,-29.707 0,-607.2363 c 0,-24.8555 -20.1445,-45 -45,-45 -24.8555,0 -45,20.1445 -45,45 l 0,557.4199 -610.68158,-338.0274 z m 844.36518,1319.94138 0,-902.3906 754.3653,-417.55078 0,902.39058 z m 0,0"
     id="path48"
     inkscape:connector-curvature="0" />
  <g
     aria-label="NaN"
     transform="skewY(-30.000002)"
     id="text4182"
     style="line-height:0%;font-family:Dosis;-inkscape-font-specification:Dosis;letter-spacing:0px;word-spacing:0px;stroke-width:1px">
    <path
       d="m 1631.2819,2838.7529 q -7.776,0 -14.58,-3.24 -6.48,-3.564 -6.48,-10.368 v -209.952 q 0,-6.804 6.48,-10.044 6.804,-3.24 14.58,-3.24 7.776,0 12.636,1.62 5.184,1.62 9.396,6.48 4.536,4.536 9.396,14.256 l 62.532,120.852 v -129.924 q 0,-7.128 6.48,-10.044 6.804,-3.24 14.58,-3.24 8.1,0 14.58,3.24 6.48,2.916 6.48,10.044 v 209.952 q 0,6.804 -6.48,10.368 -6.48,3.24 -14.58,3.24 -7.452,0 -13.932,-2.916 -6.156,-2.916 -10.044,-10.368 l -69.984,-130.248 v 129.924 q 0,6.804 -6.48,10.368 -6.48,3.24 -14.58,3.24 z"
       style="font-weight:bold;font-size:324px;line-height:1.25"
       id="path846" />
    <path
       d="m 1836.3735,2841.6689 q -17.172,0 -29.808,-10.368 -12.312,-10.692 -12.312,-32.724 0,-18.468 9.396,-28.836 9.72,-10.368 26.568,-14.58 17.172,-4.212 39.528,-4.212 h 13.284 v -4.212 q 0,-7.128 -2.916,-13.932 -2.592,-6.804 -8.748,-11.34 -5.832,-4.536 -16.848,-4.536 -12.312,0 -19.116,2.592 -6.48,2.268 -10.044,4.86 -3.564,2.592 -7.776,2.592 -6.804,0 -10.692,-6.804 -3.564,-6.804 -3.564,-13.932 0,-6.804 8.1,-11.988 8.424,-5.508 20.412,-8.424 11.988,-2.916 23.328,-2.916 25.272,0 40.5,9.072 15.228,9.072 22.032,23.328 7.128,14.256 7.128,30.78 v 79.056 q 0,5.832 -5.832,9.72 -5.832,3.888 -14.58,3.888 -8.1,0 -13.608,-3.888 -5.184,-3.888 -5.184,-9.72 v -9.072 q -8.748,10.044 -20.736,17.82 -11.664,7.776 -28.512,7.776 z m 16.848,-31.104 q 6.804,0 13.608,-4.536 6.804,-4.536 11.34,-11.664 4.86,-7.128 4.86,-14.904 v -6.804 h -4.86 q -10.692,0 -20.412,1.296 -9.72,1.296 -15.876,5.832 -5.832,4.212 -5.832,13.284 0,9.072 4.86,13.284 5.184,4.212 12.312,4.212 z"
       style="font-weight:bold;font-size:324px;line-height:1.25"
       id="path848" />
    <path
       d="m 1978.2145,2838.7529 q -7.776,0 -14.58,-3.24 -6.48,-3.564 -6.48,-10.368 v -209.952 q 0,-6.804 6.48,-10.044 6.804,-3.24 14.58,-3.24 7.776,0 12.636,1.62 5.184,1.62 9.396,6.48 4.536,4.536 9.396,14.256 l 62.532,120.852 v -129.924 q 0,-7.128 6.48,-10.044 6.804,-3.24 14.58,-3.24 8.1,0 14.58,3.24 6.48,2.916 6.48,10.044 v 209.952 q 0,6.804 -6.48,10.368 -6.48,3.24 -14.58,3.24 -7.452,0 -13.932,-2.916 -6.156,-2.916 -10.044,-10.368 l -69.984,-130.248 v 129.924 q 0,6.804 -6.48,10.368 -6.48,3.24 -14.58,3.24 z"
       style="font-weight:bold;font-size:324px;line-height:1.25"
       id="path850" />
  </g>
  <g
     aria-label="NaN"
     transform="matrix(0.8660254,0.50000005,-0.9999999,0.57735027,0,0)"
     id="text4182-7"
     style="line-height:0%;font-family:Dosis;-inkscape-font-specification:Dosis;letter-spacing:0px;word-spacing:0px;stroke-width:1px">
    <path
       d="m 1509.3611,185.53299 q -7.776,0 -14.58,-3.24 -6.48,-3.564 -6.48,-10.368 v -209.952 q 0,-6.804 6.48,-10.044 6.804,-3.24 14.58,-3.24 7.776,0 12.636,1.62 5.184,1.62 9.396,6.48 4.536,4.536 9.396,14.256 l 62.532,120.852 v -129.924 q 0,-7.128 6.48,-10.044 6.804,-3.24 14.58,-3.24 8.1,0 14.58,3.24 6.48,2.916 6.48,10.044 v 209.952 q 0,6.804 -6.48,10.368 -6.48,3.24 -14.58,3.24 -7.452,0 -13.932,-2.916 -6.156,-2.916 -10.044,-10.368 l -69.984,-130.248 v 129.924 q 0,6.804 -6.48,10.368 -6.48,3.24 -14.58,3.24 z"
       style="font-weight:bold;font-size:324px;line-height:1.25"
       id="path860" />
    <path
       d="m 1714.4528,188.44899 q -17.172,0 -29.808,-10.368 -12.312,-10.692 -12.312,-32.724 0,-18.468 9.396,-28.836 9.72,-10.368 26.568,-14.58 17.172,-4.212 39.528,-4.212 h 13.284 v -4.212 q 0,-7.128 -2.916,-13.932 -2.592,-6.804 -8.748,-11.34 -5.832,-4.536 -16.848,-4.536 -12.312,0 -19.116,2.592 -6.48,2.268 -10.044,4.86 -3.564,2.592 -7.776,2.592 -6.804,0 -10.692,-6.804 -3.564,-6.804 -3.564,-13.932 0,-6.804 8.1,-11.988 8.424,-5.508 20.412,-8.424 11.988,-2.916 23.328,-2.916 25.272,0 40.5,9.072 15.228,9.072 22.032,23.328 7.128,14.256 7.128,30.78 v 79.056 q 0,5.832 -5.832,9.72 -5.832,3.888 -14.58,3.888 -8.1,0 -13.608,-3.888 -5.184,-3.888 -5.184,-9.72 v -9.072 q -8.748,10.044 -20.736,17.82 -11.664,7.776 -28.512,7.776 z m 16.848,-31.104 q 6.804,0 13.608,-4.536 6.804,-4.536 11.34,-11.664 4.86,-7.128 4.86,-14.904 v -6.804 h -4.86 q -10.692,0 -20.412,1.296 -9.72,1.296 -15.876,5.832 -5.832,4.212 -5.832,13.284 0,9.072 4.86,13.284 5.184,4.212 12.312,4.212 z"
       style="font-weight:bold;font-size:324px;line-height:1.25"
       id="path862" />
    <path
       d="m 1856.2938,185.53299 q -7.776,0 -14.58,-3.24 -6.48,-3.564 -6.48,-10.368 v -209.952 q 0,-6.804 6.48,-10.044 6.804,-3.24 14.58,-3.24 7.776,0 12.636,1.62 5.184,1.62 9.396,6.48 4.536,4.536 9.396,14.256 l 62.532,120.852 v -129.924 q 0,-7.128 6.48,-10.044 6.804,-3.24 14.58,-3.24 8.1,0 14.58,3.24 6.48,2.916 6.48,10.044 v 209.952 q 0,6.804 -6.48,10.368 -6.48,3.24 -14.58,3.24 -7.452,0 -13.932,-2.916 -6.156,-2.916 -10.044,-10.368 l -69.984,-130.248 v 129.924 q 0,6.804 -6.48,10.368 -6.48,3.24 -14.58,3.24 z"
       style="font-weight:bold;font-size:324px;line-height:1.25"
       id="path864" />
  </g>
  <path
     inkscape:connector-curvature="0"
     style="fill:#ffe681"
     d="m 1372.8987,1476.0072 0,255.9876 -179.9237,-119.0145 0,-255.9876"
     id="path4-3" />
  <path
     inkscape:connector-curvature="0"
     style="fill:#ffe681"
     d="m 1365.1325,1695.1867 0,255.9875 -179.9237,-119.0144 0,-255.9876"
     id="path4-3-9" />
  <path
     inkscape:connector-curvature="0"
     style="fill:#ffe681"
     d="m 1372.0358,1922.9952 0,255.9876 -179.9237,-119.0145 0,-255.9876"
     id="path4-3-1" />
  <path
     inkscape:connector-curvature="0"
     style="fill:#ffe681"
     d="m 1378.8622,2044.9171 0,251.3144 -211.0914,-116.8417 0,-251.3145"
     id="path4-8" />
  <g
     aria-label="NaN"
     transform="skewY(30.000002)"
     id="text4182-3"
     style="line-height:0%;font-family:Dosis;-inkscape-font-specification:Dosis;letter-spacing:0px;word-spacing:0px;stroke-width:1px">
    <path
       d="m 786.91681,1175.9836 q -7.776,0 -14.58,-3.24 -6.48,-3.564 -6.48,-10.368 V 952.42364 q 0,-6.804 6.48,-10.044 6.804,-3.24 14.58,-3.24 7.776,0 12.636,1.62 5.184,1.62 9.396,6.48 4.536,4.536 9.396,14.256 l 62.532,120.85196 V 952.42364 q 0,-7.128 6.48,-10.044 6.804,-3.24 14.58,-3.24 8.1,0 14.58,3.24 6.48,2.916 6.48,10.044 v 209.95196 q 0,6.804 -6.48,10.368 -6.48,3.24 -14.58,3.24 -7.452,0 -13.932,-2.916 -6.156,-2.916 -10.044,-10.368 l -69.984,-130.248 v 129.924 q 0,6.804 -6.48,10.368 -6.48,3.24 -14.58,3.24 z"
       style="font-weight:bold;font-size:324px;line-height:1.25"
       id="path853" />
    <path
       d="m 992.00848,1178.8996 q -17.172,0 -29.808,-10.368 -12.312,-10.692 -12.312,-32.724 0,-18.468 9.396,-28.836 9.72,-10.368 26.568,-14.58 17.17202,-4.212 39.52802,-4.212 h 13.284 v -4.212 q 0,-7.128 -2.916,-13.932 -2.592,-6.804 -8.748,-11.34 -5.832,-4.536 -16.848,-4.536 -12.31202,0 -19.11602,2.592 -6.48,2.268 -10.044,4.86 -3.564,2.592 -7.776,2.592 -6.804,0 -10.692,-6.804 -3.564,-6.804 -3.564,-13.932 0,-6.804 8.1,-11.988 8.424,-5.508 20.412,-8.424 11.988,-2.916 23.32802,-2.916 25.272,0 40.5,9.072 15.228,9.072 22.032,23.328 7.128,14.256 7.128,30.78 v 79.056 q 0,5.832 -5.832,9.72 -5.832,3.888 -14.58,3.888 -8.1,0 -13.608,-3.888 -5.184,-3.888 -5.184,-9.72 v -9.072 q -8.748,10.044 -20.736,17.82 -11.664,7.776 -28.51202,7.776 z m 16.84802,-31.104 q 6.804,0 13.608,-4.536 6.804,-4.536 11.34,-11.664 4.86,-7.128 4.86,-14.904 v -6.804 h -4.86 q -10.692,0 -20.412,1.296 -9.72,1.296 -15.87602,5.832 -5.832,4.212 -5.832,13.284 0,9.072 4.86,13.284 5.18402,4.212 12.31202,4.212 z"
       style="font-weight:bold;font-size:324px;line-height:1.25"
       id="path855" />
    <path
       d="m 1133.8495,1175.9836 q -7.776,0 -14.58,-3.24 -6.48,-3.564 -6.48,-10.368 V 952.42364 q 0,-6.804 6.48,-10.044 6.804,-3.24 14.58,-3.24 7.776,0 12.636,1.62 5.184,1.62 9.396,6.48 4.536,4.536 9.396,14.256 l 62.532,120.85196 V 952.42364 q 0,-7.128 6.48,-10.044 6.804,-3.24 14.58,-3.24 8.1,0 14.58,3.24 6.48,2.916 6.48,10.044 v 209.95196 q 0,6.804 -6.48,10.368 -6.48,3.24 -14.58,3.24 -7.452,0 -13.932,-2.916 -6.156,-2.916 -10.044,-10.368 l -69.984,-130.248 v 129.924 q 0,6.804 -6.48,10.368 -6.48,3.24 -14.58,3.24 z"
       style="font-weight:bold;font-size:324px;line-height:1.25"
       id="path857" />
  </g>
  <g
     aria-label="orsinium.dev"
     transform="rotate(57.160009)"
     id="text4146"
     style="line-height:0%;font-family:'Nimbus Sans L';-inkscape-font-specification:'Nimbus Sans L';letter-spacing:0px;word-spacing:0px;fill:#808080;stroke-width:1px">
    <path
       d="m 1662.529,800.88502 c -18.4984,0 -29.4974,13.12384 -29.4974,35.12191 0,22.12305 10.999,35.12191 29.6224,35.12191 18.4984,0 29.6224,-13.12385 29.6224,-34.62196 0,-22.74799 -10.7491,-35.62186 -29.7474,-35.62186 z m 0.125,9.62415 c 11.7489,0 18.7483,9.62415 18.7483,25.87272 0,15.49864 -7.2493,25.12279 -18.7483,25.12279 -11.624,0 -18.7484,-9.62415 -18.7484,-25.49775 0,-15.87361 7.1244,-25.49776 18.7484,-25.49776 z"
       style="font-size:124.989px;line-height:1.25"
       id="path1099" />
    <path
       d="m 1706.6501,802.75985 v 65.49424 h 10.499 v -33.99701 c 0.125,-15.74861 6.6245,-22.748 20.9982,-22.37303 v -10.62406 c -1.7498,-0.24998 -2.7498,-0.37497 -3.9996,-0.37497 -6.7495,0 -11.874,3.99965 -17.8735,13.74879 v -11.87396 z"
       style="font-size:124.989px;line-height:1.25"
       id="path1101" />
    <path
       d="m 1795.017,821.00825 c -0.125,-12.87387 -8.6243,-20.12323 -23.7479,-20.12323 -15.2487,0 -25.1228,7.87431 -25.1228,19.99824 0,10.2491 5.2495,15.12367 20.7481,18.87334 l 9.7492,2.37479 c 7.2493,1.74984 10.1241,4.37461 10.1241,8.99921 0,6.24945 -6.1245,10.37408 -15.2487,10.37408 -5.6245,0 -10.374,-1.62485 -12.9988,-4.37461 -1.6249,-1.87484 -2.3748,-3.74967 -2.9998,-8.37426 h -10.999 c 0.5,15.12366 8.9992,22.37303 26.1227,22.37303 16.4986,0 26.9976,-8.12429 26.9976,-20.74818 0,-9.74914 -5.4995,-15.12367 -18.4983,-18.24839 l -9.9992,-2.37479 c -8.4992,-1.99983 -12.1239,-4.74958 -12.1239,-9.37418 0,-6.12446 5.3745,-9.87413 13.8738,-9.87413 8.3743,0 12.8739,3.62468 13.1238,10.49908 z"
       style="font-size:124.989px;line-height:1.25"
       id="path1103" />
    <path
       d="m 1821.5144,802.75985 h -10.3741 v 65.49424 h 10.3741 z m 0,-25.62274 h -10.4991 v 13.12384 h 10.4991 z"
       style="font-size:124.989px;line-height:1.25"
       id="path1105" />
    <path
       d="m 1839.2626,802.75985 v 65.49424 h 10.4991 v -36.12182 c 0,-13.37382 6.9994,-22.12305 17.7484,-22.12305 8.2493,0 13.4989,4.99956 13.4989,12.87386 v 45.37101 h 10.374 v -49.49564 c 0,-10.87405 -8.1242,-17.87343 -20.7481,-17.87343 -9.7492,0 -15.9986,3.74967 -21.7481,12.87387 v -10.99904 z"
       style="font-size:124.989px;line-height:1.25"
       id="path1107" />
    <path
       d="m 1918.7556,802.75985 h -10.3741 v 65.49424 h 10.3741 z m 0,-25.62274 h -10.4991 v 13.12384 h 10.4991 z"
       style="font-size:124.989px;line-height:1.25"
       id="path1109" />
    <path
       d="m 1987.9993,868.25409 v -65.49424 h -10.3741 v 37.12174 c 0,13.37382 -6.9994,22.12305 -17.8734,22.12305 -8.2493,0 -13.4989,-4.99956 -13.4989,-12.87387 v -46.37092 h -10.374 v 50.49556 c 0,10.87404 8.1242,17.87343 20.8731,17.87343 9.6242,0 15.7486,-3.37471 21.8731,-11.99895 v 9.1242 z"
       style="font-size:124.989px;line-height:1.25"
       id="path1111" />
    <path
       d="m 2005.9976,802.75985 v 65.49424 h 10.4991 v -41.12138 c 0,-9.49917 6.8744,-17.12349 15.3737,-17.12349 7.7493,0 12.1239,4.74958 12.1239,13.12384 v 45.12103 h 10.4991 v -41.12138 c 0,-9.49917 6.8744,-17.12349 15.3736,-17.12349 7.6244,0 12.124,4.87457 12.124,13.12384 v 45.12103 h 10.499 v -49.12068 c 0,-11.74896 -6.7494,-18.24839 -18.9983,-18.24839 -8.7492,0 -13.9988,2.62477 -20.1232,9.99912 -3.8747,-6.99938 -9.1242,-9.99912 -17.6235,-9.99912 -8.7492,0 -14.6237,3.24971 -20.1232,11.12402 v -9.24919 z"
       style="font-size:124.989px;line-height:1.25"
       id="path1113" />
    <path
       d="m 2125.2369,855.25523 h -12.9988 v 12.99886 h 12.9988 z"
       style="font-size:124.989px;line-height:1.25"
       id="path1115" />
    <path
       d="m 2197.9805,777.13711 h -10.3741 v 33.87202 c -4.3746,-6.62442 -11.374,-10.12411 -20.1232,-10.12411 -16.9985,0 -28.1225,13.6238 -28.1225,34.49696 0,22.12306 10.749,35.74686 28.4975,35.74686 8.9992,0 15.2486,-3.37471 20.8731,-11.49899 v 8.62424 h 9.2492 z m -28.7475,33.49705 c 11.2491,0 18.3734,9.87413 18.3734,25.62275 0,15.12366 -7.2493,25.12278 -18.2484,25.12278 -11.499,0 -19.1233,-10.1241 -19.1233,-25.37276 0,-15.24866 7.6243,-25.37277 18.9983,-25.37277 z"
       style="font-size:124.989px;line-height:1.25"
       id="path1117" />
    <path
       d="m 2269.7242,839.00666 c 0,-9.99912 -0.7499,-15.99859 -2.6248,-20.87316 -4.2496,-10.74905 -14.2487,-17.24848 -26.4976,-17.24848 -18.2484,0 -29.9974,13.87378 -29.9974,35.49687 0,21.6231 11.249,34.74695 29.7474,34.74695 14.9987,0 25.3728,-8.49926 27.9975,-22.748 h -10.499 c -2.8748,8.62424 -8.7493,13.12384 -17.1235,13.12384 -6.6244,0 -12.249,-2.99973 -15.7486,-8.49925 -2.4998,-3.74967 -3.3747,-7.49934 -3.4997,-13.99877 z m -47.9958,-8.49925 c 0.875,-12.12393 8.2493,-19.99824 18.7484,-19.99824 10.6241,0 17.9984,8.24928 17.9984,19.99824 z"
       style="font-size:124.989px;line-height:1.25"
       id="path1119" />
    <path
       d="m 2308.8456,868.25409 25.1227,-65.49424 h -11.7489 l -18.4984,53.12033 -17.4985,-53.12033 h -11.7489 l 22.998,65.49424 z"
       style="font-size:124.989px;line-height:1.25"
       id="path1121" />
  </g>
</svg>
