<?xml version="1.0" encoding="UTF-8" standalone="no"?>
<!-- Generator: Adobe Illustrator 19.0.0, SVG Export Plug-In . SVG Version: 6.00 Build 0)  -->

<svg
   version="1.1"
   id="Layer_1"
   x="0px"
   y="0px"
   viewBox="0 0 2880 2880"
   xml:space="preserve"
   inkscape:version="1.1.2 (0a00cf5339, 2022-02-04)"
   sodipodi:docname="duck.svg"
   width="2880"
   height="2880"
   xmlns:inkscape="http://www.inkscape.org/namespaces/inkscape"
   xmlns:sodipodi="http://sodipodi.sourceforge.net/DTD/sodipodi-0.dtd"
   xmlns="http://www.w3.org/2000/svg"
   xmlns:svg="http://www.w3.org/2000/svg"
   xmlns:rdf="http://www.w3.org/1999/02/22-rdf-syntax-ns#"
   xmlns:cc="http://creativecommons.org/ns#"
   xmlns:dc="http://purl.org/dc/elements/1.1/"><metadata
   id="metadata87"><rdf:RDF><cc:Work
       rdf:about=""><dc:format>image/svg+xml</dc:format><dc:type
         rdf:resource="http://purl.org/dc/dcmitype/StillImage" /></cc:Work></rdf:RDF></metadata><defs
   id="defs85" /><sodipodi:namedview
   pagecolor="#ffffff"
   bordercolor="#666666"
   borderopacity="1"
   objecttolerance="10"
   gridtolerance="10"
   guidetolerance="10"
   inkscape:pageopacity="0"
   inkscape:pageshadow="2"
   inkscape:window-width="1712"
   inkscape:window-height="860"
   id="namedview83"
   showgrid="true"
   inkscape:snap-bbox="true"
   inkscape:bbox-paths="true"
   inkscape:zoom="0.22513128"
   inkscape:cx="1290.3582"
   inkscape:cy="1612.3926"
   inkscape:window-x="0"
   inkscape:window-y="30"
   inkscape:window-maximized="1"
   inkscape:current-layer="Layer_1"
   fit-margin-top="0"
   fit-margin-left="0"
   fit-margin-right="0"
   fit-margin-bottom="0"
   inkscape:bbox-nodes="true"
   inkscape:snap-bbox-edge-midpoints="true"
   inkscape:snap-bbox-midpoints="true"
   inkscape:snap-global="false"
   inkscape:pagecheckerboard="0"><inkscape:grid
     type="xygrid"
     id="grid4178"
     originx="1161.4396"
     originy="1277.2778" /></sodipodi:namedview><circle
   style="fill:#ffffff;fill-opacity:1;stroke:none;stroke-width:4.9000001;stroke-miterlimit:4;stroke-dasharray:none;stroke-opacity:1"
   id="path4180"
   cx="1440"
   cy="1440"
   r="1440" /><g
   id="g53"
   transform="matrix(4.3636364,0,0,4.3636364,197.49633,230.77162)" /><g
   id="g55"
   transform="matrix(4.3636364,0,0,4.3636364,197.49633,230.77162)" /><g
   id="g57"
   transform="matrix(4.3636364,0,0,4.3636364,197.49633,230.77162)" /><g
   id="g59"
   transform="matrix(4.3636364,0,0,4.3636364,197.49633,230.77162)" /><g
   id="g61"
   transform="matrix(4.3636364,0,0,4.3636364,197.49633,230.77162)" /><g
   id="g63"
   transform="matrix(4.3636364,0,0,4.3636364,197.49633,230.77162)" /><g
   id="g65"
   transform="matrix(4.3636364,0,0,4.3636364,197.49633,230.77162)" /><g
   id="g67"
   transform="matrix(4.3636364,0,0,4.3636364,197.49633,230.77162)" /><g
   id="g69"
   transform="matrix(4.3636364,0,0,4.3636364,197.49633,230.77162)" /><g
   id="g71"
   transform="matrix(4.3636364,0,0,4.3636364,197.49633,230.77162)" /><g
   id="g73"
   transform="matrix(4.3636364,0,0,4.3636364,197.49633,230.77162)" /><g
   id="g75"
   transform="matrix(4.3636364,0,0,4.3636364,197.49633,230.77162)" /><g
   id="g77"
   transform="matrix(4.3636364,0,0,4.3636364,197.49633,230.77162)" /><g
   id="g79"
   transform="matrix(4.3636364,0,0,4.3636364,197.49633,230.77162)" /><g
   id="g81"
   transform="matrix(4.3636364,0,0,4.3636364,197.49633,230.77162)" /><g
   id="g4182"
   transform="matrix(4.3636364,0,0,4.3636364,224.4636,151.17907)"><path
     inkscape:connector-curvature="0"
     id="path3"
     d="M 75.057,420.27096 C 34.774,420.27096 2,387.49696 2,347.21296 l 0,-42.943 c 0,-11.802 9.568,-21.37 21.37,-21.37 11.802,0 21.369,9.568 21.369,21.37 l 0,42.943 c 0,16.716 13.6,30.316 30.317,30.316 11.803,0 21.37,9.568 21.37,21.369 0.002,11.805 -9.567,21.373 -21.369,21.373 z"
     style="fill:#006931;stroke:#000000;stroke-width:4;stroke-miterlimit:4;stroke-dasharray:none;stroke-opacity:1" /><path
     inkscape:connector-curvature="0"
     id="path5"
     d="m 278.40088,161.71142 c 0,-38.723 31.392,-70.115999 70.116,-70.115999 l 36.906,0 c 26.944,0 48.785,21.841999 48.785,48.785999 0,26.943 -21.84,48.785 -48.785,48.785 l -9.454,0 0,191.817 c 0,26.943 -21.842,48.786 -48.784,48.786 -26.943,0 -48.786,-21.843 -48.786,-48.786 l 0,-219.272 0.002,0 z"
     style="fill:#00833e;stroke:#000000;stroke-width:4;stroke-miterlimit:4;stroke-dasharray:none;stroke-opacity:1" /><g
     transform="translate(61.740285,16.117451)"
     id="g4240"><path
       inkscape:connector-curvature="0"
       style="fill:#6bb587"
       d="m 260.609,180.123 0,237.515 c 18.509,-6.929 31.688,-24.771 31.688,-45.698 l 0,-191.817 -31.688,0 z"
       id="path7" /><g
       id="g9"><rect
         x="260.60699"
         y="200.058"
         style="fill:#00833e"
         width="31.687"
         height="3.562"
         id="rect11" /><rect
         x="260.60699"
         y="222.855"
         style="fill:#00833e"
         width="31.687"
         height="3.562"
         id="rect13" /><rect
         x="260.60699"
         y="245.64101"
         style="fill:#00833e"
         width="31.687"
         height="3.562"
         id="rect15" /><rect
         x="260.60699"
         y="268.43799"
         style="fill:#00833e"
         width="31.687"
         height="3.5610001"
         id="rect17" /><rect
         x="260.60699"
         y="291.23499"
         style="fill:#00833e"
         width="31.687"
         height="3.5610001"
         id="rect19" /><rect
         x="260.60699"
         y="314.03201"
         style="fill:#00833e"
         width="31.687"
         height="3.5610001"
         id="rect21" /><rect
         x="260.60699"
         y="336.82901"
         style="fill:#00833e"
         width="31.687"
         height="3.5610001"
         id="rect23" /><rect
         x="260.60699"
         y="359.616"
         style="fill:#00833e"
         width="31.687"
         height="3.5610001"
         id="rect25" /></g></g><g
     transform="translate(85.173717,11.16493)"
     id="g27"><path
       inkscape:connector-curvature="0"
       id="path29"
       d="m 194.728,235.767 c 22.315,0 40.403,-18.088 40.403,-40.403 0,-22.314 -18.089,-40.403 -40.403,-40.403 l 0,80.806 z"
       style="fill:#ffb648" /><path
       inkscape:connector-curvature="0"
       id="path31"
       d="m 194.728,366.838 c 22.315,0 40.403,-18.089 40.403,-40.403 0,-22.314 -18.089,-40.402 -40.403,-40.402 l 0,80.805 z"
       style="fill:#ffb648" /></g><path
     inkscape:connector-curvature="0"
     id="path33"
     d="m 374.979,273.65296 c 26.943,0 48.785,21.842 48.785,48.786 0,26.942 -21.842,48.784 -48.785,48.784 l -241.1,0 c -26.943,0 -48.786,-21.842 -48.786,-48.784 0,-26.943 21.843,-48.786 48.786,-48.786 l 241.1,0 0,0 z"
     style="fill:#006931;stroke:#000000;stroke-width:4;stroke-miterlimit:4;stroke-dasharray:none;stroke-opacity:1" /><g
     transform="translate(-7.1805603,19.7408)"
     id="g35"><path
       inkscape:connector-curvature="0"
       id="path37"
       d="m 285.741,255.413 c 0,22.315 18.089,40.402 40.402,40.402 22.315,0 40.403,-18.088 40.403,-40.402 l -80.805,0 z"
       style="fill:#ffb648" /><path
       inkscape:connector-curvature="0"
       id="path39"
       d="m 154.671,255.413 c 0,22.315 18.088,40.402 40.403,40.402 22.315,0 40.403,-18.088 40.403,-40.402 l -80.806,0 z"
       style="fill:#ffb648" /></g><path
     inkscape:connector-curvature="0"
     id="path41"
     d="m 448.853,350.11496 c 26.943,0 48.785,21.842 48.785,48.785 0,26.944 -21.842,48.786 -48.785,48.786 l -388.848,0 c -26.943,0 -48.786,-21.842 -48.786,-48.786 0,-26.943 21.842,-48.785 48.786,-48.785 l 388.848,0 z"
     style="fill:#00833e;stroke:#000000;stroke-width:4;stroke-miterlimit:4;stroke-dasharray:none;stroke-opacity:1" /><g
     transform="translate(-4.9722169,20.776914)"
     id="g43"><path
       inkscape:connector-curvature="0"
       id="path45"
       d="m 220.206,331.875 c 0,22.315 18.088,40.403 40.402,40.403 22.314,0 40.403,-18.088 40.403,-40.403 l -80.805,0 z"
       style="fill:#ffb648" /><path
       inkscape:connector-curvature="0"
       id="path47"
       d="m 89.136,331.875 c 0,22.315 18.089,40.403 40.404,40.403 22.314,0 40.402,-18.088 40.402,-40.403 l -80.806,0 z"
       style="fill:#ffb648" /><path
       inkscape:connector-curvature="0"
       id="path49"
       d="m 432.083,331.875 c 0,22.315 -18.089,40.403 -40.403,40.403 -22.314,0 -40.403,-18.088 -40.403,-40.403 l 80.806,0 z"
       style="fill:#ffb648" /></g><path
     inkscape:connector-curvature="0"
     id="path17"
     d="m 432.29807,126.15557 c 0,0 2.42954,27.02716 -13.7014,39.26894 -16.13094,12.24178 10.7537,31.43946 42.65788,13.35473 4.58278,-2.59768 9.22584,-4.24827 13.81567,-5.17046 5.9087,-1.18645 10.06178,-5.28769 10.06178,-10.02439 l 0,0 c 0,-4.55505 -3.82278,-8.6077 -9.45049,-9.89864 -3.74215,-0.85841 -8.494,-1.37113 -14.06848,-0.78125 0,0 19.2931,-13.05461 14.52637,-28.16016 -1.54037,-4.8825 -9.00824,-6.91459 -14.31112,-4.02895 -6.85658,3.73006 -17.49835,7.66303 -29.53021,5.44018 z"
     style="fill:#ffb641;stroke:#000000;stroke-width:4;stroke-miterlimit:4;stroke-dasharray:none;stroke-opacity:1" /><path
     inkscape:connector-curvature="0"
     id="path15"
     d="m 84.156611,340.65898 c -8.509,8.402 -9.976,21.616 -3.493,31.663 18.932999,29.341 66.348999,83.755 157.614999,83.755 55.579,0 114.34,-34.76 125.283,-92.311 9.037,-47.531 -18.682,-105.633 -73.123,-103.134 -39.893,1.832 -63.227,36.319 -96.939,52.264 -23.683,11.202 -49.354,18.105 -75.411,20.683 -12.402,1.227 -23.947,-2.78 -33.931999,7.08 z"
     style="fill:#ffb641;stroke:#000000;stroke-width:4;stroke-miterlimit:4;stroke-dasharray:none;stroke-opacity:1" /><path
     inkscape:connector-curvature="0"
     id="path23"
     d="m 390.63397,127.92575 -3.607,-15.269 c -0.952,-4.031 -4.99,-6.525 -9.023,-5.575 -4.031,0.953 -6.527,4.992 -5.575,9.023 0,0 3.604,15.255 3.607,15.269 0.935,3.96 5.068,6.508 9.023,5.575 4.031,-0.952 6.528,-4.991 5.575,-9.023 z" /></g><g
   aria-label="@orsinium"
   transform="rotate(-32.839991)"
   id="text4146"
   style="line-height:0%;font-family:'Nimbus Sans L';-inkscape-font-specification:'Nimbus Sans L';letter-spacing:0px;word-spacing:0px;fill:#808080;stroke-width:1px"><path
     d="m 132.19305,3264.6911 -3.43719,10.3116 c -3.9059,-9.0617 -10.46781,-13.5926 -19.06079,-13.5926 -20.935621,0 -40.152648,20.6232 -40.152648,43.2774 0,16.2486 10.936519,28.5912 25.466466,28.5912 8.280512,0 14.998652,-3.4372 22.185512,-11.249 1.40612,7.968 7.18686,12.0302 17.18596,12.0302 11.7177,0 21.09186,-4.5309 29.05989,-13.905 8.59298,-9.9991 13.4363,-22.498 13.4363,-34.8406 0,-31.8722 -30.15355,-58.1198 -66.55653,-58.1198 -18.592087,0 -38.277822,7.6555 -52.02659,20.1544 -15.311127,13.905 -24.685287,34.8406 -24.685287,55.3075 0,34.6844 31.559671,62.4944 71.087377,62.4944 11.56146,0 23.90411,-2.3435 35.30933,-6.5619 l -4.3746,-10.4678 c -12.96759,3.5934 -21.56057,4.9996 -30.30979,4.9996 -32.96579,0 -58.432257,-22.9667 -58.432257,-52.8078 0,-32.8096 28.43495,-61.0883 61.400747,-61.0883 29.99731,0 54.99507,21.8731 54.99507,48.1207 0,18.1234 -12.96759,35.7781 -26.24765,35.7781 -4.21837,0 -7.8118,-3.1248 -7.8118,-6.8744 0,-1.4061 0.62494,-4.2184 1.87483,-7.8118 l 14.06124,-43.7461 z m -23.43539,6.7181 c 8.74921,0 15.15489,6.4057 14.68618,14.9987 -0.31247,7.8118 -4.53084,20.9356 -8.43674,26.7164 -4.37461,6.4056 -10.15534,10.1553 -15.936076,10.1553 -8.592979,0 -15.467363,-8.1243 -15.467363,-18.4359 0,-17.4984 12.030171,-33.4345 25.153999,-33.4345 z"
     style="font-size:156.236px;line-height:1.25"
     id="path869" /><path
     d="m 229.37175,3258.7541 c -23.12293,0 -36.8717,16.4048 -36.8717,43.9023 0,27.6538 13.74877,43.9024 37.02793,43.9024 23.12293,0 37.02793,-16.4048 37.02793,-43.2774 0,-28.435 -13.43629,-44.5273 -37.18416,-44.5273 z m 0.15623,12.0302 c 14.68619,0 23.4354,12.0302 23.4354,32.3409 0,19.3732 -9.06169,31.4034 -23.4354,31.4034 -14.52994,0 -23.4354,-12.0302 -23.4354,-31.8722 0,-19.8419 8.90546,-31.8721 23.4354,-31.8721 z"
     style="font-size:156.236px;line-height:1.25"
     id="path871" /><path
     d="m 284.52301,3261.0977 v 81.8676 h 13.12383 v -42.4962 c 0.15623,-19.6857 8.2805,-28.4349 26.24764,-27.9662 v -13.2801 c -2.1873,-0.3124 -3.43719,-0.4687 -4.99955,-0.4687 -8.43674,0 -14.84242,4.9996 -22.34175,17.186 v -14.8424 z"
     style="font-size:156.236px;line-height:1.25"
     id="path873" /><path
     d="m 394.98145,3283.9081 c -0.15623,-16.0923 -10.78028,-25.154 -29.68484,-25.154 -19.06079,0 -31.40343,9.8429 -31.40343,24.9978 0,12.8113 6.56191,18.9045 25.93517,23.5916 l 12.18641,2.9685 c 9.06169,2.1873 12.65512,5.4683 12.65512,11.249 0,7.8118 -7.65557,12.9676 -19.06079,12.9676 -7.03062,0 -12.96759,-2.0311 -16.24855,-5.4683 -2.03107,-2.3435 -2.96848,-4.6871 -3.74966,-10.4678 h -13.74877 c 0.62494,18.9046 11.24899,27.9663 32.65332,27.9663 20.62315,0 33.74698,-10.1554 33.74698,-25.9352 0,-12.1864 -6.87439,-18.9046 -23.12293,-22.8105 l -12.49888,-2.9685 c -10.62405,-2.4997 -15.15489,-5.9369 -15.15489,-11.7177 0,-7.6555 6.71815,-12.3426 17.3422,-12.3426 10.46781,0 16.0923,4.5308 16.40477,13.1238 z"
     style="font-size:156.236px;line-height:1.25"
     id="path875" /><path
     d="M 428.10319,3261.0977 H 415.1356 v 81.8676 h 12.96759 z m 0,-32.0284 h -13.12382 v 16.4048 h 13.12382 z"
     style="font-size:156.236px;line-height:1.25"
     id="path877" /><path
     d="m 450.28843,3261.0977 v 81.8676 h 13.12382 v -45.1522 c 0,-16.7172 8.74921,-27.6537 22.18551,-27.6537 10.31158,0 16.87349,6.2494 16.87349,16.0923 v 56.7136 h 12.96758 v -61.8694 c 0,-13.5926 -10.15534,-22.3418 -25.93517,-22.3418 -12.18641,0 -19.99821,4.6871 -27.18506,16.0923 v -13.7487 z"
     style="font-size:156.236px;line-height:1.25"
     id="path879" /><path
     d="M 549.65449,3261.0977 H 536.6869 v 81.8676 h 12.96759 z m 0,-32.0284 h -13.12382 v 16.4048 h 13.12382 z"
     style="font-size:156.236px;line-height:1.25"
     id="path881" /><path
     d="m 636.20892,3342.9653 v -81.8676 h -12.96758 v 46.4021 c 0,16.7172 -8.74922,27.6537 -22.34175,27.6537 -10.31158,0 -16.87349,-6.2494 -16.87349,-16.0923 v -57.9635 h -12.96759 v 63.1193 c 0,13.5925 10.15534,22.3418 26.09142,22.3418 12.03017,0 19.68573,-4.2184 27.34129,-14.9987 v 11.4052 z"
     style="font-size:156.236px;line-height:1.25"
     id="path883" /><path
     d="m 658.70688,3261.0977 v 81.8676 h 13.12383 v -51.4016 c 0,-11.8739 8.59298,-21.4043 19.21702,-21.4043 9.68663,0 15.15489,5.9369 15.15489,16.4047 v 56.4012 h 13.12383 v -51.4016 c 0,-11.8739 8.59298,-21.4043 19.21702,-21.4043 9.5304,0 15.1549,6.0932 15.1549,16.4047 v 56.4012 h 13.12382 v -61.4007 c 0,-14.6862 -8.43674,-22.8105 -23.74787,-22.8105 -10.93652,0 -17.49843,3.281 -25.154,12.4989 -4.84331,-8.7492 -11.40522,-12.4989 -22.02927,-12.4989 -10.93652,0 -18.27961,4.0622 -25.154,13.905 v -11.5614 z"
     style="font-size:156.236px;line-height:1.25"
     id="path885" /></g>
</svg>
