<?xml version="1.0" encoding="UTF-8" standalone="no"?>
<!-- Generator: Adobe Illustrator 19.0.0, SVG Export Plug-In . SVG Version: 6.00 Build 0)  -->

<svg
   xmlns:dc="http://purl.org/dc/elements/1.1/"
   xmlns:cc="http://creativecommons.org/ns#"
   xmlns:rdf="http://www.w3.org/1999/02/22-rdf-syntax-ns#"
   xmlns:svg="http://www.w3.org/2000/svg"
   xmlns="http://www.w3.org/2000/svg"
   xmlns:sodipodi="http://sodipodi.sourceforge.net/DTD/sodipodi-0.dtd"
   xmlns:inkscape="http://www.inkscape.org/namespaces/inkscape"
   version="1.1"
   id="Layer_1"
   x="0px"
   y="0px"
   viewBox="0 0 2880 2880"
   xml:space="preserve"
   inkscape:version="0.91 r13725"
   sodipodi:docname="duck.svg"
   width="2880"
   height="2880"><metadata
     id="metadata87"><rdf:RDF><cc:Work
         rdf:about=""><dc:format>image/svg+xml</dc:format><dc:type
           rdf:resource="http://purl.org/dc/dcmitype/StillImage" /><dc:title></dc:title></cc:Work></rdf:RDF></metadata><defs
     id="defs85" /><sodipodi:namedview
     pagecolor="#ffffff"
     bordercolor="#666666"
     borderopacity="1"
     objecttolerance="10"
     gridtolerance="10"
     guidetolerance="10"
     inkscape:pageopacity="0"
     inkscape:pageshadow="2"
     inkscape:window-width="1920"
     inkscape:window-height="980"
     id="namedview83"
     showgrid="true"
     inkscape:snap-bbox="true"
     inkscape:bbox-paths="true"
     inkscape:zoom="0.22513128"
     inkscape:cx="1291.8751"
     inkscape:cy="1614.1807"
     inkscape:window-x="0"
     inkscape:window-y="34"
     inkscape:window-maximized="1"
     inkscape:current-layer="Layer_1"
     fit-margin-top="0"
     fit-margin-left="0"
     fit-margin-right="0"
     fit-margin-bottom="0"
     inkscape:bbox-nodes="true"
     inkscape:snap-bbox-edge-midpoints="true"
     inkscape:snap-bbox-midpoints="true"
     inkscape:snap-global="false"><inkscape:grid
       type="xygrid"
       id="grid4178"
       originx="1161.4396"
       originy="1277.2778" /></sodipodi:namedview><circle
     style="fill:#ffffff;fill-opacity:1;stroke:none;stroke-width:4.9000001;stroke-miterlimit:4;stroke-dasharray:none;stroke-opacity:1"
     id="path4180"
     cx="1440"
     cy="1440"
     r="1440" /><g
     id="g53"
     transform="matrix(4.3636364,0,0,4.3636364,197.49633,230.77162)" /><g
     id="g55"
     transform="matrix(4.3636364,0,0,4.3636364,197.49633,230.77162)" /><g
     id="g57"
     transform="matrix(4.3636364,0,0,4.3636364,197.49633,230.77162)" /><g
     id="g59"
     transform="matrix(4.3636364,0,0,4.3636364,197.49633,230.77162)" /><g
     id="g61"
     transform="matrix(4.3636364,0,0,4.3636364,197.49633,230.77162)" /><g
     id="g63"
     transform="matrix(4.3636364,0,0,4.3636364,197.49633,230.77162)" /><g
     id="g65"
     transform="matrix(4.3636364,0,0,4.3636364,197.49633,230.77162)" /><g
     id="g67"
     transform="matrix(4.3636364,0,0,4.3636364,197.49633,230.77162)" /><g
     id="g69"
     transform="matrix(4.3636364,0,0,4.3636364,197.49633,230.77162)" /><g
     id="g71"
     transform="matrix(4.3636364,0,0,4.3636364,197.49633,230.77162)" /><g
     id="g73"
     transform="matrix(4.3636364,0,0,4.3636364,197.49633,230.77162)" /><g
     id="g75"
     transform="matrix(4.3636364,0,0,4.3636364,197.49633,230.77162)" /><g
     id="g77"
     transform="matrix(4.3636364,0,0,4.3636364,197.49633,230.77162)" /><g
     id="g79"
     transform="matrix(4.3636364,0,0,4.3636364,197.49633,230.77162)" /><g
     id="g81"
     transform="matrix(4.3636364,0,0,4.3636364,197.49633,230.77162)" /><g
     id="g4182"
     transform="matrix(4.3636364,0,0,4.3636364,224.4636,151.17907)"><path
       inkscape:connector-curvature="0"
       id="path3"
       d="M 75.057,420.27096 C 34.774,420.27096 2,387.49696 2,347.21296 l 0,-42.943 c 0,-11.802 9.568,-21.37 21.37,-21.37 11.802,0 21.369,9.568 21.369,21.37 l 0,42.943 c 0,16.716 13.6,30.316 30.317,30.316 11.803,0 21.37,9.568 21.37,21.369 0.002,11.805 -9.567,21.373 -21.369,21.373 z"
       style="fill:#006931;stroke:#000000;stroke-width:4;stroke-miterlimit:4;stroke-dasharray:none;stroke-opacity:1" /><path
       inkscape:connector-curvature="0"
       id="path5"
       d="m 278.40088,161.71142 c 0,-38.723 31.392,-70.115999 70.116,-70.115999 l 36.906,0 c 26.944,0 48.785,21.841999 48.785,48.785999 0,26.943 -21.84,48.785 -48.785,48.785 l -9.454,0 0,191.817 c 0,26.943 -21.842,48.786 -48.784,48.786 -26.943,0 -48.786,-21.843 -48.786,-48.786 l 0,-219.272 0.002,0 z"
       style="fill:#00833e;stroke:#000000;stroke-width:4;stroke-miterlimit:4;stroke-dasharray:none;stroke-opacity:1" /><g
       transform="translate(61.740285,16.117451)"
       id="g4240"><path
         inkscape:connector-curvature="0"
         style="fill:#6bb587"
         d="m 260.609,180.123 0,237.515 c 18.509,-6.929 31.688,-24.771 31.688,-45.698 l 0,-191.817 -31.688,0 z"
         id="path7" /><g
         id="g9"><rect
           x="260.60699"
           y="200.058"
           style="fill:#00833e"
           width="31.687"
           height="3.562"
           id="rect11" /><rect
           x="260.60699"
           y="222.855"
           style="fill:#00833e"
           width="31.687"
           height="3.562"
           id="rect13" /><rect
           x="260.60699"
           y="245.64101"
           style="fill:#00833e"
           width="31.687"
           height="3.562"
           id="rect15" /><rect
           x="260.60699"
           y="268.43799"
           style="fill:#00833e"
           width="31.687"
           height="3.5610001"
           id="rect17" /><rect
           x="260.60699"
           y="291.23499"
           style="fill:#00833e"
           width="31.687"
           height="3.5610001"
           id="rect19" /><rect
           x="260.60699"
           y="314.03201"
           style="fill:#00833e"
           width="31.687"
           height="3.5610001"
           id="rect21" /><rect
           x="260.60699"
           y="336.82901"
           style="fill:#00833e"
           width="31.687"
           height="3.5610001"
           id="rect23" /><rect
           x="260.60699"
           y="359.616"
           style="fill:#00833e"
           width="31.687"
           height="3.5610001"
           id="rect25" /></g></g><g
       transform="translate(85.173717,11.16493)"
       id="g27"><path
         inkscape:connector-curvature="0"
         id="path29"
         d="m 194.728,235.767 c 22.315,0 40.403,-18.088 40.403,-40.403 0,-22.314 -18.089,-40.403 -40.403,-40.403 l 0,80.806 z"
         style="fill:#ffb648" /><path
         inkscape:connector-curvature="0"
         id="path31"
         d="m 194.728,366.838 c 22.315,0 40.403,-18.089 40.403,-40.403 0,-22.314 -18.089,-40.402 -40.403,-40.402 l 0,80.805 z"
         style="fill:#ffb648" /></g><path
       inkscape:connector-curvature="0"
       id="path33"
       d="m 374.979,273.65296 c 26.943,0 48.785,21.842 48.785,48.786 0,26.942 -21.842,48.784 -48.785,48.784 l -241.1,0 c -26.943,0 -48.786,-21.842 -48.786,-48.784 0,-26.943 21.843,-48.786 48.786,-48.786 l 241.1,0 0,0 z"
       style="fill:#006931;stroke:#000000;stroke-width:4;stroke-miterlimit:4;stroke-dasharray:none;stroke-opacity:1" /><g
       transform="translate(-7.1805603,19.7408)"
       id="g35"><path
         inkscape:connector-curvature="0"
         id="path37"
         d="m 285.741,255.413 c 0,22.315 18.089,40.402 40.402,40.402 22.315,0 40.403,-18.088 40.403,-40.402 l -80.805,0 z"
         style="fill:#ffb648" /><path
         inkscape:connector-curvature="0"
         id="path39"
         d="m 154.671,255.413 c 0,22.315 18.088,40.402 40.403,40.402 22.315,0 40.403,-18.088 40.403,-40.402 l -80.806,0 z"
         style="fill:#ffb648" /></g><path
       inkscape:connector-curvature="0"
       id="path41"
       d="m 448.853,350.11496 c 26.943,0 48.785,21.842 48.785,48.785 0,26.944 -21.842,48.786 -48.785,48.786 l -388.848,0 c -26.943,0 -48.786,-21.842 -48.786,-48.786 0,-26.943 21.842,-48.785 48.786,-48.785 l 388.848,0 z"
       style="fill:#00833e;stroke:#000000;stroke-width:4;stroke-miterlimit:4;stroke-dasharray:none;stroke-opacity:1" /><g
       transform="translate(-4.9722169,20.776914)"
       id="g43"><path
         inkscape:connector-curvature="0"
         id="path45"
         d="m 220.206,331.875 c 0,22.315 18.088,40.403 40.402,40.403 22.314,0 40.403,-18.088 40.403,-40.403 l -80.805,0 z"
         style="fill:#ffb648" /><path
         inkscape:connector-curvature="0"
         id="path47"
         d="m 89.136,331.875 c 0,22.315 18.089,40.403 40.404,40.403 22.314,0 40.402,-18.088 40.402,-40.403 l -80.806,0 z"
         style="fill:#ffb648" /><path
         inkscape:connector-curvature="0"
         id="path49"
         d="m 432.083,331.875 c 0,22.315 -18.089,40.403 -40.403,40.403 -22.314,0 -40.403,-18.088 -40.403,-40.403 l 80.806,0 z"
         style="fill:#ffb648" /></g><path
       inkscape:connector-curvature="0"
       id="path17"
       d="m 432.29807,126.15557 c 0,0 2.42954,27.02716 -13.7014,39.26894 -16.13094,12.24178 10.7537,31.43946 42.65788,13.35473 4.58278,-2.59768 9.22584,-4.24827 13.81567,-5.17046 5.9087,-1.18645 10.06178,-5.28769 10.06178,-10.02439 l 0,0 c 0,-4.55505 -3.82278,-8.6077 -9.45049,-9.89864 -3.74215,-0.85841 -8.494,-1.37113 -14.06848,-0.78125 0,0 19.2931,-13.05461 14.52637,-28.16016 -1.54037,-4.8825 -9.00824,-6.91459 -14.31112,-4.02895 -6.85658,3.73006 -17.49835,7.66303 -29.53021,5.44018 z"
       style="fill:#ffb641;stroke:#000000;stroke-width:4;stroke-miterlimit:4;stroke-dasharray:none;stroke-opacity:1" /><path
       inkscape:connector-curvature="0"
       id="path15"
       d="m 84.156611,340.65898 c -8.509,8.402 -9.976,21.616 -3.493,31.663 18.932999,29.341 66.348999,83.755 157.614999,83.755 55.579,0 114.34,-34.76 125.283,-92.311 9.037,-47.531 -18.682,-105.633 -73.123,-103.134 -39.893,1.832 -63.227,36.319 -96.939,52.264 -23.683,11.202 -49.354,18.105 -75.411,20.683 -12.402,1.227 -23.947,-2.78 -33.931999,7.08 z"
       style="fill:#ffb641;stroke:#000000;stroke-width:4;stroke-miterlimit:4;stroke-dasharray:none;stroke-opacity:1" /><path
       inkscape:connector-curvature="0"
       id="path23"
       d="m 390.63397,127.92575 -3.607,-15.269 c -0.952,-4.031 -4.99,-6.525 -9.023,-5.575 -4.031,0.953 -6.527,4.992 -5.575,9.023 0,0 3.604,15.255 3.607,15.269 0.935,3.96 5.068,6.508 9.023,5.575 4.031,-0.952 6.528,-4.991 5.575,-9.023 z" /></g><text
     xml:space="preserve"
     style="font-style:normal;font-variant:normal;font-weight:normal;font-stretch:normal;font-size:112.49024963px;line-height:125%;font-family:'Nimbus Sans L';-inkscape-font-specification:'Nimbus Sans L';letter-spacing:0px;word-spacing:0px;fill:#808080;fill-opacity:1;stroke:none;stroke-width:1px;stroke-linecap:butt;stroke-linejoin:miter;stroke-opacity:1"
     x="28.29612"
     y="3342.9653"
     id="text4146"
     sodipodi:linespacing="125%"
     transform="matrix(0.8401883,-0.54229477,0.54229477,0.8401883,0,0)"><tspan
       sodipodi:role="line"
       id="tspan4148"
       x="28.29612"
       y="3342.9653"
       style="font-size:156.2364502px;fill:#808080">@orsinium</tspan></text>
</svg>