<?xml version="1.0" encoding="UTF-8" standalone="no"?>
<!-- Created with Inkscape (http://www.inkscape.org/) -->

<svg
   width="99.977997mm"
   height="46.263016mm"
   viewBox="0 0 99.977997 46.263016"
   version="1.1"
   id="svg5"
   inkscape:version="1.1.2 (0a00cf5339, 2022-02-04)"
   sodipodi:docname="lousy-sticker.svg"
   inkscape:export-filename="/home/gram/Documents/craft/flat-art/lousy-sticker.png"
   inkscape:export-xdpi="300.08801"
   inkscape:export-ydpi="300.08801"
   xmlns:inkscape="http://www.inkscape.org/namespaces/inkscape"
   xmlns:sodipodi="http://sodipodi.sourceforge.net/DTD/sodipodi-0.dtd"
   xmlns:xlink="http://www.w3.org/1999/xlink"
   xmlns="http://www.w3.org/2000/svg"
   xmlns:svg="http://www.w3.org/2000/svg">
  <sodipodi:namedview
     id="namedview7"
     pagecolor="#ffffff"
     bordercolor="#666666"
     borderopacity="1.0"
     inkscape:pageshadow="2"
     inkscape:pageopacity="0.0"
     inkscape:pagecheckerboard="0"
     inkscape:document-units="mm"
     showgrid="false"
     inkscape:zoom="0.87560017"
     inkscape:cx="113.63634"
     inkscape:cy="3.4262214"
     inkscape:window-width="1712"
     inkscape:window-height="860"
     inkscape:window-x="0"
     inkscape:window-y="30"
     inkscape:window-maximized="1"
     inkscape:current-layer="layer1"
     fit-margin-top="0"
     fit-margin-left="0"
     fit-margin-right="0"
     fit-margin-bottom="0" />
  <defs
     id="defs2">
    <linearGradient
       inkscape:collect="always"
       id="linearGradient53074">
      <stop
         style="stop-color:#019fe3;stop-opacity:1;"
         offset="0"
         id="stop53070" />
      <stop
         style="stop-color:#019fe3;stop-opacity:0;"
         offset="1"
         id="stop53072" />
    </linearGradient>
    <linearGradient
       inkscape:collect="always"
       xlink:href="#linearGradient53074"
       id="linearGradient53076"
       x1="152.67641"
       y1="102.41531"
       x2="-88.938118"
       y2="102.79961"
       gradientUnits="userSpaceOnUse" />
  </defs>
  <g
     inkscape:label="Layer 1"
     inkscape:groupmode="layer"
     id="layer1"
     transform="translate(-53.180115,-79.130577)">
    <rect
       style="opacity:1;fill:url(#linearGradient53076);fill-opacity:1;stroke:none;stroke-width:0.264999;stroke-linecap:round;stroke-linejoin:round;stroke-opacity:0.984354"
       id="rect51772"
       width="99.977997"
       height="46.263016"
       x="53.180115"
       y="79.130577"
       ry="4.9331322" />
    <g
       aria-label="I gave a tech talk
and all I've got
is this lousy sticker "
       id="text3092"
       style="font-size:8.46667px;line-height:1.25;font-family:'Josefin Sans';-inkscape-font-specification:'Josefin Sans';text-align:center;text-anchor:middle;fill:#ffffff;stroke-width:0.264583">
      <path
         d="m 62.309025,93.25325 q 0.0085,0 0.0508,-0.0254 0.04233,-0.03387 0.110067,-0.06773 0.0762,-0.03387 0.160867,-0.03387 0.135467,0 0.2286,0.0762 0.1016,0.06773 0.1016,0.186267 0,0.186267 -0.2794,0.3556 -0.2794,0.160867 -1.058334,0.4572 -0.508,0.194734 -0.728134,0.194734 -0.135466,0 -0.364066,-0.06773 -0.245534,-0.06773 -0.338667,-0.143933 -0.09313,-0.0762 -0.09313,-0.194733 0,-0.127 0.06773,-0.169334 0.06773,-0.04233 0.262467,-0.04233 0.296333,0 0.753533,-0.194734 l 0.423334,-0.194733 -0.0762,-1.583267 q -0.0762,-1.583268 -0.0762,-2.506135 v -0.905933 l -0.245534,0.06773 q -0.414867,0.118533 -0.804333,0.118533 -0.491067,0 -0.491067,-0.186266 0,-0.110067 0.296333,-0.237067 0.296334,-0.135467 0.753534,-0.2794 0.465667,-0.143934 0.592667,-0.194734 0.09313,-0.04233 0.550333,-0.04233 0.5842,0 0.745067,0.05927 0.05927,0.0254 0.110067,0.110066 0.0508,0.08467 0.0508,0.160867 0,0.1524 -0.143933,0.2286 -0.143934,0.06773 -0.558801,0.118534 l -0.254,0.03387 0.01693,1.473201 q 0.05927,3.429001 0.237066,3.429001 z"
         style="font-family:Purisa;-inkscape-font-specification:Purisa"
         id="path7584" />
      <path
         d="m 73.789824,95.844051 q 0.414866,0 0.414866,-0.364066 0,-0.618067 -0.0508,-1.092201 -0.04233,-0.465667 -0.110066,-0.7874 -0.05927,-0.321734 -0.06773,-0.465667 -0.05927,-0.8636 -0.118533,-0.8636 -0.03387,0 -0.127,0.1524 -0.211667,0.313266 -0.6858,0.702733 -0.474134,0.389467 -0.787401,0.508 -0.364066,0.143934 -0.804333,0.143934 -0.270934,0 -0.4318,-0.06773 -0.152401,-0.06773 -0.406401,-0.287866 -0.245533,-0.220134 -0.347133,-0.389467 -0.1016,-0.169334 -0.160867,-0.4826 -0.05927,-0.313267 -0.05927,-0.533401 0,-0.160866 0.0254,-0.237066 0.05927,-0.2286 0.313267,-0.711201 0.254,-0.4826 0.465667,-0.753533 0.1778,-0.237067 0.6604,-0.550334 0.491067,-0.321733 0.863601,-0.440267 0.389467,-0.127 0.889,-0.127 0.626534,0 1.0414,0.220134 0.414867,0.211667 0.414867,0.6604 0,0.254 -0.127,0.626534 -0.118533,0.372533 -0.118533,0.651933 0,0.143934 0.194733,2.802468 l 0.127,1.752601 -0.296333,0.237066 q -0.237067,0.194734 -0.4826,0.194734 -0.448734,0 -1.092201,-0.2286 -0.643467,-0.220134 -1.109134,-0.516467 -0.465666,-0.287867 -0.465666,-0.474134 0,-0.220133 0.2286,-0.541866 0.237066,-0.321734 0.397933,-0.321734 0.186267,0 0.186267,0.127 0,0.0762 -0.0762,0.2286 -0.0762,0.1524 -0.0762,0.296334 0,0.237066 0.313267,0.414866 0.313266,0.177801 0.5334,0.177801 0.127,0 0.414867,0.169333 0.296333,0.169333 0.516467,0.169333 z m -3.217335,-3.843868 q 0,0.491067 0.254,0.897467 0.254,0.4064 0.635,0.4064 0.516467,0 1.109134,-0.465667 0.601134,-0.474133 0.973667,-1.176867 0.2032,-0.397933 0.347134,-0.905933 0.1524,-0.516467 0.1524,-0.812801 0,-0.169333 -0.05927,-0.2032 -0.194733,-0.1016 -0.618067,-0.1016 -0.389467,0 -0.668867,0.08467 -0.7366,0.211667 -1.430867,0.9906 -0.694267,0.778934 -0.694267,1.286934 z"
         style="font-family:Purisa;-inkscape-font-specification:Purisa"
         id="path7586" />
      <path
         d="m 78.480347,90.027449 q -0.389467,0 -0.829734,0.160867 -0.4318,0.160866 -0.770467,0.3302 -0.338667,0.160867 -0.491067,0.160867 -0.1016,0 -0.1016,-0.08467 0,-0.118533 0.0508,-0.2032 0.0508,-0.08467 0.186267,-0.160867 0.135467,-0.0762 0.254,-0.127 0.127,-0.0508 0.397934,-0.143933 0.270933,-0.1016 0.465666,-0.186267 0.457201,-0.1778 0.770467,-0.1778 0.558801,0 0.872067,0.6096 0.1524,0.296334 0.1778,0.550334 0.0254,0.245533 0.04233,1.397 0.0085,0.643467 0.0254,1.083734 0.01693,0.4318 0.03387,0.550334 l 0.01693,0.110066 q 0,0.118534 -0.110067,0.254 -0.1016,0.135467 -0.1524,0.135467 -0.169333,0 -0.262467,-0.5334 -0.09313,-0.541867 -0.1016,-0.541867 -0.0254,0 -0.0762,0.09313 -0.169333,0.2794 -0.6858,0.618067 -0.508,0.3302 -0.855134,0.3302 -0.211667,0 -0.499533,-0.0762 -0.2794,-0.08467 -0.4064,-0.1778 -0.09313,-0.0762 -0.160867,-0.3048 -0.05927,-0.2286 -0.05927,-0.465667 0,-0.3556 0.186267,-0.6096 0.194733,-0.262467 0.6858,-0.5334 0.5334,-0.313267 1.032934,-0.313267 0.2032,0 0.338667,0.06773 0.135466,0.06773 0.2032,0.143934 0.06773,0.06773 0.110066,0.06773 0.03387,0 0.160867,0.09313 0.127,0.08467 0.135467,0.08467 0.03387,0 0.03387,-0.186267 0,-1.134533 -0.160867,-1.5748 -0.1524,-0.440267 -0.4572,-0.440267 z m 0.381,2.624668 q 0,-0.03387 -0.0254,-0.0762 -0.01693,-0.0508 -0.08467,-0.110067 -0.05927,-0.06773 -0.160867,-0.118533 -0.09313,-0.05927 -0.262466,-0.09313 -0.169334,-0.04233 -0.381001,-0.04233 -0.364066,0 -0.643466,0.127 -0.270934,0.127 -0.406401,0.321733 -0.135466,0.194734 -0.2032,0.364067 -0.05927,0.160867 -0.05927,0.287867 0,0.211667 0.03387,0.287867 0.04233,0.0762 0.194734,0.160867 0.186266,0.09313 0.338667,0.09313 0.287866,0 0.7112,-0.2032 0.4318,-0.211667 0.4318,-0.3048 0,-0.06773 0.254,-0.321734 0.262467,-0.262467 0.262467,-0.372533 z"
         style="font-family:Purisa;-inkscape-font-specification:Purisa"
         id="path7588" />
      <path
         d="m 84.08528,90.120582 q 0,-0.194733 0.118533,-0.389466 0.127,-0.194734 0.287867,-0.194734 0.186267,0 0.186267,0.220134 0,0.397933 -1.049867,3.259668 -0.211667,0.5842 -0.541867,1.075267 -0.3302,0.491067 -0.508,0.491067 -0.135467,0 -0.262467,-0.152401 -0.118534,-0.1524 -0.245534,-0.491066 -0.127,-0.338667 -0.220133,-0.643467 -0.09313,-0.3048 -0.254,-0.855134 -0.1524,-0.5588 -0.254,-0.880534 -0.499534,-1.659467 -0.499534,-1.871134 0,-0.0762 0.06773,-0.0762 0.0508,0 0.08467,0.0085 0.245534,0.04233 0.609601,1.0922 0.372533,1.049867 0.6604,2.082801 0.287867,1.032934 0.3302,1.032934 0.09313,0 0.397933,-0.626534 0.313267,-0.626533 0.474134,-1.151467 0.118533,-0.372533 0.287867,-0.8382 0.169333,-0.474134 0.245533,-0.719667 0.08467,-0.245534 0.08467,-0.372534 z"
         style="font-family:Purisa;-inkscape-font-specification:Purisa"
         id="path7590" />
      <path
         d="m 89.927268,92.423517 q 0.04233,0 0.04233,0.06773 0,0.1524 -0.2286,0.491067 -0.220133,0.338667 -0.474133,0.5588 -0.889,0.7874 -1.778001,0.7874 -0.338667,0 -0.677333,-0.1524 Q 86.481333,94.015251 86.193467,93.727384 85.9056,93.439517 85.7278,92.956917 85.55,92.474317 85.55,91.88165 q 0,-0.364067 0.08467,-0.618067 0.169334,-0.516467 0.719667,-1.092201 0.558801,-0.575733 1.049867,-0.575733 0.135467,0 0.406401,0.0254 0.4064,0.03387 0.567267,0.08467 0.169333,0.0508 0.381,0.211666 0.270933,0.2032 0.465667,0.524934 0.2032,0.313267 0.2032,0.524933 0,0.270934 -0.211667,0.414867 -0.211667,0.135467 -0.821267,0.270934 -0.795867,0.1778 -1.557867,0.220133 l -0.787401,0.04233 v 0.338667 q 0,0.626534 0.5842,1.185334 0.440267,0.423334 0.914401,0.423334 0.364067,0 0.770467,-0.220134 0.414867,-0.2286 0.702733,-0.499533 0.287867,-0.270934 0.550334,-0.491067 0.262467,-0.2286 0.3556,-0.2286 z m -1.363134,-2.065868 q -0.262467,-0.237067 -0.397933,-0.296333 -0.127,-0.06773 -0.338667,-0.06773 -0.423334,0 -0.635,0.08467 -0.2032,0.0762 -0.414867,0.321734 -0.643467,0.7366 -0.643467,0.982133 0,0.110067 0.2032,0.110067 0.770467,0 2.184401,-0.321734 0.423333,-0.1016 0.423333,-0.3556 0,-0.118533 -0.381,-0.4572 z"
         style="font-family:Purisa;-inkscape-font-specification:Purisa"
         id="path7592" />
      <path
         d="m 98.884989,90.027449 q -0.389467,0 -0.829734,0.160867 -0.4318,0.160866 -0.770467,0.3302 -0.338667,0.160867 -0.491067,0.160867 -0.1016,0 -0.1016,-0.08467 0,-0.118533 0.0508,-0.2032 0.0508,-0.08467 0.186267,-0.160867 0.135467,-0.0762 0.254,-0.127 0.127,-0.0508 0.397934,-0.143933 0.270933,-0.1016 0.465666,-0.186267 0.457201,-0.1778 0.770467,-0.1778 0.558801,0 0.872067,0.6096 0.152401,0.296334 0.177801,0.550334 0.0254,0.245533 0.04233,1.397 0.0085,0.643467 0.0254,1.083734 0.01693,0.4318 0.03387,0.550334 l 0.01693,0.110066 q 0,0.118534 -0.110067,0.254 -0.1016,0.135467 -0.1524,0.135467 -0.169333,0 -0.262467,-0.5334 -0.09313,-0.541867 -0.1016,-0.541867 -0.0254,0 -0.0762,0.09313 -0.169333,0.2794 -0.6858,0.618067 -0.508,0.3302 -0.855134,0.3302 -0.211666,0 -0.499533,-0.0762 -0.2794,-0.08467 -0.4064,-0.1778 -0.09313,-0.0762 -0.160867,-0.3048 -0.05927,-0.2286 -0.05927,-0.465667 0,-0.3556 0.186267,-0.6096 0.194733,-0.262467 0.6858,-0.5334 0.5334,-0.313267 1.032934,-0.313267 0.2032,0 0.338667,0.06773 0.135467,0.06773 0.2032,0.143934 0.06773,0.06773 0.110067,0.06773 0.03387,0 0.160866,0.09313 0.127,0.08467 0.135467,0.08467 0.03387,0 0.03387,-0.186267 0,-1.134533 -0.160867,-1.5748 -0.1524,-0.440267 -0.4572,-0.440267 z m 0.381,2.624668 q 0,-0.03387 -0.0254,-0.0762 -0.01693,-0.0508 -0.08467,-0.110067 -0.05927,-0.06773 -0.160866,-0.118533 -0.09313,-0.05927 -0.262467,-0.09313 -0.169334,-0.04233 -0.381,-0.04233 -0.364067,0 -0.643467,0.127 -0.270934,0.127 -0.4064,0.321733 -0.135467,0.194734 -0.203201,0.364067 -0.05927,0.160867 -0.05927,0.287867 0,0.211667 0.03387,0.287867 0.04233,0.0762 0.194734,0.160867 0.186267,0.09313 0.338667,0.09313 0.287866,0 0.7112,-0.2032 0.4318,-0.211667 0.4318,-0.3048 0,-0.06773 0.254,-0.321734 0.262467,-0.262467 0.262467,-0.372533 z"
         style="font-family:Purisa;-inkscape-font-specification:Purisa"
         id="path7594" />
      <path
         d="m 107.98665,88.359515 q 0,-0.313267 -0.0593,-0.795867 -0.0593,-0.4826 -0.0593,-0.804334 0,-0.160866 0.008,-0.211666 0.0254,-0.135467 0.0931,-0.211667 0.0762,-0.08467 0.1524,-0.08467 0.1016,0 0.14393,0.09313 0.0254,0.05927 0.0762,0.626533 0.0508,0.567267 0.0931,1.109134 0.0423,0.541867 0.0593,0.5588 0.008,0.0085 0.0254,0.0085 0.0677,0 0.38947,-0.06773 0.3302,-0.0762 0.54186,-0.0762 0.42334,0 0.42334,0.186267 0,0.186267 -0.93134,0.414867 l -0.42333,0.1016 0.0508,1.430867 q 0.0423,1.261534 0.16087,2.362201 0.11853,1.092201 0.11853,1.236134 0,0.262467 -0.19473,0.262467 -0.1524,0 -0.254,-0.270934 -0.0931,-0.270933 -0.0931,-0.702733 0,-0.313267 -0.0254,-0.635 -0.0254,-0.330201 -0.0931,-1.016001 -0.0593,-0.694267 -0.11853,-1.4224 -0.0254,-0.389467 -0.0423,-0.601134 -0.008,-0.211667 -0.0254,-0.313267 -0.0169,-0.1016 -0.0254,-0.118533 -0.008,-0.0254 -0.0339,-0.0254 -0.13547,0 -0.65194,0.09313 -0.51646,0.09313 -0.64346,0.09313 -0.24554,0 -0.24554,-0.203201 0,-0.143933 0.3048,-0.245533 0.31327,-0.1016 0.70274,-0.1778 0.38946,-0.08467 0.4826,-0.143933 0.0931,-0.06773 0.0931,-0.448734 z"
         style="font-family:Purisa;-inkscape-font-specification:Purisa"
         id="path7596" />
      <path
         d="m 115.20871,92.423517 q 0.0423,0 0.0423,0.06773 0,0.1524 -0.2286,0.491067 -0.22014,0.338667 -0.47414,0.5588 -0.889,0.7874 -1.778,0.7874 -0.33867,0 -0.67733,-0.1524 -0.3302,-0.160866 -0.61807,-0.448733 -0.28787,-0.287867 -0.46567,-0.770467 -0.1778,-0.4826 -0.1778,-1.075267 0,-0.364067 0.0847,-0.618067 0.16933,-0.516467 0.71967,-1.092201 0.5588,-0.575733 1.04987,-0.575733 0.13546,0 0.4064,0.0254 0.4064,0.03387 0.56726,0.08467 0.16934,0.0508 0.381,0.211666 0.27094,0.2032 0.46567,0.524934 0.2032,0.313267 0.2032,0.524933 0,0.270934 -0.21167,0.414867 -0.21166,0.135467 -0.82126,0.270934 -0.79587,0.1778 -1.55787,0.220133 l -0.7874,0.04233 v 0.338667 q 0,0.626534 0.5842,1.185334 0.44026,0.423334 0.9144,0.423334 0.36407,0 0.77047,-0.220134 0.41486,-0.2286 0.70273,-0.499533 0.28787,-0.270934 0.55033,-0.491067 0.26247,-0.2286 0.3556,-0.2286 z m -1.36313,-2.065868 q -0.26247,-0.237067 -0.39793,-0.296333 -0.127,-0.06773 -0.33867,-0.06773 -0.42333,0 -0.635,0.08467 -0.2032,0.0762 -0.41487,0.321734 -0.64347,0.7366 -0.64347,0.982133 0,0.110067 0.2032,0.110067 0.77047,0 2.18441,-0.321734 0.42333,-0.1016 0.42333,-0.3556 0,-0.118533 -0.381,-0.4572 z"
         style="font-family:Purisa;-inkscape-font-specification:Purisa"
         id="path7598" />
      <path
         d="m 119.89924,90.840249 q 0,0.143934 -0.0677,0.237067 -0.0593,0.09313 -0.14393,0.09313 -0.16087,0 -0.2032,-0.245533 -0.0169,-0.194733 -0.2794,-0.491067 -0.11007,-0.118533 -0.1778,-0.169333 -0.0677,-0.0508 -0.32174,-0.110067 -0.24553,-0.05927 -0.65193,-0.05927 -0.3302,0 -0.508,0.118534 -0.16933,0.118533 -0.42333,0.4826 -0.6096,0.8636 -0.6096,1.557867 0,0.3556 0.0762,0.601134 0.0762,0.237067 0.14393,0.321733 0.0762,0.0762 0.24553,0.245534 0.24554,0.237066 0.37254,0.3048 0.13546,0.05927 0.37253,0.05927 0.7366,0 1.60867,-0.999068 0.4572,-0.508 0.6604,-0.508 0.11007,0 0.11007,0.160867 0,0.1524 -0.4064,0.651934 -0.39794,0.499533 -0.68581,0.702733 -0.66886,0.4826 -1.1938,0.4826 -0.381,0 -0.8382,-0.2286 -0.46566,-0.2286 -0.67733,-0.618067 -0.2032,-0.389466 -0.24553,-1.134533 -0.0254,-0.287867 -0.0254,-0.457201 0,-0.3302 0.2286,-0.753533 0.23706,-0.4572 0.6858,-0.880534 0.4572,-0.423333 0.7874,-0.516467 0.254,-0.05927 0.55033,-0.05927 0.64347,0 1.12607,0.414866 0.49107,0.406401 0.49107,0.795867 z"
         style="font-family:Purisa;-inkscape-font-specification:Purisa"
         id="path7600" />
      <path
         d="m 121.24542,93.515717 q 0,-0.677334 -0.16933,-2.726268 -0.16087,-2.0574 -0.16087,-2.836334 0,-0.448734 0.0508,-0.541867 0.1016,-0.1778 0.19474,-0.1778 0.1524,0 0.19473,0.296333 0.0508,0.296334 0.13547,1.498601 0.0254,0.296333 0.0339,0.4826 0.0169,0.1778 0.0339,0.508 0.0254,0.321734 0.0508,0.626534 l 0.0762,0.999067 0.1524,-0.3302 q 0.16933,-0.381 0.82974,-0.999067 0.6604,-0.618067 0.889,-0.618067 0.21166,0 0.46566,0.237067 0.254,0.237066 0.3302,0.508 0.0677,0.2286 0.0677,2.057401 0,1.3208 -0.0254,1.566334 -0.0254,0.237066 -0.16087,0.237066 -0.13547,0 -0.1778,-0.245533 -0.0339,-0.245533 -0.0677,-1.413934 -0.0508,-1.634067 -0.2032,-2.091267 l -0.13547,-0.423334 -0.49107,0.4572 q -0.38946,0.372534 -0.71967,0.846667 -0.32173,0.474134 -0.44026,0.838201 -0.0762,0.262466 -0.127,0.8382 -0.0508,0.575733 -0.127,0.948267 -0.0677,0.372533 -0.2032,0.372533 -0.0593,0 -0.14394,-0.06773 -0.1524,-0.127 -0.1524,-0.846667 z"
         style="font-family:Purisa;-inkscape-font-specification:Purisa"
         id="path7602" />
      <path
         d="m 132.45527,88.359515 q 0,-0.313267 -0.0593,-0.795867 -0.0593,-0.4826 -0.0593,-0.804334 0,-0.160866 0.008,-0.211666 0.0254,-0.135467 0.0931,-0.211667 0.0762,-0.08467 0.1524,-0.08467 0.1016,0 0.14393,0.09313 0.0254,0.05927 0.0762,0.626533 0.0508,0.567267 0.0931,1.109134 0.0423,0.541867 0.0593,0.5588 0.008,0.0085 0.0254,0.0085 0.0677,0 0.38947,-0.06773 0.3302,-0.0762 0.54187,-0.0762 0.42333,0 0.42333,0.186267 0,0.186267 -0.93133,0.414867 l -0.42334,0.1016 0.0508,1.430867 q 0.0423,1.261534 0.16087,2.362201 0.11853,1.092201 0.11853,1.236134 0,0.262467 -0.19473,0.262467 -0.1524,0 -0.254,-0.270934 -0.0931,-0.270933 -0.0931,-0.702733 0,-0.313267 -0.0254,-0.635 -0.0254,-0.330201 -0.0931,-1.016001 -0.0593,-0.694267 -0.11853,-1.4224 -0.0254,-0.389467 -0.0423,-0.601134 -0.008,-0.211667 -0.0254,-0.313267 -0.0169,-0.1016 -0.0254,-0.118533 -0.008,-0.0254 -0.0339,-0.0254 -0.13547,0 -0.65193,0.09313 -0.51647,0.09313 -0.64347,0.09313 -0.24553,0 -0.24553,-0.203201 0,-0.143933 0.3048,-0.245533 0.31326,-0.1016 0.70273,-0.1778 0.38947,-0.08467 0.4826,-0.143933 0.0931,-0.06773 0.0931,-0.448734 z"
         style="font-family:Purisa;-inkscape-font-specification:Purisa"
         id="path7604" />
      <path
         d="m 137.9332,90.027449 q -0.38946,0 -0.82973,0.160867 -0.4318,0.160866 -0.77047,0.3302 -0.33866,0.160867 -0.49106,0.160867 -0.1016,0 -0.1016,-0.08467 0,-0.118533 0.0508,-0.2032 0.0508,-0.08467 0.18626,-0.160867 0.13547,-0.0762 0.254,-0.127 0.127,-0.0508 0.39794,-0.143933 0.27093,-0.1016 0.46566,-0.186267 0.4572,-0.1778 0.77047,-0.1778 0.5588,0 0.87207,0.6096 0.1524,0.296334 0.1778,0.550334 0.0254,0.245533 0.0423,1.397 0.008,0.643467 0.0254,1.083734 0.0169,0.4318 0.0339,0.550334 l 0.0169,0.110066 q 0,0.118534 -0.11007,0.254 -0.1016,0.135467 -0.1524,0.135467 -0.16933,0 -0.26246,-0.5334 -0.0931,-0.541867 -0.1016,-0.541867 -0.0254,0 -0.0762,0.09313 -0.16934,0.2794 -0.6858,0.618067 -0.508,0.3302 -0.85514,0.3302 -0.21166,0 -0.49953,-0.0762 -0.2794,-0.08467 -0.4064,-0.1778 -0.0931,-0.0762 -0.16087,-0.3048 -0.0593,-0.2286 -0.0593,-0.465667 0,-0.3556 0.18626,-0.6096 0.19474,-0.262467 0.6858,-0.5334 0.5334,-0.313267 1.03294,-0.313267 0.2032,0 0.33866,0.06773 0.13547,0.06773 0.2032,0.143934 0.0677,0.06773 0.11007,0.06773 0.0339,0 0.16087,0.09313 0.127,0.08467 0.13546,0.08467 0.0339,0 0.0339,-0.186267 0,-1.134533 -0.16087,-1.5748 -0.1524,-0.440267 -0.4572,-0.440267 z m 0.381,2.624668 q 0,-0.03387 -0.0254,-0.0762 -0.0169,-0.0508 -0.0847,-0.110067 -0.0593,-0.06773 -0.16087,-0.118533 -0.0931,-0.05927 -0.26247,-0.09313 -0.16933,-0.04233 -0.381,-0.04233 -0.36406,0 -0.64346,0.127 -0.27094,0.127 -0.4064,0.321733 -0.13547,0.194734 -0.2032,0.364067 -0.0593,0.160867 -0.0593,0.287867 0,0.211667 0.0339,0.287867 0.0423,0.0762 0.19473,0.160867 0.18627,0.09313 0.33867,0.09313 0.28786,0 0.7112,-0.2032 0.4318,-0.211667 0.4318,-0.3048 0,-0.06773 0.254,-0.321734 0.26246,-0.262467 0.26246,-0.372533 z"
         style="font-family:Purisa;-inkscape-font-specification:Purisa"
         id="path7606" />
      <path
         d="m 140.397,87.478981 q 0,-0.651933 0.0339,-0.9906 0.0339,-0.347134 0.0847,-0.440267 0.0508,-0.09313 0.14394,-0.09313 0.0847,0 0.13546,0.0762 0.0508,0.08467 0.3048,3.920068 0.26247,3.835402 0.26247,3.987802 0,0.110066 -0.0508,0.1524 -0.0508,0.03387 -0.16933,0.03387 -0.2032,0 -0.26247,-0.287866 -0.0593,-0.296334 -0.16933,-1.837268 -0.13547,-1.862667 -0.26247,-3.327401 -0.0508,-0.550334 -0.0508,-1.193801 z"
         style="font-family:Purisa;-inkscape-font-specification:Purisa"
         id="path7608" />
      <path
         d="m 142.53907,87.834581 q 0,-0.3048 0.19473,-0.3048 0.16087,0 0.23707,0.194734 0.0508,0.118533 0.11006,0.728133 0.0677,0.609601 0.13547,1.371601 0.0762,0.762 0.127,1.083734 l 0.0677,0.491067 0.9652,-0.965201 q 0.51647,-0.516467 0.72814,-0.694267 0.21166,-0.186266 0.31326,-0.186266 0.0593,0 0.127,0.08467 0.0762,0.08467 0.0762,0.169334 0,0.05927 -0.0339,0.1016 -0.0254,0.03387 -0.0762,0.06773 -0.0423,0.0254 -0.14394,0.135467 -0.1016,0.110066 -0.22013,0.270933 -0.39793,0.567267 -1.33773,1.320801 -0.33867,0.262466 -0.33867,0.440267 0,0.118533 0.1524,0.194733 l 0.90593,0.423333 q 0.62654,0.296334 1.0414,0.592667 0.41487,0.296334 0.41487,0.457201 0,0.1778 -0.16933,0.1778 -0.1524,0 -0.44874,-0.2032 -0.29633,-0.211667 -0.37253,-0.211667 -0.1016,0 -0.1016,-0.06773 0,-0.09313 -1.03293,-0.474133 l -0.44874,-0.169334 0.0593,0.702734 q 0.0254,0.2794 0.0254,0.440267 0,0.3556 -0.1778,0.3556 -0.27093,0 -0.34713,-0.372533 -0.0677,-0.381001 -0.127,-1.921934 -0.0508,-1.363134 -0.127,-1.778001 -0.0762,-0.4064 -0.127,-1.176867 -0.0508,-0.770467 -0.0508,-1.278468 z"
         style="font-family:Purisa;-inkscape-font-specification:Purisa"
         id="path7610" />
      <path
         d="m 66.593148,101.13601 q -0.389467,0 -0.829734,0.16087 -0.4318,0.16087 -0.770467,0.3302 -0.338667,0.16087 -0.491067,0.16087 -0.1016,0 -0.1016,-0.0847 0,-0.11853 0.0508,-0.2032 0.0508,-0.0847 0.186267,-0.16087 0.135467,-0.0762 0.254,-0.127 0.127,-0.0508 0.397933,-0.14393 0.270934,-0.1016 0.465667,-0.18627 0.4572,-0.1778 0.770467,-0.1778 0.5588,0 0.872067,0.6096 0.1524,0.29634 0.1778,0.55034 0.0254,0.24553 0.04233,1.397 0.0085,0.64347 0.0254,1.08373 0.01693,0.4318 0.03387,0.55034 l 0.01693,0.11006 q 0,0.11854 -0.110067,0.254 -0.1016,0.13547 -0.1524,0.13547 -0.169333,0 -0.262467,-0.5334 -0.09313,-0.54187 -0.1016,-0.54187 -0.0254,0 -0.0762,0.0931 -0.169333,0.2794 -0.6858,0.61806 -0.508,0.3302 -0.855134,0.3302 -0.211667,0 -0.499533,-0.0762 -0.279401,-0.0847 -0.406401,-0.1778 -0.09313,-0.0762 -0.160866,-0.3048 -0.05927,-0.2286 -0.05927,-0.46566 0,-0.3556 0.186267,-0.6096 0.194733,-0.26247 0.6858,-0.5334 0.5334,-0.31327 1.032934,-0.31327 0.2032,0 0.338667,0.0677 0.135466,0.0677 0.2032,0.14394 0.06773,0.0677 0.110066,0.0677 0.03387,0 0.160867,0.0931 0.127,0.0847 0.135467,0.0847 0.03387,0 0.03387,-0.18627 0,-1.13453 -0.160866,-1.5748 -0.1524,-0.44027 -0.4572,-0.44027 z m 0.381,2.62467 q 0,-0.0339 -0.0254,-0.0762 -0.01693,-0.0508 -0.08467,-0.11006 -0.05927,-0.0677 -0.160867,-0.11854 -0.09313,-0.0593 -0.262466,-0.0931 -0.169334,-0.0423 -0.381001,-0.0423 -0.364066,0 -0.643467,0.127 -0.270933,0.127 -0.4064,0.32173 -0.135466,0.19473 -0.2032,0.36407 -0.05927,0.16086 -0.05927,0.28786 0,0.21167 0.03387,0.28787 0.04233,0.0762 0.194734,0.16087 0.186266,0.0931 0.338666,0.0931 0.287867,0 0.711201,-0.2032 0.4318,-0.21167 0.4318,-0.3048 0,-0.0677 0.254,-0.32173 0.262467,-0.26247 0.262467,-0.37254 z"
         style="font-family:Purisa;-inkscape-font-specification:Purisa"
         id="path7612" />
      <path
         d="m 69.30248,100.77195 q 0,-0.28787 0.169333,-0.28787 0.110067,0 0.160867,0.254 0.0508,0.24553 0.186267,1.4732 0.1524,1.32927 0.1778,1.38854 0.03387,-0.0339 0.245533,-0.68581 0.194734,-0.6096 0.304801,-0.84666 0.118533,-0.24554 0.4064,-0.65194 0.618067,-0.85513 0.956733,-0.85513 0.220134,0 0.414867,0.29633 0.262467,0.38947 0.321734,0.77047 0.05927,0.381 0.08467,1.8034 0.01693,0.9144 0.01693,1.08374 0,0.42333 -0.03387,0.61806 -0.0254,0.18627 -0.08467,0.2286 -0.0508,0.0508 -0.186266,0.0593 -0.0762,0 -0.1016,-0.0677 -0.0254,-0.0593 -0.0254,-0.28787 0,-0.127 0.01693,-0.54187 0.01693,-0.42333 0.01693,-0.7112 0,-0.71966 -0.05927,-1.40547 -0.0508,-0.69426 -0.127,-0.889 -0.04233,-0.11006 -0.135467,-0.2286 -0.09313,-0.11853 -0.1778,-0.11853 -0.1778,0 -0.567267,0.6096 -0.389467,0.60113 -0.668867,1.27 -0.262467,0.64347 -0.3556,0.9652 -0.09313,0.32174 -0.143934,0.85514 -0.09313,0.8636 -0.135466,0.8636 -0.06773,0 -0.194734,-0.14394 -0.09313,-0.0931 -0.127,-0.39793 -0.03387,-0.31327 -0.09313,-1.22767 -0.05927,-0.92286 -0.160867,-1.86267 -0.1016,-0.97366 -0.1016,-1.32926 z"
         style="font-family:Purisa;-inkscape-font-specification:Purisa"
         id="path7614" />
      <path
         d="m 78.903679,105.43708 q 0,0.18627 -0.0762,0.28787 -0.06773,0.11007 -0.127,0.127 -0.0508,0.0254 -0.09313,0.0254 -0.110067,0 -0.186267,-0.0762 -0.0762,-0.0677 -0.118533,-0.254 -0.04233,-0.1778 -0.05927,-0.27093 -0.0085,-0.0931 -0.03387,-0.34714 -0.05927,-0.85513 -0.135466,-0.85513 -0.09313,0 -0.296334,0.24553 -0.948267,1.1176 -1.998134,1.1176 -0.313267,0 -0.626533,-0.11853 -1.083734,-0.4064 -1.083734,-1.65947 0,-0.54186 0.1778,-1.03293 0.186267,-0.49954 0.465667,-0.8382 0.287867,-0.33867 0.575733,-0.56727 0.287867,-0.2286 0.550334,-0.32173 0.3302,-0.127 0.4572,-0.127 0.220133,0 0.7366,0.28786 0.524934,0.28787 0.728134,0.5588 0.2286,0.3048 0.347133,0.3048 0.0085,0 0.0085,0 0,-0.008 0.0085,-0.008 0.09313,-0.0593 0.09313,-2.209803 0,-2.125134 0.1016,-2.413001 0.110067,-0.262467 0.3302,-0.262467 h 0.2286 l -0.06773,3.479801 q -0.0254,1.2954 -0.0254,2.3114 0,1.38007 0.05927,1.97274 0.05927,0.59266 0.05927,0.64346 z m -1.9812,-3.75073 q -0.499534,-0.3302 -0.694267,-0.3302 -0.169334,0 -0.762001,0.57573 -0.592667,0.57573 -0.702733,0.84667 -0.08467,0.2032 -0.08467,0.7366 0,0.65193 0.110067,0.84667 0.08467,0.1524 0.4064,0.3302 0.3302,0.1778 0.651934,0.1778 0.575733,0 1.456267,-0.84667 0.694267,-0.66887 0.694267,-0.87207 0,-0.2794 -0.3556,-0.74507 -0.347134,-0.46566 -0.719667,-0.71966 z"
         style="font-family:Purisa;-inkscape-font-specification:Purisa"
         id="path7616" />
      <path
         d="m 88.073063,101.13601 q -0.389467,0 -0.829733,0.16087 -0.431801,0.16087 -0.770467,0.3302 -0.338667,0.16087 -0.491067,0.16087 -0.1016,0 -0.1016,-0.0847 0,-0.11853 0.0508,-0.2032 0.0508,-0.0847 0.186266,-0.16087 0.135467,-0.0762 0.254001,-0.127 0.127,-0.0508 0.397933,-0.14393 0.270933,-0.1016 0.465667,-0.18627 0.4572,-0.1778 0.770467,-0.1778 0.5588,0 0.872067,0.6096 0.1524,0.29634 0.1778,0.55034 0.0254,0.24553 0.04233,1.397 0.0085,0.64347 0.0254,1.08373 0.01693,0.4318 0.03387,0.55034 l 0.01693,0.11006 q 0,0.11854 -0.110066,0.254 -0.1016,0.13547 -0.1524,0.13547 -0.169334,0 -0.262467,-0.5334 -0.09313,-0.54187 -0.1016,-0.54187 -0.0254,0 -0.0762,0.0931 -0.169334,0.2794 -0.685801,0.61806 -0.508,0.3302 -0.855133,0.3302 -0.211667,0 -0.499534,-0.0762 -0.2794,-0.0847 -0.4064,-0.1778 -0.09313,-0.0762 -0.160867,-0.3048 -0.05927,-0.2286 -0.05927,-0.46566 0,-0.3556 0.186266,-0.6096 0.194734,-0.26247 0.685801,-0.5334 0.5334,-0.31327 1.032933,-0.31327 0.2032,0 0.338667,0.0677 0.135467,0.0677 0.2032,0.14394 0.06773,0.0677 0.110067,0.0677 0.03387,0 0.160867,0.0931 0.127,0.0847 0.135466,0.0847 0.03387,0 0.03387,-0.18627 0,-1.13453 -0.160867,-1.5748 -0.1524,-0.44027 -0.4572,-0.44027 z m 0.381,2.62467 q 0,-0.0339 -0.0254,-0.0762 -0.01693,-0.0508 -0.08467,-0.11006 -0.05927,-0.0677 -0.160867,-0.11854 -0.09313,-0.0593 -0.262467,-0.0931 -0.169333,-0.0423 -0.381,-0.0423 -0.364067,0 -0.643467,0.127 -0.270933,0.127 -0.4064,0.32173 -0.135467,0.19473 -0.2032,0.36407 -0.05927,0.16086 -0.05927,0.28786 0,0.21167 0.03387,0.28787 0.04233,0.0762 0.194733,0.16087 0.186267,0.0931 0.338667,0.0931 0.287867,0 0.7112,-0.2032 0.4318,-0.21167 0.4318,-0.3048 0,-0.0677 0.254001,-0.32173 0.262466,-0.26247 0.262466,-0.37254 z"
         style="font-family:Purisa;-inkscape-font-specification:Purisa"
         id="path7618" />
      <path
         d="m 90.536862,98.587547 q 0,-0.651934 0.03387,-0.990601 0.03387,-0.347133 0.08467,-0.440267 0.0508,-0.09313 0.143934,-0.09313 0.08467,0 0.135466,0.0762 0.0508,0.08467 0.3048,3.920064 0.262467,3.83541 0.262467,3.98781 0,0.11006 -0.0508,0.1524 -0.0508,0.0339 -0.169333,0.0339 -0.2032,0 -0.262467,-0.28786 -0.05927,-0.29634 -0.169333,-1.83727 -0.135467,-1.86267 -0.262467,-3.327403 -0.0508,-0.550334 -0.0508,-1.1938 z"
         style="font-family:Purisa;-inkscape-font-specification:Purisa"
         id="path7620" />
      <path
         d="m 93.068394,98.587547 q 0,-0.651934 0.03387,-0.990601 0.03387,-0.347133 0.08467,-0.440267 0.0508,-0.09313 0.143934,-0.09313 0.08467,0 0.135467,0.0762 0.0508,0.08467 0.3048,3.920064 0.262466,3.83541 0.262466,3.98781 0,0.11006 -0.0508,0.1524 -0.0508,0.0339 -0.169333,0.0339 -0.2032,0 -0.262467,-0.28786 -0.05927,-0.29634 -0.169333,-1.83727 -0.135467,-1.86267 -0.262467,-3.327403 -0.0508,-0.550334 -0.0508,-1.1938 z"
         style="font-family:Purisa;-inkscape-font-specification:Purisa"
         id="path7622" />
      <path
         d="m 103.55859,104.36182 q 0.008,0 0.0508,-0.0254 0.0423,-0.0339 0.11007,-0.0677 0.0762,-0.0339 0.16087,-0.0339 0.13546,0 0.2286,0.0762 0.1016,0.0677 0.1016,0.18626 0,0.18627 -0.2794,0.3556 -0.2794,0.16087 -1.05834,0.4572 -0.508,0.19474 -0.72813,0.19474 -0.13547,0 -0.36407,-0.0677 -0.24553,-0.0677 -0.33866,-0.14393 -0.0931,-0.0762 -0.0931,-0.19473 0,-0.127 0.0677,-0.16934 0.0677,-0.0423 0.26246,-0.0423 0.29634,0 0.75354,-0.19473 l 0.42333,-0.19474 -0.0762,-1.58327 q -0.0762,-1.58326 -0.0762,-2.50613 v -0.905933 l -0.24553,0.06773 q -0.41487,0.118534 -0.80434,0.118534 -0.49106,0 -0.49106,-0.186267 0,-0.110067 0.29633,-0.237067 0.29633,-0.135467 0.75353,-0.2794 0.46567,-0.143933 0.59267,-0.194733 0.0931,-0.04233 0.55033,-0.04233 0.5842,0 0.74507,0.05927 0.0593,0.0254 0.11007,0.110067 0.0508,0.08467 0.0508,0.160866 0,0.1524 -0.14394,0.228601 -0.14393,0.06773 -0.5588,0.118533 l -0.254,0.03387 0.0169,1.473196 q 0.0593,3.42901 0.23706,3.42901 z"
         style="font-family:Purisa;-inkscape-font-specification:Purisa"
         id="path7624" />
      <path
         d="m 107.34319,99.561214 q 0.0762,-0.143934 0.27093,-0.143934 0.16934,0 0.55881,0.0508 0.38946,0.0508 0.44873,0.08467 0.0423,0.0254 0.0423,0.135467 0,0.127 -0.0677,0.313266 -0.0593,0.18627 -0.13547,0.2794 -0.127,0.14393 -0.2032,0.67733 -0.0508,0.3556 -0.11006,0.4572 -0.0508,0.1016 -0.18627,0.1016 -0.22014,0 -0.39794,-0.24553 -0.16933,-0.24553 -0.1778,-0.5842 -0.0169,-0.32173 -0.0847,-0.44027 -0.0593,-0.11853 -0.0593,-0.24553 0,-0.262466 0.1016,-0.440266 z"
         style="font-family:Purisa;-inkscape-font-specification:Purisa"
         id="path7626" />
      <path
         d="m 114.37899,101.22915 q 0,-0.19474 0.11853,-0.38947 0.127,-0.19473 0.28787,-0.19473 0.18626,0 0.18626,0.22013 0,0.39793 -1.04987,3.25967 -0.21166,0.5842 -0.54186,1.07527 -0.3302,0.49106 -0.508,0.49106 -0.13547,0 -0.26247,-0.1524 -0.11853,-0.1524 -0.24553,-0.49106 -0.127,-0.33867 -0.22014,-0.64347 -0.0931,-0.3048 -0.254,-0.85513 -0.1524,-0.55881 -0.254,-0.88054 -0.49953,-1.65947 -0.49953,-1.87113 0,-0.0762 0.0677,-0.0762 0.0508,0 0.0847,0.008 0.24553,0.0423 0.6096,1.0922 0.37253,1.04987 0.6604,2.08281 0.28787,1.03293 0.3302,1.03293 0.0931,0 0.39793,-0.62653 0.31327,-0.62654 0.47414,-1.15147 0.11853,-0.37254 0.28786,-0.8382 0.16934,-0.47414 0.24554,-0.71967 0.0847,-0.24553 0.0847,-0.37253 z"
         style="font-family:Purisa;-inkscape-font-specification:Purisa"
         id="path7628" />
      <path
         d="m 120.22097,103.53208 q 0.0423,0 0.0423,0.0677 0,0.1524 -0.2286,0.49106 -0.22013,0.33867 -0.47413,0.5588 -0.889,0.7874 -1.778,0.7874 -0.33867,0 -0.67733,-0.1524 -0.3302,-0.16086 -0.61807,-0.44873 -0.28787,-0.28787 -0.46567,-0.77047 -0.1778,-0.4826 -0.1778,-1.07527 0,-0.36406 0.0847,-0.61806 0.16933,-0.51647 0.71967,-1.0922 0.5588,-0.57574 1.04986,-0.57574 0.13547,0 0.4064,0.0254 0.4064,0.0339 0.56727,0.0847 0.16933,0.0508 0.381,0.21167 0.27093,0.2032 0.46567,0.52493 0.2032,0.31327 0.2032,0.52493 0,0.27094 -0.21167,0.41487 -0.21167,0.13547 -0.82127,0.27093 -0.79586,0.1778 -1.55786,0.22014 l -0.7874,0.0423 v 0.33867 q 0,0.62653 0.5842,1.18533 0.44026,0.42334 0.9144,0.42334 0.36406,0 0.77046,-0.22014 0.41487,-0.2286 0.70274,-0.49953 0.28786,-0.27093 0.55033,-0.49107 0.26247,-0.2286 0.3556,-0.2286 z m -1.36313,-2.06587 q -0.26247,-0.23706 -0.39794,-0.29633 -0.127,-0.0677 -0.33866,-0.0677 -0.42334,0 -0.635,0.0847 -0.2032,0.0762 -0.41487,0.32174 -0.64347,0.7366 -0.64347,0.98213 0,0.11007 0.2032,0.11007 0.77047,0 2.1844,-0.32174 0.42334,-0.1016 0.42334,-0.3556 0,-0.11853 -0.381,-0.4572 z"
         style="font-family:Purisa;-inkscape-font-specification:Purisa"
         id="path7630" />
      <path
         d="m 130.44869,106.95262 q 0.41487,0 0.41487,-0.36407 0,-0.61807 -0.0508,-1.0922 -0.0423,-0.46567 -0.11007,-0.7874 -0.0593,-0.32173 -0.0677,-0.46567 -0.0593,-0.8636 -0.11853,-0.8636 -0.0339,0 -0.127,0.1524 -0.21167,0.31327 -0.6858,0.70274 -0.47414,0.38946 -0.7874,0.508 -0.36407,0.14393 -0.80434,0.14393 -0.27093,0 -0.4318,-0.0677 -0.1524,-0.0677 -0.4064,-0.28787 -0.24553,-0.22013 -0.34713,-0.38947 -0.1016,-0.16933 -0.16087,-0.4826 -0.0593,-0.31326 -0.0593,-0.5334 0,-0.16087 0.0254,-0.23707 0.0593,-0.2286 0.31327,-0.7112 0.254,-0.4826 0.46567,-0.75353 0.1778,-0.23707 0.6604,-0.55033 0.49107,-0.32174 0.8636,-0.44027 0.38947,-0.127 0.889,-0.127 0.62653,0 1.0414,0.22013 0.41487,0.21167 0.41487,0.6604 0,0.254 -0.127,0.62654 -0.11854,0.37253 -0.11854,0.65193 0,0.14393 0.19474,2.80247 l 0.127,1.7526 -0.29634,0.23707 q -0.23706,0.19473 -0.4826,0.19473 -0.44873,0 -1.0922,-0.2286 -0.64346,-0.22013 -1.10913,-0.51647 -0.46567,-0.28786 -0.46567,-0.47413 0,-0.22013 0.2286,-0.54187 0.23707,-0.32173 0.39794,-0.32173 0.18626,0 0.18626,0.127 0,0.0762 -0.0762,0.2286 -0.0762,0.1524 -0.0762,0.29633 0,0.23707 0.31327,0.41487 0.31327,0.1778 0.5334,0.1778 0.127,0 0.41487,0.16933 0.29633,0.16934 0.51646,0.16934 z m -3.21733,-3.84387 q 0,0.49107 0.254,0.89747 0.254,0.4064 0.635,0.4064 0.51647,0 1.10913,-0.46567 0.60114,-0.47413 0.97367,-1.17687 0.2032,-0.39793 0.34713,-0.90593 0.1524,-0.51647 0.1524,-0.8128 0,-0.16934 -0.0593,-0.2032 -0.19474,-0.1016 -0.61807,-0.1016 -0.38947,0 -0.66887,0.0847 -0.7366,0.21167 -1.43087,0.9906 -0.69426,0.77894 -0.69426,1.28694 z"
         style="font-family:Purisa;-inkscape-font-specification:Purisa"
         id="path7632" />
      <path
         d="m 133.36968,101.55088 q 0.6604,-0.61807 1.10913,-0.8128 0.4572,-0.2032 1.15147,-0.2032 1.04987,0 1.31233,0.62653 0.16087,0.37254 0.16087,0.9144 0,0.89747 -0.39793,1.82034 -0.39794,0.9144 -0.98214,1.27 -0.56726,0.34713 -1.1938,0.34713 -0.87206,0 -1.397,-0.60113 -0.36406,-0.42333 -0.47413,-0.7112 -0.11007,-0.29633 -0.11007,-0.8382 0,-1.02447 0.82127,-1.81187 z m 1.36313,3.4798 q 0.7112,0 1.28694,-0.97366 0.5842,-0.98214 0.5842,-2.21827 0,-0.18627 -0.0423,-0.2794 -0.0423,-0.0931 -0.1524,-0.18627 -0.31326,-0.26247 -0.66886,-0.26247 -0.0593,0 -0.13547,0.0169 -0.0677,0.008 -0.2286,0.0339 -0.16087,0.0169 -0.381,0.0423 -0.29633,0.0423 -0.47413,0.13546 -0.16934,0.0847 -0.4318,0.3302 -0.49954,0.47414 -0.7112,0.88054 -0.21167,0.39793 -0.21167,0.87207 0,0.70273 0.4318,1.15146 0.44027,0.44874 1.13453,0.4572 z"
         style="font-family:Purisa;-inkscape-font-specification:Purisa"
         id="path7634" />
      <path
         d="m 139.56728,99.46808 q 0,-0.313267 -0.0593,-0.795867 -0.0593,-0.4826 -0.0593,-0.804333 0,-0.160867 0.008,-0.211667 0.0254,-0.135467 0.0931,-0.211667 0.0762,-0.08467 0.1524,-0.08467 0.1016,0 0.14394,0.09313 0.0254,0.05927 0.0762,0.626533 0.0508,0.567267 0.0931,1.109134 0.0423,0.541867 0.0593,0.5588 0.008,0.0085 0.0254,0.0085 0.0677,0 0.38946,-0.06773 0.3302,-0.0762 0.54187,-0.0762 0.42333,0 0.42333,0.186266 0,0.186267 -0.93133,0.41487 l -0.42333,0.1016 0.0508,1.43086 q 0.0423,1.26154 0.16086,2.36221 0.11854,1.0922 0.11854,1.23613 0,0.26247 -0.19474,0.26247 -0.1524,0 -0.254,-0.27094 -0.0931,-0.27093 -0.0931,-0.70273 0,-0.31327 -0.0254,-0.635 -0.0254,-0.3302 -0.0931,-1.016 -0.0593,-0.69427 -0.11854,-1.4224 -0.0254,-0.38947 -0.0423,-0.60114 -0.008,-0.21166 -0.0254,-0.31326 -0.0169,-0.1016 -0.0254,-0.11854 -0.008,-0.0254 -0.0339,-0.0254 -0.13546,0 -0.65193,0.0931 -0.51647,0.0931 -0.64347,0.0931 -0.24553,0 -0.24553,-0.2032 0,-0.14393 0.3048,-0.24553 0.31326,-0.1016 0.70273,-0.1778 0.38947,-0.08467 0.4826,-0.143936 0.0931,-0.06773 0.0931,-0.448734 z"
         style="font-family:Purisa;-inkscape-font-specification:Purisa"
         id="path7636" />
      <path
         d="m 58.723423,111.63498 q 0.118533,-0.1016 0.2032,-0.1016 0.1778,0 0.254,0.56727 0.08467,0.5588 0.1524,2.159 0.03387,0.74506 0.03387,1.3462 0,0.60113 -0.0508,0.6604 -0.1016,0.127 -0.254,0.127 -0.211666,0 -0.262466,-0.1778 -0.04233,-0.11007 -0.127,-1.71027 -0.08467,-1.60867 -0.08467,-2.2352 0,-0.52493 0.135467,-0.635 z m -0.0508,-1.98967 q 0,-0.11853 0.09313,-0.23707 0.1016,-0.11853 0.1778,-0.11853 0.08467,0 0.2286,0.11853 0.1524,0.11007 0.1524,0.28787 0,0.127 -0.0762,0.22014 -0.06773,0.0847 -0.186267,0.0847 -0.135466,0 -0.262466,-0.1016 -0.127,-0.1016 -0.127,-0.254 z"
         style="font-family:Purisa;-inkscape-font-specification:Purisa"
         id="path7638" />
      <path
         d="m 61.635945,114.47131 q -0.127,0 -0.541867,-0.3048 -0.414867,-0.31326 -0.414867,-0.635 0,-0.3048 0.4318,-0.8382 0.4318,-0.54186 1.0414,-0.69426 0.279401,-0.0762 0.736601,-0.0762 0.194733,0 0.287867,0.0508 0.09313,0.0508 0.254,0.2286 0.262466,0.29633 0.262466,0.4064 0,0.1016 -0.110066,0.1016 -0.135467,0 -0.2286,-0.0931 -0.09313,-0.1016 -0.228601,-0.2032 -0.135466,-0.1016 -0.364066,-0.1016 -0.296334,0 -0.635001,0.16087 -0.338666,0.16087 -0.601133,0.44873 -0.372534,0.39794 -0.372534,0.54187 0,0.14393 0.220134,0.34713 0.220133,0.19474 0.7366,0.37254 0.8128,0.2794 1.100667,0.52493 0.287867,0.24553 0.287867,0.6604 0,0.38947 -0.135467,0.7112 -0.09313,0.24553 -0.397933,0.55033 -0.3048,0.3048 -0.601134,0.3048 -0.2286,0 -0.592667,-0.0762 -0.364067,-0.0677 -0.550333,-0.16086 -0.1524,-0.0762 -0.2794,-0.29634 -0.127,-0.2286 -0.127,-0.4064 0,-0.0931 0.04233,-0.16086 0.0508,-0.0762 0.118533,-0.0762 0.127,0 0.237067,0.23706 0.1016,0.21167 0.4064,0.381 0.313267,0.16934 0.5842,0.16934 0.364067,0 0.643467,-0.4318 0.2794,-0.44027 0.2794,-0.6858 0,-0.0593 -0.03387,-0.14394 -0.0254,-0.0931 -0.143934,-0.22013 -0.118533,-0.127 -0.3048,-0.19473 -0.1778,-0.0593 -0.414867,-0.16087 -0.237066,-0.1016 -0.397933,-0.16933 -0.1524,-0.0677 -0.194733,-0.0677 z"
         style="font-family:Purisa;-inkscape-font-specification:Purisa"
         id="path7640" />
      <path
         d="m 71.728198,110.57665 q 0,-0.31327 -0.05927,-0.79587 -0.05927,-0.4826 -0.05927,-0.80434 0,-0.16086 0.0085,-0.21166 0.0254,-0.13547 0.09313,-0.21167 0.0762,-0.0847 0.1524,-0.0847 0.1016,0 0.143933,0.0931 0.0254,0.0593 0.0762,0.62653 0.0508,0.56727 0.09313,1.10914 0.04233,0.54186 0.05927,0.5588 0.0085,0.008 0.0254,0.008 0.06773,0 0.389467,-0.0677 0.3302,-0.0762 0.541867,-0.0762 0.423334,0 0.423334,0.18627 0,0.18626 -0.931334,0.41486 l -0.423334,0.1016 0.0508,1.43087 q 0.04233,1.26153 0.160867,2.3622 0.118534,1.0922 0.118534,1.23613 0,0.26247 -0.194734,0.26247 -0.1524,0 -0.254,-0.27093 -0.09313,-0.27094 -0.09313,-0.70274 0,-0.31326 -0.0254,-0.635 -0.0254,-0.3302 -0.09313,-1.016 -0.05927,-0.69426 -0.118533,-1.4224 -0.0254,-0.38946 -0.04233,-0.60113 -0.0085,-0.21167 -0.0254,-0.31327 -0.01693,-0.1016 -0.0254,-0.11853 -0.0085,-0.0254 -0.03387,-0.0254 -0.135467,0 -0.651934,0.0931 -0.516467,0.0931 -0.643467,0.0931 -0.245533,0 -0.245533,-0.2032 0,-0.14394 0.3048,-0.24554 0.313267,-0.1016 0.702734,-0.1778 0.389466,-0.0847 0.4826,-0.14393 0.09313,-0.0677 0.09313,-0.44873 z"
         style="font-family:Purisa;-inkscape-font-specification:Purisa"
         id="path7642" />
      <path
         d="m 74.945525,115.73285 q 0,-0.67734 -0.169334,-2.72627 -0.160866,-2.0574 -0.160866,-2.83633 0,-0.44874 0.0508,-0.54187 0.1016,-0.1778 0.194733,-0.1778 0.1524,0 0.194733,0.29633 0.0508,0.29634 0.135467,1.4986 0.0254,0.29634 0.03387,0.4826 0.01693,0.1778 0.03387,0.508 0.0254,0.32174 0.0508,0.62654 l 0.0762,0.99906 0.1524,-0.3302 q 0.169333,-0.381 0.829733,-0.99906 0.660401,-0.61807 0.889001,-0.61807 0.211666,0 0.465666,0.23707 0.254001,0.23706 0.330201,0.508 0.06773,0.2286 0.06773,2.0574 0,1.3208 -0.0254,1.56633 -0.0254,0.23707 -0.160867,0.23707 -0.135466,0 -0.1778,-0.24554 -0.03387,-0.24553 -0.06773,-1.41393 -0.0508,-1.63407 -0.2032,-2.09127 l -0.135467,-0.42333 -0.491067,0.4572 q -0.389467,0.37253 -0.719667,0.84667 -0.321733,0.47413 -0.440267,0.8382 -0.0762,0.26246 -0.127,0.8382 -0.0508,0.57573 -0.127,0.94826 -0.06773,0.37254 -0.2032,0.37254 -0.05927,0 -0.143933,-0.0677 -0.1524,-0.127 -0.1524,-0.84666 z"
         style="font-family:Purisa;-inkscape-font-specification:Purisa"
         id="path7644" />
      <path
         d="m 79.661445,111.63498 q 0.118534,-0.1016 0.2032,-0.1016 0.1778,0 0.254,0.56727 0.08467,0.5588 0.1524,2.159 0.03387,0.74506 0.03387,1.3462 0,0.60113 -0.0508,0.6604 -0.1016,0.127 -0.254,0.127 -0.211667,0 -0.262467,-0.1778 -0.04233,-0.11007 -0.127,-1.71027 -0.08467,-1.60867 -0.08467,-2.2352 0,-0.52493 0.135467,-0.635 z m -0.0508,-1.98967 q 0,-0.11853 0.09313,-0.23707 0.1016,-0.11853 0.1778,-0.11853 0.08467,0 0.2286,0.11853 0.1524,0.11007 0.1524,0.28787 0,0.127 -0.0762,0.22014 -0.06773,0.0847 -0.186267,0.0847 -0.135467,0 -0.262467,-0.1016 -0.127,-0.1016 -0.127,-0.254 z"
         style="font-family:Purisa;-inkscape-font-specification:Purisa"
         id="path7646" />
      <path
         d="m 82.573967,114.47131 q -0.127,0 -0.541867,-0.3048 -0.414867,-0.31326 -0.414867,-0.635 0,-0.3048 0.4318,-0.8382 0.431801,-0.54186 1.041401,-0.69426 0.2794,-0.0762 0.7366,-0.0762 0.194734,0 0.287867,0.0508 0.09313,0.0508 0.254,0.2286 0.262467,0.29633 0.262467,0.4064 0,0.1016 -0.110067,0.1016 -0.135467,0 -0.2286,-0.0931 -0.09313,-0.1016 -0.2286,-0.2032 -0.135467,-0.1016 -0.364067,-0.1016 -0.296333,0 -0.635,0.16087 -0.338667,0.16087 -0.601134,0.44873 -0.372533,0.39794 -0.372533,0.54187 0,0.14393 0.220133,0.34713 0.220134,0.19474 0.7366,0.37254 0.812801,0.2794 1.100668,0.52493 0.287866,0.24553 0.287866,0.6604 0,0.38947 -0.135466,0.7112 -0.09313,0.24553 -0.397934,0.55033 -0.3048,0.3048 -0.601133,0.3048 -0.228601,0 -0.592667,-0.0762 -0.364067,-0.0677 -0.550334,-0.16086 -0.1524,-0.0762 -0.2794,-0.29634 -0.127,-0.2286 -0.127,-0.4064 0,-0.0931 0.04233,-0.16086 0.0508,-0.0762 0.118534,-0.0762 0.127,0 0.237066,0.23706 0.1016,0.21167 0.406401,0.381 0.313266,0.16934 0.5842,0.16934 0.364067,0 0.643467,-0.4318 0.2794,-0.44027 0.2794,-0.6858 0,-0.0593 -0.03387,-0.14394 -0.0254,-0.0931 -0.143933,-0.22013 -0.118534,-0.127 -0.3048,-0.19473 -0.1778,-0.0593 -0.414867,-0.16087 -0.237067,-0.1016 -0.397934,-0.16933 -0.1524,-0.0677 -0.194733,-0.0677 z"
         style="font-family:Purisa;-inkscape-font-specification:Purisa"
         id="path7648" />
      <path
         d="m 91.506289,109.69611 q 0,-0.65193 0.03387,-0.9906 0.03387,-0.34713 0.08467,-0.44027 0.0508,-0.0931 0.143934,-0.0931 0.08467,0 0.135466,0.0762 0.0508,0.0847 0.304801,3.92007 0.262466,3.8354 0.262466,3.9878 0,0.11007 -0.0508,0.1524 -0.0508,0.0339 -0.169333,0.0339 -0.2032,0 -0.262467,-0.28787 -0.05927,-0.29633 -0.169333,-1.83727 -0.135467,-1.86266 -0.262467,-3.3274 -0.0508,-0.55033 -0.0508,-1.1938 z"
         style="font-family:Purisa;-inkscape-font-specification:Purisa"
         id="path7650" />
      <path
         d="m 94.511955,112.65945 q 0.6604,-0.61807 1.109134,-0.8128 0.4572,-0.2032 1.151467,-0.2032 1.049867,0 1.312333,0.62653 0.160867,0.37253 0.160867,0.9144 0,0.89747 -0.397933,1.82033 -0.397934,0.9144 -0.982134,1.27 -0.567267,0.34714 -1.1938,0.34714 -0.872067,0 -1.397001,-0.60114 -0.364067,-0.42333 -0.474134,-0.7112 -0.110066,-0.29633 -0.110066,-0.8382 0,-1.02446 0.821267,-1.81186 z m 1.363134,3.4798 q 0.7112,0 1.286933,-0.97367 0.584201,-0.98213 0.584201,-2.21827 0,-0.18626 -0.04233,-0.2794 -0.04233,-0.0931 -0.1524,-0.18626 -0.313267,-0.26247 -0.668867,-0.26247 -0.05927,0 -0.135466,0.0169 -0.06773,0.008 -0.2286,0.0339 -0.160867,0.0169 -0.381001,0.0423 -0.296333,0.0423 -0.474133,0.13547 -0.169334,0.0847 -0.4318,0.3302 -0.499534,0.47413 -0.711201,0.88053 -0.211666,0.39794 -0.211666,0.87207 0,0.70273 0.4318,1.15147 0.440267,0.44873 1.134534,0.4572 z"
         style="font-family:Purisa;-inkscape-font-specification:Purisa"
         id="path7652" />
      <path
         d="m 99.371812,113.48071 q 0,-1.58326 0.237067,-1.58326 0.04233,0 0.08467,0.0169 0.0508,0.0169 0.118533,0.127 0.06773,0.1016 0.06773,0.28787 0,0.0847 -0.01693,0.28786 -0.01693,0.19474 -0.01693,0.44027 0,0.6858 0.0762,1.66793 0.0762,0.98214 0.160864,1.28694 0.0847,0.3302 0.28787,0.3302 0.19473,0 0.59267,-0.34714 0.49106,-0.4318 0.9398,-1.3462 0.4572,-0.9144 0.635,-1.8288 0.16933,-0.89746 0.2794,-0.95673 0.0847,-0.0593 0.1778,-0.0593 0.2032,0 0.2032,0.23707 0,0.11853 -0.127,0.9906 -0.11854,0.87207 -0.11854,1.25307 0,0.5334 0.21167,1.32926 0.22013,0.79587 0.22013,0.89747 0,0.0847 -0.0677,0.13547 -0.0677,0.0508 -0.11853,0.0593 -0.0423,0.0169 -0.0677,0.0169 -0.1524,0 -0.3048,-0.4318 -0.14393,-0.4318 -0.26246,-0.8636 -0.11007,-0.4318 -0.19474,-0.4318 -0.0169,0 -0.0339,0.008 -0.0169,0.008 -0.0423,0.0339 -0.0169,0.0169 -0.0339,0.0423 -0.0169,0.0254 -0.0508,0.0677 -0.0254,0.0423 -0.0508,0.0762 -0.0169,0.0339 -0.0593,0.1016 -0.0423,0.0677 -0.0677,0.11006 -0.37254,0.5842 -0.82974,0.97367 -0.44873,0.38947 -0.762,0.38947 -0.3556,0 -0.533397,-0.16087 -0.1778,-0.1524 -0.287867,-0.5588 -0.1016,-0.4064 -0.186267,-1.28693 -0.05927,-0.5588 -0.05927,-1.31234 z"
         style="font-family:Purisa;-inkscape-font-specification:Purisa"
         id="path7654" />
      <path
         d="m 105.39161,114.47131 q -0.127,0 -0.54187,-0.3048 -0.41487,-0.31326 -0.41487,-0.635 0,-0.3048 0.4318,-0.8382 0.4318,-0.54186 1.0414,-0.69426 0.2794,-0.0762 0.7366,-0.0762 0.19474,0 0.28787,0.0508 0.0931,0.0508 0.254,0.2286 0.26247,0.29633 0.26247,0.4064 0,0.1016 -0.11007,0.1016 -0.13547,0 -0.2286,-0.0931 -0.0931,-0.1016 -0.2286,-0.2032 -0.13547,-0.1016 -0.36407,-0.1016 -0.29633,0 -0.635,0.16087 -0.33866,0.16087 -0.60113,0.44873 -0.37253,0.39794 -0.37253,0.54187 0,0.14393 0.22013,0.34713 0.22013,0.19474 0.7366,0.37254 0.8128,0.2794 1.10067,0.52493 0.28786,0.24553 0.28786,0.6604 0,0.38947 -0.13546,0.7112 -0.0931,0.24553 -0.39794,0.55033 -0.3048,0.3048 -0.60113,0.3048 -0.2286,0 -0.59267,-0.0762 -0.36406,-0.0677 -0.55033,-0.16086 -0.1524,-0.0762 -0.2794,-0.29634 -0.127,-0.2286 -0.127,-0.4064 0,-0.0931 0.0423,-0.16086 0.0508,-0.0762 0.11854,-0.0762 0.127,0 0.23706,0.23706 0.1016,0.21167 0.4064,0.381 0.31327,0.16934 0.5842,0.16934 0.36407,0 0.64347,-0.4318 0.2794,-0.44027 0.2794,-0.6858 0,-0.0593 -0.0339,-0.14394 -0.0254,-0.0931 -0.14393,-0.22013 -0.11853,-0.127 -0.3048,-0.19473 -0.1778,-0.0593 -0.41487,-0.16087 -0.23706,-0.1016 -0.39793,-0.16933 -0.1524,-0.0677 -0.19473,-0.0677 z"
         style="font-family:Purisa;-inkscape-font-specification:Purisa"
         id="path7656" />
      <path
         d="m 109.10847,114.02258 q 0,0.6604 0.0593,0.98213 0.0593,0.31327 0.2286,0.31327 0.16087,0 0.52494,-0.39793 0.37253,-0.39794 0.52493,-0.74507 0.19473,-0.42333 0.31327,-1.016 0.11853,-0.60113 0.21166,-0.9144 0.0931,-0.31327 0.2794,-0.31327 0.0931,0 0.16934,0.0762 0.0762,0.0762 0.0762,0.19474 0,0.13546 -0.19474,0.889 -0.18626,0.75353 -0.18626,1.58326 0,0.27094 0.0254,0.51647 l 0.0593,0.24553 0.27094,-0.13546 q 0.21166,-0.0931 0.3302,-0.0931 0.22013,0 0.22013,0.16087 0,0.2032 -0.3556,0.38947 l -0.34713,0.1778 0.0423,0.94826 q -0.0508,1.49861 -0.11007,1.58327 -0.0593,0.1016 -0.21166,0.1016 -0.1778,0 -0.5334,-0.1524 -0.2032,-0.0931 -0.32174,-0.2032 -0.11006,-0.11006 -0.21166,-0.32173 -0.23707,-0.4826 -0.23707,-0.8636 0,-0.13547 0.0254,-0.21167 0.0254,-0.0677 0.127,-0.2286 0.1016,-0.1524 0.18627,-0.3048 0.0762,-0.14393 0.24553,-0.23707 0.1778,-0.1016 0.22013,-0.1524 0.0677,-0.0677 0.127,-0.11006 0.0677,-0.0423 0.0847,-0.0593 0.0169,-0.0169 0.0169,-0.0593 0,-0.1016 -0.0508,-0.381 -0.0508,-0.28786 -0.127,-0.28786 -0.0508,0 -0.2286,0.21166 -0.1778,0.2032 -0.44873,0.41487 -0.27093,0.2032 -0.54187,0.2032 -0.33866,0 -0.5588,-0.39793 -0.11006,-0.2032 -0.14393,-0.46567 -0.0254,-0.26247 -0.0254,-1.10913 0.008,-0.95674 0.0677,-1.30387 0.0677,-0.3556 0.24554,-0.3556 0.1016,0 0.13546,0.11853 0.0339,0.11007 0.0339,0.51647 0,0.16087 -0.008,0.55033 -0.008,0.38947 -0.008,0.64347 z m 1.1176,3.36127 q 0,0.1524 0.2286,0.39793 0.23706,0.254 0.3556,0.254 0.127,0 0.127,-0.59267 -0.008,-0.16086 -0.0593,-0.39793 -0.0423,-0.23707 -0.0508,-0.3302 l -0.0508,-0.508 -0.23707,0.36407 q -0.31326,0.49106 -0.31326,0.8128 z"
         style="font-family:Purisa;-inkscape-font-specification:Purisa"
         id="path7658" />
      <path
         d="m 119.48859,114.47131 q -0.127,0 -0.54187,-0.3048 -0.41487,-0.31326 -0.41487,-0.635 0,-0.3048 0.4318,-0.8382 0.4318,-0.54186 1.04141,-0.69426 0.2794,-0.0762 0.7366,-0.0762 0.19473,0 0.28786,0.0508 0.0931,0.0508 0.254,0.2286 0.26247,0.29633 0.26247,0.4064 0,0.1016 -0.11007,0.1016 -0.13546,0 -0.2286,-0.0931 -0.0931,-0.1016 -0.2286,-0.2032 -0.13546,-0.1016 -0.36406,-0.1016 -0.29634,0 -0.635,0.16087 -0.33867,0.16087 -0.60114,0.44873 -0.37253,0.39794 -0.37253,0.54187 0,0.14393 0.22013,0.34713 0.22013,0.19474 0.7366,0.37254 0.8128,0.2794 1.10067,0.52493 0.28787,0.24553 0.28787,0.6604 0,0.38947 -0.13547,0.7112 -0.0931,0.24553 -0.39793,0.55033 -0.3048,0.3048 -0.60114,0.3048 -0.2286,0 -0.59266,-0.0762 -0.36407,-0.0677 -0.55034,-0.16086 -0.1524,-0.0762 -0.2794,-0.29634 -0.127,-0.2286 -0.127,-0.4064 0,-0.0931 0.0423,-0.16086 0.0508,-0.0762 0.11854,-0.0762 0.127,0 0.23706,0.23706 0.1016,0.21167 0.4064,0.381 0.31327,0.16934 0.58421,0.16934 0.36406,0 0.64346,-0.4318 0.2794,-0.44027 0.2794,-0.6858 0,-0.0593 -0.0339,-0.14394 -0.0254,-0.0931 -0.14394,-0.22013 -0.11853,-0.127 -0.3048,-0.19473 -0.1778,-0.0593 -0.41486,-0.16087 -0.23707,-0.1016 -0.39794,-0.16933 -0.1524,-0.0677 -0.19473,-0.0677 z"
         style="font-family:Purisa;-inkscape-font-specification:Purisa"
         id="path7660" />
      <path
         d="m 124.10291,110.57665 q 0,-0.31327 -0.0593,-0.79587 -0.0593,-0.4826 -0.0593,-0.80434 0,-0.16086 0.008,-0.21166 0.0254,-0.13547 0.0931,-0.21167 0.0762,-0.0847 0.1524,-0.0847 0.1016,0 0.14393,0.0931 0.0254,0.0593 0.0762,0.62653 0.0508,0.56727 0.0931,1.10914 0.0423,0.54186 0.0593,0.5588 0.008,0.008 0.0254,0.008 0.0677,0 0.38947,-0.0677 0.3302,-0.0762 0.54186,-0.0762 0.42334,0 0.42334,0.18627 0,0.18626 -0.93134,0.41486 l -0.42333,0.1016 0.0508,1.43087 q 0.0423,1.26153 0.16087,2.3622 0.11853,1.0922 0.11853,1.23613 0,0.26247 -0.19473,0.26247 -0.1524,0 -0.254,-0.27093 -0.0931,-0.27094 -0.0931,-0.70274 0,-0.31326 -0.0254,-0.635 -0.0254,-0.3302 -0.0931,-1.016 -0.0593,-0.69426 -0.11853,-1.4224 -0.0254,-0.38946 -0.0423,-0.60113 -0.008,-0.21167 -0.0254,-0.31327 -0.0169,-0.1016 -0.0254,-0.11853 -0.008,-0.0254 -0.0339,-0.0254 -0.13547,0 -0.65194,0.0931 -0.51646,0.0931 -0.64346,0.0931 -0.24554,0 -0.24554,-0.2032 0,-0.14394 0.3048,-0.24554 0.31327,-0.1016 0.70274,-0.1778 0.38946,-0.0847 0.4826,-0.14393 0.0931,-0.0677 0.0931,-0.44873 z"
         style="font-family:Purisa;-inkscape-font-specification:Purisa"
         id="path7662" />
      <path
         d="m 127.48111,111.63498 q 0.11853,-0.1016 0.2032,-0.1016 0.1778,0 0.254,0.56727 0.0847,0.5588 0.1524,2.159 0.0339,0.74506 0.0339,1.3462 0,0.60113 -0.0508,0.6604 -0.1016,0.127 -0.254,0.127 -0.21166,0 -0.26246,-0.1778 -0.0423,-0.11007 -0.127,-1.71027 -0.0847,-1.60867 -0.0847,-2.2352 0,-0.52493 0.13547,-0.635 z m -0.0508,-1.98967 q 0,-0.11853 0.0931,-0.23707 0.1016,-0.11853 0.1778,-0.11853 0.0847,0 0.2286,0.11853 0.1524,0.11007 0.1524,0.28787 0,0.127 -0.0762,0.22014 -0.0677,0.0847 -0.18627,0.0847 -0.13546,0 -0.26246,-0.1016 -0.127,-0.1016 -0.127,-0.254 z"
         style="font-family:Purisa;-inkscape-font-specification:Purisa"
         id="path7664" />
      <path
         d="m 133.13683,113.05738 q 0,0.14393 -0.0677,0.23707 -0.0593,0.0931 -0.14393,0.0931 -0.16087,0 -0.2032,-0.24553 -0.0169,-0.19474 -0.2794,-0.49107 -0.11007,-0.11853 -0.1778,-0.16933 -0.0677,-0.0508 -0.32173,-0.11007 -0.24554,-0.0593 -0.65194,-0.0593 -0.3302,0 -0.508,0.11854 -0.16933,0.11853 -0.42333,0.4826 -0.6096,0.8636 -0.6096,1.55786 0,0.3556 0.0762,0.60114 0.0762,0.23706 0.14393,0.32173 0.0762,0.0762 0.24554,0.24553 0.24553,0.23707 0.37253,0.3048 0.13547,0.0593 0.37253,0.0593 0.7366,0 1.60867,-0.99907 0.4572,-0.508 0.6604,-0.508 0.11007,0 0.11007,0.16087 0,0.1524 -0.4064,0.65193 -0.39794,0.49954 -0.6858,0.70274 -0.66887,0.4826 -1.1938,0.4826 -0.381,0 -0.8382,-0.2286 -0.46567,-0.2286 -0.67734,-0.61807 -0.2032,-0.38947 -0.24553,-1.13453 -0.0254,-0.28787 -0.0254,-0.4572 0,-0.3302 0.2286,-0.75354 0.23706,-0.4572 0.6858,-0.88053 0.4572,-0.42333 0.7874,-0.51647 0.254,-0.0593 0.55033,-0.0593 0.64347,0 1.12607,0.41486 0.49107,0.4064 0.49107,0.79587 z"
         style="font-family:Purisa;-inkscape-font-specification:Purisa"
         id="path7666" />
      <path
         d="m 134.11049,110.05171 q 0,-0.3048 0.19473,-0.3048 0.16087,0 0.23707,0.19474 0.0508,0.11853 0.11006,0.72813 0.0677,0.6096 0.13547,1.3716 0.0762,0.762 0.127,1.08373 l 0.0677,0.49107 0.9652,-0.9652 q 0.51647,-0.51647 0.72814,-0.69427 0.21166,-0.18626 0.31326,-0.18626 0.0593,0 0.127,0.0847 0.0762,0.0847 0.0762,0.16934 0,0.0593 -0.0339,0.1016 -0.0254,0.0339 -0.0762,0.0677 -0.0423,0.0254 -0.14394,0.13547 -0.1016,0.11006 -0.22013,0.27093 -0.39793,0.56727 -1.33773,1.3208 -0.33867,0.26247 -0.33867,0.44027 0,0.11853 0.1524,0.19473 l 0.90593,0.42333 q 0.62654,0.29634 1.0414,0.59267 0.41487,0.29633 0.41487,0.4572 0,0.1778 -0.16933,0.1778 -0.1524,0 -0.44874,-0.2032 -0.29633,-0.21167 -0.37253,-0.21167 -0.1016,0 -0.1016,-0.0677 0,-0.0931 -1.03293,-0.47413 l -0.44874,-0.16934 0.0593,0.70274 q 0.0254,0.2794 0.0254,0.44026 0,0.3556 -0.1778,0.3556 -0.27093,0 -0.34713,-0.37253 -0.0677,-0.381 -0.127,-1.92193 -0.0508,-1.36314 -0.127,-1.778 -0.0762,-0.4064 -0.127,-1.17687 -0.0508,-0.77047 -0.0508,-1.27847 z"
         style="font-family:Purisa;-inkscape-font-specification:Purisa"
         id="path7668" />
      <path
         d="m 142.88194,114.64065 q 0.0423,0 0.0423,0.0677 0,0.1524 -0.2286,0.49107 -0.22014,0.33866 -0.47414,0.5588 -0.889,0.7874 -1.778,0.7874 -0.33867,0 -0.67733,-0.1524 -0.3302,-0.16087 -0.61807,-0.44874 -0.28787,-0.28786 -0.46567,-0.77046 -0.1778,-0.4826 -0.1778,-1.07527 0,-0.36407 0.0847,-0.61807 0.16933,-0.51646 0.71967,-1.0922 0.5588,-0.57573 1.04986,-0.57573 0.13547,0 0.4064,0.0254 0.4064,0.0339 0.56727,0.0847 0.16934,0.0508 0.381,0.21166 0.27094,0.2032 0.46567,0.52494 0.2032,0.31326 0.2032,0.52493 0,0.27093 -0.21167,0.41487 -0.21166,0.13546 -0.82127,0.27093 -0.79586,0.1778 -1.55786,0.22013 l -0.7874,0.0423 v 0.33866 q 0,0.62654 0.5842,1.18534 0.44026,0.42333 0.9144,0.42333 0.36406,0 0.77046,-0.22013 0.41487,-0.2286 0.70274,-0.49954 0.28787,-0.27093 0.55033,-0.49106 0.26247,-0.2286 0.3556,-0.2286 z m -1.36313,-2.06587 q -0.26247,-0.23707 -0.39794,-0.29633 -0.127,-0.0677 -0.33866,-0.0677 -0.42334,0 -0.635,0.0847 -0.2032,0.0762 -0.41487,0.32173 -0.64347,0.7366 -0.64347,0.98214 0,0.11006 0.2032,0.11006 0.77047,0 2.1844,-0.32173 0.42334,-0.1016 0.42334,-0.3556 0,-0.11853 -0.381,-0.4572 z"
         style="font-family:Purisa;-inkscape-font-specification:Purisa"
         id="path7670" />
      <path
         d="m 146.80201,112.34618 q 0.14393,0 0.254,0.0931 0.11006,0.0847 0.11006,0.14394 0,0.1016 -0.32173,0.2286 -0.52493,0.21166 -1.07527,1.02446 -0.54187,0.80434 -0.6604,1.55787 -0.13547,0.85513 -0.22013,1.1176 -0.0847,0.27093 -0.22014,0.27093 -0.11853,0 -0.18626,-0.0847 -0.0593,-0.0847 -0.0847,-0.18627 -0.0169,-0.1016 -0.0423,-0.37253 -0.008,-0.0508 -0.008,-0.0762 -0.2032,-2.1336 -0.2032,-3.36974 0,-0.44026 0.0339,-0.54186 0.0931,-0.27094 0.23706,-0.27094 0.13547,0 0.13547,0.2286 0,0.381 0.11853,1.22767 0.11854,0.84667 0.1778,0.84667 0.0762,0 0.31327,-0.46567 0.29633,-0.55033 0.7874,-0.95673 0.49954,-0.41487 0.85514,-0.41487 z"
         style="font-family:Purisa;-inkscape-font-specification:Purisa"
         id="path7672" />
    </g>
  </g>
</svg>
