<?xml version="1.0" encoding="UTF-8" standalone="no"?>
<svg
   width="3600"
   height="3600"
   viewBox="0 0 368.64 368.6747"
   preserveAspectRatio="xMinYMin meet"
   id="svg2"
   version="1.1"
   inkscape:version="1.1.2 (0a00cf5339, 2022-02-04)"
   sodipodi:docname="monad.svg"
   inkscape:export-filename="/home/gram/projects/other/stickers/3sticker/python.png"
   inkscape:export-xdpi="50.619999"
   inkscape:export-ydpi="50.619999"
   xmlns:inkscape="http://www.inkscape.org/namespaces/inkscape"
   xmlns:sodipodi="http://sodipodi.sourceforge.net/DTD/sodipodi-0.dtd"
   xmlns="http://www.w3.org/2000/svg"
   xmlns:svg="http://www.w3.org/2000/svg"
   xmlns:rdf="http://www.w3.org/1999/02/22-rdf-syntax-ns#"
   xmlns:cc="http://creativecommons.org/ns#"
   xmlns:dc="http://purl.org/dc/elements/1.1/">
  <metadata
     id="metadata22">
    <rdf:RDF>
      <cc:Work
         rdf:about="">
        <dc:format>image/svg+xml</dc:format>
        <dc:type
           rdf:resource="http://purl.org/dc/dcmitype/StillImage" />
      </cc:Work>
    </rdf:RDF>
  </metadata>
  <sodipodi:namedview
     pagecolor="#ffffff"
     bordercolor="#666666"
     borderopacity="1"
     objecttolerance="10"
     gridtolerance="10"
     guidetolerance="10"
     inkscape:pageopacity="0"
     inkscape:pageshadow="2"
     inkscape:window-width="1712"
     inkscape:window-height="860"
     id="namedview20"
     showgrid="false"
     inkscape:snap-bbox="true"
     inkscape:bbox-paths="true"
     inkscape:bbox-nodes="true"
     inkscape:snap-bbox-edge-midpoints="true"
     inkscape:zoom="0.13403791"
     inkscape:cx="1704.7416"
     inkscape:cy="1738.3142"
     inkscape:window-x="0"
     inkscape:window-y="30"
     inkscape:window-maximized="1"
     inkscape:current-layer="svg2"
     fit-margin-top="0"
     fit-margin-left="0"
     fit-margin-right="0"
     fit-margin-bottom="0"
     inkscape:snap-global="true"
     inkscape:snap-bbox-midpoints="true"
     inkscape:snap-object-midpoints="true"
     inkscape:pagecheckerboard="0">
    <inkscape:grid
       type="xygrid"
       id="grid3350"
       originx="57.344"
       originy="57.349394" />
  </sodipodi:namedview>
  <defs
     id="defs4">
    <linearGradient
       x1="24.714632"
       y1="22.897127"
       x2="151.13583"
       y2="148.33623"
       id="a"
       gradientTransform="matrix(1.1202469,0,0,1.1227451,41.920954,40.772429)"
       gradientUnits="userSpaceOnUse">
      <stop
         stop-color="#387EB8"
         offset="0%"
         id="stop7" />
      <stop
         stop-color="#366994"
         offset="100%"
         id="stop9" />
    </linearGradient>
    <linearGradient
       x1="102.48345"
       y1="103.26573"
       x2="238.2592"
       y2="231.90517"
       id="b"
       gradientTransform="matrix(1.1202468,0,0,1.1227454,41.920954,40.772429)"
       gradientUnits="userSpaceOnUse">
      <stop
         stop-color="#FFE052"
         offset="0%"
         id="stop12" />
      <stop
         stop-color="#FFC331"
         offset="100%"
         id="stop14" />
    </linearGradient>
  </defs>
  <circle
     style="fill:#ffffff;fill-opacity:1;stroke:none;stroke-width:1.14851928;stroke-miterlimit:4;stroke-dasharray:none;stroke-opacity:1"
     id="path3352"
     cx="184.33736"
     cy="184.33736"
     r="183.76309" />
  <g
     aria-label="orsinium.dev"
     transform="rotate(0.6398818)"
     id="text4146"
     style="line-height:0%;font-family:'Nimbus Sans L';-inkscape-font-specification:'Nimbus Sans L';letter-spacing:0px;word-spacing:0px;fill:#808080;stroke-width:1px">
    <path
       d="m 146.29603,325.0853 c -2.36802,0 -3.77603,1.68001 -3.77603,4.49602 0,2.83202 1.40801,4.49603 3.79203,4.49603 2.36801,0 3.79202,-1.68001 3.79202,-4.43202 0,-2.91202 -1.37601,-4.56003 -3.80802,-4.56003 z m 0.016,1.232 c 1.50401,0 2.40001,1.23201 2.40001,3.31203 0,1.98401 -0.928,3.21602 -2.40001,3.21602 -1.48801,0 -2.40002,-1.23201 -2.40002,-3.26403 0,-2.03201 0.91201,-3.26402 2.40002,-3.26402 z"
       style="font-size:16.0001px;line-height:1.25"
       id="path9111" />
    <path
       d="m 151.94406,325.3253 v 8.38405 h 1.34401 v -4.35203 c 0.016,-2.01601 0.848,-2.91201 2.68801,-2.86401 v -1.36001 c -0.224,-0.032 -0.352,-0.048 -0.512,-0.048 -0.86401,0 -1.52001,0.512 -2.28801,1.76001 v -1.52001 z"
       style="font-size:16.0001px;line-height:1.25"
       id="path9113" />
    <path
       d="m 163.25609,327.66131 c -0.016,-1.64801 -1.10401,-2.57601 -3.04002,-2.57601 -1.95201,0 -3.21602,1.008 -3.21602,2.56001 0,1.31201 0.672,1.93601 2.65602,2.41602 l 1.248,0.304 c 0.92801,0.224 1.29601,0.56 1.29601,1.15201 0,0.8 -0.784,1.32801 -1.95201,1.32801 -0.72001,0 -1.32801,-0.20801 -1.66401,-0.56001 -0.208,-0.24 -0.304,-0.48 -0.384,-1.072 h -1.40801 c 0.064,1.93601 1.152,2.86401 3.34402,2.86401 2.11201,0 3.45602,-1.04 3.45602,-2.65601 0,-1.24801 -0.704,-1.93602 -2.36802,-2.33602 l -1.28,-0.304 c -1.08801,-0.256 -1.55201,-0.608 -1.55201,-1.20001 0,-0.784 0.688,-1.26401 1.77601,-1.26401 1.072,0 1.64801,0.46401 1.68001,1.34401 z"
       style="font-size:16.0001px;line-height:1.25"
       id="path9115" />
    <path
       d="m 166.64808,325.3253 h -1.32801 v 8.38405 h 1.32801 z m 0,-3.28002 h -1.34401 v 1.68001 h 1.34401 z"
       style="font-size:16.0001px;line-height:1.25"
       id="path9117" />
    <path
       d="m 168.92006,325.3253 v 8.38405 h 1.34401 v -4.62403 c 0,-1.71201 0.89601,-2.83202 2.27202,-2.83202 1.056,0 1.72801,0.64001 1.72801,1.64801 v 5.80804 h 1.328 v -6.33604 c 0,-1.39201 -1.04,-2.28801 -2.65601,-2.28801 -1.24801,0 -2.04801,0.48 -2.78402,1.64801 v -1.40801 z"
       style="font-size:16.0001px;line-height:1.25"
       id="path9119" />
    <path
       d="m 179.09612,325.3253 h -1.32801 v 8.38405 h 1.32801 z m 0,-3.28002 h -1.34401 v 1.68001 h 1.34401 z"
       style="font-size:16.0001px;line-height:1.25"
       id="path9121" />
    <path
       d="m 187.96015,333.70935 v -8.38405 h -1.32801 v 4.75203 c 0,1.71201 -0.89601,2.83202 -2.28801,2.83202 -1.05601,0 -1.72802,-0.64001 -1.72802,-1.64801 v -5.93604 h -1.328 v 6.46404 c 0,1.39201 1.04,2.28801 2.67201,2.28801 1.23201,0 2.01602,-0.432 2.80002,-1.53601 v 1.16801 z"
       style="font-size:16.0001px;line-height:1.25"
       id="path9123" />
    <path
       d="m 190.26416,325.3253 v 8.38405 h 1.34401 v -5.26403 c 0,-1.21601 0.88,-2.19202 1.96801,-2.19202 0.99201,0 1.55201,0.60801 1.55201,1.68001 v 5.77604 h 1.34401 v -5.26403 c 0,-1.21601 0.88,-2.19202 1.96801,-2.19202 0.97601,0 1.55201,0.62401 1.55201,1.68001 v 5.77604 h 1.34401 v -6.28804 c 0,-1.50401 -0.86401,-2.33601 -2.43202,-2.33601 -1.12,0 -1.79201,0.336 -2.57601,1.28001 -0.496,-0.89601 -1.16801,-1.28001 -2.25602,-1.28001 -1.12,0 -1.87201,0.416 -2.57601,1.42401 v -1.18401 z"
       style="font-size:16.0001px;line-height:1.25"
       id="path9125" />
    <path
       d="m 205.52823,332.04534 h -1.66402 v 1.66401 h 1.66402 z"
       style="font-size:16.0001px;line-height:1.25"
       id="path9127" />
    <path
       d="m 214.84028,322.04528 h -1.328 v 4.33603 c -0.56001,-0.84801 -1.45601,-1.29601 -2.57602,-1.29601 -2.17601,0 -3.60002,1.74401 -3.60002,4.41602 0,2.83202 1.37601,4.57603 3.64802,4.57603 1.15201,0 1.95201,-0.432 2.67202,-1.47201 v 1.10401 h 1.184 z m -3.68002,4.28802 c 1.44001,0 2.35202,1.26401 2.35202,3.28003 0,1.93601 -0.92801,3.21602 -2.33602,3.21602 -1.47201,0 -2.44801,-1.29601 -2.44801,-3.24803 0,-1.95201 0.976,-3.24802 2.43201,-3.24802 z"
       style="font-size:16.0001px;line-height:1.25"
       id="path9129" />
    <path
       d="m 224.02434,329.96533 c 0,-1.28001 -0.096,-2.04802 -0.33601,-2.67202 -0.544,-1.37601 -1.82401,-2.20801 -3.39202,-2.20801 -2.33601,0 -3.84002,1.77601 -3.84002,4.54403 0,2.76801 1.44001,4.44802 3.80802,4.44802 1.92001,0 3.24802,-1.088 3.58402,-2.91202 h -1.344 c -0.36801,1.10401 -1.12001,1.68002 -2.19202,1.68002 -0.848,0 -1.56801,-0.38401 -2.01601,-1.08801 -0.32,-0.48 -0.432,-0.96001 -0.448,-1.79201 z m -6.14404,-1.08801 c 0.112,-1.55201 1.056,-2.56002 2.40001,-2.56002 1.36001,0 2.30402,1.05601 2.30402,2.56002 z"
       style="font-size:16.0001px;line-height:1.25"
       id="path9131" />
    <path
       d="m 229.03234,333.70935 3.21602,-8.38405 h -1.50401 l -2.36801,6.80004 -2.24002,-6.80004 h -1.50401 l 2.94402,8.38405 z"
       style="font-size:16.0001px;line-height:1.25"
       id="path9133" />
  </g>
  <g
     aria-label="a monad is just 
a monoid in 
the category of 
endofunctors"
     id="text20"
     style="font-size:19.6627px;line-height:1.25;font-family:Roboto;-inkscape-font-specification:Roboto;text-align:center;letter-spacing:0px;word-spacing:0px;text-anchor:middle;stroke-width:0.10241">
    <path
       d="m 65.211746,114.56815 q -0.240023,-0.50004 -0.480046,-1.68016 -1.520145,2.0802 -4.120393,2.0802 -2.720259,0 -4.52043,-1.80017 -1.78017,-1.80017 -1.78017,-4.66044 0,-3.40033 2.160206,-5.2605 2.180208,-1.86018 6.260596,-1.90019 h 1.720164 v -1.740162 q 0,-1.460139 -0.500047,-2.060196 -0.500048,-0.600057 -1.46014,-0.600057 -2.120201,0 -2.120201,2.480236 h -5.66054 q 0,-3.000285 2.240214,-4.94047 2.260215,-1.960187 5.700543,-1.960187 3.560339,0 5.500524,1.860177 1.960186,1.840175 1.960186,5.280503 V 109.8477 q 0.04,2.80027 0.800076,4.38042 v 0.34003 z m -3.340319,-4.04038 q 0.94009,0 1.600153,-0.38004 0.660063,-0.38003 0.980093,-0.90008 v -4.50043 h -1.360129 q -1.440138,0 -2.280218,0.92009 -0.820078,0.92008 -0.820078,2.46023 0,2.40023 1.880179,2.40023 z"
       style="font-weight:bold;font-size:40.9639px;font-family:'Roboto Condensed';-inkscape-font-specification:'Roboto Condensed, ';fill:#2c3e50"
       id="path8898" />
    <path
       d="m 88.974008,92.926092 0.160015,2.000191 q 1.900181,-2.400229 5.020478,-2.400229 3.240309,0 4.580436,2.920278 1.860173,-2.920278 5.300503,-2.920278 5.68054,0 5.82056,7.860746 v 14.18135 h -5.66054 v -13.82131 q 0,-1.880182 -0.52005,-2.680258 -0.52005,-0.800076 -1.76017,-0.800076 -1.58015,0 -2.360225,1.940184 l 0.04,0.680065 V 114.56815 H 93.93448 v -13.78131 q 0,-1.860176 -0.500048,-2.680254 -0.500047,-0.84008 -1.780169,-0.84008 -1.460139,0 -2.320221,1.58015 V 114.56815 H 83.673503 V 92.926092 Z"
       style="font-weight:bold;font-size:40.9639px;fill:#d35400"
       id="path8900" />
    <path
       d="m 113.37633,103.04706 q 0,-4.920473 2.32022,-7.720739 2.32022,-2.800267 6.42061,-2.800267 4.1404,0 6.46062,2.800267 2.32022,2.800266 2.32022,7.760739 v 1.38013 q 0,4.94047 -2.30022,7.72074 -2.30022,2.78026 -6.44061,2.78026 -4.1604,0 -6.48062,-2.78026 -2.30022,-2.80027 -2.30022,-7.76074 z m 5.68054,1.42013 q 0,5.80055 3.1003,5.80055 2.86027,0 3.08029,-4.84046 l 0.02,-2.38022 q 0,-2.96029 -0.82007,-4.380421 -0.82008,-1.440137 -2.32023,-1.440137 -1.44013,0 -2.26021,1.440137 -0.80008,1.420131 -0.80008,4.380421 z"
       style="font-weight:bold;font-size:40.9639px;fill:#d35400"
       id="path8902" />
    <path
       d="m 139.59883,92.926092 0.16002,2.140204 q 1.92018,-2.540242 5.02047,-2.540242 5.58054,0 5.74055,7.820746 v 14.22135 h -5.68054 v -13.80131 q 0,-1.840176 -0.56005,-2.660254 -0.54005,-0.84008 -1.92019,-0.84008 -1.54014,0 -2.40022,1.58015 v 15.721494 h -5.68055 V 92.926092 Z"
       style="font-weight:bold;font-size:40.9639px;fill:#d35400"
       id="path8904" />
    <path
       d="m 164.86124,114.56815 q -0.24003,-0.50004 -0.48005,-1.68016 -1.52014,2.0802 -4.12039,2.0802 -2.72026,0 -4.52043,-1.80017 -1.78017,-1.80017 -1.78017,-4.66044 0,-3.40033 2.1602,-5.2605 2.18021,-1.86018 6.2606,-1.90019 h 1.72016 v -1.740162 q 0,-1.460139 -0.50004,-2.060196 -0.50005,-0.600057 -1.46014,-0.600057 -2.12021,0 -2.12021,2.480236 h -5.66053 q 0,-3.000285 2.24021,-4.94047 2.26021,-1.960187 5.70054,-1.960187 3.56034,0 5.50053,1.860177 1.96018,1.840175 1.96018,5.280503 V 109.8477 q 0.04,2.80027 0.80008,4.38042 v 0.34003 z m -3.34032,-4.04038 q 0.94009,0 1.60015,-0.38004 0.66006,-0.38003 0.98009,-0.90008 v -4.50043 h -1.36013 q -1.44013,0 -2.28021,0.92009 -0.82008,0.92008 -0.82008,2.46023 0,2.40023 1.88018,2.40023 z"
       style="font-weight:bold;font-size:40.9639px;fill:#d35400"
       id="path8906" />
    <path
       d="m 173.10202,103.08706 q 0,-5.320507 1.80017,-7.940756 1.80017,-2.62025 5.2405,-2.62025 2.50024,0 4.1604,2.160206 V 83.845227 h 5.70054 v 30.722923 h -5.14049 l -0.26002,-2.20021 q -1.74017,2.60025 -4.48043,2.60025 -3.40032,0 -5.20049,-2.60025 -1.78017,-2.60024 -1.82018,-7.64072 z m 5.68054,1.42014 q 0,3.2003 0.68007,4.48042 0.68006,1.26012 2.30022,1.26012 1.68016,0 2.54024,-1.50014 v -9.880942 q -0.84008,-1.600152 -2.52024,-1.600152 -1.56015,0 -2.28022,1.26012 -0.72007,1.26012 -0.72007,4.480424 z"
       style="font-weight:bold;font-size:40.9639px;fill:#d35400"
       id="path8908" />
    <path
       d="m 209.5455,114.56815 h -5.68055 V 92.926092 h 5.68055 z m -5.94057,-27.242591 q 0,-1.320126 0.84008,-2.160206 0.84008,-0.84008 2.24021,-0.84008 1.40014,0 2.24022,0.84008 0.84008,0.84008 0.84008,2.160206 0,1.300124 -0.84008,2.160205 -0.82008,0.860082 -2.24022,0.860082 -1.42013,0 -2.26021,-0.860082 -0.82008,-0.860081 -0.82008,-2.160205 z"
       style="font-weight:bold;font-size:40.9639px;font-family:'Roboto Condensed';-inkscape-font-specification:'Roboto Condensed, ';fill:#2c3e50"
       id="path8910" />
    <path
       d="m 223.50683,108.7676 q 0,-0.72007 -0.70007,-1.32012 -0.68006,-0.62006 -3.06029,-1.66016 -3.50033,-1.42014 -4.82046,-2.94028 -1.30012,-1.52015 -1.30012,-3.780363 0,-2.840271 2.04019,-4.680446 2.0602,-1.860177 5.44052,-1.860177 3.56034,0 5.70054,1.840175 2.1402,1.840176 2.1402,4.940471 h -5.66053 q 0,-2.640252 -2.20021,-2.640252 -0.90009,0 -1.48014,0.560054 -0.58006,0.560053 -0.58006,1.560148 0,0.720069 0.64006,1.28012 0.64006,0.54005 3.02029,1.56015 3.46033,1.28012 4.88046,2.86027 1.44014,1.56015 1.44014,4.06039 0,2.90028 -2.18021,4.66044 -2.1802,1.76017 -5.72054,1.76017 -2.38023,0 -4.2004,-0.92009 -1.82018,-0.94009 -2.86027,-2.60024 -1.0201,-1.66016 -1.0201,-3.58034 h 5.38051 q 0.04,1.48014 0.68007,2.22021 0.66006,0.74007 2.1402,0.74007 2.28022,0 2.28022,-2.0602 z"
       style="font-weight:bold;font-size:40.9639px;font-family:'Roboto Condensed';-inkscape-font-specification:'Roboto Condensed, ';fill:#2c3e50"
       id="path8912" />
    <path
       d="m 247.92915,92.926092 v 22.802168 q 0,3.70036 -1.70017,5.64054 -1.70016,1.94019 -4.82046,1.94019 -1.32012,0 -2.56024,-0.34004 l -0.02,-4.62044 q 0.94009,0.18002 1.50014,0.18002 1.88018,0 1.92018,-2.64025 V 92.926092 Z m -6.06058,-5.600533 q 0,-1.320126 0.84008,-2.160206 0.84008,-0.84008 2.24021,-0.84008 1.40013,0 2.24021,0.84008 0.84008,0.84008 0.84008,2.160206 0,1.300124 -0.84008,2.160205 -0.82007,0.860082 -2.24021,0.860082 -1.42013,0 -2.26021,-0.860082 -0.82008,-0.860081 -0.82008,-2.160205 z"
       style="font-weight:bold;font-size:40.9639px;font-family:'Roboto Condensed';-inkscape-font-specification:'Roboto Condensed, ';fill:#2c3e50"
       id="path8914" />
    <path
       d="m 262.67055,112.58796 q -1.76017,2.38023 -4.72045,2.38023 -2.98028,0 -4.52043,-2.04019 -1.54015,-2.0602 -1.54015,-5.98057 V 92.926092 h 5.66054 v 14.161348 q 0.04,3.1603 2.1002,3.1603 1.94019,0 2.80027,-1.68016 V 92.926092 h 5.70054 v 21.642058 h -5.3205 z"
       style="font-weight:bold;font-size:40.9639px;font-family:'Roboto Condensed';-inkscape-font-specification:'Roboto Condensed, ';fill:#2c3e50"
       id="path8916" />
    <path
       d="m 281.77238,108.7676 q 0,-0.72007 -0.70007,-1.32012 -0.68007,-0.62006 -3.06029,-1.66016 -3.50034,-1.42014 -4.82046,-2.94028 -1.30013,-1.52015 -1.30013,-3.780363 0,-2.840271 2.0402,-4.680446 2.06019,-1.860177 5.44052,-1.860177 3.56034,0 5.70054,1.840175 2.1402,1.840176 2.1402,4.940471 h -5.66054 q 0,-2.640252 -2.20021,-2.640252 -0.90008,0 -1.48014,0.560054 -0.58005,0.560053 -0.58005,1.560148 0,0.720069 0.64006,1.28012 0.64006,0.54005 3.02029,1.56015 3.46033,1.28012 4.88046,2.86027 1.44014,1.56015 1.44014,4.06039 0,2.90028 -2.18021,4.66044 -2.18021,1.76017 -5.72054,1.76017 -2.38023,0 -4.2004,-0.92009 -1.82018,-0.94009 -2.86028,-2.60024 -1.02009,-1.66016 -1.02009,-3.58034 h 5.38051 q 0.04,1.48014 0.68006,2.22021 0.66007,0.74007 2.14021,0.74007 2.28022,0 2.28022,-2.0602 z"
       style="font-weight:bold;font-size:40.9639px;font-family:'Roboto Condensed';-inkscape-font-specification:'Roboto Condensed, ';fill:#2c3e50"
       id="path8918" />
    <path
       d="m 297.37385,87.605585 v 5.320507 h 2.90028 v 4.260406 h -2.90028 v 10.741022 q 0,1.28012 0.34003,1.76017 0.36004,0.48004 1.36013,0.48004 0.82008,0 1.34013,-0.14001 l -0.04,4.40042 q -1.44014,0.54005 -3.1203,0.54005 -5.48052,0 -5.54053,-6.2806 V 97.186498 h -2.50024 v -4.260406 h 2.50024 v -5.320507 z"
       style="font-weight:bold;font-size:40.9639px;font-family:'Roboto Condensed';-inkscape-font-specification:'Roboto Condensed, ';fill:#2c3e50"
       id="path8920" />
    <path
       d="m 84.05354,165.77303 q -0.400038,-0.78007 -0.580055,-1.94018 -2.1002,2.34022 -5.46052,2.34022 -3.180303,0 -5.280503,-1.84018 -2.080198,-1.84017 -2.080198,-4.64044 0,-3.44033 2.540242,-5.2805 2.560243,-1.84018 7.380703,-1.86018 h 2.660253 v -1.24012 q 0,-1.50014 -0.780074,-2.40023 -0.760073,-0.90008 -2.420231,-0.90008 -1.460139,0 -2.300219,0.70007 -0.820078,0.70006 -0.820078,1.92018 h -5.780551 q 0,-1.88018 1.160111,-3.48033 1.16011,-1.60016 3.280312,-2.50024 2.120202,-0.92009 4.760454,-0.92009 4.000381,0 6.340604,2.02019 2.360224,2.00019 2.360224,5.64054 v 9.38089 q 0.02,3.0803 0.860082,4.66045 v 0.34003 z m -4.780455,-4.02038 q 1.280122,0 2.360225,-0.56006 1.080102,-0.58005 1.600152,-1.54014 v -3.72036 h -2.160206 q -4.340413,0 -4.62044,3.00029 l -0.02,0.34003 q 0,1.0801 0.760073,1.78017 0.760072,0.70007 2.080198,0.70007 z"
       style="font-weight:bold;font-size:40.9639px;fill:#2c3e50"
       id="path8922" />
    <path
       d="m 109.09592,144.13097 0.18002,2.42023 q 2.30022,-2.82027 6.22059,-2.82027 4.1804,0 5.74055,3.30032 2.28022,-3.30032 6.50062,-3.30032 3.52034,0 5.2405,2.0602 1.72016,2.04019 1.72016,6.16058 v 13.82132 h -5.80055 v -13.80131 q 0,-1.84018 -0.72007,-2.68026 -0.72007,-0.86008 -2.54024,-0.86008 -2.60025,0 -3.60034,2.48023 l 0.02,14.86142 h -5.78055 v -13.78131 q 0,-1.88018 -0.74007,-2.72026 -0.74007,-0.84008 -2.52024,-0.84008 -2.46024,0 -3.56034,2.04019 v 15.30146 h -5.78055 v -21.64206 z"
       style="font-weight:bold;font-size:40.9639px;fill:#d35400"
       id="path8924" />
    <path
       d="m 138.2387,154.75198 q 0,-3.22031 1.24012,-5.74055 1.24012,-2.52024 3.56034,-3.90037 2.34022,-1.38013 5.42052,-1.38013 4.38041,0 7.14068,2.68026 2.78026,2.68025 3.10029,7.28069 l 0.04,1.48014 q 0,4.98047 -2.78026,8.00076 -2.78027,3.00029 -7.46071,3.00029 -4.68045,0 -7.48071,-3.00029 -2.78027,-3.00028 -2.78027,-8.16077 z m 5.78055,0.42004 q 0,3.08029 1.16011,4.72045 1.16011,1.62015 3.32032,1.62015 2.1002,0 3.28031,-1.60015 1.18011,-1.62015 1.18011,-5.16049 0,-3.02029 -1.18011,-4.68045 -1.18011,-1.66015 -3.32031,-1.66015 -2.12021,0 -3.28032,1.66015 -1.16011,1.64016 -1.16011,5.10049 z"
       style="font-weight:bold;font-size:40.9639px;fill:#d35400"
       id="path8926" />
    <path
       d="m 167.6215,144.13097 0.18002,2.50024 q 2.32022,-2.90028 6.22059,-2.90028 3.44033,0 5.12049,2.02019 1.68016,2.0202 1.72016,6.04058 v 13.98133 h -5.78055 v -13.84132 q 0,-1.84017 -0.80007,-2.66025 -0.80008,-0.84008 -2.66026,-0.84008 -2.44023,0 -3.66034,2.0802 v 15.26145 h -5.78056 v -21.64206 z"
       style="font-weight:bold;font-size:40.9639px;fill:#d35400"
       id="path8928" />
    <path
       d="m 184.34309,154.75198 q 0,-3.22031 1.24012,-5.74055 1.24012,-2.52024 3.56034,-3.90037 2.34022,-1.38013 5.42052,-1.38013 4.38042,0 7.14068,2.68026 2.78026,2.68025 3.10029,7.28069 l 0.04,1.48014 q 0,4.98047 -2.78027,8.00076 -2.78026,3.00029 -7.46071,3.00029 -4.68044,0 -7.48071,-3.00029 -2.78027,-3.00028 -2.78027,-8.16077 z m 5.78056,0.42004 q 0,3.08029 1.16011,4.72045 1.16011,1.62015 3.32031,1.62015 2.1002,0 3.28031,-1.60015 1.18012,-1.62015 1.18012,-5.16049 0,-3.02029 -1.18012,-4.68045 -1.18011,-1.66015 -3.32031,-1.66015 -2.1202,0 -3.28031,1.66015 -1.16011,1.64016 -1.16011,5.10049 z"
       style="font-weight:bold;font-size:40.9639px;fill:#d35400"
       id="path8930" />
    <path
       d="m 214.50596,165.77303 h -5.80055 v -21.64206 h 5.80055 z m -6.14058,-27.24259 q 0,-1.30013 0.86008,-2.14021 0.88008,-0.84008 2.38023,-0.84008 1.48014,0 2.36022,0.84008 0.88008,0.84008 0.88008,2.14021 0,1.32012 -0.90008,2.1602 -0.88008,0.84008 -2.34022,0.84008 -1.46014,0 -2.36023,-0.84008 -0.88008,-0.84008 -0.88008,-2.1602 z"
       style="font-weight:bold;font-size:40.9639px;fill:#d35400"
       id="path8932" />
    <path
       d="m 218.36633,154.79198 q 0,-5.06048 2.26022,-8.06076 2.28022,-3.00029 6.22059,-3.00029 3.1603,0 5.2205,2.36023 V 135.0501 h 5.80055 v 30.72293 h -5.2205 l -0.28002,-2.30022 q -2.16021,2.70026 -5.56053,2.70026 -3.82037,0 -6.14059,-3.00029 -2.30022,-3.02029 -2.30022,-8.3808 z m 5.78055,0.42004 q 0,3.04029 1.06011,4.66045 1.0601,1.62015 3.08029,1.62015 2.68025,0 3.78036,-2.26021 v -8.54082 q -1.0801,-2.26021 -3.74036,-2.26021 -4.1804,0 -4.1804,6.78064 z"
       style="font-weight:bold;font-size:40.9639px;fill:#d35400"
       id="path8934" />
    <path
       d="m 258.65017,165.77303 h -5.80055 v -21.64206 h 5.80055 z m -6.14058,-27.24259 q 0,-1.30013 0.86008,-2.14021 0.88008,-0.84008 2.38023,-0.84008 1.48014,0 2.36022,0.84008 0.88009,0.84008 0.88009,2.14021 0,1.32012 -0.90009,2.1602 -0.88008,0.84008 -2.34022,0.84008 -1.46014,0 -2.36023,-0.84008 -0.88008,-0.84008 -0.88008,-2.1602 z"
       style="font-weight:bold;font-size:40.9639px;fill:#2c3e50"
       id="path8936" />
    <path
       d="m 268.73114,144.13097 0.18001,2.50024 q 2.32023,-2.90028 6.2206,-2.90028 3.44032,0 5.12048,2.02019 1.68016,2.0202 1.72017,6.04058 v 13.98133 h -5.78055 v -13.84132 q 0,-1.84017 -0.80008,-2.66025 -0.80007,-0.84008 -2.66025,-0.84008 -2.44023,0 -3.66035,2.0802 v 15.26145 h -5.78055 v -21.64206 z"
       style="font-weight:bold;font-size:40.9639px;fill:#2c3e50"
       id="path8938" />
    <path
       d="m 61.081352,190.01534 v 5.32051 h 2.900276 v 4.2604 h -2.900276 v 10.74102 q 0,1.28013 0.340033,1.76017 0.360034,0.48005 1.360129,0.48005 0.820078,0 1.340128,-0.14002 l -0.04,4.40042 q -1.440137,0.54006 -3.120297,0.54006 -5.480522,0 -5.540528,-6.2806 v -11.5011 h -2.500238 v -4.2604 h 2.500238 v -5.32051 z"
       style="font-weight:bold;font-size:40.9639px;font-family:'Roboto Condensed';-inkscape-font-specification:'Roboto Condensed, ';fill:#2c3e50"
       id="path8940" />
    <path
       d="m 72.60245,197.23603 q 1.840175,-2.30022 4.52043,-2.30022 2.960282,0 4.500429,2.0802 1.540147,2.08019 1.560149,6.20059 v 13.76131 H 77.502917 V 203.2766 q 0,-1.90018 -0.600058,-2.74026 -0.580055,-0.86008 -1.900181,-0.86008 -1.540146,0 -2.400228,1.42013 v 15.88152 h -5.660539 v -30.72293 h 5.660539 z"
       style="font-weight:bold;font-size:40.9639px;font-family:'Roboto Condensed';-inkscape-font-specification:'Roboto Condensed, ';fill:#2c3e50"
       id="path8942" />
    <path
       d="m 95.984676,217.37795 q -4.360415,0 -6.800648,-2.60025 -2.440232,-2.60025 -2.440232,-7.44071 v -1.72016 q 0,-5.12049 2.240213,-7.90076 2.240214,-2.78026 6.420612,-2.78026 4.080389,0 6.140589,2.62025 2.06019,2.60025 2.1002,7.72073 v 2.78027 H 92.384333 q 0.120012,2.40023 1.060101,3.52033 0.94009,1.10011 2.900276,1.10011 2.840271,0 4.74045,-1.94019 l 2.22021,3.42033 q -1.0401,1.44014 -3.02028,2.34022 -1.980193,0.88009 -4.300414,0.88009 z m -3.560339,-13.28127 h 5.660539 v -0.52005 q -0.04,-1.94018 -0.640061,-2.94028 -0.600057,-1.00009 -2.080198,-1.00009 -1.480141,0 -2.160206,1.0601 -0.660062,1.0601 -0.780074,3.40032 z"
       style="font-weight:bold;font-size:40.9639px;font-family:'Roboto Condensed';-inkscape-font-specification:'Roboto Condensed, ';fill:#2c3e50"
       id="path8944" />
    <path
       d="m 124.10736,212.6775 q 2.46023,0 2.50023,-3.20031 h 5.32051 q -0.04,3.54034 -2.18021,5.72055 -2.1402,2.18021 -5.52052,2.18021 -4.1804,0 -6.38061,-2.60025 -2.20021,-2.60025 -2.24021,-7.66073 v -1.72017 q 0,-5.10048 2.1602,-7.78074 2.18021,-2.68025 6.42061,-2.68025 3.58034,0 5.64054,2.22021 2.0602,2.20021 2.1002,6.2606 h -5.32051 q -0.02,-1.82018 -0.60005,-2.80027 -0.58006,-0.98009 -1.92019,-0.98009 -1.48014,0 -2.1202,1.0601 -0.64006,1.0401 -0.68006,4.06038 v 2.20021 q 0,2.64025 0.26002,3.70036 0.26003,1.04009 0.86008,1.54014 0.60006,0.48005 1.70017,0.48005 z"
       style="font-weight:bold;font-size:40.9639px;fill:#d35400"
       id="path8946" />
    <path
       d="m 145.40938,216.97791 q -0.24002,-0.50005 -0.48004,-1.68016 -1.52015,2.0802 -4.1204,2.0802 -2.72025,0 -4.52043,-1.80018 -1.78017,-1.80017 -1.78017,-4.66044 0,-3.40032 2.16021,-5.2605 2.18021,-1.86018 6.2606,-1.90018 h 1.72016 v -1.74017 q 0,-1.46014 -0.50005,-2.06019 -0.50005,-0.60006 -1.46014,-0.60006 -2.1202,0 -2.1202,2.48024 h -5.66054 q 0,-3.00029 2.24022,-4.94048 2.26021,-1.96018 5.70054,-1.96018 3.56034,0 5.50052,1.86017 1.96019,1.84018 1.96019,5.28051 v 10.18097 q 0.04,2.80026 0.80008,4.38041 v 0.34004 z m -3.34032,-4.04039 q 0.94009,0 1.60016,-0.38003 0.66006,-0.38004 0.98009,-0.90009 v -4.50043 h -1.36013 q -1.44014,0 -2.28022,0.92009 -0.82007,0.92009 -0.82007,2.46023 0,2.40023 1.88017,2.40023 z"
       style="font-weight:bold;font-size:40.9639px;fill:#d35400"
       id="path8948" />
    <path
       d="m 160.99087,190.01534 v 5.32051 h 2.90027 v 4.2604 h -2.90027 v 10.74102 q 0,1.28013 0.34003,1.76017 0.36003,0.48005 1.36013,0.48005 0.82008,0 1.34013,-0.14002 l -0.04,4.40042 q -1.44013,0.54006 -3.12029,0.54006 -5.48053,0 -5.54053,-6.2806 v -11.5011 h -2.50024 v -4.2604 h 2.50024 v -5.32051 z"
       style="font-weight:bold;font-size:40.9639px;fill:#d35400"
       id="path8950" />
    <path
       d="m 175.73227,217.37795 q -4.36041,0 -6.80064,-2.60025 -2.44024,-2.60025 -2.44024,-7.44071 v -1.72016 q 0,-5.12049 2.24022,-7.90076 2.24021,-2.78026 6.42061,-2.78026 4.08039,0 6.14058,2.62025 2.0602,2.60025 2.1002,7.72073 v 2.78027 h -11.26107 q 0.12001,2.40023 1.0601,3.52033 0.94009,1.10011 2.90028,1.10011 2.84027,0 4.74045,-1.94019 l 2.22021,3.42033 q -1.0401,1.44014 -3.02029,2.34022 -1.98019,0.88009 -4.30041,0.88009 z m -3.56034,-13.28127 h 5.66054 v -0.52005 q -0.04,-1.94018 -0.64006,-2.94028 -0.60006,-1.00009 -2.0802,-1.00009 -1.48014,0 -2.1602,1.0601 -0.66006,1.0601 -0.78008,3.40032 z"
       style="font-weight:bold;font-size:40.9639px;fill:#d35400"
       id="path8952" />
    <path
       d="m 185.91325,205.49681 q 0,-5.3205 1.92018,-7.94075 1.92019,-2.62025 5.38052,-2.62025 2.94028,0 4.54043,2.32022 l 0.22002,-1.92018 h 5.10049 v 21.64206 q 0,4.14039 -2.32023,6.3206 -2.32022,2.20021 -6.66063,2.20021 -1.78017,0 -3.74036,-0.72007 -1.96018,-0.70007 -2.92027,-1.80017 l 1.90018,-3.92037 q 0.80007,0.84008 2.08019,1.36012 1.28013,0.54006 2.42024,0.54006 1.90018,0 2.72025,-0.92009 0.84008,-0.90009 0.86009,-2.92028 v -1.86018 q -1.62016,2.12021 -4.22041,2.12021 -3.46033,0 -5.36051,-2.68026 -1.88018,-2.70026 -1.92018,-7.60072 z m 5.66054,1.42014 q 0,3.00028 0.78007,4.38042 0.78008,1.36013 2.48024,1.36013 1.74017,0 2.58025,-1.26012 v -10.34099 q -0.88009,-1.38013 -2.54025,-1.38013 -1.68016,0 -2.50023,1.38013 -0.80008,1.38013 -0.80008,4.44042 z"
       style="font-weight:bold;font-size:40.9639px;fill:#d35400"
       id="path8954" />
    <path
       d="m 206.53521,205.45681 q 0,-4.92047 2.32022,-7.72074 2.32022,-2.80026 6.42061,-2.80026 4.1404,0 6.46062,2.80026 2.32022,2.80027 2.32022,7.76074 v 1.38014 q 0,4.94047 -2.30022,7.72073 -2.30022,2.78027 -6.44061,2.78027 -4.1604,0 -6.48062,-2.78027 -2.30022,-2.80027 -2.30022,-7.76074 z m 5.68054,1.42014 q 0,5.80055 3.1003,5.80055 2.86027,0 3.08029,-4.84046 l 0.02,-2.38023 q 0,-2.96028 -0.82007,-4.38042 -0.82008,-1.44013 -2.32023,-1.44013 -1.44013,0 -2.26021,1.44013 -0.80008,1.42014 -0.80008,4.38042 z"
       style="font-weight:bold;font-size:40.9639px;fill:#d35400"
       id="path8956" />
    <path
       d="m 238.25823,200.79637 -1.88017,-0.16002 q -2.32023,0 -3.1403,2.0402 v 14.30136 h -5.68054 v -21.64206 h 5.3405 l 0.16002,2.34022 q 1.34013,-2.74026 3.70035,-2.74026 0.96009,0 1.56015,0.26002 z"
       style="font-weight:bold;font-size:40.9639px;fill:#d35400"
       id="path8958" />
    <path
       d="m 248.45921,207.55701 2.88027,-12.22116 h 6.04058 l -7.12068,24.88237 q -1.60015,5.50052 -6.02057,5.50052 -1.0201,0 -2.32022,-0.38004 v -4.42042 l 0.66006,0.02 q 1.32012,0 1.98019,-0.52005 0.68006,-0.50004 1.02009,-1.76016 l 0.44005,-1.46014 -6.2406,-21.86208 h 6.08058 z"
       style="font-weight:bold;font-size:40.9639px;fill:#d35400"
       id="path8960" />
    <path
       d="m 268.58111,205.45681 q 0,-4.92047 2.32022,-7.72074 2.32022,-2.80026 6.42061,-2.80026 4.1404,0 6.46062,2.80026 2.32022,2.80027 2.32022,7.76074 v 1.38014 q 0,4.94047 -2.30022,7.72073 -2.30022,2.78027 -6.44061,2.78027 -4.1604,0 -6.48062,-2.78027 -2.30022,-2.80027 -2.30022,-7.76074 z m 5.68054,1.42014 q 0,5.80055 3.1003,5.80055 2.86027,0 3.08029,-4.84046 l 0.02,-2.38023 q 0,-2.96028 -0.82008,-4.38042 -0.82007,-1.44013 -2.32022,-1.44013 -1.44013,0 -2.26021,1.44013 -0.80008,1.42014 -0.80008,4.38042 z"
       style="font-weight:bold;font-size:40.9639px;font-family:'Roboto Condensed';-inkscape-font-specification:'Roboto Condensed, ';fill:#2c3e50"
       id="path8962" />
    <path
       d="m 290.92324,216.97791 v -17.38166 h -2.62025 v -4.2604 h 2.62025 v -1.94019 q 0.02,-3.58034 1.88018,-5.56053 1.88018,-2.00019 5.18049,-2.00019 1.0001,0 2.56025,0.40004 l -0.04,4.52043 q -0.58005,-0.18002 -1.38013,-0.18002 -2.52024,0 -2.52024,3.00029 v 1.76017 h 3.38032 v 4.2604 h -3.38032 v 17.38166 z"
       style="font-weight:bold;font-size:40.9639px;font-family:'Roboto Condensed';-inkscape-font-specification:'Roboto Condensed, ';fill:#2c3e50"
       id="path8964" />
    <path
       d="m 71.172313,268.58282 q -4.760453,0 -7.760739,-2.92028 -2.980284,-2.92027 -2.980284,-7.78074 v -0.56005 q 0,-3.26031 1.26012,-5.82055 1.26012,-2.58025 3.560339,-3.96038 2.320221,-1.40014 5.280503,-1.40014 4.440423,0 6.980665,2.80027 2.560244,2.80027 2.560244,7.94076 v 2.36022 H 66.291848 q 0.280027,2.1202 1.68016,3.40033 1.420136,1.28012 3.580341,1.28012 3.340319,0 5.220498,-2.42023 l 2.84027,3.1803 q -1.300124,1.84018 -3.520335,2.88028 -2.220212,1.02009 -4.920469,1.02009 z M 70.51225,250.82113 q -1.720163,0 -2.800266,1.16011 -1.060101,1.16011 -1.36013,3.32032 h 8.040766 v -0.46005 q -0.04,-1.92018 -1.040099,-2.96028 -1.000095,-1.0601 -2.840271,-1.0601 z"
       style="font-weight:bold;font-size:40.9639px;fill:#d35400"
       id="path8966" />
    <path
       d="m 88.67398,246.54072 0.180017,2.50024 q 2.320221,-2.90028 6.220593,-2.90028 3.440327,0 5.12049,2.0202 1.68016,2.02019 1.72016,6.04057 v 13.98133 h -5.780549 v -13.84131 q 0,-1.84018 -0.800076,-2.66026 -0.800077,-0.84008 -2.660254,-0.84008 -2.440232,0 -3.660348,2.0802 v 15.26145 h -5.780551 v -21.64206 z"
       style="font-weight:bold;font-size:40.9639px;fill:#d35400"
       id="path8968" />
    <path
       d="m 105.39557,257.20174 q 0,-5.06048 2.26022,-8.06077 2.28021,-3.00029 6.22059,-3.00029 3.1603,0 5.2205,2.36023 v -11.04105 h 5.80055 v 30.72292 h -5.2205 l -0.28002,-2.30021 q -2.16021,2.70025 -5.56053,2.70025 -3.82037,0 -6.14059,-3.00028 -2.30022,-3.02029 -2.30022,-8.3808 z m 5.78055,0.42004 q 0,3.04029 1.0601,4.66044 1.0601,1.62016 3.0803,1.62016 2.68025,0 3.78036,-2.26022 v -8.54081 q -1.08011,-2.26022 -3.74036,-2.26022 -4.1804,0 -4.1804,6.78065 z"
       style="font-weight:bold;font-size:40.9639px;fill:#d35400"
       id="path8970" />
    <path
       d="m 128.47777,257.16173 q 0,-3.2203 1.24012,-5.74054 1.24011,-2.52024 3.56033,-3.90037 2.34023,-1.38014 5.42052,-1.38014 4.38042,0 7.14068,2.68026 2.78027,2.68026 3.1003,7.28069 l 0.04,1.48014 q 0,4.98048 -2.78026,8.00077 -2.78027,3.00028 -7.46072,3.00028 -4.68044,0 -7.48071,-3.00028 -2.78026,-3.00029 -2.78026,-8.16078 z m 5.78055,0.42004 q 0,3.0803 1.16011,4.72045 1.16011,1.62016 3.32031,1.62016 2.1002,0 3.28032,-1.60015 1.18011,-1.62016 1.18011,-5.1605 0,-3.02028 -1.18011,-4.68044 -1.18012,-1.66016 -3.32032,-1.66016 -2.1202,0 -3.28031,1.66016 -1.16011,1.64015 -1.16011,5.10048 z"
       style="font-weight:bold;font-size:40.9639px;fill:#d35400"
       id="path8972" />
    <path
       d="m 154.12021,268.18278 v -17.40165 h -3.2203 v -4.24041 h 3.2203 v -1.84017 q 0,-3.64035 2.0802,-5.64054 2.1002,-2.02019 5.86056,-2.02019 1.20011,0 2.94028,0.40004 l -0.06,4.48042 q -0.72007,-0.18001 -1.76016,-0.18001 -3.26032,0 -3.26032,3.06029 v 1.74016 h 4.30041 v 4.24041 h -4.30041 v 17.40165 z"
       style="font-weight:bold;font-size:40.9639px;fill:#d35400"
       id="path8974" />
    <path
       d="m 180.1827,265.98257 q -2.1402,2.60025 -5.92056,2.60025 -3.48034,0 -5.32051,-2.00019 -1.82017,-2.00019 -1.86018,-5.86056 v -14.18135 h 5.78055 v 13.98133 q 0,3.38033 3.0803,3.38033 2.94028,0 4.04038,-2.0402 v -15.32146 h 5.80055 v 21.64206 h -5.44051 z"
       style="font-weight:bold;font-size:40.9639px;fill:#d35400"
       id="path8976" />
    <path
       d="m 195.46415,246.54072 0.18002,2.50024 q 2.32022,-2.90028 6.22059,-2.90028 3.44033,0 5.12049,2.0202 1.68016,2.02019 1.72016,6.04057 v 13.98133 h -5.78055 v -13.84131 q 0,-1.84018 -0.80007,-2.66026 -0.80008,-0.84008 -2.66026,-0.84008 -2.44023,0 -3.66034,2.0802 v 15.26145 h -5.78056 v -21.64206 z"
       style="font-weight:bold;font-size:40.9639px;fill:#d35400"
       id="path8978" />
    <path
       d="m 222.08669,263.92238 q 1.60015,0 2.60025,-0.88009 1.00009,-0.88008 1.04009,-2.34022 h 5.42052 q -0.02,2.20021 -1.20011,4.04039 -1.18012,1.82017 -3.24031,2.84027 -2.0402,1.00009 -4.52043,1.00009 -4.64044,0 -7.3207,-2.94028 -2.68026,-2.96028 -2.68026,-8.16078 v -0.38003 q 0,-5.00048 2.66026,-7.98076 2.66025,-2.98029 7.30069,-2.98029 4.06039,0 6.50062,2.32023 2.46024,2.30021 2.50024,6.14058 h -5.42052 q -0.04,-1.68016 -1.04009,-2.72026 -1.0001,-1.0601 -2.64026,-1.0601 -2.02019,0 -3.06029,1.48014 -1.02009,1.46014 -1.02009,4.76045 v 0.60006 q 0,3.34032 1.02009,4.80046 1.0201,1.46014 3.1003,1.46014 z"
       style="font-weight:bold;font-size:40.9639px;fill:#d35400"
       id="path8980" />
    <path
       d="m 241.36852,241.22022 v 5.3205 h 3.70035 v 4.24041 h -3.70035 v 10.80103 q 0,1.20011 0.46004,1.72016 0.46005,0.52005 1.76017,0.52005 0.96009,0 1.70016,-0.14001 v 4.38041 q -1.70016,0.52005 -3.50033,0.52005 -6.08058,0 -6.20059,-6.14058 v -11.66111 h -3.1603 v -4.24041 h 3.1603 v -5.3205 z"
       style="font-weight:bold;font-size:40.9639px;fill:#d35400"
       id="path8982" />
    <path
       d="m 246.78905,257.16173 q 0,-3.2203 1.24011,-5.74054 1.24012,-2.52024 3.56034,-3.90037 2.34023,-1.38014 5.42052,-1.38014 4.38042,0 7.14068,2.68026 2.78027,2.68026 3.1003,7.28069 l 0.04,1.48014 q 0,4.98048 -2.78027,8.00077 -2.78026,3.00028 -7.46071,3.00028 -4.68044,0 -7.48071,-3.00028 -2.78026,-3.00029 -2.78026,-8.16078 z m 5.78055,0.42004 q 0,3.0803 1.16011,4.72045 1.16011,1.62016 3.32031,1.62016 2.1002,0 3.28032,-1.60015 1.18011,-1.62016 1.18011,-5.1605 0,-3.02028 -1.18011,-4.68044 -1.18012,-1.66016 -3.32032,-1.66016 -2.1202,0 -3.28031,1.66016 -1.16011,1.64015 -1.16011,5.10048 z"
       style="font-weight:bold;font-size:40.9639px;fill:#d35400"
       id="path8984" />
    <path
       d="m 283.01249,251.96124 q -1.18011,-0.16002 -2.0802,-0.16002 -3.28031,0 -4.30041,2.22022 v 14.16134 h -5.78055 v -21.64206 h 5.46052 l 0.16002,2.58025 q 1.74016,-2.98029 4.82046,-2.98029 0.96009,0 1.80017,0.26003 z"
       style="font-weight:bold;font-size:40.9639px;fill:#d35400"
       id="path8986" />
    <path
       d="m 297.51387,262.20221 q 0,-1.0601 -1.0601,-1.66015 -1.0401,-0.62006 -3.36032,-1.10011 -7.72074,-1.62015 -7.72074,-6.56062 0,-2.88028 2.38023,-4.80046 2.40023,-1.94019 6.2606,-1.94019 4.12039,0 6.58062,1.94019 2.48024,1.94018 2.48024,5.04048 h -5.78055 q 0,-1.24012 -0.80008,-2.04019 -0.80007,-0.82008 -2.50023,-0.82008 -1.46014,0 -2.26022,0.66006 -0.80008,0.66006 -0.80008,1.68016 0,0.96009 0.90009,1.56015 0.92009,0.58005 3.08029,1.0201 2.16021,0.42004 3.64035,0.96009 4.58044,1.68016 4.58044,5.82055 0,2.96028 -2.54025,4.80046 -2.54024,1.82017 -6.56062,1.82017 -2.72026,0 -4.84046,-0.96009 -2.1002,-0.98009 -3.30032,-2.66025 -1.20011,-1.70016 -1.20011,-3.66035 h 5.48052 q 0.08,1.54015 1.14011,2.36022 1.0601,0.82008 2.84027,0.82008 1.66016,0 2.50024,-0.62006 0.86008,-0.64006 0.86008,-1.66016 z"
       style="font-weight:bold;font-size:40.9639px;fill:#d35400"
       id="path8988" />
  </g>
</svg>
