<?xml version="1.0" encoding="UTF-8" standalone="no"?>
<!-- Created with Inkscape (http://www.inkscape.org/) -->

<svg
   width="83.352379mm"
   height="83.352379mm"
   viewBox="0 0 83.352379 83.352379"
   version="1.1"
   id="svg5"
   inkscape:version="1.1.2 (0a00cf5339, 2022-02-04)"
   sodipodi:docname="not-my-type.svg"
   inkscape:export-filename="/home/gram/Documents/craft/flat-art/not-my-type.png"
   inkscape:export-xdpi="600.01404"
   inkscape:export-ydpi="600.01404"
   xmlns:inkscape="http://www.inkscape.org/namespaces/inkscape"
   xmlns:sodipodi="http://sodipodi.sourceforge.net/DTD/sodipodi-0.dtd"
   xmlns="http://www.w3.org/2000/svg"
   xmlns:svg="http://www.w3.org/2000/svg">
  <sodipodi:namedview
     id="namedview7"
     pagecolor="#ffffff"
     bordercolor="#666666"
     borderopacity="1.0"
     inkscape:pageshadow="2"
     inkscape:pageopacity="0.0"
     inkscape:pagecheckerboard="0"
     inkscape:document-units="mm"
     showgrid="false"
     inkscape:zoom="1.2382856"
     inkscape:cx="12.517306"
     inkscape:cy="123.55793"
     inkscape:window-width="1712"
     inkscape:window-height="860"
     inkscape:window-x="0"
     inkscape:window-y="30"
     inkscape:window-maximized="1"
     inkscape:current-layer="layer1"
     fit-margin-top="0"
     fit-margin-left="0"
     fit-margin-right="0"
     fit-margin-bottom="0" />
  <defs
     id="defs2" />
  <g
     inkscape:label="Layer 1"
     inkscape:groupmode="layer"
     id="layer1"
     transform="translate(-53.418957,-107.27358)">
    <circle
       style="fill:none;fill-opacity:1;stroke:#000000;stroke-width:0.264999;stroke-linecap:round;stroke-linejoin:round;stroke-opacity:0.0429431"
       id="path18301"
       cx="95.095146"
       cy="148.94977"
       r="41.54369" />
    <g
       aria-label="sorry,
you're not
my type"
       id="text2079"
       style="font-size:16.2648px;line-height:1.25;font-family:'JetBrains Mono';-inkscape-font-specification:'JetBrains Mono';text-align:center;text-anchor:middle;fill:#2c3e50;stroke-width:0.406623">
      <path
         d="m 81.240445,121.64137 -0.65917,0.23031 q -0.166777,-0.5321 -0.563867,-0.81007 -0.39709,-0.2859 -0.849772,-0.2859 -0.524159,0 -0.897423,0.33356 -0.365323,0.33355 -0.365323,0.90536 0,0.30179 0.166778,0.54798 0.166778,0.2462 0.436799,0.40504 0.270021,0.15883 0.611518,0.32561 0.349439,0.16678 0.70682,0.30973 0.357381,0.14295 0.698878,0.35738 0.349439,0.21443 0.61946,0.46062 0.270021,0.2462 0.436799,0.63535 0.166778,0.38915 0.166778,0.8736 0,1.10391 -0.786238,1.79484 -0.786238,0.683 -1.826613,0.683 -0.452683,0 -0.865656,-0.14296 -0.412974,-0.15089 -0.762413,-0.43679 -0.349439,-0.28591 -0.595634,-0.76242 -0.246196,-0.4765 -0.317672,-1.08802 l 0.70682,-0.10325 q 0.111185,0.90537 0.627401,1.36599 0.524159,0.46063 1.223037,0.46063 0.738587,0 1.310397,-0.49239 0.571809,-0.50034 0.571809,-1.27863 0,-0.42886 -0.214429,-0.75447 -0.214428,-0.33356 -0.555925,-0.54005 -0.333556,-0.20648 -0.746529,-0.38914 -0.412974,-0.18267 -0.825947,-0.37327 -0.412973,-0.1906 -0.754471,-0.41297 -0.333555,-0.23031 -0.547984,-0.59564 -0.214428,-0.37326 -0.214428,-0.84977 0,-0.88948 0.587693,-1.41364 0.595634,-0.52416 1.405698,-0.52416 0.667111,0 1.246862,0.40503 0.579751,0.39709 0.825947,1.15951 z"
         style="font-family:Sawasdee;-inkscape-font-specification:Sawasdee"
         id="path18336" />
      <path
         d="m 87.800369,120.09272 q 0.833888,0 1.596301,0.32561 0.762412,0.32561 1.318338,0.88154 0.555926,0.55592 0.881539,1.32628 0.325614,0.77035 0.325614,1.61218 0,0.84978 -0.325614,1.62013 -0.325613,0.77035 -0.881539,1.32628 -0.555926,0.54798 -1.318338,0.88154 -0.762413,0.32561 -1.596301,0.32561 -1.707487,0 -2.91464,-1.21509 -1.207153,-1.2151 -1.207153,-2.93847 0,-1.12773 0.547984,-2.08075 0.555926,-0.96095 1.501,-1.50894 0.953015,-0.55592 2.072809,-0.55592 z m -3.414973,4.14561 q 0,1.42159 1.000667,2.43814 1.008608,1.0086 2.430189,1.0086 1.421582,0 2.422248,-1.0086 1.008608,-1.01655 1.008608,-2.43814 0,-1.41364 -1.008608,-2.42224 -1.000666,-1.00861 -2.422248,-1.00861 -1.421581,0 -2.430189,1.00861 -1.000667,1.0086 -1.000667,2.42224 z"
         style="font-family:Sawasdee;-inkscape-font-specification:Sawasdee"
         id="path18338" />
      <path
         d="m 94.010853,120.21978 h 0.762412 q 0.150894,0.52416 0.150894,1.06421 v 1.00066 q 0.182661,-0.61152 0.849772,-1.27069 0.667111,-0.65916 1.342164,-0.92124 l 0.79418,0.56386 q -0.698878,0 -1.397757,0.49239 -0.690936,0.4924 -1.143618,1.3104 -0.444741,0.81006 -0.444741,1.67572 v 4.13768 h -0.714762 v -6.98878 q 0,-0.683 -0.198544,-1.06421 z"
         style="font-family:Sawasdee;-inkscape-font-specification:Sawasdee"
         id="path18340" />
      <path
         d="m 99.157139,120.21978 h 0.762412 q 0.150899,0.52416 0.150899,1.06421 v 1.00066 q 0.18266,-0.61152 0.84977,-1.27069 0.66711,-0.65916 1.34216,-0.92124 l 0.79418,0.56386 q -0.69888,0 -1.39776,0.49239 -0.69093,0.4924 -1.14361,1.3104 -0.44474,0.81006 -0.44474,1.67572 v 4.13768 h -0.714766 v -6.98878 q 0,-0.683 -0.198545,-1.06421 z"
         style="font-family:Sawasdee;-inkscape-font-specification:Sawasdee"
         id="path18342" />
      <path
         d="m 103.45365,120.21978 h 0.73064 l 2.77169,7.10791 2.70815,-7.10791 h 0.76242 l -4.63007,12.19066 h -0.76241 l 1.56453,-4.12179 z"
         style="font-family:Sawasdee;-inkscape-font-specification:Sawasdee"
         id="path18344" />
      <path
         d="m 112.01491,127.72478 q 0,-0.27002 0.1906,-0.46062 0.1906,-0.19855 0.46062,-0.19855 0.32562,0 0.59564,0.25414 0.27002,0.2462 0.27002,0.71476 0,0.37327 -0.11913,0.73065 -0.11913,0.35738 -0.29385,0.60357 -0.16677,0.2462 -0.34149,0.4368 -0.16678,0.19855 -0.28591,0.29385 l -0.11912,0.0953 h -0.35738 q 0.35738,-0.29385 0.68299,-0.89742 0.32561,-0.59564 0.32561,-1.02449 -0.15883,0.11912 -0.35738,0.11912 -0.26208,0 -0.46062,-0.19854 -0.1906,-0.20649 -0.1906,-0.46857 z"
         style="font-family:Sawasdee;-inkscape-font-specification:Sawasdee"
         id="path18346" />
      <path
         d="m 58.955764,141.14297 h 0.730645 l 2.771687,7.1079 2.708153,-7.1079 h 0.762412 l -4.630067,12.19065 h -0.762413 l 1.564534,-4.12179 z"
         style="font-family:Sawasdee;-inkscape-font-specification:Sawasdee"
         id="path18348" />
      <path
         d="m 71.289374,141.0159 q 0.833888,0 1.596301,0.32561 0.762412,0.32561 1.318338,0.88154 0.555926,0.55593 0.881539,1.32628 0.325614,0.77035 0.325614,1.61219 0,0.84977 -0.325614,1.62012 -0.325613,0.77036 -0.881539,1.32628 -0.555926,0.54799 -1.318338,0.88154 -0.762413,0.32561 -1.596301,0.32561 -1.707487,0 -2.91464,-1.21509 -1.207153,-1.21509 -1.207153,-2.93846 0,-1.12774 0.547984,-2.08076 0.555926,-0.96095 1.501,-1.50894 0.953015,-0.55592 2.072809,-0.55592 z m -3.414973,4.14562 q 0,1.42158 1.000667,2.43813 1.008608,1.0086 2.430189,1.0086 1.421582,0 2.422248,-1.0086 1.008608,-1.01655 1.008608,-2.43813 0,-1.41364 -1.008608,-2.42225 -1.000666,-1.00861 -2.422248,-1.00861 -1.421581,0 -2.430189,1.00861 -1.000667,1.00861 -1.000667,2.42225 z"
         style="font-family:Sawasdee;-inkscape-font-specification:Sawasdee"
         id="path18350" />
      <path
         d="m 77.698403,141.14297 h 0.714762 v 4.9795 q 0,1.04038 0.627402,1.76308 0.627402,0.7227 1.532767,0.7227 0.913306,0 1.572475,-0.7227 0.667111,-0.73064 0.667111,-1.76308 v -4.9795 h 0.714762 v 4.9795 q 0,1.3104 -0.849772,2.25547 -0.849772,0.93713 -2.072809,0.93713 -1.215095,0 -2.064867,-0.93713 -0.841831,-0.94507 -0.841831,-2.25547 z"
         style="font-family:Sawasdee;-inkscape-font-specification:Sawasdee"
         id="path18352" />
      <path
         d="m 86.879121,139.9517 h -0.48445 l -0.230312,-3.07348 h 0.937132 z"
         style="font-family:Sawasdee;-inkscape-font-specification:Sawasdee"
         id="path18354" />
      <path
         d="m 89.547563,141.14297 h 0.762413 q 0.150894,0.52415 0.150894,1.0642 v 1.00066 q 0.182661,-0.61151 0.849772,-1.27068 0.667111,-0.65917 1.342164,-0.92125 l 0.794179,0.56387 q -0.698878,0 -1.397756,0.49239 -0.690936,0.49239 -1.143619,1.31039 -0.44474,0.81007 -0.44474,1.67572 v 4.13768 h -0.714762 v -6.98878 q 0,-0.683 -0.198545,-1.0642 z"
         style="font-family:Sawasdee;-inkscape-font-specification:Sawasdee"
         id="path18356" />
      <path
         d="m 95.321251,144.48646 h 5.853109 q -0.22238,-1.19921 -1.04832,-1.9775 -0.825949,-0.7783 -1.89015,-0.7783 -1.056258,0 -1.882205,0.7783 -0.818005,0.77829 -1.032434,1.9775 z m 6.631399,0.67506 h -6.742584 q 0,1.42158 0.889481,2.4143 0.889481,0.99273 2.104576,0.99273 0.802122,0 1.572476,-0.42886 0.770351,-0.42886 1.175381,-1.15156 l 0.62741,0.35738 q -0.48445,0.86566 -1.42953,1.42158 -0.94507,0.54798 -1.945737,0.54798 -1.008608,0 -1.85838,-0.56386 -0.84183,-0.56387 -1.32628,-1.51689 -0.476508,-0.96095 -0.476508,-2.0728 0,-1.10391 0.48445,-2.05693 0.492391,-0.95302 1.342163,-1.51688 0.857714,-0.57181 1.866322,-0.57181 0.953016,0 1.77102,0.51621 0.82595,0.50828 1.33422,1.37394 0.50828,0.86565 0.59564,1.89808 z"
         style="font-family:Sawasdee;-inkscape-font-specification:Sawasdee"
         id="path18358" />
      <path
         d="m 109.8468,141.14297 h 0.76241 q 0.15089,0.52415 0.15089,1.0642 v 1.20715 q 0.4368,-0.99272 1.20716,-1.6916 0.77829,-0.70682 1.50894,-0.70682 0.81006,0 1.36599,0.45268 0.56386,0.45268 0.81006,1.1595 0.25414,0.70682 0.25414,1.5963 v 4.97157 h -0.69888 v -4.97157 q 0,-0.4368 -0.0874,-0.84183 -0.0794,-0.40503 -0.26208,-0.79418 -0.18266,-0.38914 -0.54798,-0.61946 -0.35739,-0.23825 -0.84978,-0.23825 -0.46856,0 -0.97684,0.36532 -0.50033,0.36532 -0.8736,0.89742 -0.36532,0.52416 -0.61151,1.1198 -0.23826,0.59563 -0.23826,1.04832 v 4.03443 h -0.71476 v -6.98878 q 0,-0.683 -0.19854,-1.0642 z"
         style="font-family:Sawasdee;-inkscape-font-specification:Sawasdee"
         id="path18360" />
      <path
         d="m 122.32336,141.0159 q 0.83389,0 1.5963,0.32561 0.76241,0.32561 1.31834,0.88154 0.55592,0.55593 0.88154,1.32628 0.32561,0.77035 0.32561,1.61219 0,0.84977 -0.32561,1.62012 -0.32562,0.77036 -0.88154,1.32628 -0.55593,0.54799 -1.31834,0.88154 -0.76241,0.32561 -1.5963,0.32561 -1.70749,0 -2.91464,-1.21509 -1.20715,-1.21509 -1.20715,-2.93846 0,-1.12774 0.54798,-2.08076 0.55593,-0.96095 1.501,-1.50894 0.95302,-0.55592 2.07281,-0.55592 z m -3.41497,4.14562 q 0,1.42158 1.00066,2.43813 1.00861,1.0086 2.43019,1.0086 1.42158,0 2.42225,-1.0086 1.00861,-1.01655 1.00861,-2.43813 0,-1.41364 -1.00861,-2.42225 -1.00067,-1.00861 -2.42225,-1.00861 -1.42158,0 -2.43019,1.00861 -1.00066,1.00861 -1.00066,2.42225 z"
         style="font-family:Sawasdee;-inkscape-font-specification:Sawasdee"
         id="path18362" />
      <path
         d="m 129.44715,149.19595 h -0.71476 v -7.34616 h -0.70682 v -0.70682 h 0.70682 v -1.90603 h 0.71476 v 1.90603 h 2.22371 l -0.23826,0.70682 h -1.98545 z"
         style="font-family:Sawasdee;-inkscape-font-specification:Sawasdee"
         id="path18364" />
      <path
         d="m 63.847166,162.06615 h 0.762412 q 0.150894,0.52416 0.150894,1.0642 v 1.1595 q 0.381207,-0.93713 1.095968,-1.64395 0.714762,-0.70682 1.350106,-0.70682 0.945074,0 1.516883,0.65917 0.571809,0.65123 0.722703,1.6916 0.39709,-0.9689 1.064201,-1.64395 0.675053,-0.683 1.32628,-0.683 0.746529,0 1.262746,0.46857 0.524158,0.46062 0.746529,1.16744 0.230312,0.69888 0.230312,1.56454 v 4.95568 h -0.714762 v -4.95568 q 0,-0.42886 -0.07148,-0.83389 -0.07148,-0.40503 -0.238254,-0.79418 -0.158836,-0.38915 -0.476508,-0.6274 -0.317672,-0.23826 -0.754471,-0.23826 -0.5321,0 -1.111851,0.60358 -0.579751,0.59564 -0.945074,1.4057 -0.365322,0.81006 -0.365322,1.43746 v 4.00267 H 68.68372 v -4.97156 q 0,-0.4368 -0.07148,-0.84184 -0.07148,-0.40503 -0.230312,-0.79417 -0.158836,-0.38915 -0.48445,-0.61947 -0.317672,-0.23825 -0.762412,-0.23825 -0.492392,0 -1.064201,0.57181 -0.563868,0.57181 -0.937132,1.38187 -0.373265,0.81007 -0.373265,1.47718 v 4.03443 h -0.714761 v -6.98878 q 0,-0.683 -0.198545,-1.0642 z"
         id="path18366" />
      <path
         d="m 75.664559,162.06615 h 0.730646 l 2.771687,7.10791 2.708152,-7.10791 h 0.762413 l -4.630068,12.19066 h -0.762412 l 1.564534,-4.1218 z"
         id="path18368" />
      <path
         d="m 91.722299,163.33671 h 3.578256 q 0.43915,0 0.43915,0.32529 0,0.34157 -0.43915,0.34157 h -3.578256 v 4.3427 q 0,0.61806 0.487944,0.99215 0.487944,0.37409 1.333714,0.37409 0.683121,0 1.447567,-0.17891 0.78071,-0.19518 1.252389,-0.47168 0.162648,-0.0976 0.260237,-0.0976 0.113854,0 0.211442,0.0976 0.09759,0.0976 0.09759,0.2277 0,0.35783 -1.106006,0.73192 -1.089742,0.35783 -2.130689,0.35783 -1.154801,0 -1.837922,-0.53674 -0.683122,-0.55301 -0.683122,-1.46383 v -4.37523 h -1.203595 q -0.455414,0 -0.455414,-0.34157 0,-0.32529 0.455414,-0.32529 h 1.203595 v -1.93551 q 0,-0.43915 0.341561,-0.43915 0.325296,0 0.325296,0.43915 z"
         style="font-family:'Tlwg Typewriter';-inkscape-font-specification:'Tlwg Typewriter'"
         id="path18370" />
      <path
         d="m 103.04258,170.11913 -3.057785,-6.11556 h -0.260236 q -0.43915,0 -0.43915,-0.34157 0,-0.32529 0.43915,-0.32529 h 1.870451 q 0.43915,0 0.43915,0.32529 0,0.34157 -0.43915,0.34157 h -0.84577 l 2.66743,5.38364 2.61863,-5.38364 h -0.8783 q -0.43915,0 -0.43915,-0.34157 0,-0.32529 0.43915,-0.32529 h 1.78913 q 0.43915,0 0.43915,0.32529 0,0.34157 -0.43915,0.34157 h -0.22771 l -4.16379,8.47396 h 1.05722 q 0.43915,0 0.43915,0.32529 0,0.34156 -0.43915,0.34156 h -3.789703 q -0.439149,0 -0.439149,-0.34156 0,-0.32529 0.439149,-0.32529 h 2.065633 z"
         style="font-family:'Tlwg Typewriter';-inkscape-font-specification:'Tlwg Typewriter'"
         id="path18372" />
      <path
         d="m 113.45202,163.77586 q -1.20359,0 -2.04936,0.86203 -0.84577,0.86204 -0.84577,2.09816 0,1.23613 0.84577,2.11443 0.84577,0.86203 2.04936,0.86203 1.18733,0 2.0331,-0.86203 0.86204,-0.86204 0.86204,-2.06563 0,-1.26866 -0.84577,-2.13069 -0.82951,-0.8783 -2.04937,-0.8783 z m -2.89513,4.91197 v 3.7897 h 1.59395 q 0.43915,0 0.43915,0.32529 0,0.34156 -0.43915,0.34156 h -3.13911 q -0.43915,0 -0.43915,-0.34156 0,-0.32529 0.43915,-0.32529 h 0.8783 v -8.47396 h -0.8783 q -0.43915,0 -0.43915,-0.34157 0,-0.32529 0.43915,-0.32529 h 1.54516 v 1.44757 q 1.17106,-1.67528 2.92766,-1.67528 1.4801,0 2.50478,1.04095 1.02468,1.04095 1.02468,2.55357 0,1.52889 -1.04094,2.60237 -1.02469,1.07348 -2.48852,1.07348 -1.77286,0 -2.92766,-1.69154 z"
         style="font-family:'Tlwg Typewriter';-inkscape-font-specification:'Tlwg Typewriter'"
         id="path18374" />
      <path
         d="m 126.43131,166.88243 h -6.76616 q 0.17891,1.28492 1.07348,2.06563 0.89456,0.76445 2.21201,0.76445 0.76445,0 1.56142,-0.24397 0.79698,-0.24397 1.28492,-0.63433 0.16265,-0.11385 0.26024,-0.11385 0.13012,0 0.21144,0.0976 0.0976,0.0976 0.0976,0.2277 0,0.42289 -1.17107,0.8783 -1.1548,0.45542 -2.2608,0.45542 -1.64275,0 -2.79755,-1.10601 -1.13854,-1.10601 -1.13854,-2.68369 0,-1.4801 1.07348,-2.47225 1.07348,-1.00842 2.6349,-1.00842 1.17106,0 2.08189,0.58553 0.9271,0.58554 1.36625,1.59395 0.2765,0.6506 0.2765,1.59395 z m -6.76616,-0.66685 h 6.08304 q -0.19518,-1.10601 -1.02469,-1.77287 -0.8295,-0.66685 -2.01683,-0.66685 -1.18733,0 -2.00057,0.66685 -0.81324,0.6506 -1.04095,1.77287 z"
         style="font-family:'Tlwg Typewriter';-inkscape-font-specification:'Tlwg Typewriter'"
         id="path18376" />
    </g>
  </g>
</svg>
