<?xml version="1.0" encoding="UTF-8" standalone="no"?>
<!-- Created with Inkscape (http://www.inkscape.org/) -->

<svg
   width="94.278641mm"
   height="69.461998mm"
   viewBox="0 0 94.278641 69.461998"
   version="1.1"
   id="svg5"
   sodipodi:docname="patience.svg"
   inkscape:version="1.1.2 (0a00cf5339, 2022-02-04)"
   xmlns:inkscape="http://www.inkscape.org/namespaces/inkscape"
   xmlns:sodipodi="http://sodipodi.sourceforge.net/DTD/sodipodi-0.dtd"
   xmlns="http://www.w3.org/2000/svg"
   xmlns:svg="http://www.w3.org/2000/svg">
  <sodipodi:namedview
     id="namedview7"
     pagecolor="#ffffff"
     bordercolor="#666666"
     borderopacity="1.0"
     inkscape:pageshadow="2"
     inkscape:pageopacity="0.0"
     inkscape:pagecheckerboard="0"
     inkscape:document-units="mm"
     showgrid="false"
     inkscape:snap-intersection-paths="true"
     inkscape:snap-bbox="true"
     inkscape:bbox-paths="true"
     inkscape:bbox-nodes="true"
     inkscape:snap-bbox-edge-midpoints="true"
     inkscape:snap-bbox-midpoints="true"
     lock-margins="true"
     inkscape:zoom="1.2382856"
     inkscape:cx="109.42548"
     inkscape:cy="33.110294"
     inkscape:window-width="1712"
     inkscape:window-height="860"
     inkscape:window-x="0"
     inkscape:window-y="30"
     inkscape:window-maximized="1"
     inkscape:current-layer="layer1"
     fit-margin-top="0"
     fit-margin-left="0"
     fit-margin-right="0"
     fit-margin-bottom="0" />
  <defs
     id="defs2" />
  <g
     inkscape:label="Layer 1"
     inkscape:groupmode="layer"
     id="layer1"
     transform="translate(-25.454132,-82.120926)">
    <g
       aria-label="I TEST"
       id="text2696"
       style="font-size:27.2457px;line-height:1.25;font-family:Comfortaa;-inkscape-font-specification:Comfortaa;fill:#2c3e50;stroke-width:0.283809">
      <path
         d="m 31.697721,107.05929 q -0.463177,0 -0.76288,-0.2997 -0.299703,-0.29971 -0.299703,-0.76288 V 86.842978 q 0,-0.463177 0.299703,-0.76288 0.299703,-0.299702 0.76288,-0.299702 0.463177,0 0.762879,0.299702 0.299703,0.299703 0.299703,0.76288 v 19.153732 q 0,0.46317 -0.299703,0.76288 -0.299702,0.2997 -0.762879,0.2997 z"
         id="path2990" />
      <path
         d="m 52.377184,107.05929 q -0.435931,0 -0.762879,-0.2997 -0.299703,-0.32695 -0.299703,-0.76288 V 85.780396 h 2.125165 v 20.216314 q 0,0.43593 -0.299703,0.76288 -0.299703,0.2997 -0.76288,0.2997 z M 44.857371,87.71484 q -0.435931,0 -0.708388,-0.272457 -0.272457,-0.272457 -0.272457,-0.681142 0,-0.435931 0.272457,-0.708388 0.272457,-0.272457 0.708388,-0.272457 h 15.066872 q 0.435932,0 0.708389,0.272457 0.272457,0.272457 0.272457,0.708388 0,0.408685 -0.272457,0.681142 -0.272457,0.272457 -0.708389,0.272457 z"
         id="path2992" />
      <path
         d="m 65.100896,107.05929 q -0.463177,0 -0.76288,-0.2997 -0.299702,-0.29971 -0.299702,-0.76288 V 86.842978 q 0,-0.463177 0.299702,-0.76288 0.299703,-0.299702 0.76288,-0.299702 H 77.87913 q 0.435931,0 0.735634,0.299702 0.326948,0.272457 0.326948,0.735634 0,0.408686 -0.326948,0.708389 -0.299703,0.299702 -0.735634,0.299702 H 66.163478 v 7.519814 h 8.527905 q 0.463177,0 0.762879,0.299702 0.299703,0.299703 0.299703,0.735634 0,0.435932 -0.299703,0.735634 -0.299702,0.299703 -0.762879,0.299703 h -8.527905 v 7.60155 H 77.87913 q 0.435931,0 0.735634,0.2997 0.326948,0.29971 0.326948,0.70839 0,0.46318 -0.326948,0.76288 -0.299703,0.27246 -0.735634,0.27246 z"
         id="path2994" />
      <path
         d="m 89.43129,107.33175 q -1.743725,0 -3.242239,-0.49043 -1.471268,-0.51767 -2.561096,-1.44402 -1.089828,-0.92635 -1.661987,-2.15241 -0.217966,-0.43593 -0.02725,-0.79013 0.217965,-0.38144 0.708388,-0.51766 0.38144,-0.10899 0.735634,0.0817 0.38144,0.19072 0.57216,0.57216 0.408685,0.79013 1.198811,1.41678 0.790125,0.62665 1.879953,0.98084 1.089828,0.32695 2.397622,0.32695 1.444022,0 2.561095,-0.46317 1.117074,-0.49043 1.743725,-1.38953 0.653897,-0.92636 0.653897,-2.23415 0,-1.66199 -1.226056,-2.860801 -1.226057,-1.19881 -3.841644,-1.525759 -3.187747,-0.38144 -4.985963,-1.96169 -1.798217,-1.607497 -1.798217,-3.923381 0,-1.661988 0.871863,-2.888044 0.899108,-1.226057 2.452113,-1.879954 1.553005,-0.681142 3.569187,-0.681142 1.498513,0 2.72457,0.490422 1.226056,0.463177 2.125164,1.253303 0.926354,0.762879 1.498514,1.689233 0.272457,0.435931 0.163474,0.844617 -0.08174,0.408685 -0.463177,0.626651 -0.408685,0.19072 -0.844617,0.05449 -0.408685,-0.136228 -0.626651,-0.517668 -0.408685,-0.626651 -1.035336,-1.171565 -0.599406,-0.57216 -1.471268,-0.899108 -0.871863,-0.326949 -2.097919,-0.354194 -2.15241,0 -3.460204,0.926353 -1.307794,0.899108 -1.307794,2.642833 0,0.926354 0.490423,1.716479 0.490422,0.76288 1.607496,1.33504 1.14432,0.544914 3.051519,0.817371 3.405712,0.490422 5.040454,2.097919 1.661988,1.58025 1.661988,4.141344 0,1.47127 -0.544914,2.61559 -0.517668,1.14432 -1.498513,1.93444 -0.9536,0.76288 -2.261394,1.17157 -1.280548,0.40869 -2.751815,0.40869 z"
         id="path2996" />
      <path
         d="m 106.02386,107.05929 q -0.43593,0 -0.76288,-0.2997 -0.2997,-0.32695 -0.2997,-0.76288 V 85.780396 h 2.12516 v 20.216314 q 0,0.43593 -0.2997,0.76288 -0.2997,0.2997 -0.76288,0.2997 z M 98.504048,87.71484 q -0.435931,0 -0.708388,-0.272457 -0.272457,-0.272457 -0.272457,-0.681142 0,-0.435931 0.272457,-0.708388 0.272457,-0.272457 0.708388,-0.272457 h 15.066872 q 0.43593,0 0.70839,0.272457 0.27246,0.272457 0.27246,0.708388 0,0.408685 -0.27246,0.681142 -0.27246,0.272457 -0.70839,0.272457 z"
         id="path2998" />
    </g>
    <g
       aria-label="developers' patience"
       id="text10894"
       style="font-size:7.90325px;line-height:1.25;font-family:Comfortaa;-inkscape-font-specification:Comfortaa;fill:#2c3e50;stroke-width:0.197582">
      <path
         d="m 32.832301,118.45786 q -0.624357,0 -1.122262,-0.28452 -0.497904,-0.29242 -0.790325,-0.79032 -0.284517,-0.49791 -0.284517,-1.13017 0,-0.62435 0.276614,-1.12226 0.284517,-0.4979 0.766615,-0.78242 0.482099,-0.29242 1.090649,-0.29242 0.529518,0 0.956293,0.22919 0.426776,0.22129 0.687583,0.59275 v -2.32356 q 0,-0.14226 0.08694,-0.22129 0.08693,-0.0869 0.221291,-0.0869 0.134355,0 0.221291,0.0869 0.08693,0.079 0.08693,0.22129 v 3.73034 q -0.01581,0.61645 -0.308226,1.11435 -0.284517,0.49 -0.782422,0.77452 -0.490002,0.28452 -1.106455,0.28452 z m 0,-0.55323 q 0.458388,0 0.814035,-0.21339 0.363549,-0.22129 0.569034,-0.59274 0.213387,-0.37145 0.213387,-0.84565 0,-0.46629 -0.213387,-0.83774 -0.205485,-0.37936 -0.569034,-0.59275 -0.355647,-0.21338 -0.814035,-0.21338 -0.450485,0 -0.814035,0.21338 -0.363549,0.21339 -0.576937,0.59275 -0.213388,0.37145 -0.213388,0.83774 0,0.4742 0.213388,0.84565 0.213388,0.37145 0.576937,0.59274 0.36355,0.21339 0.814035,0.21339 z"
         id="path3001" />
      <path
         d="m 38.411986,118.45786 q -0.640163,0 -1.138068,-0.27661 -0.490001,-0.28452 -0.774518,-0.78243 -0.276614,-0.4979 -0.276614,-1.13806 0,-0.64807 0.260807,-1.13807 0.268711,-0.49791 0.735003,-0.78242 0.466291,-0.28452 1.074842,-0.28452 0.600647,0 1.043229,0.27661 0.450485,0.26871 0.695486,0.75081 0.245,0.4821 0.245,1.09855 0,0.12645 -0.07903,0.20549 -0.07903,0.0711 -0.205485,0.0711 h -3.358881 v -0.50581 h 3.422107 l -0.339839,0.245 q 0.0079,-0.45839 -0.165969,-0.82194 -0.173871,-0.36355 -0.497904,-0.56903 -0.31613,-0.20549 -0.758712,-0.20549 -0.450486,0 -0.790325,0.21339 -0.33984,0.21339 -0.529518,0.59274 -0.181775,0.37146 -0.181775,0.85356 0,0.48209 0.205485,0.85355 0.213387,0.37145 0.576937,0.58484 0.363549,0.21338 0.837744,0.21338 0.284517,0 0.569034,-0.0948 0.292421,-0.10275 0.466292,-0.25291 0.08694,-0.0711 0.197581,-0.0711 0.110646,-0.008 0.189678,0.0553 0.102743,0.0948 0.102743,0.20548 0.0079,0.11065 -0.08694,0.18968 -0.260807,0.22129 -0.663873,0.37145 -0.403066,0.14226 -0.774519,0.14226 z"
         id="path3003" />
      <path
         d="m 42.624402,118.41834 q -0.189678,0 -0.284517,-0.20548 l -1.754522,-3.72243 q -0.04742,-0.10275 -0.0079,-0.20549 0.03952,-0.10274 0.158065,-0.15806 0.110646,-0.0553 0.213388,-0.0158 0.102742,0.0395 0.158065,0.14226 l 1.683392,3.6434 h -0.324033 l 1.659682,-3.6434 q 0.04742,-0.11065 0.158066,-0.14226 0.118548,-0.0395 0.229194,0.008 0.110645,0.0553 0.150162,0.16597 0.03952,0.10274 -0.0079,0.19758 l -1.730812,3.73034 q -0.09484,0.20548 -0.300323,0.20548 z"
         id="path3005" />
      <path
         d="m 47.318925,118.45786 q -0.640163,0 -1.138068,-0.27661 -0.490001,-0.28452 -0.774518,-0.78243 -0.276614,-0.4979 -0.276614,-1.13806 0,-0.64807 0.260807,-1.13807 0.268711,-0.49791 0.735003,-0.78242 0.466291,-0.28452 1.074842,-0.28452 0.600647,0 1.043229,0.27661 0.450485,0.26871 0.695486,0.75081 0.245001,0.4821 0.245001,1.09855 0,0.12645 -0.07903,0.20549 -0.07903,0.0711 -0.205485,0.0711 h -3.358881 v -0.50581 h 3.422107 l -0.339839,0.245 q 0.0079,-0.45839 -0.165969,-0.82194 -0.173871,-0.36355 -0.497904,-0.56903 -0.31613,-0.20549 -0.758712,-0.20549 -0.450486,0 -0.790325,0.21339 -0.33984,0.21339 -0.529518,0.59274 -0.181775,0.37146 -0.181775,0.85356 0,0.48209 0.205485,0.85355 0.213387,0.37145 0.576937,0.58484 0.363549,0.21338 0.837744,0.21338 0.284517,0 0.569034,-0.0948 0.292421,-0.10275 0.466292,-0.25291 0.08694,-0.0711 0.197581,-0.0711 0.110646,-0.008 0.189678,0.0553 0.102743,0.0948 0.102743,0.20548 0.0079,0.11065 -0.08694,0.18968 -0.260807,0.22129 -0.663873,0.37145 -0.403066,0.14226 -0.774519,0.14226 z"
         id="path3007" />
      <path
         d="m 51.144086,118.41834 q -0.31613,0 -0.569034,-0.17387 -0.245001,-0.17387 -0.387259,-0.4821 -0.134356,-0.30822 -0.134356,-0.71129 v -4.50485 q 0,-0.13436 0.07903,-0.21339 0.08694,-0.0869 0.221291,-0.0869 0.134355,0 0.213388,0.0869 0.08693,0.079 0.08693,0.21339 v 4.50485 q 0,0.33984 0.134356,0.55323 0.142258,0.21339 0.355646,0.21339 h 0.197581 q 0.118549,0 0.189678,0.0869 0.07113,0.079 0.07113,0.21339 0,0.13435 -0.102742,0.22129 -0.09484,0.079 -0.252904,0.079 z"
         id="path3009" />
      <path
         d="m 54.171021,118.45786 q -0.63226,0 -1.130165,-0.28452 -0.497904,-0.28452 -0.782421,-0.78242 -0.284517,-0.4979 -0.284517,-1.13016 0,-0.64017 0.284517,-1.13807 0.284517,-0.49791 0.782421,-0.78242 0.497905,-0.28452 1.130165,-0.28452 0.63226,0 1.122262,0.28452 0.497904,0.28451 0.782422,0.78242 0.284517,0.4979 0.29242,1.13807 0,0.63226 -0.29242,1.13016 -0.284518,0.4979 -0.782422,0.78242 -0.490002,0.28452 -1.122262,0.28452 z m 0,-0.55323 q 0.458389,0 0.821938,-0.21339 0.36355,-0.21338 0.569034,-0.58484 0.205485,-0.37145 0.205485,-0.84564 0,-0.4742 -0.205485,-0.84565 -0.205484,-0.37936 -0.569034,-0.59275 -0.363549,-0.21338 -0.821938,-0.21338 -0.458388,0 -0.821938,0.21338 -0.363549,0.21339 -0.576937,0.59275 -0.205485,0.37145 -0.205485,0.84565 0,0.47419 0.205485,0.84564 0.213388,0.37146 0.576937,0.58484 0.36355,0.21339 0.821938,0.21339 z"
         id="path3011" />
      <path
         d="m 57.861825,120.2677 q -0.142258,0 -0.229194,-0.0869 -0.07903,-0.079 -0.07903,-0.22129 v -3.73034 q 0.0079,-0.61645 0.29242,-1.10645 0.29242,-0.49791 0.782422,-0.78242 0.497904,-0.28452 1.114358,-0.28452 0.63226,0 1.130165,0.29242 0.497905,0.28452 0.782422,0.78242 0.29242,0.49791 0.29242,1.13017 0,0.62435 -0.284517,1.12226 -0.276614,0.4979 -0.758712,0.79032 -0.482099,0.28452 -1.090649,0.28452 -0.529518,0 -0.964196,-0.22129 -0.426776,-0.2292 -0.687583,-0.60065 v 2.32356 q 0,0.14225 -0.08694,0.22129 -0.07903,0.0869 -0.213388,0.0869 z m 1.880974,-2.36307 q 0.458388,0 0.821938,-0.21339 0.363549,-0.21338 0.569034,-0.58484 0.213388,-0.37935 0.213388,-0.84564 0,-0.4742 -0.213388,-0.84565 -0.205485,-0.37146 -0.569034,-0.58484 -0.36355,-0.22129 -0.821938,-0.22129 -0.450485,0 -0.814035,0.22129 -0.363549,0.21338 -0.569034,0.58484 -0.205484,0.37145 -0.205484,0.84565 0,0.46629 0.205484,0.84564 0.205485,0.37146 0.569034,0.58484 0.36355,0.21339 0.814035,0.21339 z"
         id="path3013" />
      <path
         d="m 65.101192,118.45786 q -0.640163,0 -1.138068,-0.27661 -0.490001,-0.28452 -0.774518,-0.78243 -0.276614,-0.4979 -0.276614,-1.13806 0,-0.64807 0.260807,-1.13807 0.268711,-0.49791 0.735002,-0.78242 0.466292,-0.28452 1.074842,-0.28452 0.600647,0 1.043229,0.27661 0.450486,0.26871 0.695486,0.75081 0.245001,0.4821 0.245001,1.09855 0,0.12645 -0.07903,0.20549 -0.07903,0.0711 -0.205485,0.0711 h -3.358881 v -0.50581 h 3.422107 l -0.33984,0.245 q 0.0079,-0.45839 -0.165968,-0.82194 -0.173871,-0.36355 -0.497905,-0.56903 -0.31613,-0.20549 -0.758712,-0.20549 -0.450485,0 -0.790325,0.21339 -0.339839,0.21339 -0.529517,0.59274 -0.181775,0.37146 -0.181775,0.85356 0,0.48209 0.205484,0.85355 0.213388,0.37145 0.576938,0.58484 0.363549,0.21338 0.837744,0.21338 0.284517,0 0.569034,-0.0948 0.29242,-0.10275 0.466292,-0.25291 0.08694,-0.0711 0.197581,-0.0711 0.110646,-0.008 0.189678,0.0553 0.102742,0.0948 0.102742,0.20548 0.0079,0.11065 -0.08693,0.18968 -0.260808,0.22129 -0.663873,0.37145 -0.403066,0.14226 -0.774519,0.14226 z"
         id="path3015" />
      <path
         d="m 68.246675,115.75495 q 0.02371,-0.49 0.252904,-0.87726 0.237097,-0.38726 0.60855,-0.60855 0.379356,-0.22129 0.837745,-0.22129 0.363549,0 0.56113,0.10274 0.197582,0.10274 0.150162,0.30032 -0.03161,0.11855 -0.110645,0.15807 -0.07113,0.0395 -0.181775,0.0316 -0.102742,-0.008 -0.237098,-0.0158 -0.442582,-0.0395 -0.790325,0.0948 -0.339839,0.12645 -0.545324,0.39516 -0.197581,0.26871 -0.197581,0.64017 z m 0.04742,2.66339 q -0.142258,0 -0.221291,-0.079 -0.07903,-0.079 -0.07903,-0.22129 v -3.72243 q 0,-0.14226 0.07903,-0.22129 0.07903,-0.079 0.221291,-0.079 0.142259,0 0.221291,0.079 0.07903,0.079 0.07903,0.22129 v 3.72243 q 0,0.14226 -0.07903,0.22129 -0.07903,0.079 -0.221291,0.079 z"
         id="path3017" />
      <path
         d="m 73.122966,118.45786 q -0.466291,0 -0.92468,-0.15807 -0.458388,-0.15806 -0.742905,-0.47419 -0.08694,-0.0948 -0.07113,-0.21339 0.01581,-0.11855 0.118549,-0.20548 0.110646,-0.079 0.229194,-0.0632 0.118549,0.0158 0.197582,0.10274 0.189678,0.22129 0.497904,0.33984 0.31613,0.11855 0.695486,0.11855 0.584841,0 0.845648,-0.19758 0.260807,-0.20548 0.268711,-0.49 0,-0.28452 -0.268711,-0.46629 -0.26871,-0.18968 -0.885164,-0.29242 -0.798228,-0.12646 -1.169681,-0.44259 -0.371453,-0.31613 -0.371453,-0.7508 0,-0.40307 0.213388,-0.67178 0.213388,-0.26871 0.569034,-0.40307 0.355646,-0.13435 0.782422,-0.13435 0.529518,0 0.908874,0.18177 0.387259,0.18178 0.624356,0.49 0.07903,0.10275 0.06323,0.21339 -0.01581,0.11065 -0.126452,0.18178 -0.09484,0.0553 -0.221291,0.0395 -0.118548,-0.0237 -0.205484,-0.11855 -0.197581,-0.22919 -0.458389,-0.33193 -0.260807,-0.11065 -0.600647,-0.11065 -0.434678,0 -0.695486,0.18178 -0.260807,0.17387 -0.260807,0.44258 0,0.18177 0.09484,0.31613 0.102742,0.13435 0.33984,0.2371 0.245001,0.10274 0.679679,0.17387 0.592744,0.0948 0.932584,0.28452 0.347743,0.18177 0.490001,0.43467 0.150162,0.24501 0.150162,0.53743 0,0.37145 -0.221291,0.65597 -0.213388,0.27661 -0.600647,0.43467 -0.379356,0.15807 -0.877261,0.15807 z"
         id="path3019" />
      <path
         d="m 75.794263,113.9372 q -0.09484,0 -0.165969,-0.0632 -0.06323,-0.0711 -0.06323,-0.16596 l -0.07903,-1.16178 q 0,-0.12645 0.08694,-0.21339 0.09484,-0.0869 0.221291,-0.0869 0.126452,0 0.213387,0.0869 0.09484,0.0869 0.09484,0.21339 l -0.07903,1.16178 q 0,0.0948 -0.07113,0.16596 -0.06323,0.0632 -0.158065,0.0632 z"
         id="path3021" />
      <path
         d="m 79.73006,120.2677 q -0.142258,0 -0.229194,-0.0869 -0.07903,-0.079 -0.07903,-0.22129 v -3.73034 q 0.0079,-0.61645 0.292421,-1.10645 0.29242,-0.49791 0.782421,-0.78242 0.497905,-0.28452 1.114359,-0.28452 0.63226,0 1.130164,0.29242 0.497905,0.28452 0.782422,0.78242 0.29242,0.49791 0.29242,1.13017 0,0.62435 -0.284517,1.12226 -0.276613,0.4979 -0.758712,0.79032 -0.482098,0.28452 -1.090648,0.28452 -0.529518,0 -0.964197,-0.22129 -0.426775,-0.2292 -0.687582,-0.60065 v 2.32356 q 0,0.14225 -0.08694,0.22129 -0.07903,0.0869 -0.213388,0.0869 z m 1.880974,-2.36307 q 0.458388,0 0.821938,-0.21339 0.363549,-0.21338 0.569034,-0.58484 0.213387,-0.37935 0.213387,-0.84564 0,-0.4742 -0.213387,-0.84565 -0.205485,-0.37146 -0.569034,-0.58484 -0.36355,-0.22129 -0.821938,-0.22129 -0.450486,0 -0.814035,0.22129 -0.36355,0.21338 -0.569034,0.58484 -0.205485,0.37145 -0.205485,0.84565 0,0.46629 0.205485,0.84564 0.205484,0.37146 0.569034,0.58484 0.363549,0.21339 0.814035,0.21339 z"
         id="path3023" />
      <path
         d="m 86.914106,118.45786 q -0.60855,0 -1.090649,-0.28452 -0.482098,-0.29242 -0.766615,-0.79032 -0.276614,-0.49791 -0.276614,-1.12226 0,-0.63226 0.284517,-1.13017 0.292421,-0.4979 0.790325,-0.78242 0.497905,-0.29242 1.122262,-0.29242 0.624357,0 1.114358,0.29242 0.497905,0.28452 0.782422,0.78242 0.29242,0.49791 0.300323,1.13017 l -0.245,0.18967 q 0,0.56904 -0.268711,1.02743 -0.260807,0.45048 -0.719196,0.71919 -0.450485,0.26081 -1.027422,0.26081 z m 0.06323,-0.55323 q 0.458388,0 0.814035,-0.21339 0.363549,-0.21338 0.569034,-0.58484 0.213387,-0.37935 0.213387,-0.84564 0,-0.4742 -0.213387,-0.84565 -0.205485,-0.37146 -0.569034,-0.58484 -0.355647,-0.22129 -0.814035,-0.22129 -0.450485,0 -0.814035,0.22129 -0.363549,0.21338 -0.576937,0.58484 -0.213388,0.37145 -0.213388,0.84565 0,0.46629 0.213388,0.84564 0.213388,0.37146 0.576937,0.58484 0.36355,0.21339 0.814035,0.21339 z m 1.888877,0.51371 q -0.134356,0 -0.221291,-0.079 -0.08694,-0.0869 -0.08694,-0.22129 v -1.35146 l 0.150162,-0.62435 0.466291,0.11855 v 1.85726 q 0,0.13435 -0.08693,0.22129 -0.08694,0.079 -0.221291,0.079 z"
         id="path3025" />
      <path
         d="m 92.051205,118.41834 q -0.418872,0 -0.750809,-0.19758 -0.324033,-0.19758 -0.513711,-0.53742 -0.189678,-0.34774 -0.189678,-0.79032 v -3.86469 q 0,-0.13436 0.07903,-0.2213 0.08694,-0.0869 0.221291,-0.0869 0.134356,0 0.221291,0.0869 0.08694,0.0869 0.08694,0.2213 v 3.86469 q 0,0.40306 0.237098,0.66387 0.237097,0.2529 0.60855,0.2529 h 0.213388 q 0.126452,0 0.205484,0.0869 0.07903,0.0869 0.07903,0.22129 0,0.13435 -0.09484,0.22129 -0.09484,0.079 -0.237098,0.079 z m -1.967909,-3.63549 q -0.118549,0 -0.197582,-0.0711 -0.07903,-0.079 -0.07903,-0.18968 0,-0.11855 0.07903,-0.18968 0.07903,-0.079 0.197582,-0.079 h 2.015328 q 0.118549,0 0.197582,0.079 0.07903,0.0711 0.07903,0.18968 0,0.11065 -0.07903,0.18968 -0.07903,0.0711 -0.197582,0.0711 z"
         id="path3027" />
      <path
         d="m 93.971682,118.41834 q -0.142259,0 -0.229195,-0.079 -0.07903,-0.0869 -0.07903,-0.22919 v -3.70663 q 0,-0.14226 0.07903,-0.22129 0.08694,-0.0869 0.229195,-0.0869 0.134355,0 0.213387,0.0869 0.08694,0.079 0.08694,0.22129 v 3.70663 q 0,0.14225 -0.08694,0.22919 -0.07903,0.079 -0.213387,0.079 z m -0.0079,-5.14501 q -0.173871,0 -0.300323,-0.12646 -0.126452,-0.12645 -0.126452,-0.30822 0,-0.19758 0.126452,-0.30823 0.134355,-0.11855 0.308227,-0.11855 0.165968,0 0.29242,0.11855 0.134355,0.11065 0.134355,0.30823 0,0.18177 -0.126452,0.30822 -0.126452,0.12646 -0.308227,0.12646 z"
         id="path3029" />
      <path
         d="m 97.781047,118.45786 q -0.640163,0 -1.138068,-0.27661 -0.490001,-0.28452 -0.774518,-0.78243 -0.276614,-0.4979 -0.276614,-1.13806 0,-0.64807 0.260807,-1.13807 0.268711,-0.49791 0.735003,-0.78242 0.466291,-0.28452 1.074842,-0.28452 0.600647,0 1.043229,0.27661 0.450485,0.26871 0.695486,0.75081 0.245,0.4821 0.245,1.09855 0,0.12645 -0.07903,0.20549 -0.07903,0.0711 -0.205485,0.0711 h -3.358881 v -0.50581 h 3.422107 l -0.339839,0.245 q 0.0079,-0.45839 -0.165969,-0.82194 -0.173871,-0.36355 -0.497904,-0.56903 -0.31613,-0.20549 -0.758712,-0.20549 -0.450486,0 -0.790325,0.21339 -0.33984,0.21339 -0.529518,0.59274 -0.181775,0.37146 -0.181775,0.85356 0,0.48209 0.205485,0.85355 0.213387,0.37145 0.576937,0.58484 0.363549,0.21338 0.837744,0.21338 0.284517,0 0.569034,-0.0948 0.292421,-0.10275 0.466292,-0.25291 0.08694,-0.0711 0.197581,-0.0711 0.110646,-0.008 0.189678,0.0553 0.102743,0.0948 0.102743,0.20548 0.0079,0.11065 -0.08694,0.18968 -0.260807,0.22129 -0.663873,0.37145 -0.403066,0.14226 -0.774519,0.14226 z"
         id="path3031" />
      <path
         d="m 104.38024,118.41834 q -0.13435,0 -0.22129,-0.0869 -0.0869,-0.0869 -0.0869,-0.21339 v -2.05485 q 0,-0.49 -0.18968,-0.80613 -0.18178,-0.31613 -0.50581,-0.47419 -0.31613,-0.15807 -0.7192,-0.15807 -0.38725,0 -0.70338,0.15016 -0.30823,0.15017 -0.49001,0.41097 -0.18177,0.26081 -0.18177,0.59275 h -0.43468 q 0.0158,-0.49791 0.26871,-0.88517 0.2529,-0.39516 0.67178,-0.61645 0.41887,-0.22919 0.93258,-0.22919 0.56113,0 1.00371,0.23709 0.44259,0.2292 0.69549,0.67968 0.26081,0.45049 0.26081,1.09855 v 2.05485 q 0,0.12645 -0.0869,0.21339 -0.0869,0.0869 -0.21339,0.0869 z m -3.39839,0 q -0.14226,0 -0.2292,-0.079 -0.079,-0.0869 -0.079,-0.22129 v -3.71453 q 0,-0.14226 0.079,-0.22129 0.0869,-0.0869 0.2292,-0.0869 0.13435,0 0.21338,0.0869 0.0869,0.079 0.0869,0.22129 v 3.71453 q 0,0.13435 -0.0869,0.22129 -0.079,0.079 -0.21338,0.079 z"
         id="path3033" />
      <path
         d="m 107.9525,118.45786 q -0.62436,0 -1.11436,-0.28452 -0.4821,-0.29242 -0.76662,-0.79032 -0.27661,-0.49791 -0.27661,-1.12226 0,-0.63226 0.26871,-1.13017 0.26871,-0.4979 0.735,-0.78242 0.4663,-0.29242 1.07485,-0.29242 0.48209,0 0.88516,0.18968 0.41097,0.18967 0.7192,0.56903 0.0869,0.0948 0.0632,0.20548 -0.0237,0.10275 -0.13435,0.18178 -0.0869,0.0632 -0.19758,0.0474 -0.10275,-0.0237 -0.18178,-0.11855 -0.45839,-0.52161 -1.15387,-0.52161 -0.44259,0 -0.78243,0.21338 -0.33193,0.21339 -0.52161,0.58484 -0.18178,0.37146 -0.18178,0.85356 0,0.47419 0.19759,0.84564 0.19758,0.37146 0.55322,0.58484 0.35565,0.21339 0.81404,0.21339 0.30823,0 0.56113,-0.079 0.26081,-0.0869 0.45839,-0.26081 0.0948,-0.079 0.19758,-0.0869 0.10274,-0.008 0.18968,0.0632 0.0948,0.0869 0.10274,0.19758 0.0158,0.11065 -0.0711,0.18968 -0.57694,0.52952 -1.43839,0.52952 z"
         id="path3035" />
      <path
         d="m 112.68654,118.45786 q -0.64016,0 -1.13807,-0.27661 -0.49,-0.28452 -0.77451,-0.78243 -0.27662,-0.4979 -0.27662,-1.13806 0,-0.64807 0.26081,-1.13807 0.26871,-0.49791 0.735,-0.78242 0.46629,-0.28452 1.07484,-0.28452 0.60065,0 1.04323,0.27661 0.45049,0.26871 0.69549,0.75081 0.245,0.4821 0.245,1.09855 0,0.12645 -0.079,0.20549 -0.079,0.0711 -0.20549,0.0711 h -3.35888 v -0.50581 h 3.42211 l -0.33984,0.245 q 0.008,-0.45839 -0.16597,-0.82194 -0.17387,-0.36355 -0.4979,-0.56903 -0.31613,-0.20549 -0.75872,-0.20549 -0.45048,0 -0.79032,0.21339 -0.33984,0.21339 -0.52952,0.59274 -0.18177,0.37146 -0.18177,0.85356 0,0.48209 0.20548,0.85355 0.21339,0.37145 0.57694,0.58484 0.36355,0.21338 0.83774,0.21338 0.28452,0 0.56904,-0.0948 0.29242,-0.10275 0.46629,-0.25291 0.0869,-0.0711 0.19758,-0.0711 0.11064,-0.008 0.18968,0.0553 0.10274,0.0948 0.10274,0.20548 0.008,0.11065 -0.0869,0.18968 -0.2608,0.22129 -0.66387,0.37145 -0.40307,0.14226 -0.77452,0.14226 z"
         id="path3037" />
    </g>
    <g
       aria-label="DAILY"
       id="text18252"
       style="font-size:30.2145px;line-height:1.25;font-family:Comfortaa;-inkscape-font-specification:Comfortaa;fill:#2c3e50;stroke-width:0.314734">
      <path
         d="m 31.81356,147.89252 q -0.513646,0 -0.846006,-0.33236 -0.332359,-0.33236 -0.332359,-0.84601 v -21.24079 q 0,-0.51365 0.332359,-0.84601 0.33236,-0.33236 0.846006,-0.33236 h 5.43861 q 2.598447,0 4.743677,0.87622 2.175444,0.84601 3.746598,2.44738 1.571154,1.57115 2.41716,3.71638 0.876221,2.14523 0.876221,4.74368 0,2.59844 -0.876221,4.77389 -0.846006,2.14523 -2.41716,3.7466 -1.571154,1.57115 -3.746598,2.44737 -2.14523,0.84601 -4.743677,0.84601 z m 1.178366,-2.11502 h 4.260244 q 2.779734,0 4.894749,-1.23879 2.14523,-1.26901 3.35381,-3.44446 1.20858,-2.20565 1.20858,-5.0156 0,-2.80995 -1.20858,-4.9854 -1.20858,-2.20565 -3.35381,-3.44445 -2.115015,-1.23879 -4.894749,-1.23879 h -4.260244 z"
         id="path3040" />
      <path
         d="m 51.996789,147.89252 q -0.694933,0 -0.997078,-0.57408 -0.302145,-0.57407 -0.06043,-1.11793 l 8.883063,-21.08973 q 0.332359,-0.81579 1.148151,-0.81579 0.785577,0 1.117937,0.81579 l 8.913277,21.11994 q 0.271931,0.57408 -0.09064,1.11794 -0.33236,0.54386 -0.966864,0.54386 -0.362574,0 -0.664719,-0.18129 -0.271931,-0.18129 -0.453218,-0.54386 L 60.517278,127.0143 h 0.93665 l -8.369417,20.15307 q -0.151072,0.36257 -0.453217,0.54386 -0.271931,0.18129 -0.634505,0.18129 z m 1.994157,-5.6199 0.906435,-2.02437 h 12.267088 l 0.906435,2.02437 z"
         id="path3042" />
      <path
         d="m 75.715145,147.89252 q -0.513647,0 -0.846006,-0.33236 -0.33236,-0.33236 -0.33236,-0.84601 v -21.24079 q 0,-0.51365 0.33236,-0.84601 0.332359,-0.33236 0.846006,-0.33236 0.513646,0 0.846006,0.33236 0.332359,0.33236 0.332359,0.84601 v 21.24079 q 0,0.51365 -0.332359,0.84601 -0.33236,0.33236 -0.846006,0.33236 z"
         id="path3044" />
      <path
         d="m 84.114773,147.89252 q -0.483432,0 -0.846006,-0.33236 -0.33236,-0.33236 -0.33236,-0.84601 v -21.24079 q 0,-0.48343 0.33236,-0.81579 0.362574,-0.36258 0.846006,-0.36258 0.483432,0 0.815791,0.36258 0.362574,0.33236 0.362574,0.81579 v 20.18328 h 11.81387 q 0.483432,0 0.815791,0.33236 0.362574,0.30215 0.362574,0.78558 0,0.48343 -0.362574,0.81579 -0.332359,0.30215 -0.815791,0.30215 z"
         id="path3046" />
      <path
         d="m 104.9023,147.89252 q -0.48344,0 -0.84601,-0.33236 -0.33236,-0.36258 -0.33236,-0.84601 v -7.55362 l -8.218343,-13.02245 q -0.302145,-0.45322 -0.241716,-0.87622 0.09064,-0.42301 0.392789,-0.69494 0.302145,-0.27193 0.755362,-0.27193 0.362574,0 0.574076,0.15107 0.241716,0.15108 0.423003,0.42301 l 8.157919,13.14331 h -1.26901 l 8.1277,-13.08288 q 0.2115,-0.33236 0.45321,-0.48344 0.27194,-0.15107 0.63451,-0.15107 0.423,0 0.69493,0.30215 0.30215,0.27193 0.33236,0.69493 0.0604,0.423 -0.2115,0.84601 l -8.24856,13.02245 v 7.55362 q 0,0.48343 -0.36257,0.84601 -0.33236,0.33236 -0.81579,0.33236 z"
         id="path3048" />
    </g>
    <rect
       style="opacity:1;fill:none;stroke:#2c3e50;stroke-width:1;stroke-linecap:round;stroke-linejoin:round;stroke-miterlimit:4;stroke-dasharray:none;stroke-opacity:1"
       id="rect39206"
       width="93.278641"
       height="68.461998"
       x="25.954132"
       y="82.620926"
       ry="5.6699181" />
  </g>
</svg>
