<?xml version="1.0" encoding="UTF-8" standalone="no"?>
<!-- Created with Inkscape (http://www.inkscape.org/) -->

<svg
   width="56mm"
   height="56mm"
   viewBox="0 0 56 56"
   version="1.1"
   id="svg838"
   inkscape:version="1.1.2 (0a00cf5339, 2022-02-04)"
   sodipodi:docname="pip.svg"
   xmlns:inkscape="http://www.inkscape.org/namespaces/inkscape"
   xmlns:sodipodi="http://sodipodi.sourceforge.net/DTD/sodipodi-0.dtd"
   xmlns="http://www.w3.org/2000/svg"
   xmlns:svg="http://www.w3.org/2000/svg"
   xmlns:rdf="http://www.w3.org/1999/02/22-rdf-syntax-ns#"
   xmlns:cc="http://creativecommons.org/ns#"
   xmlns:dc="http://purl.org/dc/elements/1.1/">
  <defs
     id="defs832" />
  <sodipodi:namedview
     id="base"
     pagecolor="#ffffff"
     bordercolor="#666666"
     borderopacity="1.0"
     inkscape:pageopacity="0.0"
     inkscape:pageshadow="2"
     inkscape:zoom="2.8"
     inkscape:cx="42.678571"
     inkscape:cy="110"
     inkscape:document-units="mm"
     inkscape:current-layer="layer1"
     showgrid="false"
     inkscape:snap-global="false"
     inkscape:snap-bbox="true"
     inkscape:bbox-paths="true"
     inkscape:bbox-nodes="true"
     inkscape:snap-bbox-edge-midpoints="true"
     inkscape:snap-bbox-midpoints="true"
     inkscape:window-width="1712"
     inkscape:window-height="860"
     inkscape:window-x="0"
     inkscape:window-y="30"
     inkscape:window-maximized="1"
     fit-margin-top="0"
     fit-margin-left="0"
     fit-margin-right="0"
     fit-margin-bottom="0"
     inkscape:pagecheckerboard="0">
    <inkscape:grid
       type="xygrid"
       id="grid1394"
       originx="-299.8017"
       originy="-332.28937" />
  </sodipodi:namedview>
  <metadata
     id="metadata835">
    <rdf:RDF>
      <cc:Work
         rdf:about="">
        <dc:format>image/svg+xml</dc:format>
        <dc:type
           rdf:resource="http://purl.org/dc/dcmitype/StillImage" />
      </cc:Work>
    </rdf:RDF>
  </metadata>
  <g
     inkscape:label="Layer 1"
     inkscape:groupmode="layer"
     id="layer1"
     transform="translate(-147.02187,-82.354797)">
    <circle
       style="fill:#ffffff;fill-opacity:1;stroke:none;stroke-width:0.54277509;stroke-miterlimit:4;stroke-dasharray:none;stroke-opacity:1;paint-order:stroke markers fill"
       id="path1536"
       cx="175.02187"
       cy="110.3548"
       r="28" />
    <g
       id="g1548"
       transform="translate(0.06611084,-1.6249726)">
      <g
         id="g1503">
        <path
           style="fill:#cb3837;stroke-width:3.25029063"
           d="m 152.77983,100.60372 v 19.50166 h 0.0744 v 3.25044 h 13.00024 v -3.25044 h 29.253 v -19.50166 z"
           id="path2"
           inkscape:connector-curvature="0" />
        <rect
           style="fill:#cb3837;fill-opacity:1;stroke:none;stroke-width:0.49063975;stroke-miterlimit:4;stroke-dasharray:none;stroke-opacity:1;paint-order:stroke markers fill"
           id="rect1499"
           width="1.3479731"
           height="3.2504427"
           x="152.77983"
           y="120.10538" />
      </g>
      <path
         inkscape:connector-curvature="0"
         id="path4"
         d="m 156.10417,103.85417 v 16.25121 h 6.5009 v -3.24994 h 6.50089 v -13.00127 z m 6.5009,3.24993 h 3.24941 v 6.50038 h -3.24941 z"
         style="fill:#ffffff;stroke-width:3.25029063" />
      <path
         inkscape:connector-curvature="0"
         id="path2-6"
         d="m 178.52581,100.60373 v 22.75209 h 12.45104 v -3.25044 h 6.15483 v -19.50165 z"
         style="fill:#cb3837;stroke-width:3.19010234" />
      <path
         inkscape:connector-curvature="0"
         id="path4-7"
         d="m 180.99211,103.85422 v 16.25121 h 6.5009 v -3.24994 h 6.50089 v -13.00127 z m 6.5009,3.24993 h 3.24941 v 6.50038 h -3.24941 z"
         style="fill:#ffffff;stroke-width:3.25029063" />
      <path
         inkscape:connector-curvature="0"
         id="path4-5"
         d="m 171.97916,103.85417 v 13.00127 h 6.08542 v -13.00127 z"
         style="fill:#ffffff;stroke-width:2.83320546" />
      <g
         id="g1534">
        <path
           style="fill:#cb3837;stroke-width:0.43089658"
           d="m 169.44505,107.17121 v 1.97462 h 0.013 v 0.32912 h 2.25653 v -0.32912 h 5.07763 v -1.97462 z"
           id="path2-6-3"
           inkscape:connector-curvature="0" />
        <path
           style="fill:#cb3837;stroke-width:0.43089661"
           d="m 180.33411,107.17121 v 1.97462 h -0.013 v 0.32912 h -2.25653 v -0.32912 h -5.07763 v -1.97462 z"
           id="path2-6-3-5"
           inkscape:connector-curvature="0" />
      </g>
    </g>
    <g
       aria-label="orsinium.dev"
       id="text1552"
       style="font-size:2.11667px;line-height:1.25;letter-spacing:0px;word-spacing:0px;fill:#ffffff;stroke-width:0.264583">
      <path
         d="m 166.1611,116.57036 q -0.15296,0 -0.24185,0.11989 -0.0889,0.11886 -0.0889,0.3266 0,0.20774 0.0879,0.32762 0.0889,0.11886 0.24288,0.11886 0.15193,0 0.24081,-0.11989 0.0889,-0.11989 0.0889,-0.32659 0,-0.20568 -0.0889,-0.32557 -0.0889,-0.12092 -0.24081,-0.12092 z m 0,-0.16123 q 0.24805,0 0.38964,0.16123 0.14159,0.16123 0.14159,0.44649 0,0.28422 -0.14159,0.44648 -0.14159,0.16123 -0.38964,0.16123 -0.24908,0 -0.39067,-0.16123 -0.14056,-0.16226 -0.14056,-0.44648 0,-0.28526 0.14056,-0.44649 0.14159,-0.16123 0.39067,-0.16123 z"
         id="path939" />
      <path
         d="m 167.67832,116.6148 q -0.032,-0.0186 -0.0703,-0.0269 -0.0372,-0.009 -0.0827,-0.009 -0.16123,0 -0.24805,0.10542 -0.0858,0.10439 -0.0858,0.30076 v 0.60978 h -0.1912 v -1.15755 h 0.1912 v 0.17983 q 0.0599,-0.10542 0.15606,-0.15606 0.0961,-0.0517 0.23358,-0.0517 0.0196,0 0.0434,0.003 0.0238,0.002 0.0527,0.007 z"
         id="path941" />
      <path
         d="m 168.61573,116.47114 v 0.17984 q -0.0806,-0.0414 -0.16743,-0.062 -0.0868,-0.0207 -0.17983,-0.0207 -0.1416,0 -0.21291,0.0434 -0.0703,0.0434 -0.0703,0.13023 0,0.0661 0.0506,0.10438 0.0506,0.0372 0.20361,0.0713 l 0.0651,0.0145 q 0.20257,0.0434 0.28732,0.12299 0.0858,0.0785 0.0858,0.22014 0,0.16123 -0.12816,0.25528 -0.12713,0.094 -0.35037,0.094 -0.093,0 -0.1943,-0.0186 -0.10025,-0.0176 -0.21188,-0.0537 v -0.19637 q 0.10542,0.0548 0.20774,0.0827 0.10232,0.0269 0.20258,0.0269 0.13435,0 0.2067,-0.0455 0.0724,-0.0465 0.0724,-0.13022 0,-0.0775 -0.0527,-0.11886 -0.0517,-0.0413 -0.22841,-0.0796 l -0.0661,-0.0155 q -0.17673,-0.0372 -0.25528,-0.11369 -0.0786,-0.0775 -0.0786,-0.21187 0,-0.1633 0.11576,-0.25219 0.11575,-0.0889 0.32866,-0.0889 0.10542,0 0.19844,0.0155 0.093,0.0155 0.17156,0.0465 z"
         id="path943" />
      <path
         d="m 168.98057,116.43704 h 0.19017 v 1.15755 h -0.19017 z m 0,-0.45062 h 0.19017 v 0.24081 h -0.19017 z"
         id="path945" />
      <path
         d="m 170.53087,116.89592 v 0.69867 h -0.19017 v -0.69247 q 0,-0.16433 -0.0641,-0.24598 -0.0641,-0.0816 -0.19224,-0.0816 -0.154,0 -0.24288,0.0982 -0.0889,0.0982 -0.0889,0.26768 v 0.65423 h -0.19121 v -1.15755 h 0.19121 v 0.17983 q 0.0682,-0.10439 0.16019,-0.15606 0.093,-0.0517 0.21395,-0.0517 0.19947,0 0.30179,0.12402 0.10232,0.12299 0.10232,0.36277 z"
         id="path947" />
      <path
         d="m 170.91017,116.43704 h 0.19017 v 1.15755 h -0.19017 z m 0,-0.45062 h 0.19017 v 0.24081 h -0.19017 z"
         id="path949" />
      <path
         d="m 171.47861,117.13777 v -0.70073 h 0.19017 v 0.69349 q 0,0.16434 0.0641,0.24702 0.0641,0.0816 0.19224,0.0816 0.15399,0 0.24288,-0.0982 0.0899,-0.0982 0.0899,-0.26768 v -0.65629 h 0.19016 v 1.15755 h -0.19016 v -0.17777 q -0.0693,0.10542 -0.16124,0.1571 -0.091,0.0506 -0.21187,0.0506 -0.19947,0 -0.30282,-0.12402 -0.10336,-0.12403 -0.10336,-0.36277 z m 0.47853,-0.72864 z"
         id="path951" />
      <path
         d="m 173.74101,116.65924 q 0.0713,-0.12815 0.17053,-0.18913 0.0992,-0.061 0.23358,-0.061 0.18087,0 0.27905,0.12712 0.0982,0.12609 0.0982,0.35967 v 0.69867 h -0.1912 v -0.69247 q 0,-0.16639 -0.0589,-0.24701 -0.0589,-0.0806 -0.17984,-0.0806 -0.14779,0 -0.23358,0.0982 -0.0858,0.0982 -0.0858,0.26768 v 0.65423 h -0.1912 v -0.69247 q 0,-0.16743 -0.0589,-0.24701 -0.0589,-0.0806 -0.18191,-0.0806 -0.14572,0 -0.23151,0.0992 -0.0858,0.0982 -0.0858,0.26665 v 0.65423 h -0.1912 v -1.15755 h 0.1912 v 0.17983 q 0.0651,-0.10645 0.15606,-0.1571 0.0909,-0.0506 0.21601,-0.0506 0.12609,0 0.21394,0.0641 0.0889,0.0641 0.13126,0.18603 z"
         id="path953" />
      <path
         d="m 174.92854,117.33207 h 0.21807 v 0.26252 h -0.21807 z"
         id="path955" />
      <path
         d="m 176.33621,116.61274 v -0.62632 h 0.19016 v 1.60817 h -0.19016 v -0.17363 q -0.0599,0.10335 -0.15193,0.15399 -0.0909,0.0496 -0.21911,0.0496 -0.20981,0 -0.3421,-0.16743 -0.13126,-0.16743 -0.13126,-0.44028 0,-0.27286 0.13126,-0.44029 0.13229,-0.16743 0.3421,-0.16743 0.12816,0 0.21911,0.0506 0.092,0.0496 0.15193,0.15297 z m -0.64803,0.40411 q 0,0.2098 0.0858,0.32969 0.0868,0.11886 0.23772,0.11886 0.15089,0 0.23771,-0.11886 0.0868,-0.11989 0.0868,-0.32969 0,-0.20981 -0.0868,-0.32867 -0.0868,-0.11989 -0.23771,-0.11989 -0.1509,0 -0.23772,0.11989 -0.0858,0.11886 -0.0858,0.32867 z"
         id="path957" />
      <path
         d="m 177.90821,116.96827 v 0.093 h -0.87437 q 0.0124,0.19637 0.11782,0.29972 0.10645,0.10232 0.29559,0.10232 0.10955,0 0.21187,-0.0269 0.10336,-0.0269 0.20464,-0.0806 v 0.17984 q -0.10232,0.0434 -0.2098,0.0661 -0.10749,0.0227 -0.21808,0.0227 -0.27698,0 -0.43925,-0.16123 -0.16123,-0.16123 -0.16123,-0.43615 0,-0.28422 0.15296,-0.45062 0.154,-0.16743 0.41445,-0.16743 0.23358,0 0.36897,0.1509 0.13643,0.14986 0.13643,0.40824 z m -0.19017,-0.0558 q -0.002,-0.15606 -0.0879,-0.24908 -0.0847,-0.093 -0.22531,-0.093 -0.15917,0 -0.25529,0.0899 -0.0951,0.0899 -0.10955,0.25321 z"
         id="path959" />
      <path
         d="m 178.08391,116.43704 h 0.20153 l 0.36174,0.97151 0.36173,-0.97151 h 0.20154 l -0.43408,1.15755 h -0.25838 z"
         id="path961" />
    </g>
  </g>
</svg>
