<?xml version="1.0" encoding="UTF-8" standalone="no"?>
<svg
   xmlns:dc="http://purl.org/dc/elements/1.1/"
   xmlns:cc="http://creativecommons.org/ns#"
   xmlns:rdf="http://www.w3.org/1999/02/22-rdf-syntax-ns#"
   xmlns:svg="http://www.w3.org/2000/svg"
   xmlns="http://www.w3.org/2000/svg"
   xmlns:sodipodi="http://sodipodi.sourceforge.net/DTD/sodipodi-0.dtd"
   xmlns:inkscape="http://www.inkscape.org/namespaces/inkscape"
   width="3633.0549"
   height="1446.4519"
   viewBox="0 0 280.11724 111.52491"
   id="svg2"
   version="1.1"
   inkscape:version="0.92.4 (5da689c313, 2019-01-14)"
   sodipodi:docname="python_powered.svg"
   inkscape:export-filename="/home/gram/projects/other/stickers/3sticker/python_old.png"
   inkscape:export-xdpi="63.279999"
   inkscape:export-ydpi="63.279999">
  <metadata
     id="metadata250">
    <rdf:RDF>
      <cc:Work
         rdf:about="">
        <dc:format>image/svg+xml</dc:format>
        <dc:type
           rdf:resource="http://purl.org/dc/dcmitype/StillImage" />
        <dc:title />
      </cc:Work>
    </rdf:RDF>
  </metadata>
  <defs
     id="defs248" />
  <sodipodi:namedview
     pagecolor="#ffffff"
     bordercolor="#666666"
     borderopacity="1"
     objecttolerance="10"
     gridtolerance="10"
     guidetolerance="10"
     inkscape:pageopacity="0"
     inkscape:pageshadow="2"
     inkscape:window-width="1600"
     inkscape:window-height="822"
     id="namedview246"
     showgrid="true"
     inkscape:snap-bbox="true"
     inkscape:bbox-paths="true"
     inkscape:bbox-nodes="true"
     inkscape:snap-bbox-edge-midpoints="true"
     inkscape:zoom="0.13350176"
     inkscape:cx="669.29167"
     inkscape:cy="984.58616"
     inkscape:window-x="1080"
     inkscape:window-y="1047"
     inkscape:window-maximized="1"
     inkscape:current-layer="svg2"
     inkscape:snap-bbox-midpoints="true"
     fit-margin-top="0"
     fit-margin-left="0"
     fit-margin-right="0"
     fit-margin-bottom="0"
     inkscape:snap-global="false">
    <inkscape:grid
       type="xygrid"
       id="grid3578"
       originx="45.725979"
       originy="-43.177327" />
  </sodipodi:namedview>
  <g
     id="g169"
     transform="matrix(18.371264,0,0,19.954094,-2836.1134,-1117.7434)">
    <path
       id="path2"
       d="m 169.62527,58.810278 c 0,0.741141 -0.81226,1.451937 -2.25821,1.976028 -1.44594,0.524093 -3.40707,0.818509 -5.45197,0.818509 -2.0449,0 -4.00602,-0.294416 -5.45201,-0.818509 -1.44595,-0.524091 -2.25829,-1.234887 -2.25829,-1.976028 0,-0.741141 0.81234,-1.451937 2.25829,-1.976028 1.44599,-0.524092 3.40711,-0.818509 5.45201,-0.818509 2.0449,0 4.00603,0.294417 5.45197,0.818509 1.44595,0.524091 2.25821,1.234887 2.25821,1.976028 z"
       style="fill:#0063af;stroke-width:0.0771024"
       inkscape:connector-curvature="0" />
    <path
       id="path4"
       d="m 156.75341,56.513169 c -0.10805,0 -0.19562,0.08756 -0.19562,0.195618 0,0.05477 0.0226,0.10422 0.0588,0.139726 -9.9e-4,9.68e-4 -0.002,0.0019 -0.003,0.0029 -0.0355,-0.03626 -0.0849,-0.05882 -0.13973,-0.05882 -0.10805,0 -0.19561,0.08756 -0.19561,0.195618 0,0.05477 0.0226,0.10422 0.0588,0.139726 -0.0363,0.03551 -0.0588,0.08495 -0.0588,0.139727 0,0.05477 0.0226,0.104221 0.0588,0.139727 -0.0363,0.03551 -0.0588,0.08495 -0.0588,0.139727 0,0.05477 0.0226,0.10422 0.0588,0.139727 -0.0363,0.03551 -0.0588,0.08495 -0.0588,0.139727 0,0.05477 0.0226,0.10422 0.0588,0.139727 -0.0363,0.03551 -0.0588,0.08495 -0.0588,0.139726 0,0.05477 0.0226,0.104221 0.0588,0.139727 -0.0363,0.03551 -0.0588,0.08495 -0.0588,0.139727 0,0.05477 0.0226,0.10422 0.0588,0.139727 -0.0363,0.03551 -0.0588,0.08495 -0.0588,0.139727 0,0.05477 0.0226,0.10422 0.0588,0.139727 -9.9e-4,9.67e-4 -0.002,0.0019 -0.003,0.0029 -0.0355,-0.03626 -0.0849,-0.05882 -0.13973,-0.05882 -0.10805,0 -0.19561,0.08756 -0.19561,0.195617 0,0.05477 0.0225,0.104221 0.0588,0.139727 -9.8e-4,9.61e-4 -0.002,0.002 -0.003,0.0029 -0.0355,-0.03626 -0.0849,-0.05882 -0.13972,-0.05882 -0.10806,0 -0.19562,0.08756 -0.19562,0.195617 0,0.05477 0.0225,0.104221 0.0588,0.139727 -0.0363,0.03551 -0.0588,0.08495 -0.0588,0.139727 0,0.05477 0.0225,0.104221 0.0588,0.139727 -0.0363,0.03551 -0.0588,0.08495 -0.0588,0.139727 0,0.05477 0.0225,0.10422 0.0588,0.139727 -0.0363,0.03551 -0.0588,0.08495 -0.0588,0.139727 0,0.05477 0.0225,0.10422 0.0588,0.139726 -0.0363,0.03551 -0.0588,0.08495 -0.0588,0.139727 0,0.05477 0.0225,0.104221 0.0588,0.139727 -0.0363,0.03551 -0.0588,0.08495 -0.0588,0.139727 0,0.108055 0.0876,0.195618 0.19562,0.195618 0.0548,0 0.10422,-0.02256 0.13972,-0.05882 9.7e-4,9.9e-4 0.002,0.002 0.003,0.0029 -0.0363,0.03551 -0.0588,0.08495 -0.0588,0.139726 0,0.108056 0.0876,0.195618 0.19561,0.195618 0.0548,0 0.10423,-0.02256 0.13973,-0.05882 0.0355,0.03626 0.085,0.05882 0.13973,0.05882 0.007,0 0.0134,-3.47e-4 0.02,-10e-4 0.0986,-0.01002 0.17562,-0.09331 0.17562,-0.194614 0,-0.05477 -0.0226,-0.10422 -0.0588,-0.139727 9.9e-4,-9.61e-4 0.002,-0.002 0.003,-0.0029 0.0355,0.03626 0.085,0.05882 0.13973,0.05882 0.007,0 0.0134,-3.47e-4 0.02,-9.9e-4 0.0987,-0.01002 0.17562,-0.09331 0.17562,-0.194614 0,-0.05477 -0.0225,-0.10422 -0.0588,-0.139727 9.9e-4,-9.62e-4 0.002,-0.002 0.003,-0.0029 0.0355,0.03626 0.085,0.05882 0.13972,0.05882 0.0548,0 0.10423,-0.02256 0.13973,-0.05882 0.0355,0.03626 0.085,0.05882 0.13973,0.05882 0.0548,0 0.10422,-0.02256 0.13973,-0.05882 0.0355,0.03626 0.0849,0.05882 0.13972,0.05882 0.007,0 0.0134,-3.47e-4 0.02,-0.001 0.0468,-0.0048 0.0886,-0.02602 0.11973,-0.05781 9.6e-4,9.91e-4 0.002,0.002 0.003,0.0029 -0.0363,0.03551 -0.0588,0.08495 -0.0588,0.139727 0,0.108055 0.0876,0.195617 0.19562,0.195617 0.0548,0 0.10422,-0.02256 0.13973,-0.05882 9.6e-4,9.91e-4 0.002,0.002 0.003,0.0029 -0.0363,0.03551 -0.0588,0.08495 -0.0588,0.139727 0,0.108055 0.0876,0.195618 0.19562,0.195618 0.0548,0 0.10422,-0.02256 0.13973,-0.05882 0.0355,0.03626 0.0849,0.05882 0.13972,0.05882 0.0548,0 0.10422,-0.02256 0.13973,-0.05882 0.0355,0.03626 0.0849,0.05882 0.13973,0.05882 0.0548,0 0.10422,-0.02256 0.13972,-0.05882 0.0355,0.03626 0.085,0.05882 0.13973,0.05882 0.0548,0 0.10422,-0.02256 0.13973,-0.05882 0.0355,0.03626 0.0849,0.05882 0.13972,0.05882 0.10806,0 0.19562,-0.08756 0.19562,-0.195618 0,-0.05477 -0.0225,-0.104221 -0.0588,-0.139727 9.9e-4,-9.61e-4 0.002,-0.002 0.003,-0.0029 0.0355,0.03626 0.0849,0.05882 0.13972,0.05882 0.0548,0 0.10422,-0.02256 0.13973,-0.05882 9.6e-4,9.91e-4 0.002,0.002 0.003,0.0029 -0.0363,0.03551 -0.0588,0.08495 -0.0588,0.139727 0,0.108055 0.0876,0.195618 0.19562,0.195618 0.0548,0 0.10422,-0.02256 0.13973,-0.05882 0.0355,0.03626 0.0849,0.05882 0.13972,0.05882 0.0548,0 0.10423,-0.02256 0.13973,-0.05882 0.0355,0.03626 0.085,0.05882 0.13973,0.05882 0.0548,0 0.10422,-0.02256 0.13973,-0.05882 0.0355,0.03626 0.0849,0.05882 0.13972,0.05882 0.10806,0 0.19562,-0.08756 0.19562,-0.195618 0,-0.05477 -0.0226,-0.104221 -0.0588,-0.139727 9.9e-4,-9.61e-4 0.002,-0.002 0.003,-0.0029 0.0355,0.03626 0.085,0.05882 0.13973,0.05882 0.0548,0 0.10422,-0.02256 0.13973,-0.05882 9.6e-4,9.91e-4 0.002,0.002 0.003,0.0029 -0.0363,0.03551 -0.0588,0.08495 -0.0588,0.139727 0,0.108055 0.0876,0.195618 0.19562,0.195618 0.0548,0 0.10422,-0.02256 0.13973,-0.05882 0.0355,0.03626 0.085,0.05882 0.13972,0.05882 0.0548,0 0.10422,-0.02256 0.13973,-0.05882 0.0355,0.03626 0.0849,0.05882 0.13973,0.05882 0.0548,0 0.10422,-0.02256 0.13972,-0.05882 0.0355,0.03626 0.085,0.05882 0.13973,0.05882 0.0548,0 0.10422,-0.02256 0.13973,-0.05882 0.0355,0.03626 0.0849,0.05882 0.13972,0.05882 0.0548,0 0.10422,-0.02256 0.13973,-0.05882 0.0355,0.03626 0.0849,0.05882 0.13973,0.05882 0.0548,0 0.10422,-0.02256 0.13972,-0.05882 0.0355,0.03626 0.085,0.05882 0.13973,0.05882 0.0548,0 0.10422,-0.02256 0.13973,-0.05882 0.0355,0.03626 0.0849,0.05882 0.13972,0.05882 0.10806,0 0.19562,-0.08756 0.19562,-0.195618 0,-0.05477 -0.0225,-0.104221 -0.0588,-0.139727 9.9e-4,-9.61e-4 0.002,-0.002 0.003,-0.0029 0.0355,0.03626 0.0849,0.05882 0.13972,0.05882 0.10806,0 0.19562,-0.08756 0.19562,-0.195617 0,-0.05477 -0.0225,-0.104221 -0.0588,-0.139727 0.0363,-0.03551 0.0588,-0.08495 0.0588,-0.139727 0,-0.05477 -0.0225,-0.104221 -0.0588,-0.139727 0.001,-9.61e-4 0.002,-0.002 0.003,-0.0029 0.0355,0.03626 0.085,0.05882 0.13973,0.05882 0.0548,0 0.10422,-0.02255 0.13973,-0.05882 0.0355,0.03626 0.0849,0.05882 0.13972,0.05882 0.0548,0 0.10422,-0.02255 0.13973,-0.05882 9.7e-4,9.91e-4 0.002,0.002 0.003,0.0029 -0.0363,0.03551 -0.0588,0.08495 -0.0588,0.139727 0,0.108055 0.0876,0.195618 0.19562,0.195618 0.0548,0 0.10422,-0.02255 0.13973,-0.05882 9.6e-4,9.9e-4 0.002,0.002 0.003,0.0029 -0.0363,0.03551 -0.0588,0.08495 -0.0588,0.139726 0,0.108056 0.0876,0.195618 0.19562,0.195618 0.0548,0 0.10422,-0.02255 0.13972,-0.05882 9.7e-4,9.91e-4 0.002,0.002 0.003,0.0029 -0.0363,0.03551 -0.0588,0.08495 -0.0588,0.139727 0,0.108055 0.0876,0.195617 0.19562,0.195617 0.0548,0 0.10422,-0.02256 0.13973,-0.05882 0.0355,0.03626 0.085,0.05882 0.13972,0.05882 0.0548,0 0.10422,-0.02256 0.13973,-0.05882 0.0355,0.03626 0.0849,0.05882 0.13973,0.05882 0.0548,0 0.10422,-0.02256 0.13972,-0.05882 0.0355,0.03626 0.085,0.05882 0.13973,0.05882 0.10806,0 0.19562,-0.08756 0.19562,-0.195617 0,-0.05477 -0.0226,-0.104221 -0.0588,-0.139727 9.9e-4,-9.62e-4 0.002,-0.002 0.003,-0.0029 0.0355,0.03626 0.0849,0.05882 0.13973,0.05882 0.0548,0 0.10422,-0.02255 0.13972,-0.05882 9.7e-4,9.91e-4 0.002,0.002 0.003,0.0029 -0.0363,0.03551 -0.0588,0.08495 -0.0588,0.139727 0,0.108055 0.0876,0.195617 0.19562,0.195617 0.0548,0 0.10422,-0.02256 0.13973,-0.05882 0.0355,0.03626 0.0849,0.05882 0.13972,0.05882 0.0548,0 0.10422,-0.02256 0.13973,-0.05882 0.0355,0.03626 0.0849,0.05882 0.13973,0.05882 0.0548,0 0.10422,-0.02256 0.13972,-0.05882 0.0355,0.03626 0.0849,0.05882 0.13973,0.05882 0.0548,0 0.10422,-0.02256 0.13973,-0.05882 0.0355,0.03626 0.085,0.05882 0.13973,0.05882 0.0548,0 0.10422,-0.02256 0.13972,-0.05882 0.0355,0.03626 0.085,0.05882 0.13973,0.05882 0.007,0 0.0134,-3.47e-4 0.02,-10e-4 0.0987,-0.01002 0.17562,-0.09331 0.17562,-0.194613 0,-0.05477 -0.0225,-0.104221 -0.0588,-0.139727 9.8e-4,-9.61e-4 0.002,-0.002 0.003,-0.0029 0.0355,0.03626 0.0849,0.05882 0.13972,0.05882 0.10806,0 0.19562,-0.08756 0.19562,-0.195618 0,-0.05477 -0.0226,-0.10422 -0.0588,-0.139726 0.0363,-0.03551 0.0588,-0.08495 0.0588,-0.139727 0,-0.05477 -0.0226,-0.104221 -0.0588,-0.139727 0.0363,-0.03551 0.0588,-0.08495 0.0588,-0.139727 0,-0.05477 -0.0226,-0.10422 -0.0588,-0.139727 0.0363,-0.03551 0.0588,-0.08495 0.0588,-0.139727 0,-0.05477 -0.0226,-0.10422 -0.0588,-0.139726 0.0363,-0.03551 0.0588,-0.08495 0.0588,-0.139727 0,-0.05477 -0.0226,-0.104221 -0.0588,-0.139727 0.0363,-0.03551 0.0588,-0.08495 0.0588,-0.139727 0,-0.05477 -0.0226,-0.104221 -0.0588,-0.139727 0.0363,-0.03551 0.0588,-0.08495 0.0588,-0.139727 0,-0.05477 -0.0226,-0.10422 -0.0588,-0.139727 0.0363,-0.03551 0.0588,-0.08495 0.0588,-0.139726 0,-0.108056 -0.0876,-0.195618 -0.19562,-0.195618 -0.0548,0 -0.10422,0.02255 -0.13972,0.05882 -9.7e-4,-9.88e-4 -0.002,-0.002 -0.003,-0.0029 0.0363,-0.03551 0.0588,-0.08495 0.0588,-0.139727 0,-0.108055 -0.0876,-0.195618 -0.19562,-0.195618 -0.0548,0 -0.10422,0.02255 -0.13973,0.05882 -0.0355,-0.03626 -0.0849,-0.05882 -0.13972,-0.05882 -0.0548,0 -0.10422,0.02255 -0.13973,0.05882 -0.0355,-0.03626 -0.0849,-0.05882 -0.13973,-0.05882 -0.0473,0 -0.0906,0.01676 -0.12444,0.04467 -0.005,0.004 -0.009,0.0082 -0.0139,0.01262 -4.6e-4,4.86e-4 -9e-4,10e-4 -0.001,0.0015 -9.6e-4,-9.87e-4 -0.002,-0.002 -0.003,-0.0029 0.0363,-0.03551 0.0588,-0.08495 0.0588,-0.139726 0,-0.05477 -0.0225,-0.104221 -0.0588,-0.139727 0.0363,-0.03551 0.0588,-0.08495 0.0588,-0.139727 0,-0.05477 -0.0225,-0.104221 -0.0588,-0.139727 0.0363,-0.03551 0.0588,-0.08495 0.0588,-0.139727 0,-0.05477 -0.0225,-0.10422 -0.0588,-0.139727 0.0363,-0.03551 0.0588,-0.08495 0.0588,-0.139727 0,-0.05477 -0.0225,-0.10422 -0.0588,-0.139726 0.0363,-0.03551 0.0588,-0.08495 0.0588,-0.139727 0,-0.108056 -0.0876,-0.195618 -0.19562,-0.195618 -0.0548,0 -0.10422,0.02255 -0.13973,0.05882 -9.6e-4,-9.88e-4 -0.002,-0.002 -0.003,-0.0029 0.0363,-0.03551 0.0588,-0.08495 0.0588,-0.139727 0,-0.108056 -0.0876,-0.195618 -0.19561,-0.195618 -0.0548,0 -0.10422,0.02255 -0.13973,0.05882 -0.0355,-0.03626 -0.0849,-0.05882 -0.13973,-0.05882 -0.0548,0 -0.10422,0.02255 -0.13972,0.05882 -0.0355,-0.03626 -0.0849,-0.05882 -0.13973,-0.05882 -0.10806,0 -0.19562,0.08756 -0.19562,0.195618 0,0.05477 0.0226,0.10422 0.0588,0.139727 -9.9e-4,9.67e-4 -0.002,0.0019 -0.003,0.0029 -0.0355,-0.03626 -0.085,-0.05882 -0.13973,-0.05882 -0.0548,0 -0.10422,0.02256 -0.13972,0.05882 -9.7e-4,-9.88e-4 -0.002,-0.002 -0.003,-0.0029 0.0363,-0.03551 0.0588,-0.08495 0.0588,-0.139727 0,-0.108056 -0.0876,-0.195618 -0.19562,-0.195618 -0.0548,0 -0.10422,0.02255 -0.13973,0.05882 -0.0355,-0.03626 -0.085,-0.05882 -0.13972,-0.05882 -0.0548,0 -0.10422,0.02255 -0.13973,0.05882 -0.0355,-0.03626 -0.0849,-0.05882 -0.13973,-0.05882 -0.0548,0 -0.10422,0.02255 -0.13972,0.05882 -0.0355,-0.03626 -0.0849,-0.05882 -0.13973,-0.05882 -0.0548,0 -0.10422,0.02255 -0.13973,0.05882 -0.0355,-0.03626 -0.0849,-0.05882 -0.13972,-0.05882 -0.0548,0 -0.10423,0.02255 -0.13973,0.05882 -0.0355,-0.03626 -0.085,-0.05882 -0.13973,-0.05882 -0.0548,0 -0.10422,0.02255 -0.13973,0.05882 -0.0355,-0.03626 -0.0849,-0.05882 -0.13972,-0.05882 -0.0548,0 -0.10422,0.02255 -0.13973,0.05882 -0.0355,-0.03626 -0.0849,-0.05882 -0.13973,-0.05882 -0.0548,0 -0.10422,0.02255 -0.13972,0.05882 -0.0355,-0.03626 -0.085,-0.05882 -0.13973,-0.05882 -0.0548,0 -0.10422,0.02255 -0.13973,0.05882 -0.0355,-0.03626 -0.0849,-0.05882 -0.13972,-0.05882 -0.0548,0 -0.10422,0.02255 -0.13973,0.05882 -0.0355,-0.03626 -0.0849,-0.05882 -0.13973,-0.05882 -0.10805,0 -0.19561,0.08756 -0.19561,0.195618 0,0.05477 0.0225,0.10422 0.0588,0.139727 -9.9e-4,9.67e-4 -0.002,0.0019 -0.003,0.0029 -0.0355,-0.03626 -0.0849,-0.05882 -0.13972,-0.05882 -0.0548,0 -0.10423,0.02256 -0.13973,0.05882 -9.7e-4,-9.88e-4 -0.002,-0.002 -0.003,-0.0029 0.0363,-0.03551 0.0588,-0.08495 0.0588,-0.139727 0,-0.108056 -0.0876,-0.195618 -0.19562,-0.195618 -0.0548,0 -0.10422,0.02255 -0.13973,0.05882 -0.0355,-0.03626 -0.0849,-0.05882 -0.13973,-0.05882 -0.0548,0 -0.10422,0.02255 -0.13972,0.05882 -0.0355,-0.03626 -0.085,-0.05882 -0.13973,-0.05882 -0.0548,0 -0.10422,0.02255 -0.13973,0.05882 -0.0355,-0.03626 -0.0849,-0.05882 -0.13972,-0.05882 -0.0548,0 -0.10422,0.02255 -0.13973,0.05882 -0.0355,-0.03626 -0.085,-0.05882 -0.13973,-0.05882 -0.0548,0 -0.10422,0.02255 -0.13972,0.05882 -0.0355,-0.03626 -0.085,-0.05882 -0.13973,-0.05882 -0.0548,0 -0.10422,0.02255 -0.13973,0.05882 -0.0355,-0.03626 -0.085,-0.05882 -0.13972,-0.05882 -0.0548,0 -0.10423,0.02255 -0.13973,0.05882 -0.0355,-0.03626 -0.085,-0.05882 -0.13973,-0.05882 -0.0548,0 -0.10422,0.02255 -0.13973,0.05882 -0.0355,-0.03626 -0.085,-0.05882 -0.13972,-0.05882 -0.0548,0 -0.10422,0.02255 -0.13973,0.05882 -0.0355,-0.03626 -0.0849,-0.05882 -0.13973,-0.05882 -0.0548,0 -0.10422,0.02255 -0.13972,0.05882 -0.0355,-0.03626 -0.085,-0.05882 -0.13973,-0.05882 -0.10806,0 -0.19562,0.08756 -0.19562,0.195618 0,0.05477 0.0226,0.10422 0.0588,0.139727 -9.9e-4,9.67e-4 -0.002,0.0019 -0.003,0.0029 -0.0355,-0.03626 -0.0849,-0.05882 -0.13973,-0.05882 -0.0548,0 -0.10422,0.02256 -0.13972,0.05882 -9.7e-4,-9.88e-4 -0.002,-0.002 -0.003,-0.0029 0.0363,-0.03551 0.0588,-0.08495 0.0588,-0.139727 0,-0.108056 -0.0876,-0.195618 -0.19562,-0.195618 -0.0548,0 -0.10422,0.02255 -0.13972,0.05882 -0.0355,-0.03626 -0.085,-0.05882 -0.13973,-0.05882 -0.0548,0 -0.10422,0.02255 -0.13973,0.05882 -0.0355,-0.03626 -0.0849,-0.05882 -0.13972,-0.05882 -0.0548,0 -0.10422,0.02255 -0.13973,0.05882 -0.0355,-0.03626 -0.0849,-0.05882 -0.13973,-0.05882 -0.0548,0 -0.10422,0.02255 -0.13972,0.05882 -0.0355,-0.03626 -0.085,-0.05882 -0.13973,-0.05882 -0.0548,0 -0.10422,0.02255 -0.13973,0.05882 -0.0355,-0.03626 -0.0849,-0.05882 -0.13972,-0.05882 -0.0548,0 -0.10422,0.02255 -0.13973,0.05882 -0.0355,-0.03626 -0.0849,-0.05882 -0.13973,-0.05882 -0.0548,0 -0.10422,0.02255 -0.13972,0.05882 -0.0355,-0.03626 -0.085,-0.05882 -0.13973,-0.05882 z m 1.25754,1.450234 c 0.0355,0.03626 0.085,0.05882 0.13973,0.05882 0.0548,0 0.10422,-0.02255 0.13973,-0.05882 9.6e-4,9.87e-4 0.002,0.002 0.003,0.0029 -0.0363,0.03551 -0.0588,0.08495 -0.0588,0.139727 0,0.05477 0.0226,0.10422 0.0588,0.139726 -0.0363,0.03551 -0.0588,0.08495 -0.0588,0.139727 0,0.05477 0.0226,0.104221 0.0588,0.139727 -0.0363,0.03551 -0.0588,0.08495 -0.0588,0.139727 0,0.05477 0.0226,0.10422 0.0588,0.139727 -9.9e-4,9.68e-4 -0.002,0.0019 -0.003,0.0029 -0.0355,-0.03626 -0.085,-0.05882 -0.13973,-0.05882 -0.0548,0 -0.10422,0.02255 -0.13973,0.05882 -0.0355,-0.03626 -0.085,-0.05882 -0.13972,-0.05882 -0.10806,0 -0.19562,0.08756 -0.19562,0.195617 0,0.05477 0.0225,0.104221 0.0588,0.139727 -9.9e-4,9.62e-4 -0.002,0.0019 -0.003,0.0029 -0.0355,-0.03626 -0.085,-0.05882 -0.13972,-0.05882 -0.0548,0 -0.10422,0.02255 -0.13973,0.05882 -9.6e-4,-9.91e-4 -0.002,-0.002 -0.003,-0.0029 0.0363,-0.03551 0.0588,-0.08495 0.0588,-0.139727 0,-0.05477 -0.0226,-0.10422 -0.0588,-0.139726 0.0363,-0.03551 0.0588,-0.08495 0.0588,-0.139727 0,-0.05477 -0.0226,-0.104221 -0.0588,-0.139727 0.0363,-0.03551 0.0588,-0.08495 0.0588,-0.139727 0,-0.05477 -0.0226,-0.10422 -0.0588,-0.139727 9.9e-4,-9.67e-4 0.002,-0.0019 0.003,-0.0029 0.0355,0.03626 0.085,0.05882 0.13973,0.05882 0.0548,0 0.10422,-0.02255 0.13972,-0.05882 0.0355,0.03626 0.085,0.05882 0.13973,0.05882 0.10806,0 0.19562,-0.08756 0.19562,-0.195617 0,-0.05477 -0.0226,-0.104221 -0.0588,-0.139727 9.9e-4,-9.68e-4 0.002,-0.0019 0.003,-0.0029 z m 1.95618,0 c 0.0355,0.03626 0.0849,0.05882 0.13973,0.05882 0.0548,0 0.10422,-0.02255 0.13972,-0.05882 9.6e-4,9.87e-4 0.002,0.002 0.003,0.0029 -0.0363,0.03551 -0.0588,0.08495 -0.0588,0.139727 0,0.05477 0.0226,0.10422 0.0588,0.139726 -0.0363,0.03551 -0.0588,0.08495 -0.0588,0.139727 0,0.05477 0.0226,0.104221 0.0588,0.139727 -0.0363,0.03551 -0.0588,0.08495 -0.0588,0.139727 0,0.05477 0.0226,0.10422 0.0588,0.139727 -0.0363,0.03551 -0.0588,0.08495 -0.0588,0.139727 0,0.05477 0.0226,0.10422 0.0588,0.139726 -9.9e-4,9.62e-4 -0.002,0.002 -0.003,0.0029 -0.0355,-0.03626 -0.0849,-0.05882 -0.13972,-0.05882 -0.0548,0 -0.10422,0.02255 -0.13973,0.05882 -9.6e-4,-9.9e-4 -0.002,-0.002 -0.003,-0.0029 0.0363,-0.03551 0.0588,-0.08495 0.0588,-0.139726 0,-0.108055 -0.0876,-0.195618 -0.19562,-0.195618 -0.0548,0 -0.10422,0.02255 -0.13973,0.05882 -9.6e-4,-9.88e-4 -0.002,-0.002 -0.003,-0.0029 0.0363,-0.03551 0.0588,-0.08495 0.0588,-0.139727 0,-0.05477 -0.0226,-0.10422 -0.0588,-0.139727 0.0363,-0.03551 0.0588,-0.08495 0.0588,-0.139726 0,-0.05477 -0.0226,-0.104221 -0.0588,-0.139727 9.9e-4,-9.68e-4 0.002,-0.0019 0.003,-0.0029 0.0355,0.03626 0.0849,0.05882 0.13973,0.05882 0.10805,0 0.19562,-0.08756 0.19562,-0.195618 0,-0.05477 -0.0226,-0.10422 -0.0588,-0.139727 9.9e-4,-9.67e-4 0.002,-0.0019 0.003,-0.0029 z"
       style="fill:#000000;stroke-width:0.0771024"
       inkscape:connector-curvature="0" />
    <path
       id="path6"
       d="m 156.75341,56.787034 c -0.11114,0 -0.20121,0.09007 -0.20121,0.201206 0,0.05433 0.0216,0.103528 0.0566,0.139727 -0.035,0.0362 -0.0566,0.0854 -0.0566,0.139727 0,0.05433 0.0216,0.103528 0.0566,0.139727 -0.035,0.0362 -0.0566,0.0854 -0.0566,0.139727 0,0.05433 0.0216,0.103528 0.0566,0.139726 -0.035,0.0362 -0.0566,0.0854 -0.0566,0.139727 0,0.05433 0.0216,0.103529 0.0566,0.139727 -0.035,0.0362 -0.0566,0.0854 -0.0566,0.139727 0,0.05433 0.0216,0.103528 0.0566,0.139727 -0.035,0.0362 -0.0566,0.0854 -0.0566,0.139727 0,0.05433 0.0216,0.103528 0.0566,0.139727 -0.035,0.0362 -0.0566,0.0854 -0.0566,0.139726 0,0.111141 0.0901,0.201207 0.20121,0.201207 0.11114,0 0.20121,-0.09007 0.20121,-0.201207 0,-0.05433 -0.0216,-0.103528 -0.0566,-0.139726 0.035,-0.0362 0.0566,-0.0854 0.0566,-0.139727 0,-0.05433 -0.0216,-0.103529 -0.0566,-0.139727 0.035,-0.0362 0.0566,-0.0854 0.0566,-0.139727 0,-0.04187 -0.0128,-0.08074 -0.0347,-0.112939 0.0322,0.02188 0.0711,0.03469 0.11293,0.03469 0.0543,0 0.10353,-0.02163 0.13973,-0.05661 0.0362,0.03499 0.0854,0.05661 0.13973,0.05661 0.0543,0 0.10353,-0.02163 0.13973,-0.05661 0.0362,0.03499 0.0854,0.05661 0.13972,0.05661 0.11114,0 0.20121,-0.09007 0.20121,-0.201206 0,-0.04187 -0.0128,-0.08074 -0.0347,-0.112939 0.0322,0.02188 0.0711,0.03469 0.11294,0.03469 0.11114,0 0.2012,-0.09007 0.2012,-0.201207 0,-0.05433 -0.0216,-0.103528 -0.0566,-0.139726 0.035,-0.0362 0.0566,-0.0854 0.0566,-0.139727 0,-0.111141 -0.0901,-0.201207 -0.2012,-0.201207 -0.0419,0 -0.0807,0.01281 -0.11294,0.03469 0.0219,-0.0322 0.0347,-0.07106 0.0347,-0.112939 0,-0.11114 -0.0901,-0.201206 -0.20121,-0.201206 -0.0543,0 -0.10353,0.02163 -0.13972,0.05661 -0.0362,-0.03499 -0.0854,-0.05661 -0.13973,-0.05661 -0.0543,0 -0.10353,0.02163 -0.13973,0.05661 -0.0362,-0.03499 -0.0854,-0.05661 -0.13973,-0.05661 -0.0543,0 -0.10352,0.02163 -0.13972,0.05661 -0.0362,-0.03499 -0.0854,-0.05661 -0.13973,-0.05661 z m 1.67672,0 c -0.11114,0 -0.2012,0.09007 -0.2012,0.201206 0,0.05433 0.0216,0.103528 0.0566,0.139727 -0.035,0.0362 -0.0566,0.0854 -0.0566,0.139727 0,0.05433 0.0216,0.103528 0.0566,0.139727 -0.035,0.0362 -0.0566,0.0854 -0.0566,0.139727 0,0.11114 0.0901,0.201206 0.2012,0.201206 0.0419,0 0.0807,-0.01281 0.11294,-0.03469 -0.0219,0.0322 -0.0347,0.07106 -0.0347,0.112939 0,0.11114 0.0901,0.201207 0.20121,0.201207 0.0419,0 0.0807,-0.01281 0.11294,-0.03469 -0.0219,0.0322 -0.0347,0.07106 -0.0347,0.112938 0,0.05433 0.0216,0.103529 0.0566,0.139727 -0.035,0.0362 -0.0566,0.0854 -0.0566,0.139727 0,0.05433 0.0216,0.103528 0.0566,0.139727 -0.035,0.0362 -0.0566,0.0854 -0.0566,0.139727 0,0.11114 0.0901,0.201206 0.20121,0.201206 0.11114,0 0.20121,-0.09007 0.20121,-0.201206 0,-0.05433 -0.0216,-0.103529 -0.0566,-0.139727 0.035,-0.0362 0.0566,-0.0854 0.0566,-0.139727 0,-0.05433 -0.0216,-0.103528 -0.0566,-0.139727 0.035,-0.0362 0.0566,-0.0854 0.0566,-0.139727 0,-0.04187 -0.0128,-0.08074 -0.0347,-0.112938 0.0322,0.02188 0.0711,0.03469 0.11293,0.03469 0.11114,0 0.20121,-0.09007 0.20121,-0.201207 0,-0.04187 -0.0128,-0.08074 -0.0347,-0.112939 0.0322,0.02188 0.0711,0.03469 0.11294,0.03469 0.11114,0 0.2012,-0.09007 0.2012,-0.201206 0,-0.05433 -0.0216,-0.103529 -0.0566,-0.139727 0.035,-0.0362 0.0566,-0.0854 0.0566,-0.139727 0,-0.05433 -0.0216,-0.103528 -0.0566,-0.139727 0.035,-0.0362 0.0566,-0.0854 0.0566,-0.139727 0,-0.111141 -0.0901,-0.201206 -0.2012,-0.201206 -0.11114,0 -0.20121,0.09007 -0.20121,0.201206 0,0.05433 0.0216,0.103528 0.0566,0.139727 -0.035,0.0362 -0.0566,0.0854 -0.0566,0.139727 0,0.05433 0.0216,0.103528 0.0566,0.139727 -0.035,0.0362 -0.0566,0.0854 -0.0566,0.139727 0,0.04187 0.0128,0.08074 0.0347,0.112938 -0.0322,-0.02188 -0.0711,-0.03469 -0.11294,-0.03469 -0.11114,0 -0.2012,0.09007 -0.2012,0.201207 0,0.04187 0.0128,0.08074 0.0347,0.112939 -0.0322,-0.02188 -0.0711,-0.03469 -0.11294,-0.03469 -0.0419,0 -0.0807,0.01281 -0.11294,0.03469 0.0219,-0.0322 0.0347,-0.07107 0.0347,-0.112939 0,-0.111141 -0.0901,-0.201207 -0.2012,-0.201207 -0.0419,0 -0.0807,0.01281 -0.11294,0.03469 0.0219,-0.0322 0.0347,-0.07106 0.0347,-0.112938 0,-0.05433 -0.0216,-0.103529 -0.0566,-0.139727 0.035,-0.0362 0.0566,-0.0854 0.0566,-0.139727 0,-0.05433 -0.0216,-0.103528 -0.0566,-0.139727 0.035,-0.0362 0.0566,-0.0854 0.0566,-0.139727 0,-0.111141 -0.0901,-0.201206 -0.20121,-0.201206 z m 1.67673,0 c -0.11114,0 -0.20121,0.09007 -0.20121,0.201206 0,0.111141 0.0901,0.201207 0.20121,0.201207 0.0543,0 0.10352,-0.02163 0.13972,-0.05661 0.0362,0.03499 0.0854,0.05661 0.13973,0.05661 0.0419,0 0.0807,-0.01281 0.11294,-0.03469 -0.0219,0.0322 -0.0347,0.07106 -0.0347,0.112939 0,0.05433 0.0216,0.103528 0.0566,0.139726 -0.035,0.0362 -0.0566,0.0854 -0.0566,0.139727 0,0.05433 0.0216,0.103529 0.0566,0.139727 -0.035,0.0362 -0.0566,0.0854 -0.0566,0.139727 0,0.05433 0.0216,0.103528 0.0566,0.139727 -0.035,0.0362 -0.0566,0.0854 -0.0566,0.139727 0,0.05433 0.0216,0.103528 0.0566,0.139726 -0.035,0.0362 -0.0566,0.0854 -0.0566,0.139727 0,0.05433 0.0216,0.103529 0.0566,0.139727 -0.035,0.0362 -0.0566,0.0854 -0.0566,0.139727 0,0.111141 0.0901,0.201207 0.2012,0.201207 0.11114,0 0.20121,-0.09007 0.20121,-0.201207 0,-0.05433 -0.0216,-0.103528 -0.0566,-0.139727 0.035,-0.0362 0.0566,-0.0854 0.0566,-0.139727 0,-0.05433 -0.0216,-0.103528 -0.0566,-0.139727 0.035,-0.0362 0.0566,-0.0854 0.0566,-0.139726 0,-0.05433 -0.0216,-0.103529 -0.0566,-0.139727 0.035,-0.0362 0.0566,-0.0854 0.0566,-0.139727 0,-0.05433 -0.0216,-0.103528 -0.0566,-0.139727 0.035,-0.0362 0.0566,-0.0854 0.0566,-0.139727 0,-0.05433 -0.0216,-0.103528 -0.0566,-0.139727 0.035,-0.0362 0.0566,-0.0854 0.0566,-0.139726 0,-0.04187 -0.0128,-0.08074 -0.0347,-0.112939 0.0322,0.02188 0.0711,0.03469 0.11294,0.03469 0.0543,0 0.10352,-0.02163 0.13972,-0.05661 0.0362,0.03499 0.0854,0.05661 0.13973,0.05661 0.11114,0 0.20121,-0.09007 0.20121,-0.201207 0,-0.111141 -0.0901,-0.201206 -0.20121,-0.201206 -0.0543,0 -0.10353,0.02163 -0.13973,0.05661 -0.0362,-0.03499 -0.0854,-0.05661 -0.13972,-0.05661 -0.0543,0 -0.10353,0.02163 -0.13973,0.05661 -0.0362,-0.03499 -0.0854,-0.05661 -0.13973,-0.05661 -0.0543,0 -0.10352,0.02163 -0.13972,0.05661 -0.0362,-0.03499 -0.0854,-0.05661 -0.13973,-0.05661 -0.0543,0 -0.10353,0.02163 -0.13973,0.05661 -0.0362,-0.03499 -0.0854,-0.05661 -0.13972,-0.05661 z m 1.67672,0 c -0.11114,0 -0.20121,0.09007 -0.20121,0.201206 0,0.05433 0.0216,0.103528 0.0566,0.139727 -0.035,0.0362 -0.0566,0.0854 -0.0566,0.139727 0,0.05433 0.0216,0.103528 0.0566,0.139727 -0.035,0.0362 -0.0566,0.0854 -0.0566,0.139727 0,0.05433 0.0216,0.103528 0.0566,0.139726 -0.035,0.0362 -0.0566,0.0854 -0.0566,0.139727 0,0.05433 0.0216,0.103529 0.0566,0.139727 -0.035,0.0362 -0.0566,0.0854 -0.0566,0.139727 0,0.05433 0.0216,0.103528 0.0566,0.139727 -0.035,0.0362 -0.0566,0.0854 -0.0566,0.139727 0,0.05433 0.0216,0.103528 0.0566,0.139727 -0.035,0.0362 -0.0566,0.0854 -0.0566,0.139726 0,0.111141 0.0901,0.201207 0.20121,0.201207 0.11114,0 0.2012,-0.09007 0.2012,-0.201207 0,-0.05433 -0.0216,-0.103528 -0.0566,-0.139726 0.035,-0.0362 0.0566,-0.0854 0.0566,-0.139727 0,-0.05433 -0.0216,-0.103529 -0.0566,-0.139727 0.035,-0.0362 0.0566,-0.0854 0.0566,-0.139727 0,-0.04187 -0.0128,-0.08074 -0.0347,-0.112939 0.0322,0.02188 0.0711,0.03469 0.11294,0.03469 0.0543,0 0.10353,-0.02163 0.13973,-0.05661 0.0362,0.03499 0.0854,0.05661 0.13973,0.05661 0.0543,0 0.10352,-0.02163 0.13972,-0.05661 0.0362,0.03499 0.0854,0.05661 0.13973,0.05661 0.0419,0 0.0807,-0.01281 0.11294,-0.03469 -0.0219,0.0322 -0.0347,0.07106 -0.0347,0.112939 0,0.05433 0.0216,0.103528 0.0566,0.139727 -0.035,0.0362 -0.0566,0.0854 -0.0566,0.139727 0,0.05433 0.0216,0.103528 0.0566,0.139727 -0.035,0.0362 -0.0566,0.0854 -0.0566,0.139726 0,0.111141 0.0901,0.201207 0.2012,0.201207 0.11114,0 0.20121,-0.09007 0.20121,-0.201207 0,-0.05433 -0.0216,-0.103528 -0.0566,-0.139726 0.035,-0.0362 0.0566,-0.0854 0.0566,-0.139727 0,-0.05433 -0.0216,-0.103529 -0.0566,-0.139727 0.035,-0.0362 0.0566,-0.0854 0.0566,-0.139727 0,-0.05433 -0.0216,-0.103528 -0.0566,-0.139727 0.035,-0.0362 0.0566,-0.0854 0.0566,-0.139727 0,-0.05433 -0.0216,-0.103528 -0.0566,-0.139727 0.035,-0.0362 0.0566,-0.0854 0.0566,-0.139726 0,-0.05433 -0.0216,-0.103529 -0.0566,-0.139727 0.035,-0.0362 0.0566,-0.0854 0.0566,-0.139727 0,-0.05433 -0.0216,-0.103528 -0.0566,-0.139727 0.035,-0.0362 0.0566,-0.0854 0.0566,-0.139727 0,-0.111141 -0.0901,-0.201206 -0.20121,-0.201206 -0.11114,0 -0.2012,0.09007 -0.2012,0.201206 0,0.05433 0.0216,0.103528 0.0566,0.139727 -0.035,0.0362 -0.0566,0.0854 -0.0566,0.139727 0,0.05433 0.0216,0.103528 0.0566,0.139727 -0.035,0.0362 -0.0566,0.0854 -0.0566,0.139727 0,0.04187 0.0128,0.08074 0.0347,0.112938 -0.0322,-0.02188 -0.0711,-0.03469 -0.11294,-0.03469 -0.0543,0 -0.10353,0.02163 -0.13973,0.05661 -0.0362,-0.03499 -0.0854,-0.05661 -0.13972,-0.05661 -0.0543,0 -0.10353,0.02163 -0.13973,0.05661 -0.0362,-0.03499 -0.0854,-0.05661 -0.13973,-0.05661 -0.0419,0 -0.0807,0.01281 -0.11294,0.03469 0.0219,-0.0322 0.0347,-0.07106 0.0347,-0.112938 0,-0.05433 -0.0216,-0.103529 -0.0566,-0.139727 0.035,-0.0362 0.0566,-0.0854 0.0566,-0.139727 0,-0.05433 -0.0216,-0.103528 -0.0566,-0.139727 0.035,-0.0362 0.0566,-0.0854 0.0566,-0.139727 0,-0.111141 -0.0901,-0.201206 -0.2012,-0.201206 z m 1.95617,0 c -0.11114,0 -0.2012,0.09007 -0.2012,0.201206 0,0.04187 0.0128,0.08074 0.0347,0.112939 -0.0322,-0.02188 -0.0711,-0.03469 -0.11294,-0.03469 -0.11114,0 -0.20121,0.09007 -0.20121,0.201207 0,0.05433 0.0216,0.103528 0.0566,0.139726 -0.035,0.0362 -0.0566,0.0854 -0.0566,0.139727 0,0.05433 0.0216,0.103529 0.0566,0.139727 -0.035,0.0362 -0.0566,0.0854 -0.0566,0.139727 0,0.05433 0.0216,0.103528 0.0566,0.139727 -0.035,0.0362 -0.0566,0.0854 -0.0566,0.139727 0,0.05433 0.0216,0.103528 0.0566,0.139726 -0.035,0.0362 -0.0566,0.0854 -0.0566,0.139727 0,0.111141 0.0901,0.201207 0.20121,0.201207 0.0419,0 0.0807,-0.01281 0.11294,-0.03469 -0.0219,0.0322 -0.0347,0.07107 -0.0347,0.112939 0,0.11114 0.0901,0.201206 0.2012,0.201206 0.0543,0 0.10353,-0.02163 0.13973,-0.05661 0.0362,0.03499 0.0854,0.05661 0.13973,0.05661 0.0543,0 0.10353,-0.02163 0.13972,-0.05661 0.0362,0.03499 0.0854,0.05661 0.13973,0.05661 0.11114,0 0.20121,-0.09007 0.20121,-0.201206 0,-0.04187 -0.0128,-0.08074 -0.0347,-0.112939 0.0322,0.02188 0.0711,0.03469 0.11294,0.03469 0.11114,0 0.2012,-0.09007 0.2012,-0.201207 0,-0.05433 -0.0216,-0.103528 -0.0566,-0.139727 0.035,-0.0362 0.0566,-0.0854 0.0566,-0.139726 0,-0.05433 -0.0216,-0.103529 -0.0566,-0.139727 0.035,-0.0362 0.0566,-0.0854 0.0566,-0.139727 0,-0.05433 -0.0216,-0.103528 -0.0566,-0.139727 0.035,-0.0362 0.0566,-0.0854 0.0566,-0.139727 0,-0.05433 -0.0216,-0.103528 -0.0566,-0.139727 0.035,-0.0362 0.0566,-0.0854 0.0566,-0.139726 0,-0.111141 -0.0901,-0.201207 -0.2012,-0.201207 -0.0419,0 -0.0807,0.01281 -0.11294,0.03469 0.0219,-0.0322 0.0347,-0.07107 0.0347,-0.112939 0,-0.111141 -0.0901,-0.201206 -0.20121,-0.201206 -0.0543,0 -0.10353,0.02163 -0.13973,0.05661 -0.0362,-0.03499 -0.0854,-0.05661 -0.13972,-0.05661 -0.0543,0 -0.10353,0.02163 -0.13973,0.05661 -0.0362,-0.03499 -0.0854,-0.05661 -0.13973,-0.05661 z m 1.39727,0 c -0.11114,0 -0.2012,0.09007 -0.2012,0.201206 0,0.05433 0.0216,0.103528 0.0566,0.139727 -0.035,0.0362 -0.0566,0.0854 -0.0566,0.139727 0,0.05433 0.0216,0.103528 0.0566,0.139727 -0.035,0.0362 -0.0566,0.0854 -0.0566,0.139727 0,0.05433 0.0216,0.103528 0.0566,0.139726 -0.035,0.0362 -0.0566,0.0854 -0.0566,0.139727 0,0.05433 0.0216,0.103529 0.0566,0.139727 -0.035,0.0362 -0.0566,0.0854 -0.0566,0.139727 0,0.05433 0.0216,0.103528 0.0566,0.139727 -0.035,0.0362 -0.0566,0.0854 -0.0566,0.139727 0,0.05433 0.0216,0.103528 0.0566,0.139727 -0.035,0.0362 -0.0566,0.0854 -0.0566,0.139726 0,0.111141 0.0901,0.201207 0.2012,0.201207 0.11114,0 0.20121,-0.09007 0.20121,-0.201207 0,-0.05433 -0.0216,-0.103528 -0.0566,-0.139726 0.035,-0.0362 0.0566,-0.0854 0.0566,-0.139727 0,-0.05433 -0.0216,-0.103529 -0.0566,-0.139727 0.035,-0.0362 0.0566,-0.0854 0.0566,-0.139727 0,-0.05433 -0.0216,-0.103528 -0.0566,-0.139727 0.035,-0.0362 0.0566,-0.0854 0.0566,-0.139727 0,-0.04187 -0.0128,-0.08074 -0.0347,-0.112938 0.0322,0.02188 0.0711,0.03469 0.11294,0.03469 0.0419,0 0.0807,-0.01281 0.11294,-0.03469 -0.0219,0.0322 -0.0347,0.07107 -0.0347,0.112938 0,0.111141 0.0901,0.201207 0.2012,0.201207 0.0419,0 0.0807,-0.01281 0.11294,-0.03469 -0.007,0.01083 -0.0137,0.0224 -0.0189,0.0346 -0.0102,0.02407 -0.0158,0.05055 -0.0158,0.07833 0,0.04862 0.0172,0.09322 0.0459,0.128003 0.0369,0.04472 0.0927,0.0732 0.15527,0.0732 0.0419,0 0.0807,-0.01281 0.11294,-0.03469 -0.0219,0.0322 -0.0347,0.07107 -0.0347,0.112939 0,0.05433 0.0216,0.103528 0.0566,0.139726 -0.035,0.0362 -0.0566,0.0854 -0.0566,0.139727 0,0.111141 0.0901,0.201207 0.20121,0.201207 0.11114,0 0.2012,-0.09007 0.2012,-0.201207 0,-0.05433 -0.0216,-0.103528 -0.0566,-0.139727 0.035,-0.0362 0.0566,-0.0854 0.0566,-0.139726 0,-0.05433 -0.0216,-0.103529 -0.0566,-0.139727 0.035,-0.0362 0.0566,-0.0854 0.0566,-0.139727 0,-0.05433 -0.0216,-0.103529 -0.0566,-0.139727 0.035,-0.0362 0.0566,-0.0854 0.0566,-0.139727 0,-0.05433 -0.0216,-0.103528 -0.0566,-0.139727 0.035,-0.0362 0.0566,-0.0854 0.0566,-0.139727 0,-0.05433 -0.0216,-0.103528 -0.0566,-0.139726 0.035,-0.0362 0.0566,-0.0854 0.0566,-0.139727 0,-0.05433 -0.0216,-0.103529 -0.0566,-0.139727 0.035,-0.0362 0.0566,-0.0854 0.0566,-0.139727 0,-0.111141 -0.0901,-0.201207 -0.2012,-0.201207 -0.11114,0 -0.20121,0.09007 -0.20121,0.201207 0,0.05433 0.0216,0.103528 0.0566,0.139727 -0.035,0.0362 -0.0566,0.0854 -0.0566,0.139727 0,0.05433 0.0216,0.103528 0.0566,0.139727 -0.035,0.0362 -0.0566,0.0854 -0.0566,0.139726 0,0.05433 0.0216,0.103529 0.0566,0.139727 -0.035,0.0362 -0.0566,0.0854 -0.0566,0.139727 0,0.04187 0.0128,0.08074 0.0347,0.112939 -1.5e-4,-1e-4 -3.1e-4,-2.16e-4 -4.6e-4,-3.32e-4 -0.0321,-0.02169 -0.0708,-0.03436 -0.1125,-0.03436 -0.0417,0 -0.0804,0.01267 -0.11251,0.03436 -1.5e-4,10e-5 -3e-4,2.16e-4 -4.6e-4,3.32e-4 0.0219,-0.0322 0.0347,-0.07107 0.0347,-0.112939 0,-0.11114 -0.0901,-0.201207 -0.20121,-0.201207 -0.0419,0 -0.0807,0.01281 -0.11293,0.03469 0.0219,-0.0322 0.0347,-0.07107 0.0347,-0.112938 0,-0.111141 -0.0901,-0.201207 -0.20121,-0.201207 -0.0419,0 -0.0807,0.01281 -0.11294,0.03469 0.0219,-0.0322 0.0347,-0.07106 0.0347,-0.112938 0,-0.05433 -0.0216,-0.103529 -0.0566,-0.139727 0.035,-0.0362 0.0566,-0.0854 0.0566,-0.139727 0,-0.111141 -0.0901,-0.201207 -0.2012,-0.201207 z m -7.96443,0.345802 c 0.0362,0.03499 0.0854,0.05661 0.13973,0.05661 0.0543,0 0.10353,-0.02163 0.13973,-0.05661 0.0362,0.03499 0.0854,0.05661 0.13972,0.05661 0.0419,0 0.0807,-0.01281 0.11294,-0.03469 -0.0219,0.0322 -0.0347,0.07106 -0.0347,0.112938 0,0.05433 0.0216,0.103528 0.0566,0.139727 -0.035,0.0362 -0.0566,0.0854 -0.0566,0.139727 0,0.04187 0.0128,0.08074 0.0347,0.112939 -0.0322,-0.02188 -0.0711,-0.03469 -0.11294,-0.03469 -0.0543,0 -0.10353,0.02163 -0.13972,0.05661 -0.0362,-0.03499 -0.0854,-0.05661 -0.13973,-0.05661 -0.0543,0 -0.10353,0.02163 -0.13973,0.05661 -0.0362,-0.03499 -0.0854,-0.05661 -0.13972,-0.05661 -0.0419,0 -0.0807,0.01281 -0.11294,0.03469 0.0219,-0.0322 0.0347,-0.07106 0.0347,-0.112939 0,-0.05433 -0.0216,-0.103528 -0.0566,-0.139727 0.035,-0.0362 0.0566,-0.0854 0.0566,-0.139727 0,-0.04187 -0.0128,-0.08074 -0.0347,-0.112938 0.0322,0.02188 0.0711,0.03469 0.11294,0.03469 0.0543,0 0.10352,-0.02163 0.13972,-0.05661 z m 6.70689,0 c 0.0362,0.03499 0.0854,0.05661 0.13973,0.05661 0.0543,0 0.10353,-0.02163 0.13972,-0.05661 0.0362,0.03499 0.0854,0.05661 0.13973,0.05661 0.0419,0 0.0807,-0.01281 0.11294,-0.03469 -0.0219,0.0322 -0.0347,0.07106 -0.0347,0.112938 0,0.05433 0.0216,0.103528 0.0566,0.139727 -0.035,0.0362 -0.0566,0.0854 -0.0566,0.139727 0,0.05433 0.0216,0.103528 0.0566,0.139727 -0.035,0.0362 -0.0566,0.0854 -0.0566,0.139727 0,0.05433 0.0216,0.103528 0.0566,0.139726 -0.035,0.0362 -0.0566,0.0854 -0.0566,0.139727 0,0.05433 0.0216,0.103529 0.0566,0.139727 -0.035,0.0362 -0.0566,0.0854 -0.0566,0.139727 0,0.04187 0.0128,0.08074 0.0347,0.112939 -0.0322,-0.02188 -0.0711,-0.03469 -0.11294,-0.03469 -0.0543,0 -0.10353,0.02163 -0.13973,0.05661 -0.0362,-0.03499 -0.0854,-0.05661 -0.13972,-0.05661 -0.0543,0 -0.10353,0.02163 -0.13973,0.05661 -0.0362,-0.03499 -0.0854,-0.05661 -0.13973,-0.05661 -0.0419,0 -0.0807,0.01281 -0.11293,0.03469 0.0219,-0.0322 0.0347,-0.07106 0.0347,-0.112939 0,-0.05433 -0.0216,-0.103528 -0.0566,-0.139727 0.035,-0.0362 0.0566,-0.0854 0.0566,-0.139727 0,-0.05433 -0.0216,-0.103528 -0.0566,-0.139727 0.035,-0.0362 0.0566,-0.0854 0.0566,-0.139726 0,-0.05433 -0.0216,-0.103529 -0.0566,-0.139727 0.035,-0.0362 0.0566,-0.0854 0.0566,-0.139727 0,-0.05433 -0.0216,-0.103528 -0.0566,-0.139727 0.035,-0.0362 0.0566,-0.0854 0.0566,-0.139727 0,-0.04187 -0.0128,-0.08074 -0.0347,-0.112938 0.0322,0.02188 0.0711,0.03469 0.11293,0.03469 0.0543,0 0.10353,-0.02163 0.13973,-0.05661 z m 3.49317,1.33092 c -0.11114,0 -0.2012,0.09007 -0.2012,0.201206 0,0.05433 0.0216,0.103529 0.0566,0.139727 -0.035,0.0362 -0.0566,0.0854 -0.0566,0.139727 0,0.05433 0.0216,0.103528 0.0566,0.139727 -0.035,0.0362 -0.0566,0.0854 -0.0566,0.139727 0,0.04187 0.0128,0.08074 0.0347,0.112938 -0.0322,-0.02188 -0.0711,-0.03469 -0.11294,-0.03469 -0.0419,0 -0.0807,0.01281 -0.11294,0.03469 0.0219,-0.0322 0.0347,-0.07106 0.0347,-0.112938 0,-0.111141 -0.0901,-0.201207 -0.20121,-0.201207 -0.0543,0 -0.10353,0.02163 -0.13973,0.05661 -0.0362,-0.03499 -0.0854,-0.05661 -0.13972,-0.05661 -0.11114,0 -0.20121,0.09007 -0.20121,0.201207 0,0.04187 0.0128,0.08074 0.0347,0.112938 -0.0322,-0.02188 -0.0711,-0.03469 -0.11294,-0.03469 -0.11114,0 -0.20121,0.09007 -0.20121,0.201207 0,0.05433 0.0216,0.103529 0.0566,0.139727 -0.035,0.0362 -0.0566,0.0854 -0.0566,0.139727 0,0.05433 0.0216,0.103528 0.0566,0.139727 -0.035,0.0362 -0.0566,0.0854 -0.0566,0.139727 0,0.11114 0.0901,0.201206 0.20121,0.201206 0.0419,0 0.0807,-0.01281 0.11294,-0.03469 -0.0219,0.0322 -0.0347,0.07106 -0.0347,0.112939 0,0.111141 0.0901,0.201207 0.20121,0.201207 0.0543,0 0.10353,-0.02163 0.13972,-0.05661 0.0362,0.03499 0.0854,0.05661 0.13973,0.05661 0.0543,0 0.10353,-0.02163 0.13973,-0.05661 0.0362,0.03499 0.0854,0.05661 0.13972,0.05661 0.0543,0 0.10353,-0.02163 0.13973,-0.05661 0.0362,0.03499 0.0854,0.05661 0.13973,0.05661 0.11114,0 0.2012,-0.09007 0.2012,-0.201207 0,-0.05433 -0.0216,-0.103528 -0.0566,-0.139727 0.035,-0.0362 0.0566,-0.0854 0.0566,-0.139727 0,-0.05433 -0.0216,-0.103528 -0.0566,-0.139727 0.035,-0.0362 0.0566,-0.0854 0.0566,-0.139727 0,-0.05433 -0.0216,-0.103528 -0.0566,-0.139726 0.035,-0.0362 0.0566,-0.0854 0.0566,-0.139727 0,-0.05433 -0.0216,-0.103528 -0.0566,-0.139727 0.035,-0.0362 0.0566,-0.0854 0.0566,-0.139727 0,-0.05433 -0.0216,-0.103528 -0.0566,-0.139727 0.035,-0.0362 0.0566,-0.0854 0.0566,-0.139727 0,-0.05433 -0.0216,-0.103528 -0.0566,-0.139726 0.035,-0.0362 0.0566,-0.0854 0.0566,-0.139727 0,-0.111141 -0.0901,-0.201207 -0.2012,-0.201207 z m -11.17815,0.558907 c -0.11114,0 -0.2012,0.09007 -0.2012,0.201207 0,0.05433 0.0216,0.103528 0.0566,0.139727 -0.035,0.0362 -0.0566,0.0854 -0.0566,0.139727 0,0.05433 0.0216,0.103528 0.0566,0.139726 -0.035,0.0362 -0.0566,0.0854 -0.0566,0.139727 0,0.05433 0.0216,0.103529 0.0566,0.139727 -0.035,0.0362 -0.0566,0.0854 -0.0566,0.139727 0,0.05433 0.0216,0.103528 0.0566,0.139727 -0.035,0.0362 -0.0566,0.0854 -0.0566,0.139727 0,0.11114 0.0901,0.201206 0.2012,0.201206 0.11114,0 0.20121,-0.09007 0.20121,-0.201206 0,-0.05433 -0.0216,-0.103529 -0.0566,-0.139727 0.035,-0.0362 0.0566,-0.0854 0.0566,-0.139727 0,-0.04187 -0.0128,-0.08074 -0.0347,-0.112939 0.0322,0.02188 0.0711,0.03469 0.11294,0.03469 0.0543,0 0.10353,-0.02163 0.13972,-0.05661 0.0362,0.03499 0.0854,0.05661 0.13973,0.05661 0.0543,0 0.10353,-0.02163 0.13973,-0.05661 0.0362,0.03499 0.0854,0.05661 0.13972,0.05661 0.11115,0 0.20121,-0.09007 0.20121,-0.201206 0,-0.04187 -0.0128,-0.08074 -0.0347,-0.112939 0.0322,0.02188 0.0711,0.03469 0.11294,0.03469 0.11114,0 0.2012,-0.09007 0.2012,-0.201206 0,-0.111141 -0.0901,-0.201207 -0.2012,-0.201207 -0.0419,0 -0.0807,0.01281 -0.11294,0.03469 0.0219,-0.0322 0.0347,-0.07106 0.0347,-0.112939 0,-0.111141 -0.0901,-0.201207 -0.20121,-0.201207 -0.0543,0 -0.10352,0.02163 -0.13972,0.05661 -0.0362,-0.03499 -0.0854,-0.05661 -0.13973,-0.05661 -0.0543,0 -0.10353,0.02163 -0.13973,0.05661 -0.0362,-0.03499 -0.0854,-0.05661 -0.13972,-0.05661 -0.0543,0 -0.10353,0.02163 -0.13973,0.05661 -0.0362,-0.03499 -0.0854,-0.05661 -0.13973,-0.05661 z m 1.95618,0 c -0.11114,0 -0.20121,0.09007 -0.20121,0.201207 0,0.04187 0.0128,0.08074 0.0347,0.112938 -0.0322,-0.02188 -0.0711,-0.03469 -0.11294,-0.03469 -0.11114,0 -0.20121,0.09007 -0.20121,0.201207 0,0.05433 0.0216,0.103529 0.0566,0.139727 -0.035,0.0362 -0.0566,0.0854 -0.0566,0.139727 0,0.05433 0.0216,0.103528 0.0566,0.139727 -0.035,0.0362 -0.0566,0.0854 -0.0566,0.139727 0,0.11114 0.0901,0.201206 0.20121,0.201206 0.0419,0 0.0807,-0.01281 0.11294,-0.03469 -0.0219,0.0322 -0.0347,0.07106 -0.0347,0.112939 0,0.111141 0.0901,0.201207 0.20121,0.201207 0.0543,0 0.10353,-0.02163 0.13973,-0.05661 0.0362,0.03499 0.0854,0.05661 0.13972,0.05661 0.0543,0 0.10353,-0.02163 0.13973,-0.05661 0.0362,0.03499 0.0854,0.05661 0.13973,0.05661 0.11114,0 0.2012,-0.09007 0.2012,-0.201207 0,-0.04187 -0.0128,-0.08074 -0.0347,-0.112939 0.0322,0.02188 0.0711,0.03469 0.11294,0.03469 0.11114,0 0.20121,-0.09007 0.20121,-0.201206 0,-0.05433 -0.0216,-0.103529 -0.0566,-0.139727 0.035,-0.0362 0.0566,-0.0854 0.0566,-0.139727 0,-0.05433 -0.0216,-0.103529 -0.0566,-0.139727 0.035,-0.0362 0.0566,-0.0854 0.0566,-0.139727 0,-0.11114 -0.0901,-0.201207 -0.20121,-0.201207 -0.0419,0 -0.0807,0.01281 -0.11294,0.03469 0.0219,-0.0322 0.0347,-0.07106 0.0347,-0.112938 0,-0.111141 -0.0901,-0.201207 -0.2012,-0.201207 -0.0543,0 -0.10353,0.02163 -0.13973,0.05661 -0.0362,-0.03499 -0.0854,-0.05661 -0.13973,-0.05661 -0.0543,0 -0.10352,0.02163 -0.13972,0.05661 -0.0362,-0.03499 -0.0854,-0.05661 -0.13973,-0.05661 z m 1.39727,0 c -0.11114,0 -0.20121,0.09007 -0.20121,0.201207 0,0.05433 0.0216,0.103528 0.0566,0.139727 -0.035,0.0362 -0.0566,0.0854 -0.0566,0.139727 0,0.05433 0.0216,0.103528 0.0566,0.139726 -0.035,0.0362 -0.0566,0.0854 -0.0566,0.139727 0,0.05433 0.0216,0.103529 0.0566,0.139727 -0.035,0.0362 -0.0566,0.0854 -0.0566,0.139727 0,0.11114 0.0901,0.201207 0.20121,0.201207 0.0419,0 0.0807,-0.01281 0.11294,-0.03469 -0.0219,0.0322 -0.0347,0.07106 -0.0347,0.112938 0,0.111141 0.0901,0.201207 0.2012,0.201207 0.11114,0 0.20121,-0.09007 0.20121,-0.201207 0,-0.04187 -0.0128,-0.08074 -0.0347,-0.112938 0.0322,0.02188 0.0711,0.03469 0.11293,0.03469 0.0419,0 0.0807,-0.01281 0.11294,-0.03469 -0.0219,0.0322 -0.0347,0.07106 -0.0347,0.112938 0,0.111141 0.0901,0.201207 0.20121,0.201207 0.11114,0 0.20121,-0.09007 0.20121,-0.201207 0,-0.04187 -0.0128,-0.08074 -0.0347,-0.112938 0.0322,0.02188 0.0711,0.03469 0.11294,0.03469 0.11114,0 0.20121,-0.09007 0.20121,-0.201207 0,-0.05433 -0.0216,-0.103528 -0.0566,-0.139727 0.035,-0.0362 0.0566,-0.0854 0.0566,-0.139727 0,-0.05433 -0.0216,-0.103528 -0.0566,-0.139727 0.035,-0.0362 0.0566,-0.0854 0.0566,-0.139726 0,-0.05433 -0.0216,-0.103529 -0.0566,-0.139727 0.004,-0.0038 0.007,-0.0076 0.0107,-0.01172 0.0287,-0.03478 0.0459,-0.07938 0.0459,-0.128003 0,-0.111141 -0.0901,-0.201207 -0.20121,-0.201207 -0.007,0 -0.0138,3.47e-4 -0.0206,0.001 -0.10147,0.0103 -0.18064,0.09596 -0.18064,0.20016 0,0.05433 0.0216,0.103528 0.0566,0.139726 -0.035,0.0362 -0.0566,0.0854 -0.0566,0.139727 0,0.05433 0.0216,0.103529 0.0566,0.139727 -0.035,0.0362 -0.0566,0.0854 -0.0566,0.139727 0,0.05433 0.0216,0.103528 0.0566,0.139727 -0.035,0.0362 -0.0566,0.0854 -0.0566,0.139727 0,0.04187 0.0128,0.08074 0.0347,0.112938 -0.0322,-0.02188 -0.0711,-0.03469 -0.11294,-0.03469 -0.0419,0 -0.0807,0.01281 -0.11294,0.03469 0.0219,-0.0322 0.0347,-0.07107 0.0347,-0.112938 0,-0.05433 -0.0216,-0.103529 -0.0566,-0.139727 0.035,-0.0362 0.0566,-0.0854 0.0566,-0.139727 0,-0.111141 -0.0901,-0.201207 -0.2012,-0.201207 -0.11114,0 -0.20121,0.09007 -0.20121,0.201207 0,0.05433 0.0216,0.103528 0.0566,0.139727 -0.035,0.0362 -0.0566,0.0854 -0.0566,0.139727 0,0.04187 0.0128,0.08074 0.0347,0.112938 -0.0322,-0.02188 -0.0711,-0.03469 -0.11294,-0.03469 -0.0419,0 -0.0807,0.01281 -0.11294,0.03469 0.0219,-0.0322 0.0347,-0.07107 0.0347,-0.112938 0,-0.05433 -0.0216,-0.103529 -0.0566,-0.139727 0.035,-0.0362 0.0566,-0.0854 0.0566,-0.139727 0,-0.05433 -0.0216,-0.103528 -0.0566,-0.139727 0.035,-0.0362 0.0566,-0.0854 0.0566,-0.139727 0,-0.05433 -0.0216,-0.103528 -0.0566,-0.139727 0.035,-0.0362 0.0566,-0.0854 0.0566,-0.139726 0,-0.111141 -0.0901,-0.201207 -0.20121,-0.201207 z m 1.95617,0 c -0.11114,0 -0.2012,0.09007 -0.2012,0.201207 0,0.04187 0.0128,0.08074 0.0347,0.112938 -0.0322,-0.02188 -0.0711,-0.03469 -0.11294,-0.03469 -0.11114,0 -0.20121,0.09007 -0.20121,0.201207 0,0.05433 0.0216,0.103529 0.0566,0.139727 -0.035,0.0362 -0.0566,0.0854 -0.0566,0.139727 0,0.05433 0.0216,0.103528 0.0566,0.139727 -0.035,0.0362 -0.0566,0.0854 -0.0566,0.139727 0,0.11114 0.0901,0.201206 0.20121,0.201206 0.0419,0 0.0807,-0.01281 0.11294,-0.03469 -0.0219,0.0322 -0.0347,0.07106 -0.0347,0.112939 0,0.111141 0.0901,0.201207 0.2012,0.201207 0.0543,0 0.10353,-0.02163 0.13973,-0.05661 0.0362,0.03499 0.0854,0.05661 0.13973,0.05661 0.0543,0 0.10353,-0.02163 0.13972,-0.05661 0.0362,0.03499 0.0854,0.05661 0.13973,0.05661 0.11114,0 0.20121,-0.09007 0.20121,-0.201207 0,-0.11114 -0.0901,-0.201207 -0.20121,-0.201207 -0.0543,0 -0.10353,0.02163 -0.13973,0.05661 -0.0362,-0.03499 -0.0854,-0.05661 -0.13972,-0.05661 -0.0543,0 -0.10353,0.02163 -0.13973,0.05661 -0.0362,-0.03499 -0.0854,-0.05661 -0.13973,-0.05661 -0.0419,0 -0.0807,0.01281 -0.11293,0.03469 0.0219,-0.0322 0.0347,-0.07106 0.0347,-0.112938 0,-0.04187 -0.0128,-0.08074 -0.0347,-0.112939 0.0322,0.02188 0.0711,0.03469 0.11293,0.03469 0.0543,0 0.10353,-0.02163 0.13973,-0.05661 0.0362,0.03499 0.0854,0.05661 0.13973,0.05661 0.0543,0 0.10353,-0.02163 0.13972,-0.05661 0.0362,0.03499 0.0854,0.05661 0.13973,0.05661 0.0543,0 0.10353,-0.02163 0.13973,-0.05661 0.0362,0.03499 0.0854,0.05661 0.13973,0.05661 0.11114,0 0.2012,-0.09007 0.2012,-0.201207 0,-0.05433 -0.0216,-0.103528 -0.0566,-0.139727 0.035,-0.0362 0.0566,-0.0854 0.0566,-0.139726 0,-0.111141 -0.0901,-0.201207 -0.2012,-0.201207 -0.0419,0 -0.0807,0.01281 -0.11294,0.03469 0.0219,-0.0322 0.0347,-0.07107 0.0347,-0.112939 0,-0.11114 -0.0901,-0.201206 -0.20121,-0.201206 -0.0543,0 -0.10353,0.02163 -0.13973,0.05661 -0.0362,-0.03499 -0.0854,-0.05661 -0.13972,-0.05661 -0.0543,0 -0.10353,0.02163 -0.13973,0.05661 -0.0362,-0.03499 -0.0854,-0.05661 -0.13973,-0.05661 z m 1.39727,0 c -0.11114,0 -0.2012,0.09007 -0.2012,0.201207 0,0.05433 0.0216,0.103528 0.0566,0.139727 -0.035,0.0362 -0.0566,0.0854 -0.0566,0.139727 0,0.05433 0.0216,0.103528 0.0566,0.139726 -0.035,0.0362 -0.0566,0.0854 -0.0566,0.139727 0,0.05433 0.0216,0.103529 0.0566,0.139727 -0.035,0.0362 -0.0566,0.0854 -0.0566,0.139727 0,0.05433 0.0216,0.103528 0.0566,0.139727 -0.035,0.0362 -0.0566,0.0854 -0.0566,0.139727 0,0.11114 0.0901,0.201206 0.2012,0.201206 0.11114,0 0.20121,-0.09007 0.20121,-0.201206 0,-0.05433 -0.0216,-0.103529 -0.0566,-0.139727 0.035,-0.0362 0.0566,-0.0854 0.0566,-0.139727 0,-0.05433 -0.0216,-0.103528 -0.0566,-0.139727 0.035,-0.0362 0.0566,-0.0854 0.0566,-0.139727 0,-0.04187 -0.0128,-0.08074 -0.0347,-0.112938 0.0322,0.02188 0.0711,0.03469 0.11294,0.03469 0.11114,0 0.2012,-0.09007 0.2012,-0.201207 0,-0.04187 -0.0128,-0.08074 -0.0347,-0.112939 0.0322,0.02188 0.0711,0.03469 0.11294,0.03469 0.0543,0 0.10353,-0.02163 0.13973,-0.05661 0.0362,0.03499 0.0854,0.05661 0.13972,0.05661 0.0419,0 0.0807,-0.01281 0.11294,-0.03469 -0.0219,0.0322 -0.0347,0.07106 -0.0347,0.112939 0,0.111141 0.0901,0.201207 0.20121,0.201207 0.11114,0 0.20121,-0.09007 0.20121,-0.201207 0,-0.11114 -0.0901,-0.201207 -0.20121,-0.201207 -0.0419,0 -0.0807,0.01281 -0.11294,0.03469 0.0219,-0.0322 0.0347,-0.07107 0.0347,-0.112938 0,-0.111141 -0.0901,-0.201207 -0.20121,-0.201207 -0.0543,0 -0.10352,0.02163 -0.13972,0.05661 -0.0362,-0.03499 -0.0854,-0.05661 -0.13973,-0.05661 -0.11114,0 -0.20121,0.09007 -0.20121,0.201207 0,0.04187 0.0128,0.08074 0.0347,0.112938 -0.0322,-0.02188 -0.0711,-0.03469 -0.11294,-0.03469 -0.0419,0 -0.0807,0.01281 -0.11294,0.03469 0.0219,-0.0322 0.0347,-0.07107 0.0347,-0.112938 0,-0.111141 -0.0901,-0.201207 -0.20121,-0.201208 z m 1.95618,0 c -0.11114,0 -0.20121,0.09007 -0.20121,0.201207 0,0.04187 0.0128,0.08074 0.0347,0.112938 -0.0322,-0.02188 -0.0711,-0.03469 -0.11294,-0.03469 -0.11114,0 -0.2012,0.09007 -0.2012,0.201207 0,0.05433 0.0216,0.103529 0.0566,0.139727 -0.035,0.0362 -0.0566,0.0854 -0.0566,0.139727 0,0.05433 0.0216,0.103528 0.0566,0.139727 -0.035,0.0362 -0.0566,0.0854 -0.0566,0.139727 0,0.11114 0.0901,0.201206 0.2012,0.201206 0.0419,0 0.0807,-0.01281 0.11294,-0.03469 -0.0219,0.0322 -0.0347,0.07106 -0.0347,0.112939 0,0.111141 0.0901,0.201207 0.20121,0.201207 0.0543,0 0.10353,-0.02163 0.13973,-0.05661 0.0362,0.03499 0.0854,0.05661 0.13972,0.05661 0.0543,0 0.10353,-0.02163 0.13973,-0.05661 0.0362,0.03499 0.0854,0.05661 0.13973,0.05661 0.11114,0 0.2012,-0.09007 0.2012,-0.201207 0,-0.11114 -0.0901,-0.201207 -0.2012,-0.201207 -0.0543,0 -0.10353,0.02163 -0.13973,0.05661 -0.0362,-0.03499 -0.0854,-0.05661 -0.13973,-0.05661 -0.0543,0 -0.10353,0.02163 -0.13972,0.05661 -0.0362,-0.03499 -0.0854,-0.05661 -0.13973,-0.05661 -0.0419,0 -0.0807,0.01281 -0.11294,0.03469 0.0219,-0.0322 0.0347,-0.07106 0.0347,-0.112938 0,-0.04187 -0.0128,-0.08074 -0.0347,-0.112939 0.0322,0.02188 0.0711,0.03469 0.11294,0.03469 0.0543,0 0.10353,-0.02163 0.13973,-0.05661 0.0362,0.03499 0.0854,0.05661 0.13972,0.05661 0.0543,0 0.10353,-0.02163 0.13973,-0.05661 0.0362,0.03499 0.0854,0.05661 0.13973,0.05661 0.0543,0 0.10353,-0.02163 0.13972,-0.05661 0.0362,0.03499 0.0854,0.05661 0.13973,0.05661 0.11114,0 0.20121,-0.09007 0.20121,-0.201207 0,-0.05433 -0.0216,-0.103528 -0.0566,-0.139727 0.035,-0.0362 0.0566,-0.0854 0.0566,-0.139726 0,-0.111141 -0.0901,-0.201207 -0.20121,-0.201207 -0.0419,0 -0.0807,0.01281 -0.11294,0.03469 0.0219,-0.0322 0.0347,-0.07107 0.0347,-0.112939 0,-0.11114 -0.0901,-0.201206 -0.20121,-0.201206 -0.0543,0 -0.10352,0.02163 -0.13972,0.05661 -0.0362,-0.03499 -0.0854,-0.05661 -0.13973,-0.05661 -0.0543,0 -0.10353,0.02163 -0.13973,0.05661 -0.0362,-0.03499 -0.0854,-0.05661 -0.13972,-0.05661 z m -8.24389,0.345802 c 0.0362,0.03499 0.0854,0.05661 0.13973,0.05661 0.0543,0 0.10353,-0.02163 0.13973,-0.05661 0.0362,0.03499 0.0854,0.05661 0.13973,0.05661 0.0419,0 0.0807,-0.01281 0.11293,-0.03469 -0.0219,0.0322 -0.0347,0.07107 -0.0347,0.112939 0,0.04187 0.0128,0.08074 0.0347,0.112939 -0.0322,-0.02188 -0.0711,-0.03469 -0.11293,-0.03469 -0.0543,0 -0.10353,0.02163 -0.13973,0.05661 -0.0362,-0.03499 -0.0854,-0.05661 -0.13973,-0.05661 -0.0543,0 -0.10353,0.02163 -0.13973,0.05661 -0.0362,-0.03499 -0.0854,-0.05661 -0.13972,-0.05661 -0.0419,0 -0.0807,0.01281 -0.11294,0.03469 0.0219,-0.0322 0.0347,-0.07106 0.0347,-0.112939 0,-0.04187 -0.0128,-0.08074 -0.0347,-0.112939 0.0322,0.02188 0.0711,0.03469 0.11294,0.03469 0.0543,0 0.10353,-0.02163 0.13972,-0.05661 z m 1.67673,0 c 0.0362,0.03499 0.0854,0.05661 0.13972,0.05661 0.0543,0 0.10353,-0.02163 0.13973,-0.05661 0.0362,0.03499 0.0854,0.05661 0.13973,0.05661 0.0419,0 0.0807,-0.01281 0.11294,-0.03469 -0.0219,0.0322 -0.0347,0.07107 -0.0347,0.112939 0,0.05433 0.0216,0.103528 0.0566,0.139727 -0.035,0.0362 -0.0566,0.0854 -0.0566,0.139727 0,0.05433 0.0216,0.103528 0.0566,0.139727 -0.035,0.0362 -0.0566,0.0854 -0.0566,0.139726 0,0.04187 0.0128,0.08074 0.0347,0.112939 -0.0322,-0.02188 -0.0711,-0.03469 -0.11294,-0.03469 -0.0543,0 -0.10353,0.02163 -0.13973,0.05661 -0.0362,-0.03499 -0.0854,-0.05661 -0.13973,-0.05661 -0.0543,0 -0.10352,0.02163 -0.13972,0.05661 -0.0362,-0.03499 -0.0854,-0.05661 -0.13973,-0.05661 -0.0419,0 -0.0807,0.01281 -0.11294,0.03469 0.0219,-0.0322 0.0347,-0.07106 0.0347,-0.112939 0,-0.05433 -0.0216,-0.103528 -0.0566,-0.139726 0.035,-0.0362 0.0566,-0.0854 0.0566,-0.139727 0,-0.05433 -0.0216,-0.103529 -0.0566,-0.139727 0.035,-0.0362 0.0566,-0.0854 0.0566,-0.139727 0,-0.04187 -0.0128,-0.08074 -0.0347,-0.112939 0.0322,0.02188 0.0711,0.03469 0.11294,0.03469 0.0543,0 0.10353,-0.02163 0.13973,-0.05661 z m 3.35344,0 c 0.0362,0.03499 0.0854,0.05661 0.13973,0.05661 0.0543,0 0.10353,-0.02163 0.13972,-0.05661 0.0362,0.03499 0.0854,0.05661 0.13973,0.05661 0.0419,0 0.0807,-0.01281 0.11294,-0.03469 -0.0219,0.0322 -0.0347,0.07107 -0.0347,0.112939 0,0.04187 0.0128,0.08074 0.0347,0.112939 -1.5e-4,-1.01e-4 -3.1e-4,-2.24e-4 -4.6e-4,-3.24e-4 -0.0321,-0.02169 -0.0708,-0.03436 -0.1125,-0.03436 -0.0543,0 -0.10353,0.02162 -0.13973,0.05661 -0.0362,-0.03499 -0.0854,-0.05661 -0.13973,-0.05661 -0.0543,0 -0.10353,0.02162 -0.13972,0.05661 -0.004,-0.0037 -0.008,-0.0073 -0.0117,-0.01068 -0.0348,-0.0287 -0.0794,-0.04594 -0.128,-0.04594 -0.0417,0 -0.0804,0.01267 -0.1125,0.03436 -1.7e-4,10e-5 -2.9e-4,2.16e-4 -4.4e-4,3.24e-4 0.0219,-0.0322 0.0347,-0.07107 0.0347,-0.112939 0,-0.04187 -0.0128,-0.08074 -0.0347,-0.112939 0.0322,0.02188 0.0711,0.03469 0.11294,0.03469 0.0543,0 0.10353,-0.02163 0.13972,-0.05661 z m 3.35345,0 c 0.0362,0.03499 0.0854,0.05661 0.13972,0.05661 0.0543,0 0.10353,-0.02163 0.13973,-0.05661 0.0362,0.03499 0.0854,0.05661 0.13973,0.05661 0.0419,0 0.0807,-0.01281 0.11293,-0.03469 -0.0219,0.0322 -0.0347,0.07107 -0.0347,0.112939 0,0.04187 0.0128,0.08074 0.0347,0.112939 -1.5e-4,-1.01e-4 -3e-4,-2.24e-4 -4.6e-4,-3.24e-4 -0.0321,-0.02169 -0.0708,-0.03436 -0.1125,-0.03436 -0.0543,0 -0.10353,0.02162 -0.13973,0.05661 -0.0362,-0.03499 -0.0854,-0.05661 -0.13972,-0.05661 -0.0543,0 -0.10353,0.02162 -0.13973,0.05661 -0.004,-0.0037 -0.008,-0.0073 -0.0117,-0.01068 -0.0348,-0.0287 -0.0794,-0.04594 -0.128,-0.04594 -0.0417,0 -0.0804,0.01267 -0.11251,0.03436 -1.5e-4,10e-5 -3e-4,2.16e-4 -4.6e-4,3.24e-4 0.0219,-0.0322 0.0347,-0.07107 0.0347,-0.112939 0,-0.04187 -0.0128,-0.08074 -0.0347,-0.112939 0.0322,0.02188 0.0711,0.03469 0.11294,0.03469 0.0543,0 0.10353,-0.02163 0.13973,-0.05661 z m 1.67672,0 c 0.0362,0.03499 0.0854,0.05661 0.13972,0.05661 0.0419,0 0.0807,-0.01281 0.11294,-0.03469 -0.0219,0.0322 -0.0347,0.07107 -0.0347,0.112939 0,0.111141 0.0901,0.201207 0.20121,0.201207 0.0419,0 0.0807,-0.01281 0.11294,-0.03469 -0.0219,0.0322 -0.0347,0.07107 -0.0347,0.112938 0,0.05433 0.0216,0.103529 0.0566,0.139727 -0.035,0.0362 -0.0566,0.0854 -0.0566,0.139727 0,0.04187 0.0128,0.08074 0.0347,0.112939 -0.0322,-0.02188 -0.0711,-0.03469 -0.11294,-0.03469 -0.0543,0 -0.10353,0.02163 -0.13973,0.05661 -0.0362,-0.03499 -0.0854,-0.05661 -0.13972,-0.05661 -0.0543,0 -0.10353,0.02163 -0.13973,0.05661 -0.0362,-0.03499 -0.0854,-0.05661 -0.13973,-0.05661 -0.0419,0 -0.0807,0.01281 -0.11294,0.03469 0.0219,-0.0322 0.0347,-0.07106 0.0347,-0.112939 0,-0.05433 -0.0216,-0.103529 -0.0566,-0.139727 0.035,-0.0362 0.0566,-0.0854 0.0566,-0.139727 0,-0.05433 -0.0216,-0.103528 -0.0566,-0.139727 0.035,-0.0362 0.0566,-0.0854 0.0566,-0.139726 0,-0.04187 -0.0128,-0.08074 -0.0347,-0.112939 0.0322,0.02188 0.0711,0.03469 0.11294,0.03469 0.0543,0 0.10353,-0.02163 0.13973,-0.05661 z"
       style="fill:#ffffff;stroke-width:0.0771024"
       inkscape:connector-curvature="0" />
  </g>
  <text
     xml:space="preserve"
     style="font-style:normal;font-variant:normal;font-weight:normal;font-stretch:normal;font-size:10.28031921px;line-height:0%;font-family:'Nimbus Sans L';-inkscape-font-specification:'Nimbus Sans L';letter-spacing:0px;word-spacing:0px;fill:#b3b3b3;fill-opacity:0.42553196;stroke:none;stroke-width:1px;stroke-linecap:butt;stroke-linejoin:miter;stroke-opacity:1"
     x="196.7608"
     y="-124.21886"
     id="text4146"
     transform="rotate(37.181278)"><tspan
       sodipodi:role="line"
       id="tspan4148"
       x="196.7608"
       y="-124.21886"
       style="font-size:9.25228786px;line-height:1.25;fill:#b3b3b3;fill-opacity:0.42553196">orsinium.dev</tspan></text>
</svg>
