<?xml version="1.0" encoding="UTF-8" standalone="no"?>
<svg
   xmlns:dc="http://purl.org/dc/elements/1.1/"
   xmlns:cc="http://creativecommons.org/ns#"
   xmlns:rdf="http://www.w3.org/1999/02/22-rdf-syntax-ns#"
   xmlns:svg="http://www.w3.org/2000/svg"
   xmlns="http://www.w3.org/2000/svg"
   xmlns:sodipodi="http://sodipodi.sourceforge.net/DTD/sodipodi-0.dtd"
   xmlns:inkscape="http://www.inkscape.org/namespaces/inkscape"
   width="3600"
   height="3600"
   viewBox="0 0 277.56863 277.56863"
   id="svg2"
   version="1.1"
   inkscape:version="0.92.4 (5da689c313, 2019-01-14)"
   sodipodi:docname="python_old.svg"
   inkscape:export-filename="/home/gram/projects/other/stickers/3sticker/python_old.png"
   inkscape:export-xdpi="63.279999"
   inkscape:export-ydpi="63.279999">
  <metadata
     id="metadata250">
    <rdf:RDF>
      <cc:Work
         rdf:about="">
        <dc:format>image/svg+xml</dc:format>
        <dc:type
           rdf:resource="http://purl.org/dc/dcmitype/StillImage" />
        <dc:title />
      </cc:Work>
    </rdf:RDF>
  </metadata>
  <defs
     id="defs248" />
  <sodipodi:namedview
     pagecolor="#ffffff"
     bordercolor="#666666"
     borderopacity="1"
     objecttolerance="10"
     gridtolerance="10"
     guidetolerance="10"
     inkscape:pageopacity="0"
     inkscape:pageshadow="2"
     inkscape:window-width="1600"
     inkscape:window-height="822"
     id="namedview246"
     showgrid="false"
     inkscape:snap-bbox="true"
     inkscape:bbox-paths="true"
     inkscape:bbox-nodes="true"
     inkscape:snap-bbox-edge-midpoints="true"
     inkscape:zoom="0.0944"
     inkscape:cx="-140.28786"
     inkscape:cy="2433.7854"
     inkscape:window-x="1080"
     inkscape:window-y="1047"
     inkscape:window-maximized="1"
     inkscape:current-layer="svg2"
     inkscape:snap-bbox-midpoints="true"
     fit-margin-top="0"
     fit-margin-left="0"
     fit-margin-right="0"
     fit-margin-bottom="0"
     inkscape:snap-global="false">
    <inkscape:grid
       type="xygrid"
       id="grid3578"
       originx="40.093253"
       originy="46.261439" />
  </sodipodi:namedview>
  <circle
     style="fill:#ffffff;fill-opacity:1;stroke:none;stroke-width:1.08003366;stroke-miterlimit:4;stroke-dasharray:none;stroke-opacity:1"
     id="path3580"
     cx="138.78433"
     cy="138.78433"
     r="138.24431"
     inkscape:export-xdpi="63"
     inkscape:export-ydpi="63" />
  <g
     id="g3453"
     transform="matrix(1.4007782,0,0,1.4007782,3.7801227,-4.8608543)">
    <path
       d="m 182.217,116.189 c 0,1.734 -1.369,3.148 -3.062,3.148 -1.691,0 -3.062,-1.414 -3.062,-3.148 0,-1.736 1.371,-3.148 3.062,-3.148 1.693,0 3.062,1.412 3.062,3.148 z M 51.402,103.125 c 0,1.777 -1.392,3.211 -3.105,3.211 -1.735,0 -3.127,-1.434 -3.127,-3.211 0,-1.756 1.392,-3.213 3.127,-3.213 1.713,0 3.105,1.457 3.105,3.213 z m 0,9.016 c 0,1.777 -1.392,3.213 -3.105,3.213 -1.735,0 -3.127,-1.436 -3.127,-3.213 0,-1.777 1.392,-3.213 3.127,-3.213 1.713,0 3.105,1.435 3.105,3.213 z m 82.498,0 c 0,1.777 -1.393,3.213 -3.127,3.213 -1.713,0 -3.105,-1.436 -3.105,-3.213 0,-1.777 1.393,-3.213 3.105,-3.213 1.735,0 3.127,1.435 3.127,3.213 z m -22.916,-9.016 c 0,1.777 -1.393,3.211 -3.127,3.211 -1.713,0 -3.105,-1.434 -3.105,-3.211 0,-1.756 1.393,-3.213 3.105,-3.213 1.735,0 3.127,1.457 3.127,3.213 z"
       id="path8"
       inkscape:connector-curvature="0"
       style="clip-rule:evenodd;fill-rule:evenodd" />
    <path
       d="m 115.568,98.627 c 0,1.777 -1.393,3.213 -3.127,3.213 -1.713,0 -3.105,-1.436 -3.105,-3.213 0,-1.777 1.393,-3.212 3.105,-3.212 1.735,0 3.127,1.435 3.127,3.212 z m 9.166,18.012 c 0,1.777 -1.393,3.213 -3.127,3.213 -1.713,0 -3.105,-1.436 -3.105,-3.213 0,-1.777 1.393,-3.213 3.105,-3.213 1.735,0 3.127,1.435 3.127,3.213 z m -4.584,-4.498 c 0,1.777 -1.393,3.213 -3.127,3.213 -1.713,0 -3.105,-1.436 -3.105,-3.213 0,-1.777 1.393,-3.213 3.105,-3.213 1.735,0 3.127,1.435 3.127,3.213 z m -13.748,4.498 c 0,1.777 -1.393,3.213 -3.127,3.213 -1.715,0 -3.107,-1.436 -3.107,-3.213 0,-1.777 1.393,-3.213 3.107,-3.213 1.735,0 3.127,1.435 3.127,3.213 z m -4.584,-4.498 c 0,1.777 -1.393,3.213 -3.127,3.213 -1.713,0 -3.106,-1.436 -3.106,-3.213 0,-1.777 1.393,-3.213 3.106,-3.213 1.735,0 3.127,1.435 3.127,3.213 z M 83.485,80.615 c 0,1.778 -1.392,3.212 -3.105,3.212 -1.734,0 -3.127,-1.435 -3.127,-3.212 0,-1.756 1.393,-3.213 3.127,-3.213 1.713,0 3.105,1.457 3.105,3.213 z m 22.917,0 c 0,1.778 -1.393,3.212 -3.127,3.212 -1.715,0 -3.107,-1.435 -3.107,-3.212 0,-1.756 1.393,-3.213 3.107,-3.213 1.735,0 3.127,1.457 3.127,3.213 z m -50.417,9.016 c 0,1.778 -1.392,3.213 -3.105,3.213 -1.735,0 -3.127,-1.435 -3.127,-3.213 0,-1.777 1.392,-3.212 3.127,-3.212 1.713,0 3.105,1.435 3.105,3.212 z"
       id="path10"
       inkscape:connector-curvature="0"
       style="clip-rule:evenodd;fill-rule:evenodd" />
    <path
       d="m 60.569,89.631 c 0,1.778 -1.392,3.213 -3.105,3.213 -1.735,0 -3.127,-1.435 -3.127,-3.213 0,-1.777 1.392,-3.212 3.127,-3.212 1.713,0 3.105,1.435 3.105,3.212 z m -18.333,0 c 0,1.778 -1.392,3.213 -3.105,3.213 -1.735,0 -3.127,-1.435 -3.127,-3.213 0,-1.777 1.392,-3.212 3.127,-3.212 1.713,0 3.105,1.435 3.105,3.212 z m -27.5,0 c 0,1.778 -1.392,3.213 -3.127,3.213 -1.713,0 -3.105,-1.435 -3.105,-3.213 0,-1.777 1.392,-3.212 3.105,-3.212 1.735,0 3.127,1.435 3.127,3.212 z m 77.916,0 c 0,1.778 -1.393,3.213 -3.106,3.213 -1.735,0 -3.127,-1.435 -3.127,-3.213 0,-1.777 1.392,-3.212 3.127,-3.212 1.713,0 3.106,1.435 3.106,3.212 z m 36.666,0 c 0,1.778 -1.393,3.213 -3.127,3.213 -1.715,0 -3.105,-1.435 -3.105,-3.213 0,-1.777 1.391,-3.212 3.105,-3.212 1.735,0 3.127,1.435 3.127,3.212 z"
       id="path12"
       inkscape:connector-curvature="0"
       style="clip-rule:evenodd;fill-rule:evenodd" />
    <path
       d="m 124.734,89.631 c 0,1.778 -1.393,3.213 -3.127,3.213 -1.713,0 -3.105,-1.435 -3.105,-3.213 0,-1.777 1.393,-3.212 3.105,-3.212 1.735,0 3.127,1.435 3.127,3.212 z m -27.5,0 c 0,1.778 -1.392,3.213 -3.105,3.213 -1.735,0 -3.127,-1.435 -3.127,-3.213 0,-1.777 1.392,-3.212 3.127,-3.212 1.713,0 3.105,1.435 3.105,3.212 z m 55,0 c 0,1.778 -1.393,3.213 -3.127,3.213 -1.715,0 -3.105,-1.435 -3.105,-3.213 0,-1.777 1.391,-3.212 3.105,-3.212 1.735,0 3.127,1.435 3.127,3.212 z m -96.249,4.498 c 0,1.777 -1.392,3.212 -3.105,3.212 -1.735,0 -3.127,-1.435 -3.127,-3.212 0,-1.778 1.392,-3.213 3.127,-3.213 1.713,0.001 3.105,1.436 3.105,3.213 z"
       id="path14"
       inkscape:connector-curvature="0"
       style="clip-rule:evenodd;fill-rule:evenodd" />
    <path
       d="m 60.569,94.129 c 0,1.777 -1.392,3.212 -3.105,3.212 -1.735,0 -3.127,-1.435 -3.127,-3.212 0,-1.778 1.392,-3.213 3.127,-3.213 1.713,0.001 3.105,1.436 3.105,3.213 z m -45.833,0 c 0,1.777 -1.392,3.212 -3.127,3.212 -1.713,0 -3.105,-1.435 -3.105,-3.212 0,-1.778 1.392,-3.213 3.105,-3.213 1.735,0.001 3.127,1.436 3.127,3.213 z m 59.583,0 c 0,1.777 -1.393,3.212 -3.105,3.212 -1.735,0 -3.127,-1.435 -3.127,-3.212 0,-1.778 1.392,-3.213 3.127,-3.213 1.712,0.001 3.105,1.436 3.105,3.213 z m 13.749,0 c 0,1.777 -1.392,3.212 -3.106,3.212 -1.734,0 -3.126,-1.435 -3.126,-3.212 0,-1.778 1.392,-3.213 3.126,-3.213 1.714,0.001 3.106,1.436 3.106,3.213 z"
       id="path16"
       inkscape:connector-curvature="0"
       style="clip-rule:evenodd;fill-rule:evenodd" />
    <path
       d="m 92.652,94.129 c 0,1.777 -1.393,3.212 -3.106,3.212 -1.735,0 -3.127,-1.435 -3.127,-3.212 0,-1.778 1.392,-3.213 3.127,-3.213 1.713,0.001 3.106,1.436 3.106,3.213 z m 18.332,0 c 0,1.777 -1.393,3.212 -3.127,3.212 -1.713,0 -3.105,-1.435 -3.105,-3.212 0,-1.778 1.393,-3.213 3.105,-3.213 1.735,0.001 3.127,1.436 3.127,3.213 z"
       id="path18"
       inkscape:connector-curvature="0"
       style="clip-rule:evenodd;fill-rule:evenodd" />
    <path
       d="m 115.568,94.129 c 0,1.777 -1.393,3.212 -3.127,3.212 -1.713,0 -3.105,-1.435 -3.105,-3.212 0,-1.778 1.393,-3.213 3.105,-3.213 1.735,0.001 3.127,1.436 3.127,3.213 z m -18.334,0 c 0,1.777 -1.392,3.212 -3.105,3.212 -1.735,0 -3.127,-1.435 -3.127,-3.212 0,-1.778 1.392,-3.213 3.127,-3.213 1.713,0.001 3.105,1.436 3.105,3.213 z m 68.75,0 c 0,1.777 -1.393,3.212 -3.105,3.212 -1.736,0 -3.127,-1.435 -3.127,-3.212 0,-1.778 1.391,-3.213 3.127,-3.213 1.713,0.001 3.105,1.436 3.105,3.213 z M 46.819,98.627 c 0,1.777 -1.392,3.213 -3.105,3.213 -1.735,0 -3.127,-1.436 -3.127,-3.213 0,-1.777 1.392,-3.212 3.127,-3.212 1.713,0 3.105,1.435 3.105,3.212 z m -32.083,0 c 0,1.777 -1.392,3.213 -3.127,3.213 -1.713,0 -3.105,-1.436 -3.105,-3.213 0,-1.777 1.392,-3.212 3.105,-3.212 1.735,0 3.127,1.435 3.127,3.212 z m 59.583,0 c 0,1.777 -1.393,3.213 -3.105,3.213 -1.735,0 -3.127,-1.436 -3.127,-3.213 0,-1.777 1.392,-3.212 3.127,-3.212 1.712,0 3.105,1.435 3.105,3.212 z m 13.749,0 c 0,1.777 -1.392,3.213 -3.106,3.213 -1.734,0 -3.126,-1.436 -3.126,-3.213 0,-1.777 1.392,-3.212 3.126,-3.212 1.714,0 3.106,1.435 3.106,3.212 z"
       id="path20"
       inkscape:connector-curvature="0"
       style="clip-rule:evenodd;fill-rule:evenodd" />
    <path
       d="m 92.652,98.627 c 0,1.777 -1.393,3.213 -3.106,3.213 -1.735,0 -3.127,-1.436 -3.127,-3.213 0,-1.777 1.392,-3.212 3.127,-3.212 1.713,0 3.106,1.435 3.106,3.212 z m 45.832,0 c 0,1.777 -1.393,3.213 -3.105,3.213 -1.734,0 -3.127,-1.436 -3.127,-3.213 0,-1.777 1.393,-3.212 3.127,-3.212 1.713,0 3.105,1.435 3.105,3.212 z"
       id="path22"
       inkscape:connector-curvature="0"
       style="clip-rule:evenodd;fill-rule:evenodd" />
    <path
       d="m 143.066,98.627 c 0,1.777 -1.391,3.213 -3.127,3.213 -1.713,0 -3.105,-1.436 -3.105,-3.213 0,-1.777 1.393,-3.212 3.105,-3.212 1.737,0 3.127,1.435 3.127,3.212 z m -32.082,0 c 0,1.777 -1.393,3.213 -3.127,3.213 -1.713,0 -3.105,-1.436 -3.105,-3.213 0,-1.777 1.393,-3.212 3.105,-3.212 1.735,0 3.127,1.435 3.127,3.212 z m -13.75,0 c 0,1.777 -1.392,3.213 -3.105,3.213 -1.735,0 -3.127,-1.436 -3.127,-3.213 0,-1.777 1.392,-3.212 3.127,-3.212 1.713,0 3.105,1.435 3.105,3.212 z m 73.332,0 c 0,1.777 -1.393,3.213 -3.127,3.213 -1.713,0 -3.105,-1.436 -3.105,-3.213 0,-1.777 1.393,-3.212 3.105,-3.212 1.735,0 3.127,1.435 3.127,3.212 z m -123.747,4.498 c 0,1.777 -1.392,3.211 -3.105,3.211 -1.735,0 -3.127,-1.434 -3.127,-3.211 0,-1.756 1.392,-3.213 3.127,-3.213 1.713,0 3.105,1.457 3.105,3.213 z"
       id="path24"
       inkscape:connector-curvature="0"
       style="clip-rule:evenodd;fill-rule:evenodd" />
    <path
       d="m 42.236,103.125 c 0,1.777 -1.392,3.211 -3.105,3.211 -1.735,0 -3.127,-1.434 -3.127,-3.211 0,-1.756 1.392,-3.213 3.127,-3.213 1.713,0 3.105,1.457 3.105,3.213 z m -27.5,0 c 0,1.777 -1.392,3.211 -3.127,3.211 -1.713,0 -3.105,-1.434 -3.105,-3.211 0,-1.756 1.392,-3.213 3.105,-3.213 1.735,0 3.127,1.457 3.127,3.213 z m 59.583,0 c 0,1.777 -1.393,3.211 -3.105,3.211 -1.735,0 -3.127,-1.434 -3.127,-3.211 0,-1.756 1.392,-3.213 3.127,-3.213 1.712,0 3.105,1.457 3.105,3.213 z m 13.749,0 c 0,1.777 -1.392,3.211 -3.106,3.211 -1.734,0 -3.126,-1.434 -3.126,-3.211 0,-1.756 1.392,-3.213 3.126,-3.213 1.714,0 3.106,1.457 3.106,3.213 z m 50.416,0 c 0,1.777 -1.393,3.211 -3.105,3.211 -1.734,0 -3.127,-1.434 -3.127,-3.211 0,-1.756 1.393,-3.213 3.127,-3.213 1.713,0 3.105,1.457 3.105,3.213 z"
       id="path26"
       inkscape:connector-curvature="0"
       style="clip-rule:evenodd;fill-rule:evenodd" />
    <path
       d="m 143.066,103.125 c 0,1.777 -1.391,3.211 -3.127,3.211 -1.713,0 -3.105,-1.434 -3.105,-3.211 0,-1.756 1.393,-3.213 3.105,-3.213 1.737,0 3.127,1.457 3.127,3.213 z m -27.498,0 c 0,1.777 -1.393,3.211 -3.127,3.211 -1.713,0 -3.105,-1.434 -3.105,-3.211 0,-1.756 1.393,-3.213 3.105,-3.213 1.735,0 3.127,1.457 3.127,3.213 z m -18.334,0 c 0,1.777 -1.392,3.211 -3.105,3.211 -1.735,0 -3.127,-1.434 -3.127,-3.211 0,-1.756 1.392,-3.213 3.127,-3.213 1.713,0 3.105,1.457 3.105,3.213 z m 68.75,0 c 0,1.777 -1.393,3.211 -3.105,3.211 -1.736,0 -3.127,-1.434 -3.127,-3.211 0,-1.756 1.391,-3.213 3.127,-3.213 1.713,0 3.105,1.457 3.105,3.213 z"
       id="path28"
       inkscape:connector-curvature="0"
       style="clip-rule:evenodd;fill-rule:evenodd" />
    <path
       d="m 170.566,103.125 c 0,1.777 -1.393,3.211 -3.127,3.211 -1.713,0 -3.105,-1.434 -3.105,-3.211 0,-1.756 1.393,-3.213 3.105,-3.213 1.735,0 3.127,1.457 3.127,3.213 z m -123.747,4.518 c 0,1.758 -1.392,3.213 -3.105,3.213 -1.735,0 -3.127,-1.455 -3.127,-3.213 0,-1.777 1.392,-3.211 3.127,-3.211 1.713,0 3.105,1.433 3.105,3.211 z"
       id="path30"
       inkscape:connector-curvature="0"
       style="clip-rule:evenodd;fill-rule:evenodd" />
    <path
       d="m 42.236,107.643 c 0,1.758 -1.392,3.213 -3.105,3.213 -1.735,0 -3.127,-1.455 -3.127,-3.213 0,-1.777 1.392,-3.211 3.127,-3.211 1.713,0 3.105,1.433 3.105,3.211 z m -13.75,0 c 0,1.758 -1.392,3.213 -3.105,3.213 -1.734,0 -3.127,-1.455 -3.127,-3.213 0,-1.777 1.393,-3.211 3.127,-3.211 1.713,0 3.105,1.433 3.105,3.211 z"
       id="path32"
       inkscape:connector-curvature="0"
       style="clip-rule:evenodd;fill-rule:evenodd" />
    <path
       d="m 37.653,107.643 c 0,1.758 -1.392,3.213 -3.106,3.213 -1.735,0 -3.126,-1.455 -3.126,-3.213 0,-1.777 1.392,-3.211 3.126,-3.211 1.714,0 3.106,1.433 3.106,3.211 z"
       id="path34"
       inkscape:connector-curvature="0"
       style="clip-rule:evenodd;fill-rule:evenodd" />
    <path
       d="m 33.069,107.643 c 0,1.758 -1.392,3.213 -3.105,3.213 -1.735,0 -3.127,-1.455 -3.127,-3.213 0,-1.777 1.392,-3.211 3.127,-3.211 1.713,0 3.105,1.433 3.105,3.211 z m -18.333,0 c 0,1.758 -1.392,3.213 -3.127,3.213 -1.713,0 -3.105,-1.455 -3.105,-3.213 0,-1.777 1.392,-3.211 3.105,-3.211 1.735,0 3.127,1.433 3.127,3.211 z m 59.583,0 c 0,1.758 -1.393,3.213 -3.105,3.213 -1.735,0 -3.127,-1.455 -3.127,-3.213 0,-1.777 1.392,-3.211 3.127,-3.211 1.712,0 3.105,1.433 3.105,3.211 z"
       id="path36"
       inkscape:connector-curvature="0"
       style="clip-rule:evenodd;fill-rule:evenodd" />
    <path
       d="m 78.902,107.643 c 0,1.758 -1.392,3.213 -3.105,3.213 -1.735,0 -3.127,-1.455 -3.127,-3.213 0,-1.777 1.392,-3.211 3.127,-3.211 1.713,0 3.105,1.433 3.105,3.211 z m 50.416,0 c 0,1.758 -1.393,3.213 -3.127,3.213 -1.715,0 -3.105,-1.455 -3.105,-3.213 0,-1.777 1.391,-3.211 3.105,-3.211 1.735,0 3.127,1.433 3.127,3.211 z m -18.334,0 c 0,1.758 -1.393,3.213 -3.127,3.213 -1.713,0 -3.105,-1.455 -3.105,-3.213 0,-1.777 1.393,-3.211 3.105,-3.211 1.735,0 3.127,1.433 3.127,3.211 z"
       id="path38"
       inkscape:connector-curvature="0"
       style="clip-rule:evenodd;fill-rule:evenodd" />
    <path
       d="m 115.568,107.643 c 0,1.758 -1.393,3.213 -3.127,3.213 -1.713,0 -3.105,-1.455 -3.105,-3.213 0,-1.777 1.393,-3.211 3.105,-3.211 1.735,0 3.127,1.433 3.127,3.211 z m -18.334,0 c 0,1.758 -1.392,3.213 -3.105,3.213 -1.735,0 -3.127,-1.455 -3.127,-3.213 0,-1.777 1.392,-3.211 3.127,-3.211 1.713,0 3.105,1.433 3.105,3.211 z m 68.75,0 c 0,1.758 -1.393,3.213 -3.105,3.213 -1.736,0 -3.127,-1.455 -3.127,-3.213 0,-1.777 1.391,-3.211 3.127,-3.211 1.713,0 3.105,1.433 3.105,3.211 z"
       id="path40"
       inkscape:connector-curvature="0"
       style="clip-rule:evenodd;fill-rule:evenodd" />
    <path
       d="m 170.566,107.643 c 0,1.758 -1.393,3.213 -3.127,3.213 -1.713,0 -3.105,-1.455 -3.105,-3.213 0,-1.777 1.393,-3.211 3.105,-3.211 1.735,0 3.127,1.433 3.127,3.211 z m -123.747,4.498 c 0,1.777 -1.392,3.213 -3.105,3.213 -1.735,0 -3.127,-1.436 -3.127,-3.213 0,-1.777 1.392,-3.213 3.127,-3.213 1.713,0 3.105,1.435 3.105,3.213 z m -18.333,0 c 0,1.777 -1.392,3.213 -3.105,3.213 -1.734,0 -3.127,-1.436 -3.127,-3.213 0,-1.777 1.393,-3.213 3.127,-3.213 1.713,0 3.105,1.435 3.105,3.213 z m -9.166,0 c 0,1.777 -1.393,3.213 -3.105,3.213 -1.735,0 -3.127,-1.436 -3.127,-3.213 0,-1.777 1.392,-3.213 3.127,-3.213 1.712,0 3.105,1.435 3.105,3.213 z"
       id="path42"
       inkscape:connector-curvature="0"
       style="clip-rule:evenodd;fill-rule:evenodd" />
    <path
       d="m 14.736,112.141 c 0,1.777 -1.392,3.213 -3.127,3.213 -1.713,0 -3.105,-1.436 -3.105,-3.213 0,-1.777 1.392,-3.213 3.105,-3.213 1.735,0 3.127,1.435 3.127,3.213 z m 54.999,0 c 0,1.777 -1.392,3.213 -3.105,3.213 -1.735,0 -3.127,-1.436 -3.127,-3.213 0,-1.777 1.392,-3.213 3.127,-3.213 1.713,0 3.105,1.435 3.105,3.213 z"
       id="path44"
       inkscape:connector-curvature="0"
       style="clip-rule:evenodd;fill-rule:evenodd" />
    <path
       d="m 74.319,112.141 c 0,1.777 -1.393,3.213 -3.105,3.213 -1.735,0 -3.127,-1.436 -3.127,-3.213 0,-1.777 1.392,-3.213 3.127,-3.213 1.712,0 3.105,1.435 3.105,3.213 z"
       id="path46"
       inkscape:connector-curvature="0"
       style="clip-rule:evenodd;fill-rule:evenodd" />
    <path
       d="m 78.902,112.141 c 0,1.777 -1.392,3.213 -3.105,3.213 -1.735,0 -3.127,-1.436 -3.127,-3.213 0,-1.777 1.392,-3.213 3.127,-3.213 1.713,0 3.105,1.435 3.105,3.213 z m 13.75,0 c 0,1.777 -1.393,3.213 -3.106,3.213 -1.735,0 -3.127,-1.436 -3.127,-3.213 0,-1.777 1.392,-3.213 3.127,-3.213 1.713,0 3.106,1.435 3.106,3.213 z m 36.666,0 c 0,1.777 -1.393,3.213 -3.127,3.213 -1.715,0 -3.105,-1.436 -3.105,-3.213 0,-1.777 1.391,-3.213 3.105,-3.213 1.735,0 3.127,1.435 3.127,3.213 z"
       id="path48"
       inkscape:connector-curvature="0"
       style="clip-rule:evenodd;fill-rule:evenodd" />
    <path
       d="m 124.734,112.141 c 0,1.777 -1.393,3.213 -3.127,3.213 -1.713,0 -3.105,-1.436 -3.105,-3.213 0,-1.777 1.393,-3.213 3.105,-3.213 1.735,0 3.127,1.435 3.127,3.213 z m -13.75,0 c 0,1.777 -1.393,3.213 -3.127,3.213 -1.713,0 -3.105,-1.436 -3.105,-3.213 0,-1.777 1.393,-3.213 3.105,-3.213 1.735,0 3.127,1.435 3.127,3.213 z"
       id="path50"
       inkscape:connector-curvature="0"
       style="clip-rule:evenodd;fill-rule:evenodd" />
    <path
       d="m 106.402,112.141 c 0,1.777 -1.393,3.213 -3.127,3.213 -1.715,0 -3.107,-1.436 -3.107,-3.213 0,-1.777 1.393,-3.213 3.107,-3.213 1.735,0 3.127,1.435 3.127,3.213 z m 9.166,0 c 0,1.777 -1.393,3.213 -3.127,3.213 -1.713,0 -3.105,-1.436 -3.105,-3.213 0,-1.777 1.393,-3.213 3.105,-3.213 1.735,0 3.127,1.435 3.127,3.213 z m -18.334,0 c 0,1.777 -1.392,3.213 -3.105,3.213 -1.735,0 -3.127,-1.436 -3.127,-3.213 0,-1.777 1.392,-3.213 3.127,-3.213 1.713,0 3.105,1.435 3.105,3.213 z m 55,0 c 0,1.777 -1.393,3.213 -3.127,3.213 -1.715,0 -3.105,-1.436 -3.105,-3.213 0,-1.777 1.391,-3.213 3.105,-3.213 1.735,0 3.127,1.435 3.127,3.213 z"
       id="path52"
       inkscape:connector-curvature="0"
       style="clip-rule:evenodd;fill-rule:evenodd" />
    <path
       d="m 156.816,112.141 c 0,1.777 -1.391,3.213 -3.127,3.213 -1.713,0 -3.105,-1.436 -3.105,-3.213 0,-1.777 1.393,-3.213 3.105,-3.213 1.737,0 3.127,1.435 3.127,3.213 z m 9.168,0 c 0,1.777 -1.393,3.213 -3.105,3.213 -1.736,0 -3.127,-1.436 -3.127,-3.213 0,-1.777 1.391,-3.213 3.127,-3.213 1.713,0 3.105,1.435 3.105,3.213 z"
       id="path54"
       inkscape:connector-curvature="0"
       style="clip-rule:evenodd;fill-rule:evenodd" />
    <path
       d="m 170.566,112.141 c 0,1.777 -1.393,3.213 -3.127,3.213 -1.713,0 -3.105,-1.436 -3.105,-3.213 0,-1.777 1.393,-3.213 3.105,-3.213 1.735,0 3.127,1.435 3.127,3.213 z"
       id="path56"
       inkscape:connector-curvature="0"
       style="clip-rule:evenodd;fill-rule:evenodd" />
    <path
       d="m 175.15,112.141 c 0,1.777 -1.393,3.213 -3.105,3.213 -1.734,0 -3.127,-1.436 -3.127,-3.213 0,-1.777 1.393,-3.213 3.127,-3.213 1.713,0 3.105,1.435 3.105,3.213 z m -119.165,4.498 c 0,1.777 -1.392,3.213 -3.105,3.213 -1.735,0 -3.127,-1.436 -3.127,-3.213 0,-1.777 1.392,-3.213 3.127,-3.213 1.713,0 3.105,1.435 3.105,3.213 z"
       id="path58"
       inkscape:connector-curvature="0"
       style="clip-rule:evenodd;fill-rule:evenodd" />
    <path
       d="m 51.402,116.639 c 0,1.777 -1.392,3.213 -3.105,3.213 -1.735,0 -3.127,-1.436 -3.127,-3.213 0,-1.777 1.392,-3.213 3.127,-3.213 1.713,0 3.105,1.435 3.105,3.213 z m 13.75,0 c 0,1.777 -1.392,3.213 -3.105,3.213 -1.734,0 -3.127,-1.436 -3.127,-3.213 0,-1.777 1.393,-3.213 3.127,-3.213 1.713,0 3.105,1.435 3.105,3.213 z"
       id="path60"
       inkscape:connector-curvature="0"
       style="clip-rule:evenodd;fill-rule:evenodd" />
    <path
       d="m 60.569,116.639 c 0,1.777 -1.392,3.213 -3.105,3.213 -1.735,0 -3.127,-1.436 -3.127,-3.213 0,-1.777 1.392,-3.213 3.127,-3.213 1.713,0 3.105,1.435 3.105,3.213 z m -32.083,0 c 0,1.777 -1.392,3.213 -3.105,3.213 -1.734,0 -3.127,-1.436 -3.127,-3.213 0,-1.777 1.393,-3.213 3.127,-3.213 1.713,0 3.105,1.435 3.105,3.213 z"
       id="path62"
       inkscape:connector-curvature="0"
       style="clip-rule:evenodd;fill-rule:evenodd" />
    <path
       d="m 23.903,116.639 c 0,1.777 -1.392,3.213 -3.105,3.213 -1.735,0 -3.127,-1.436 -3.127,-3.213 0,-1.777 1.392,-3.213 3.127,-3.213 1.713,0 3.105,1.435 3.105,3.213 z"
       id="path64"
       inkscape:connector-curvature="0"
       style="clip-rule:evenodd;fill-rule:evenodd" />
    <path
       d="m 19.32,116.639 c 0,1.777 -1.393,3.213 -3.105,3.213 -1.735,0 -3.127,-1.436 -3.127,-3.213 0,-1.777 1.392,-3.213 3.127,-3.213 1.712,0 3.105,1.435 3.105,3.213 z m 50.415,0 c 0,1.777 -1.392,3.213 -3.105,3.213 -1.735,0 -3.127,-1.436 -3.127,-3.213 0,-1.777 1.392,-3.213 3.127,-3.213 1.713,0 3.105,1.435 3.105,3.213 z m 13.75,0 c 0,1.777 -1.392,3.213 -3.105,3.213 -1.734,0 -3.127,-1.436 -3.127,-3.213 0,-1.777 1.393,-3.213 3.127,-3.213 1.713,0 3.105,1.435 3.105,3.213 z"
       id="path66"
       inkscape:connector-curvature="0"
       style="clip-rule:evenodd;fill-rule:evenodd" />
    <path
       d="m 88.068,116.639 c 0,1.777 -1.392,3.213 -3.106,3.213 -1.734,0 -3.126,-1.436 -3.126,-3.213 0,-1.777 1.392,-3.213 3.126,-3.213 1.714,0 3.106,1.435 3.106,3.213 z"
       id="path68"
       inkscape:connector-curvature="0"
       style="clip-rule:evenodd;fill-rule:evenodd" />
    <path
       d="m 92.652,116.639 c 0,1.777 -1.393,3.213 -3.106,3.213 -1.735,0 -3.127,-1.436 -3.127,-3.213 0,-1.777 1.392,-3.213 3.127,-3.213 1.713,0 3.106,1.435 3.106,3.213 z m 45.832,0 c 0,1.777 -1.393,3.213 -3.105,3.213 -1.734,0 -3.127,-1.436 -3.127,-3.213 0,-1.777 1.393,-3.213 3.127,-3.213 1.713,0 3.105,1.435 3.105,3.213 z"
       id="path70"
       inkscape:connector-curvature="0"
       style="clip-rule:evenodd;fill-rule:evenodd" />
    <path
       d="m 133.9,116.639 c 0,1.777 -1.393,3.213 -3.127,3.213 -1.713,0 -3.105,-1.436 -3.105,-3.213 0,-1.777 1.393,-3.213 3.105,-3.213 1.735,0 3.127,1.435 3.127,3.213 z m 13.75,0 c 0,1.777 -1.393,3.213 -3.105,3.213 -1.734,0 -3.127,-1.436 -3.127,-3.213 0,-1.777 1.393,-3.213 3.127,-3.213 1.713,0 3.105,1.435 3.105,3.213 z"
       id="path72"
       inkscape:connector-curvature="0"
       style="clip-rule:evenodd;fill-rule:evenodd" />
    <path
       d="m 143.066,116.639 c 0,1.777 -1.391,3.213 -3.127,3.213 -1.713,0 -3.105,-1.436 -3.105,-3.213 0,-1.777 1.393,-3.213 3.105,-3.213 1.737,0 3.127,1.435 3.127,3.213 z m -13.748,0 c 0,1.777 -1.393,3.213 -3.127,3.213 -1.715,0 -3.105,-1.436 -3.105,-3.213 0,-1.777 1.391,-3.213 3.105,-3.213 1.735,0 3.127,1.435 3.127,3.213 z m -18.334,0 c 0,1.777 -1.393,3.213 -3.127,3.213 -1.713,0 -3.105,-1.436 -3.105,-3.213 0,-1.777 1.393,-3.213 3.105,-3.213 1.735,0 3.127,1.435 3.127,3.213 z m 9.166,0 c 0,1.777 -1.393,3.213 -3.127,3.213 -1.713,0 -3.105,-1.436 -3.105,-3.213 0,-1.777 1.393,-3.213 3.105,-3.213 1.735,0 3.127,1.435 3.127,3.213 z m -18.332,0 c 0,1.777 -1.393,3.213 -3.127,3.213 -1.713,0 -3.106,-1.436 -3.106,-3.213 0,-1.777 1.393,-3.213 3.106,-3.213 1.735,0 3.127,1.435 3.127,3.213 z"
       id="path74"
       inkscape:connector-curvature="0"
       style="clip-rule:evenodd;fill-rule:evenodd" />
    <path
       d="m 97.234,116.639 c 0,1.777 -1.392,3.213 -3.105,3.213 -1.735,0 -3.127,-1.436 -3.127,-3.213 0,-1.777 1.392,-3.213 3.127,-3.213 1.713,0 3.105,1.435 3.105,3.213 z m 55,0 c 0,1.777 -1.393,3.213 -3.127,3.213 -1.715,0 -3.105,-1.436 -3.105,-3.213 0,-1.777 1.391,-3.213 3.105,-3.213 1.735,0 3.127,1.435 3.127,3.213 z"
       id="path76"
       inkscape:connector-curvature="0"
       style="clip-rule:evenodd;fill-rule:evenodd" />
    <path
       d="m 156.816,116.639 c 0,1.777 -1.391,3.213 -3.127,3.213 -1.713,0 -3.105,-1.436 -3.105,-3.213 0,-1.777 1.393,-3.213 3.105,-3.213 1.737,0 3.127,1.435 3.127,3.213 z m 9.168,0 c 0,1.777 -1.393,3.213 -3.105,3.213 -1.736,0 -3.127,-1.436 -3.127,-3.213 0,-1.777 1.391,-3.213 3.127,-3.213 1.713,0 3.105,1.435 3.105,3.213 z"
       id="path78"
       inkscape:connector-curvature="0"
       style="clip-rule:evenodd;fill-rule:evenodd" />
    <path
       d="m 161.4,116.639 c 0,1.777 -1.393,3.213 -3.105,3.213 -1.734,0 -3.127,-1.436 -3.127,-3.213 0,-1.777 1.393,-3.213 3.127,-3.213 1.713,0 3.105,1.435 3.105,3.213 z m 13.75,0 c 0,1.777 -1.393,3.213 -3.105,3.213 -1.734,0 -3.127,-1.436 -3.127,-3.213 0,-1.777 1.393,-3.213 3.127,-3.213 1.713,0 3.105,1.435 3.105,3.213 z M 51.402,85.134 c 0,1.756 -1.392,3.213 -3.105,3.213 -1.735,0 -3.127,-1.457 -3.127,-3.213 0,-1.777 1.392,-3.212 3.127,-3.212 1.713,-10e-4 3.105,1.434 3.105,3.212 z m 13.75,0 c 0,1.756 -1.392,3.213 -3.105,3.213 -1.734,0 -3.127,-1.457 -3.127,-3.213 0,-1.777 1.393,-3.212 3.127,-3.212 1.713,-10e-4 3.105,1.434 3.105,3.212 z"
       id="path80"
       inkscape:connector-curvature="0"
       style="clip-rule:evenodd;fill-rule:evenodd" />
    <path
       d="m 60.569,85.134 c 0,1.756 -1.392,3.213 -3.105,3.213 -1.735,0 -3.127,-1.457 -3.127,-3.213 0,-1.777 1.392,-3.212 3.127,-3.212 1.713,-10e-4 3.105,1.434 3.105,3.212 z m -13.75,0 c 0,1.756 -1.392,3.213 -3.105,3.213 -1.735,0 -3.127,-1.457 -3.127,-3.213 0,-1.777 1.392,-3.212 3.127,-3.212 1.713,-10e-4 3.105,1.434 3.105,3.212 z"
       id="path82"
       inkscape:connector-curvature="0"
       style="clip-rule:evenodd;fill-rule:evenodd" />
    <path
       d="m 42.236,85.134 c 0,1.756 -1.392,3.213 -3.105,3.213 -1.735,0 -3.127,-1.457 -3.127,-3.213 0,-1.777 1.392,-3.212 3.127,-3.212 1.713,-10e-4 3.105,1.434 3.105,3.212 z m -13.75,0 c 0,1.756 -1.392,3.213 -3.105,3.213 -1.734,0 -3.127,-1.457 -3.127,-3.213 0,-1.777 1.393,-3.212 3.127,-3.212 1.713,-10e-4 3.105,1.434 3.105,3.212 z"
       id="path84"
       inkscape:connector-curvature="0"
       style="clip-rule:evenodd;fill-rule:evenodd" />
    <path
       d="m 23.903,85.134 c 0,1.756 -1.392,3.213 -3.105,3.213 -1.735,0 -3.127,-1.457 -3.127,-3.213 0,-1.777 1.392,-3.212 3.127,-3.212 1.713,-10e-4 3.105,1.434 3.105,3.212 z m 13.75,0 c 0,1.756 -1.392,3.213 -3.106,3.213 -1.735,0 -3.126,-1.457 -3.126,-3.213 0,-1.777 1.392,-3.212 3.126,-3.212 1.714,-10e-4 3.106,1.434 3.106,3.212 z"
       id="path86"
       inkscape:connector-curvature="0"
       style="clip-rule:evenodd;fill-rule:evenodd" />
    <path
       d="m 33.069,85.134 c 0,1.756 -1.392,3.213 -3.105,3.213 -1.735,0 -3.127,-1.457 -3.127,-3.213 0,-1.777 1.392,-3.212 3.127,-3.212 1.713,-10e-4 3.105,1.434 3.105,3.212 z m -13.749,0 c 0,1.756 -1.393,3.213 -3.105,3.213 -1.735,0 -3.127,-1.457 -3.127,-3.213 0,-1.777 1.392,-3.212 3.127,-3.212 1.712,-10e-4 3.105,1.434 3.105,3.212 z"
       id="path88"
       inkscape:connector-curvature="0"
       style="clip-rule:evenodd;fill-rule:evenodd" />
    <path
       d="m 14.736,85.134 c 0,1.756 -1.392,3.213 -3.127,3.213 -1.713,0 -3.105,-1.457 -3.105,-3.213 0,-1.777 1.392,-3.212 3.105,-3.212 1.735,-10e-4 3.127,1.434 3.127,3.212 z m 54.999,0 c 0,1.756 -1.392,3.213 -3.105,3.213 -1.735,0 -3.127,-1.457 -3.127,-3.213 0,-1.777 1.392,-3.212 3.127,-3.212 1.713,-10e-4 3.105,1.434 3.105,3.212 z"
       id="path90"
       inkscape:connector-curvature="0"
       style="clip-rule:evenodd;fill-rule:evenodd" />
    <path
       d="m 74.319,85.134 c 0,1.756 -1.393,3.213 -3.105,3.213 -1.735,0 -3.127,-1.457 -3.127,-3.213 0,-1.777 1.392,-3.212 3.127,-3.212 1.712,-10e-4 3.105,1.434 3.105,3.212 z m 13.749,0 c 0,1.756 -1.392,3.213 -3.106,3.213 -1.734,0 -3.126,-1.457 -3.126,-3.213 0,-1.777 1.392,-3.212 3.126,-3.212 1.714,-10e-4 3.106,1.434 3.106,3.212 z m 50.416,0 c 0,1.756 -1.393,3.213 -3.105,3.213 -1.734,0 -3.127,-1.457 -3.127,-3.213 0,-1.777 1.393,-3.212 3.127,-3.212 1.713,-10e-4 3.105,1.434 3.105,3.212 z"
       id="path92"
       inkscape:connector-curvature="0"
       style="clip-rule:evenodd;fill-rule:evenodd" />
    <path
       d="m 133.9,85.134 c 0,1.756 -1.393,3.213 -3.127,3.213 -1.713,0 -3.105,-1.457 -3.105,-3.213 0,-1.777 1.393,-3.212 3.105,-3.212 1.735,-10e-4 3.127,1.434 3.127,3.212 z m 13.75,0 c 0,1.756 -1.393,3.213 -3.105,3.213 -1.734,0 -3.127,-1.457 -3.127,-3.213 0,-1.777 1.393,-3.212 3.127,-3.212 1.713,-10e-4 3.105,1.434 3.105,3.212 z"
       id="path94"
       inkscape:connector-curvature="0"
       style="clip-rule:evenodd;fill-rule:evenodd" />
    <path
       d="m 143.066,85.134 c 0,1.756 -1.391,3.213 -3.127,3.213 -1.713,0 -3.105,-1.457 -3.105,-3.213 0,-1.777 1.393,-3.212 3.105,-3.212 1.737,-10e-4 3.127,1.434 3.127,3.212 z m -13.748,0 c 0,1.756 -1.393,3.213 -3.127,3.213 -1.715,0 -3.105,-1.457 -3.105,-3.213 0,-1.777 1.391,-3.212 3.105,-3.212 1.735,-10e-4 3.127,1.434 3.127,3.212 z m -18.334,0 c 0,1.756 -1.393,3.213 -3.127,3.213 -1.713,0 -3.105,-1.457 -3.105,-3.213 0,-1.777 1.393,-3.212 3.105,-3.212 1.735,-10e-4 3.127,1.434 3.127,3.212 z m 9.166,0 c 0,1.756 -1.393,3.213 -3.127,3.213 -1.713,0 -3.105,-1.457 -3.105,-3.213 0,-1.777 1.393,-3.212 3.105,-3.212 1.735,-10e-4 3.127,1.434 3.127,3.212 z"
       id="path96"
       inkscape:connector-curvature="0"
       style="clip-rule:evenodd;fill-rule:evenodd" />
    <path
       d="m 115.568,85.134 c 0,1.756 -1.393,3.213 -3.127,3.213 -1.713,0 -3.105,-1.457 -3.105,-3.213 0,-1.777 1.393,-3.212 3.105,-3.212 1.735,-10e-4 3.127,1.434 3.127,3.212 z m -18.334,0 c 0,1.756 -1.392,3.213 -3.105,3.213 -1.735,0 -3.127,-1.457 -3.127,-3.213 0,-1.777 1.392,-3.212 3.127,-3.212 1.713,-10e-4 3.105,1.434 3.105,3.212 z m 55,0 c 0,1.756 -1.393,3.213 -3.127,3.213 -1.715,0 -3.105,-1.457 -3.105,-3.213 0,-1.777 1.391,-3.212 3.105,-3.212 1.735,-10e-4 3.127,1.434 3.127,3.212 z"
       id="path98"
       inkscape:connector-curvature="0"
       style="clip-rule:evenodd;fill-rule:evenodd" />
    <path
       d="m 156.816,85.134 c 0,1.756 -1.391,3.213 -3.127,3.213 -1.713,0 -3.105,-1.457 -3.105,-3.213 0,-1.777 1.393,-3.212 3.105,-3.212 1.737,-10e-4 3.127,1.434 3.127,3.212 z m 9.168,0 c 0,1.756 -1.393,3.213 -3.105,3.213 -1.736,0 -3.127,-1.457 -3.127,-3.213 0,-1.777 1.391,-3.212 3.127,-3.212 1.713,-10e-4 3.105,1.434 3.105,3.212 z"
       id="path100"
       inkscape:connector-curvature="0"
       style="clip-rule:evenodd;fill-rule:evenodd" />
    <path
       d="m 161.4,85.134 c 0,1.756 -1.393,3.213 -3.105,3.213 -1.734,0 -3.127,-1.457 -3.127,-3.213 0,-1.777 1.393,-3.212 3.127,-3.212 1.713,-10e-4 3.105,1.434 3.105,3.212 z m 9.166,0 c 0,1.756 -1.393,3.213 -3.127,3.213 -1.713,0 -3.105,-1.457 -3.105,-3.213 0,-1.777 1.393,-3.212 3.105,-3.212 1.735,-10e-4 3.127,1.434 3.127,3.212 z"
       id="path102"
       inkscape:connector-curvature="0"
       style="clip-rule:evenodd;fill-rule:evenodd" />
    <path
       d="m 175.15,85.134 c 0,1.756 -1.393,3.213 -3.105,3.213 -1.734,0 -3.127,-1.457 -3.127,-3.213 0,-1.777 1.393,-3.212 3.127,-3.212 1.713,-10e-4 3.105,1.434 3.105,3.212 z M 74.319,80.615 c 0,1.778 -1.393,3.212 -3.105,3.212 -1.735,0 -3.127,-1.435 -3.127,-3.212 0,-1.756 1.392,-3.213 3.127,-3.213 1.712,0 3.105,1.457 3.105,3.213 z m 13.749,0 c 0,1.778 -1.392,3.212 -3.106,3.212 -1.734,0 -3.126,-1.435 -3.126,-3.212 0,-1.756 1.392,-3.213 3.126,-3.213 1.714,0 3.106,1.457 3.106,3.213 z m 22.916,0 c 0,1.778 -1.393,3.212 -3.127,3.212 -1.713,0 -3.105,-1.435 -3.105,-3.212 0,-1.756 1.393,-3.213 3.105,-3.213 1.735,0 3.127,1.457 3.127,3.213 z m -13.75,0 c 0,1.778 -1.392,3.212 -3.105,3.212 -1.735,0 -3.127,-1.435 -3.127,-3.212 0,-1.756 1.392,-3.213 3.127,-3.213 1.713,0 3.105,1.457 3.105,3.213 z"
       id="path104"
       inkscape:connector-curvature="0"
       style="clip-rule:evenodd;fill-rule:evenodd" />
    <path
       d="m 74.319,76.118 c 0,1.777 -1.393,3.212 -3.105,3.212 -1.735,0 -3.127,-1.435 -3.127,-3.212 0,-1.778 1.392,-3.213 3.127,-3.213 1.712,0 3.105,1.435 3.105,3.213 z m 9.166,0 c 0,1.777 -1.392,3.212 -3.105,3.212 -1.734,0 -3.127,-1.435 -3.127,-3.212 0,-1.778 1.393,-3.213 3.127,-3.213 1.713,0 3.105,1.435 3.105,3.213 z"
       id="path106"
       inkscape:connector-curvature="0"
       style="clip-rule:evenodd;fill-rule:evenodd" />
    <path
       d="m 78.902,76.118 c 0,1.777 -1.392,3.212 -3.105,3.212 -1.735,0 -3.127,-1.435 -3.127,-3.212 0,-1.778 1.392,-3.213 3.127,-3.213 1.713,0 3.105,1.435 3.105,3.213 z m 27.5,0 c 0,1.777 -1.393,3.212 -3.127,3.212 -1.715,0 -3.107,-1.435 -3.107,-3.212 0,-1.778 1.393,-3.213 3.107,-3.213 1.735,0 3.127,1.435 3.127,3.213 z"
       id="path108"
       inkscape:connector-curvature="0"
       style="clip-rule:evenodd;fill-rule:evenodd" />
    <path
       d="m 101.818,76.118 c 0,1.777 -1.393,3.212 -3.127,3.212 -1.713,0 -3.106,-1.435 -3.106,-3.212 0,-1.778 1.393,-3.213 3.106,-3.213 1.735,0 3.127,1.435 3.127,3.213 z"
       id="path110"
       inkscape:connector-curvature="0"
       style="clip-rule:evenodd;fill-rule:evenodd" />
    <path
       d="m 97.234,76.118 c 0,1.777 -1.392,3.212 -3.105,3.212 -1.735,0 -3.127,-1.435 -3.127,-3.212 0,-1.778 1.392,-3.213 3.127,-3.213 1.713,0 3.105,1.435 3.105,3.213 z m 82.477,40.521 c 0,1.777 -1.391,3.213 -3.105,3.213 -1.734,0 -3.127,-1.436 -3.127,-3.213 0,-1.777 1.393,-3.213 3.127,-3.213 1.714,0 3.105,1.435 3.105,3.213 z m -4.582,-31.505 c 0,1.756 -1.393,3.213 -3.105,3.213 -1.734,0 -3.127,-1.457 -3.127,-3.213 0,-1.777 1.393,-3.212 3.127,-3.212 1.712,-10e-4 3.105,1.434 3.105,3.212 z"
       id="path112"
       inkscape:connector-curvature="0"
       style="clip-rule:evenodd;fill-rule:evenodd" />
    <path
       d="m 179.711,89.631 c 0,1.778 -1.391,3.213 -3.105,3.213 -1.734,0 -3.127,-1.435 -3.127,-3.213 0,-1.777 1.393,-3.212 3.127,-3.212 1.714,0 3.105,1.435 3.105,3.212 z"
       id="path114"
       inkscape:connector-curvature="0"
       style="clip-rule:evenodd;fill-rule:evenodd" />
    <path
       d="m 184.252,94.129 c 0,1.777 -1.393,3.212 -3.105,3.212 -1.734,0 -3.127,-1.435 -3.127,-3.212 0,-1.778 1.393,-3.213 3.127,-3.213 1.712,0.001 3.105,1.436 3.105,3.213 z"
       id="path116"
       inkscape:connector-curvature="0"
       style="clip-rule:evenodd;fill-rule:evenodd" />
    <path
       d="m 184.252,98.627 c 0,1.777 -1.393,3.213 -3.105,3.213 -1.734,0 -3.127,-1.436 -3.127,-3.213 0,-1.777 1.393,-3.212 3.127,-3.212 1.712,0 3.105,1.435 3.105,3.212 z"
       id="path118"
       inkscape:connector-curvature="0"
       style="clip-rule:evenodd;fill-rule:evenodd" />
    <path
       d="m 184.252,103.125 c 0,1.777 -1.393,3.211 -3.105,3.211 -1.734,0 -3.127,-1.434 -3.127,-3.211 0,-1.756 1.393,-3.213 3.127,-3.213 1.712,0 3.105,1.457 3.105,3.213 z"
       id="path120"
       inkscape:connector-curvature="0"
       style="clip-rule:evenodd;fill-rule:evenodd" />
    <path
       d="m 184.252,107.643 c 0,1.758 -1.393,3.213 -3.105,3.213 -1.734,0 -3.127,-1.455 -3.127,-3.213 0,-1.777 1.393,-3.211 3.127,-3.211 1.712,0 3.105,1.433 3.105,3.211 z"
       id="path122"
       inkscape:connector-curvature="0"
       style="clip-rule:evenodd;fill-rule:evenodd" />
    <path
       d="m 184.252,112.141 c 0,1.777 -1.393,3.213 -3.105,3.213 -1.734,0 -3.127,-1.436 -3.127,-3.213 0,-1.777 1.393,-3.213 3.127,-3.213 1.712,0 3.105,1.435 3.105,3.213 z"
       id="path124"
       inkscape:connector-curvature="0"
       style="clip-rule:evenodd;fill-rule:evenodd" />
    <path
       d="m 184.252,116.639 c 0,1.777 -1.393,3.213 -3.105,3.213 -1.734,0 -3.127,-1.436 -3.127,-3.213 0,-1.777 1.393,-3.213 3.127,-3.213 1.712,0 3.105,1.435 3.105,3.213 z M 51.402,89.631 c 0,1.778 -1.392,3.213 -3.105,3.213 -1.735,0 -3.127,-1.435 -3.127,-3.213 0,-1.777 1.392,-3.212 3.127,-3.212 1.713,0 3.105,1.435 3.105,3.212 z m -13.749,0 c 0,1.778 -1.392,3.213 -3.106,3.213 -1.735,0 -3.126,-1.435 -3.126,-3.213 0,-1.777 1.392,-3.212 3.126,-3.212 1.714,0 3.106,1.435 3.106,3.212 z m 32.082,0 c 0,1.778 -1.392,3.213 -3.105,3.213 -1.735,0 -3.127,-1.435 -3.127,-3.213 0,-1.777 1.392,-3.212 3.127,-3.212 1.713,0 3.105,1.435 3.105,3.212 z m 18.333,0 c 0,1.778 -1.392,3.213 -3.106,3.213 -1.734,0 -3.126,-1.435 -3.126,-3.213 0,-1.777 1.392,-3.212 3.126,-3.212 1.714,0 3.106,1.435 3.106,3.212 z m 59.582,0 c 0,1.778 -1.393,3.213 -3.105,3.213 -1.734,0 -3.127,-1.435 -3.127,-3.213 0,-1.777 1.393,-3.212 3.127,-3.212 1.713,0 3.105,1.435 3.105,3.212 z m -41.248,0 c 0,1.778 -1.393,3.213 -3.127,3.213 -1.715,0 -3.107,-1.435 -3.107,-3.213 0,-1.777 1.393,-3.212 3.107,-3.212 1.735,0 3.127,1.435 3.127,3.212 z m 13.748,0 c 0,1.778 -1.393,3.213 -3.127,3.213 -1.713,0 -3.105,-1.435 -3.105,-3.213 0,-1.777 1.393,-3.212 3.105,-3.212 1.735,0 3.127,1.435 3.127,3.212 z m 41.25,0 c 0,1.778 -1.393,3.213 -3.105,3.213 -1.734,0 -3.127,-1.435 -3.127,-3.213 0,-1.777 1.393,-3.212 3.127,-3.212 1.713,0 3.105,1.435 3.105,3.212 z m 13.75,0 c 0,1.778 -1.393,3.213 -3.105,3.213 -1.734,0 -3.127,-1.435 -3.127,-3.213 0,-1.777 1.393,-3.212 3.127,-3.212 1.713,0 3.105,1.435 3.105,3.212 z"
       id="path126"
       inkscape:connector-curvature="0"
       style="clip-rule:evenodd;fill-rule:evenodd" />
    <path
       d="m 51.402,94.129 c 0,1.777 -1.392,3.212 -3.105,3.212 -1.735,0 -3.127,-1.435 -3.127,-3.212 0,-1.778 1.392,-3.213 3.127,-3.213 1.713,0.001 3.105,1.436 3.105,3.213 z m -9.166,0 c 0,1.777 -1.392,3.212 -3.105,3.212 -1.735,0 -3.127,-1.435 -3.127,-3.212 0,-1.778 1.392,-3.213 3.127,-3.213 1.713,0.001 3.105,1.436 3.105,3.213 z m -13.75,0 c 0,1.777 -1.392,3.212 -3.105,3.212 -1.734,0 -3.127,-1.435 -3.127,-3.212 0,-1.778 1.393,-3.213 3.127,-3.213 1.713,0.001 3.105,1.436 3.105,3.213 z"
       id="path128"
       inkscape:connector-curvature="0"
       style="clip-rule:evenodd;fill-rule:evenodd" />
    <path
       d="m 23.903,94.129 c 0,1.777 -1.392,3.212 -3.105,3.212 -1.735,0 -3.127,-1.435 -3.127,-3.212 0,-1.778 1.392,-3.213 3.127,-3.213 1.713,0.001 3.105,1.436 3.105,3.213 z m 9.166,0 c 0,1.777 -1.392,3.212 -3.105,3.212 -1.735,0 -3.127,-1.435 -3.127,-3.212 0,-1.778 1.392,-3.213 3.127,-3.213 1.713,0.001 3.105,1.436 3.105,3.213 z m 36.666,0 c 0,1.777 -1.392,3.212 -3.105,3.212 -1.735,0 -3.127,-1.435 -3.127,-3.212 0,-1.778 1.392,-3.213 3.127,-3.213 1.713,0.001 3.105,1.436 3.105,3.213 z m 13.75,0 c 0,1.777 -1.392,3.212 -3.105,3.212 -1.734,0 -3.127,-1.435 -3.127,-3.212 0,-1.778 1.393,-3.213 3.127,-3.213 1.713,0.001 3.105,1.436 3.105,3.213 z m 50.415,0 c 0,1.777 -1.393,3.212 -3.127,3.212 -1.713,0 -3.105,-1.435 -3.105,-3.212 0,-1.778 1.393,-3.213 3.105,-3.213 1.735,0.001 3.127,1.436 3.127,3.213 z m -9.166,0 c 0,1.777 -1.393,3.212 -3.127,3.212 -1.713,0 -3.105,-1.435 -3.105,-3.212 0,-1.778 1.393,-3.213 3.105,-3.213 1.735,0.001 3.127,1.436 3.127,3.213 z m 27.5,0 c 0,1.777 -1.393,3.212 -3.127,3.212 -1.715,0 -3.105,-1.435 -3.105,-3.212 0,-1.778 1.391,-3.213 3.105,-3.213 1.735,0.001 3.127,1.436 3.127,3.213 z M 37.653,98.627 c 0,1.777 -1.392,3.213 -3.106,3.213 -1.735,0 -3.126,-1.436 -3.126,-3.213 0,-1.777 1.392,-3.212 3.126,-3.212 1.714,0 3.106,1.435 3.106,3.212 z"
       id="path130"
       inkscape:connector-curvature="0"
       style="clip-rule:evenodd;fill-rule:evenodd" />
    <path
       d="m 69.735,98.627 c 0,1.777 -1.392,3.213 -3.105,3.213 -1.735,0 -3.127,-1.436 -3.127,-3.213 0,-1.777 1.392,-3.212 3.127,-3.212 1.713,0 3.105,1.435 3.105,3.212 z m 13.75,0 c 0,1.777 -1.392,3.213 -3.105,3.213 -1.734,0 -3.127,-1.436 -3.127,-3.213 0,-1.777 1.393,-3.212 3.127,-3.212 1.713,0 3.105,1.435 3.105,3.212 z m 50.415,0 c 0,1.777 -1.393,3.213 -3.127,3.213 -1.713,0 -3.105,-1.436 -3.105,-3.213 0,-1.777 1.393,-3.212 3.105,-3.212 1.735,0 3.127,1.435 3.127,3.212 z m -9.166,0 c 0,1.777 -1.393,3.213 -3.127,3.213 -1.713,0 -3.105,-1.436 -3.105,-3.213 0,-1.777 1.393,-3.212 3.105,-3.212 1.735,0 3.127,1.435 3.127,3.212 z m -18.332,0 c 0,1.777 -1.393,3.213 -3.127,3.213 -1.715,0 -3.107,-1.436 -3.107,-3.213 0,-1.777 1.393,-3.212 3.107,-3.212 1.735,0 3.127,1.435 3.127,3.212 z m 45.832,0 c 0,1.777 -1.393,3.213 -3.127,3.213 -1.715,0 -3.105,-1.436 -3.105,-3.213 0,-1.777 1.391,-3.212 3.105,-3.212 1.735,0 3.127,1.435 3.127,3.212 z m 9.166,0 c 0,1.777 -1.393,3.213 -3.105,3.213 -1.734,0 -3.127,-1.436 -3.127,-3.213 0,-1.777 1.393,-3.212 3.127,-3.212 1.713,0 3.105,1.435 3.105,3.212 z m -105.415,4.498 c 0,1.777 -1.392,3.211 -3.105,3.211 -1.735,0 -3.127,-1.434 -3.127,-3.211 0,-1.756 1.392,-3.213 3.127,-3.213 1.713,0 3.105,1.457 3.105,3.213 z"
       id="path132"
       inkscape:connector-curvature="0"
       style="clip-rule:evenodd;fill-rule:evenodd" />
    <path
       d="m 60.569,103.125 c 0,1.777 -1.392,3.211 -3.105,3.211 -1.735,0 -3.127,-1.434 -3.127,-3.211 0,-1.756 1.392,-3.213 3.127,-3.213 1.713,0 3.105,1.457 3.105,3.213 z m -32.083,0 c 0,1.777 -1.392,3.211 -3.105,3.211 -1.734,0 -3.127,-1.434 -3.127,-3.211 0,-1.756 1.393,-3.213 3.127,-3.213 1.713,0 3.105,1.457 3.105,3.213 z"
       id="path134"
       inkscape:connector-curvature="0"
       style="clip-rule:evenodd;fill-rule:evenodd" />
    <path
       d="m 23.903,103.125 c 0,1.777 -1.392,3.211 -3.105,3.211 -1.735,0 -3.127,-1.434 -3.127,-3.211 0,-1.756 1.392,-3.213 3.127,-3.213 1.713,0 3.105,1.457 3.105,3.213 z m 13.75,0 c 0,1.777 -1.392,3.211 -3.106,3.211 -1.735,0 -3.126,-1.434 -3.126,-3.211 0,-1.756 1.392,-3.213 3.126,-3.213 1.714,0 3.106,1.457 3.106,3.213 z"
       id="path136"
       inkscape:connector-curvature="0"
       style="clip-rule:evenodd;fill-rule:evenodd" />
    <path
       d="m 33.069,103.125 c 0,1.777 -1.392,3.211 -3.105,3.211 -1.735,0 -3.127,-1.434 -3.127,-3.211 0,-1.756 1.392,-3.213 3.127,-3.213 1.713,0 3.105,1.457 3.105,3.213 z m 36.666,0 c 0,1.777 -1.392,3.211 -3.105,3.211 -1.735,0 -3.127,-1.434 -3.127,-3.211 0,-1.756 1.392,-3.213 3.127,-3.213 1.713,0 3.105,1.457 3.105,3.213 z m 13.75,0 c 0,1.777 -1.392,3.211 -3.105,3.211 -1.734,0 -3.127,-1.434 -3.127,-3.211 0,-1.756 1.393,-3.213 3.127,-3.213 1.713,0 3.105,1.457 3.105,3.213 z m 50.415,0 c 0,1.777 -1.393,3.211 -3.127,3.211 -1.713,0 -3.105,-1.434 -3.105,-3.211 0,-1.756 1.393,-3.213 3.105,-3.213 1.735,0 3.127,1.457 3.127,3.213 z m -9.166,0 c 0,1.777 -1.393,3.211 -3.127,3.211 -1.713,0 -3.105,-1.434 -3.105,-3.211 0,-1.756 1.393,-3.213 3.105,-3.213 1.735,0 3.127,1.457 3.127,3.213 z m -18.332,0 c 0,1.777 -1.393,3.211 -3.127,3.211 -1.715,0 -3.107,-1.434 -3.107,-3.211 0,-1.756 1.393,-3.213 3.107,-3.213 1.735,0 3.127,1.457 3.127,3.213 z m 45.832,0 c 0,1.777 -1.393,3.211 -3.127,3.211 -1.715,0 -3.105,-1.434 -3.105,-3.211 0,-1.756 1.391,-3.213 3.105,-3.213 1.735,0 3.127,1.457 3.127,3.213 z m 9.166,0 c 0,1.777 -1.393,3.211 -3.105,3.211 -1.734,0 -3.127,-1.434 -3.127,-3.211 0,-1.756 1.393,-3.213 3.127,-3.213 1.713,0 3.105,1.457 3.105,3.213 z"
       id="path138"
       inkscape:connector-curvature="0"
       style="clip-rule:evenodd;fill-rule:evenodd" />
    <path
       d="m 65.152,107.643 c 0,1.758 -1.392,3.213 -3.105,3.213 -1.734,0 -3.127,-1.455 -3.127,-3.213 0,-1.777 1.393,-3.211 3.127,-3.211 1.713,0 3.105,1.433 3.105,3.211 z m -41.249,0 c 0,1.758 -1.392,3.213 -3.105,3.213 -1.735,0 -3.127,-1.455 -3.127,-3.213 0,-1.777 1.392,-3.211 3.127,-3.211 1.713,0 3.105,1.433 3.105,3.211 z m 68.749,0 c 0,1.758 -1.393,3.213 -3.106,3.213 -1.735,0 -3.127,-1.455 -3.127,-3.213 0,-1.777 1.392,-3.211 3.127,-3.211 1.713,0 3.106,1.433 3.106,3.211 z m 54.998,0 c 0,1.758 -1.393,3.213 -3.105,3.213 -1.734,0 -3.127,-1.455 -3.127,-3.213 0,-1.777 1.393,-3.211 3.127,-3.211 1.713,0 3.105,1.433 3.105,3.211 z m -22.916,0 c 0,1.758 -1.393,3.213 -3.127,3.213 -1.713,0 -3.105,-1.455 -3.105,-3.213 0,-1.777 1.393,-3.211 3.105,-3.211 1.735,0 3.127,1.433 3.127,3.211 z m -18.332,0 c 0,1.758 -1.393,3.213 -3.127,3.213 -1.715,0 -3.107,-1.455 -3.107,-3.213 0,-1.777 1.393,-3.211 3.107,-3.211 1.735,0 3.127,1.433 3.127,3.211 z m 54.998,0 c 0,1.758 -1.393,3.213 -3.105,3.213 -1.734,0 -3.127,-1.455 -3.127,-3.213 0,-1.777 1.393,-3.211 3.127,-3.211 1.713,0 3.105,1.433 3.105,3.211 z m -105.415,4.498 c 0,1.777 -1.392,3.213 -3.105,3.213 -1.735,0 -3.127,-1.436 -3.127,-3.213 0,-1.777 1.392,-3.213 3.127,-3.213 1.713,0 3.105,1.435 3.105,3.213 z"
       id="path140"
       inkscape:connector-curvature="0"
       style="clip-rule:evenodd;fill-rule:evenodd" />
    <path
       d="m 60.569,112.141 c 0,1.777 -1.392,3.213 -3.105,3.213 -1.735,0 -3.127,-1.436 -3.127,-3.213 0,-1.777 1.392,-3.213 3.127,-3.213 1.713,0 3.105,1.435 3.105,3.213 z m -36.666,0 c 0,1.777 -1.392,3.213 -3.105,3.213 -1.735,0 -3.127,-1.436 -3.127,-3.213 0,-1.777 1.392,-3.213 3.127,-3.213 1.713,0 3.105,1.435 3.105,3.213 z m 59.582,0 c 0,1.777 -1.392,3.213 -3.105,3.213 -1.734,0 -3.127,-1.436 -3.127,-3.213 0,-1.777 1.393,-3.213 3.127,-3.213 1.713,0 3.105,1.435 3.105,3.213 z"
       id="path142"
       inkscape:connector-curvature="0"
       style="clip-rule:evenodd;fill-rule:evenodd" />
    <path
       d="m 88.068,112.141 c 0,1.777 -1.392,3.213 -3.106,3.213 -1.734,0 -3.126,-1.436 -3.126,-3.213 0,-1.777 1.392,-3.213 3.126,-3.213 1.714,0 3.106,1.435 3.106,3.213 z m 50.416,0 c 0,1.777 -1.393,3.213 -3.105,3.213 -1.734,0 -3.127,-1.436 -3.127,-3.213 0,-1.777 1.393,-3.213 3.127,-3.213 1.713,0 3.105,1.435 3.105,3.213 z"
       id="path144"
       inkscape:connector-curvature="0"
       style="clip-rule:evenodd;fill-rule:evenodd" />
    <path
       d="m 143.066,112.141 c 0,1.777 -1.391,3.213 -3.127,3.213 -1.713,0 -3.105,-1.436 -3.105,-3.213 0,-1.777 1.393,-3.213 3.105,-3.213 1.737,0 3.127,1.435 3.127,3.213 z m 18.334,0 c 0,1.777 -1.393,3.213 -3.105,3.213 -1.734,0 -3.127,-1.436 -3.127,-3.213 0,-1.777 1.393,-3.213 3.127,-3.213 1.713,0 3.105,1.435 3.105,3.213 z M 83.485,85.134 c 0,1.756 -1.392,3.213 -3.105,3.213 -1.734,0 -3.127,-1.457 -3.127,-3.213 0,-1.777 1.393,-3.212 3.127,-3.212 1.713,-10e-4 3.105,1.434 3.105,3.212 z m 22.917,0 c 0,1.756 -1.393,3.213 -3.127,3.213 -1.715,0 -3.107,-1.457 -3.107,-3.213 0,-1.777 1.393,-3.212 3.107,-3.212 1.735,-10e-4 3.127,1.434 3.127,3.212 z m 73.309,8.995 c 0,1.777 -1.391,3.212 -3.105,3.212 -1.734,0 -3.127,-1.435 -3.127,-3.212 0,-1.778 1.393,-3.213 3.127,-3.213 1.714,0.001 3.105,1.436 3.105,3.213 z"
       id="path146"
       inkscape:connector-curvature="0"
       style="clip-rule:evenodd;fill-rule:evenodd" />
    <path
       d="m 179.711,98.627 c 0,1.777 -1.391,3.213 -3.105,3.213 -1.734,0 -3.127,-1.436 -3.127,-3.213 0,-1.777 1.393,-3.212 3.127,-3.212 1.714,0 3.105,1.435 3.105,3.212 z"
       id="path148"
       inkscape:connector-curvature="0"
       style="clip-rule:evenodd;fill-rule:evenodd" />
    <path
       d="m 179.711,103.125 c 0,1.777 -1.391,3.211 -3.105,3.211 -1.734,0 -3.127,-1.434 -3.127,-3.211 0,-1.756 1.393,-3.213 3.127,-3.213 1.714,0 3.105,1.457 3.105,3.213 z"
       id="path150"
       inkscape:connector-curvature="0"
       style="clip-rule:evenodd;fill-rule:evenodd" />
    <path
       d="m 179.711,107.643 c 0,1.758 -1.391,3.213 -3.105,3.213 -1.734,0 -3.127,-1.455 -3.127,-3.213 0,-1.777 1.393,-3.211 3.127,-3.211 1.714,0 3.105,1.433 3.105,3.211 z"
       id="path152"
       inkscape:connector-curvature="0"
       style="clip-rule:evenodd;fill-rule:evenodd" />
    <path
       d="m 179.711,112.141 c 0,1.777 -1.391,3.213 -3.105,3.213 -1.734,0 -3.127,-1.436 -3.127,-3.213 0,-1.777 1.393,-3.213 3.127,-3.213 1.714,0 3.105,1.435 3.105,3.213 z m -32.061,0 c 0,1.777 -1.393,3.213 -3.105,3.213 -1.734,0 -3.127,-1.436 -3.127,-3.213 0,-1.777 1.393,-3.213 3.127,-3.213 1.713,0 3.105,1.435 3.105,3.213 z"
       id="path154"
       inkscape:connector-curvature="0"
       style="clip-rule:evenodd;fill-rule:evenodd" />
    <path
       d="m 152.234,107.643 c 0,1.758 -1.393,3.213 -3.127,3.213 -1.715,0 -3.105,-1.455 -3.105,-3.213 0,-1.777 1.391,-3.211 3.105,-3.211 1.735,0 3.127,1.433 3.127,3.211 z m -13.75,-13.514 c 0,1.777 -1.393,3.212 -3.105,3.212 -1.734,0 -3.127,-1.435 -3.127,-3.212 0,-1.778 1.393,-3.213 3.127,-3.213 1.713,0.001 3.105,1.436 3.105,3.213 z"
       id="path156"
       inkscape:connector-curvature="0"
       style="clip-rule:evenodd;fill-rule:evenodd" />
    <path
       d="m 143.066,94.129 c 0,1.777 -1.391,3.212 -3.127,3.212 -1.713,0 -3.105,-1.435 -3.105,-3.212 0,-1.778 1.393,-3.213 3.105,-3.213 1.737,0.001 3.127,1.436 3.127,3.213 z m 27.5,0 c 0,1.777 -1.393,3.212 -3.127,3.212 -1.713,0 -3.105,-1.435 -3.105,-3.212 0,-1.778 1.393,-3.213 3.105,-3.213 1.735,0.001 3.127,1.436 3.127,3.213 z"
       id="path158"
       inkscape:connector-curvature="0"
       style="clip-rule:evenodd;fill-rule:evenodd" />
    <path
       d="m 165.984,98.627 c 0,1.777 -1.393,3.213 -3.105,3.213 -1.736,0 -3.127,-1.436 -3.127,-3.213 0,-1.777 1.391,-3.212 3.127,-3.212 1.713,0 3.105,1.435 3.105,3.212 z"
       id="path160"
       inkscape:connector-curvature="0"
       style="clip-rule:evenodd;fill-rule:evenodd" />
    <path
       d="m 28.486,89.631 c 0,1.778 -1.392,3.213 -3.105,3.213 -1.734,0 -3.127,-1.435 -3.127,-3.213 0,-1.777 1.393,-3.212 3.127,-3.212 1.713,0 3.105,1.435 3.105,3.212 z"
       id="path162"
       inkscape:connector-curvature="0"
       style="clip-rule:evenodd;fill:#ffffff;fill-rule:evenodd" />
    <path
       d="m 23.903,89.631 c 0,1.778 -1.392,3.213 -3.105,3.213 -1.735,0 -3.127,-1.435 -3.127,-3.213 0,-1.777 1.392,-3.212 3.127,-3.212 1.713,0 3.105,1.435 3.105,3.212 z m 9.166,0 c 0,1.778 -1.392,3.213 -3.105,3.213 -1.735,0 -3.127,-1.435 -3.127,-3.213 0,-1.777 1.392,-3.212 3.127,-3.212 1.713,0 3.105,1.435 3.105,3.212 z"
       id="path164"
       inkscape:connector-curvature="0"
       style="clip-rule:evenodd;fill:#ffffff;fill-rule:evenodd" />
    <path
       d="m 19.32,89.631 c 0,1.778 -1.393,3.213 -3.105,3.213 -1.735,0 -3.127,-1.435 -3.127,-3.213 0,-1.777 1.392,-3.212 3.127,-3.212 1.712,0 3.105,1.435 3.105,3.212 z m 18.333,4.498 c 0,1.777 -1.392,3.212 -3.106,3.212 -1.735,0 -3.126,-1.435 -3.126,-3.212 0,-1.778 1.392,-3.213 3.126,-3.213 1.714,0.001 3.106,1.436 3.106,3.213 z"
       id="path166"
       inkscape:connector-curvature="0"
       style="clip-rule:evenodd;fill:#ffffff;fill-rule:evenodd" />
    <path
       d="m 19.32,94.129 c 0,1.777 -1.393,3.212 -3.105,3.212 -1.735,0 -3.127,-1.435 -3.127,-3.212 0,-1.778 1.392,-3.213 3.127,-3.213 1.712,0.001 3.105,1.436 3.105,3.213 z m 9.166,4.498 c 0,1.777 -1.392,3.213 -3.105,3.213 -1.734,0 -3.127,-1.436 -3.127,-3.213 0,-1.777 1.393,-3.212 3.127,-3.212 1.713,0 3.105,1.435 3.105,3.212 z"
       id="path168"
       inkscape:connector-curvature="0"
       style="clip-rule:evenodd;fill:#ffffff;fill-rule:evenodd" />
    <path
       d="m 23.903,98.627 c 0,1.777 -1.392,3.213 -3.105,3.213 -1.735,0 -3.127,-1.436 -3.127,-3.213 0,-1.777 1.392,-3.212 3.127,-3.212 1.713,0 3.105,1.435 3.105,3.212 z m 9.166,0 c 0,1.777 -1.392,3.213 -3.105,3.213 -1.735,0 -3.127,-1.436 -3.127,-3.213 0,-1.777 1.392,-3.212 3.127,-3.212 1.713,0 3.105,1.435 3.105,3.212 z"
       id="path170"
       inkscape:connector-curvature="0"
       style="clip-rule:evenodd;fill:#ffffff;fill-rule:evenodd" />
    <path
       d="m 19.32,98.627 c 0,1.777 -1.393,3.213 -3.105,3.213 -1.735,0 -3.127,-1.436 -3.127,-3.213 0,-1.777 1.392,-3.212 3.127,-3.212 1.712,0 3.105,1.435 3.105,3.212 z"
       id="path172"
       inkscape:connector-curvature="0"
       style="clip-rule:evenodd;fill:#ffffff;fill-rule:evenodd" />
    <path
       d="m 19.32,103.125 c 0,1.777 -1.393,3.211 -3.105,3.211 -1.735,0 -3.127,-1.434 -3.127,-3.211 0,-1.756 1.392,-3.213 3.127,-3.213 1.712,0 3.105,1.457 3.105,3.213 z"
       id="path174"
       inkscape:connector-curvature="0"
       style="clip-rule:evenodd;fill:#ffffff;fill-rule:evenodd" />
    <path
       d="m 19.32,107.643 c 0,1.758 -1.393,3.213 -3.105,3.213 -1.735,0 -3.127,-1.455 -3.127,-3.213 0,-1.777 1.392,-3.211 3.127,-3.211 1.712,0 3.105,1.433 3.105,3.211 z M 65.152,89.631 c 0,1.778 -1.392,3.213 -3.105,3.213 -1.734,0 -3.127,-1.435 -3.127,-3.213 0,-1.777 1.393,-3.212 3.127,-3.212 1.713,0 3.105,1.435 3.105,3.212 z m -18.333,0 c 0,1.778 -1.392,3.213 -3.105,3.213 -1.735,0 -3.127,-1.435 -3.127,-3.213 0,-1.777 1.392,-3.212 3.127,-3.212 1.713,0 3.105,1.435 3.105,3.212 z"
       id="path176"
       inkscape:connector-curvature="0"
       style="clip-rule:evenodd;fill:#ffffff;fill-rule:evenodd" />
    <path
       d="m 65.152,94.129 c 0,1.777 -1.392,3.212 -3.105,3.212 -1.734,0 -3.127,-1.435 -3.127,-3.212 0,-1.778 1.393,-3.213 3.127,-3.213 1.713,0.001 3.105,1.436 3.105,3.213 z m -18.333,0 c 0,1.777 -1.392,3.212 -3.105,3.212 -1.735,0 -3.127,-1.435 -3.127,-3.212 0,-1.778 1.392,-3.213 3.127,-3.213 1.713,0.001 3.105,1.436 3.105,3.213 z m 9.166,4.498 c 0,1.777 -1.392,3.213 -3.105,3.213 -1.735,0 -3.127,-1.436 -3.127,-3.213 0,-1.777 1.392,-3.212 3.127,-3.212 1.713,0 3.105,1.435 3.105,3.212 z"
       id="path178"
       inkscape:connector-curvature="0"
       style="clip-rule:evenodd;fill:#ffffff;fill-rule:evenodd" />
    <path
       d="m 51.402,98.627 c 0,1.777 -1.392,3.213 -3.105,3.213 -1.735,0 -3.127,-1.436 -3.127,-3.213 0,-1.777 1.392,-3.212 3.127,-3.212 1.713,0 3.105,1.435 3.105,3.212 z m 13.75,0 c 0,1.777 -1.392,3.213 -3.105,3.213 -1.734,0 -3.127,-1.436 -3.127,-3.213 0,-1.777 1.393,-3.212 3.127,-3.212 1.713,0 3.105,1.435 3.105,3.212 z"
       id="path180"
       inkscape:connector-curvature="0"
       style="clip-rule:evenodd;fill:#ffffff;fill-rule:evenodd" />
    <path
       d="m 60.569,98.627 c 0,1.777 -1.392,3.213 -3.105,3.213 -1.735,0 -3.127,-1.436 -3.127,-3.213 0,-1.777 1.392,-3.212 3.127,-3.212 1.713,0 3.105,1.435 3.105,3.212 z"
       id="path182"
       inkscape:connector-curvature="0"
       style="clip-rule:evenodd;fill:#ffffff;fill-rule:evenodd" />
    <path
       d="m 65.152,103.125 c 0,1.777 -1.392,3.211 -3.105,3.211 -1.734,0 -3.127,-1.434 -3.127,-3.211 0,-1.756 1.393,-3.213 3.127,-3.213 1.713,0 3.105,1.457 3.105,3.213 z m -9.167,4.518 c 0,1.758 -1.392,3.213 -3.105,3.213 -1.735,0 -3.127,-1.455 -3.127,-3.213 0,-1.777 1.392,-3.211 3.127,-3.211 1.713,0 3.105,1.433 3.105,3.211 z"
       id="path184"
       inkscape:connector-curvature="0"
       style="clip-rule:evenodd;fill:#ffffff;fill-rule:evenodd" />
    <path
       d="m 51.402,107.643 c 0,1.758 -1.392,3.213 -3.105,3.213 -1.735,0 -3.127,-1.455 -3.127,-3.213 0,-1.777 1.392,-3.211 3.127,-3.211 1.713,0 3.105,1.433 3.105,3.211 z m 9.167,0 c 0,1.758 -1.392,3.213 -3.105,3.213 -1.735,0 -3.127,-1.455 -3.127,-3.213 0,-1.777 1.392,-3.211 3.127,-3.211 1.713,0 3.105,1.433 3.105,3.211 z m 13.75,-18.012 c 0,1.778 -1.393,3.213 -3.105,3.213 -1.735,0 -3.127,-1.435 -3.127,-3.213 0,-1.777 1.392,-3.212 3.127,-3.212 1.712,0 3.105,1.435 3.105,3.212 z m 9.166,0 c 0,1.778 -1.392,3.213 -3.105,3.213 -1.734,0 -3.127,-1.435 -3.127,-3.213 0,-1.777 1.393,-3.212 3.127,-3.212 1.713,0 3.105,1.435 3.105,3.212 z"
       id="path186"
       inkscape:connector-curvature="0"
       style="clip-rule:evenodd;fill:#ffffff;fill-rule:evenodd" />
    <path
       d="m 78.902,89.631 c 0,1.778 -1.392,3.213 -3.105,3.213 -1.735,0 -3.127,-1.435 -3.127,-3.213 0,-1.777 1.392,-3.212 3.127,-3.212 1.713,0 3.105,1.435 3.105,3.212 z"
       id="path188"
       inkscape:connector-curvature="0"
       style="clip-rule:evenodd;fill:#ffffff;fill-rule:evenodd" />
    <path
       d="m 78.902,94.129 c 0,1.777 -1.392,3.212 -3.105,3.212 -1.735,0 -3.127,-1.435 -3.127,-3.212 0,-1.778 1.392,-3.213 3.127,-3.213 1.713,0.001 3.105,1.436 3.105,3.213 z"
       id="path190"
       inkscape:connector-curvature="0"
       style="clip-rule:evenodd;fill:#ffffff;fill-rule:evenodd" />
    <path
       d="m 78.902,98.627 c 0,1.777 -1.392,3.213 -3.105,3.213 -1.735,0 -3.127,-1.436 -3.127,-3.213 0,-1.777 1.392,-3.212 3.127,-3.212 1.713,0 3.105,1.435 3.105,3.212 z"
       id="path192"
       inkscape:connector-curvature="0"
       style="clip-rule:evenodd;fill:#ffffff;fill-rule:evenodd" />
    <path
       d="m 78.902,103.125 c 0,1.777 -1.392,3.211 -3.105,3.211 -1.735,0 -3.127,-1.434 -3.127,-3.211 0,-1.756 1.392,-3.213 3.127,-3.213 1.713,0 3.105,1.457 3.105,3.213 z m 13.75,0 c 0,1.777 -1.393,3.211 -3.106,3.211 -1.735,0 -3.127,-1.434 -3.127,-3.211 0,-1.756 1.392,-3.213 3.127,-3.213 1.713,0 3.106,1.457 3.106,3.213 z"
       id="path194"
       inkscape:connector-curvature="0"
       style="clip-rule:evenodd;fill:#ffffff;fill-rule:evenodd" />
    <path
       d="m 83.485,107.643 c 0,1.758 -1.392,3.213 -3.105,3.213 -1.734,0 -3.127,-1.455 -3.127,-3.213 0,-1.777 1.393,-3.211 3.127,-3.211 1.713,0 3.105,1.433 3.105,3.211 z"
       id="path196"
       inkscape:connector-curvature="0"
       style="clip-rule:evenodd;fill:#ffffff;fill-rule:evenodd" />
    <path
       d="m 88.068,107.643 c 0,1.758 -1.392,3.213 -3.106,3.213 -1.734,0 -3.126,-1.455 -3.126,-3.213 0,-1.777 1.392,-3.211 3.126,-3.211 1.714,0 3.106,1.433 3.106,3.211 z M 78.902,85.134 c 0,1.756 -1.392,3.213 -3.105,3.213 -1.735,0 -3.127,-1.457 -3.127,-3.213 0,-1.777 1.392,-3.212 3.127,-3.212 1.713,-10e-4 3.105,1.434 3.105,3.212 z"
       id="path198"
       inkscape:connector-curvature="0"
       style="clip-rule:evenodd;fill:#ffffff;fill-rule:evenodd" />
    <path
       d="m 78.902,80.615 c 0,1.778 -1.392,3.212 -3.105,3.212 -1.735,0 -3.127,-1.435 -3.127,-3.212 0,-1.756 1.392,-3.213 3.127,-3.213 1.713,0 3.105,1.457 3.105,3.213 z m 32.082,9.016 c 0,1.778 -1.393,3.213 -3.127,3.213 -1.713,0 -3.105,-1.435 -3.105,-3.213 0,-1.777 1.393,-3.212 3.105,-3.212 1.735,0 3.127,1.435 3.127,3.212 z"
       id="path200"
       inkscape:connector-curvature="0"
       style="clip-rule:evenodd;fill:#ffffff;fill-rule:evenodd" />
    <path
       d="m 115.568,89.631 c 0,1.778 -1.393,3.213 -3.127,3.213 -1.713,0 -3.105,-1.435 -3.105,-3.213 0,-1.777 1.393,-3.212 3.105,-3.212 1.735,0 3.127,1.435 3.127,3.212 z m -13.75,0 c 0,1.778 -1.393,3.213 -3.127,3.213 -1.713,0 -3.106,-1.435 -3.106,-3.213 0,-1.777 1.393,-3.212 3.106,-3.212 1.735,0 3.127,1.435 3.127,3.212 z"
       id="path202"
       inkscape:connector-curvature="0"
       style="clip-rule:evenodd;fill:#ffffff;fill-rule:evenodd" />
    <path
       d="m 106.402,94.129 c 0,1.777 -1.393,3.212 -3.127,3.212 -1.715,0 -3.107,-1.435 -3.107,-3.212 0,-1.778 1.393,-3.213 3.107,-3.213 1.735,0.001 3.127,1.436 3.127,3.213 z m 13.748,0 c 0,1.777 -1.393,3.212 -3.127,3.212 -1.713,0 -3.105,-1.435 -3.105,-3.212 0,-1.778 1.393,-3.213 3.105,-3.213 1.735,0.001 3.127,1.436 3.127,3.213 z"
       id="path204"
       inkscape:connector-curvature="0"
       style="clip-rule:evenodd;fill:#ffffff;fill-rule:evenodd" />
    <path
       d="m 101.818,94.129 c 0,1.777 -1.393,3.212 -3.127,3.212 -1.713,0 -3.106,-1.435 -3.106,-3.212 0,-1.778 1.393,-3.213 3.106,-3.213 1.735,0.001 3.127,1.436 3.127,3.213 z m 18.332,4.498 c 0,1.777 -1.393,3.213 -3.127,3.213 -1.713,0 -3.105,-1.436 -3.105,-3.213 0,-1.777 1.393,-3.212 3.105,-3.212 1.735,0 3.127,1.435 3.127,3.212 z"
       id="path206"
       inkscape:connector-curvature="0"
       style="clip-rule:evenodd;fill:#ffffff;fill-rule:evenodd" />
    <path
       d="m 101.818,98.627 c 0,1.777 -1.393,3.213 -3.127,3.213 -1.713,0 -3.106,-1.436 -3.106,-3.213 0,-1.777 1.393,-3.212 3.106,-3.212 1.735,0 3.127,1.435 3.127,3.212 z m 18.332,4.498 c 0,1.777 -1.393,3.211 -3.127,3.211 -1.713,0 -3.105,-1.434 -3.105,-3.211 0,-1.756 1.393,-3.213 3.105,-3.213 1.735,0 3.127,1.457 3.127,3.213 z"
       id="path208"
       inkscape:connector-curvature="0"
       style="clip-rule:evenodd;fill:#ffffff;fill-rule:evenodd" />
    <path
       d="m 101.818,103.125 c 0,1.777 -1.393,3.211 -3.127,3.211 -1.713,0 -3.106,-1.434 -3.106,-3.211 0,-1.756 1.393,-3.213 3.106,-3.213 1.735,0 3.127,1.457 3.127,3.213 z m 18.332,4.518 c 0,1.758 -1.393,3.213 -3.127,3.213 -1.713,0 -3.105,-1.455 -3.105,-3.213 0,-1.777 1.393,-3.211 3.105,-3.211 1.735,0 3.127,1.433 3.127,3.211 z"
       id="path210"
       inkscape:connector-curvature="0"
       style="clip-rule:evenodd;fill:#ffffff;fill-rule:evenodd" />
    <path
       d="m 101.818,107.643 c 0,1.758 -1.393,3.213 -3.127,3.213 -1.713,0 -3.106,-1.455 -3.106,-3.213 0,-1.777 1.393,-3.211 3.106,-3.211 1.735,0 3.127,1.433 3.127,3.211 z m 0,-22.509 c 0,1.756 -1.393,3.213 -3.127,3.213 -1.713,0 -3.106,-1.457 -3.106,-3.213 0,-1.777 1.393,-3.212 3.106,-3.212 1.735,-10e-4 3.127,1.434 3.127,3.212 z"
       id="path212"
       inkscape:connector-curvature="0"
       style="clip-rule:evenodd;fill:#ffffff;fill-rule:evenodd" />
    <path
       d="m 101.818,80.615 c 0,1.778 -1.393,3.212 -3.127,3.212 -1.713,0 -3.106,-1.435 -3.106,-3.212 0,-1.756 1.393,-3.213 3.106,-3.213 1.735,0 3.127,1.457 3.127,3.213 z m 36.666,9.016 c 0,1.778 -1.393,3.213 -3.105,3.213 -1.734,0 -3.127,-1.435 -3.127,-3.213 0,-1.777 1.393,-3.212 3.127,-3.212 1.713,0 3.105,1.435 3.105,3.212 z"
       id="path214"
       inkscape:connector-curvature="0"
       style="clip-rule:evenodd;fill:#ffffff;fill-rule:evenodd" />
    <path
       d="m 133.9,89.631 c 0,1.778 -1.393,3.213 -3.127,3.213 -1.713,0 -3.105,-1.435 -3.105,-3.213 0,-1.777 1.393,-3.212 3.105,-3.212 1.735,0 3.127,1.435 3.127,3.212 z m 9.166,0 c 0,1.778 -1.391,3.213 -3.127,3.213 -1.713,0 -3.105,-1.435 -3.105,-3.213 0,-1.777 1.393,-3.212 3.105,-3.212 1.737,0 3.127,1.435 3.127,3.212 z"
       id="path216"
       inkscape:connector-curvature="0"
       style="clip-rule:evenodd;fill:#ffffff;fill-rule:evenodd" />
    <path
       d="m 147.65,94.129 c 0,1.777 -1.393,3.212 -3.105,3.212 -1.734,0 -3.127,-1.435 -3.127,-3.212 0,-1.778 1.393,-3.213 3.127,-3.213 1.713,0.001 3.105,1.436 3.105,3.213 z m -18.332,0 c 0,1.777 -1.393,3.212 -3.127,3.212 -1.715,0 -3.105,-1.435 -3.105,-3.212 0,-1.778 1.391,-3.213 3.105,-3.213 1.735,0.001 3.127,1.436 3.127,3.213 z"
       id="path218"
       inkscape:connector-curvature="0"
       style="clip-rule:evenodd;fill:#ffffff;fill-rule:evenodd" />
    <path
       d="m 147.65,98.627 c 0,1.777 -1.393,3.213 -3.105,3.213 -1.734,0 -3.127,-1.436 -3.127,-3.213 0,-1.777 1.393,-3.212 3.127,-3.212 1.713,0 3.105,1.435 3.105,3.212 z m -18.332,0 c 0,1.777 -1.393,3.213 -3.127,3.213 -1.715,0 -3.105,-1.436 -3.105,-3.213 0,-1.777 1.391,-3.212 3.105,-3.212 1.735,0 3.127,1.435 3.127,3.212 z"
       id="path220"
       inkscape:connector-curvature="0"
       style="clip-rule:evenodd;fill:#ffffff;fill-rule:evenodd" />
    <path
       d="m 147.65,103.125 c 0,1.777 -1.393,3.211 -3.105,3.211 -1.734,0 -3.127,-1.434 -3.127,-3.211 0,-1.756 1.393,-3.213 3.127,-3.213 1.713,0 3.105,1.457 3.105,3.213 z m -18.332,0 c 0,1.777 -1.393,3.211 -3.127,3.211 -1.715,0 -3.105,-1.434 -3.105,-3.211 0,-1.756 1.391,-3.213 3.105,-3.213 1.735,0 3.127,1.457 3.127,3.213 z m 9.166,4.518 c 0,1.758 -1.393,3.213 -3.105,3.213 -1.734,0 -3.127,-1.455 -3.127,-3.213 0,-1.777 1.393,-3.211 3.127,-3.211 1.713,0 3.105,1.433 3.105,3.211 z"
       id="path222"
       inkscape:connector-curvature="0"
       style="clip-rule:evenodd;fill:#ffffff;fill-rule:evenodd" />
    <path
       d="m 133.9,107.643 c 0,1.758 -1.393,3.213 -3.127,3.213 -1.713,0 -3.105,-1.455 -3.105,-3.213 0,-1.777 1.393,-3.211 3.105,-3.211 1.735,0 3.127,1.433 3.127,3.211 z m 9.166,0 c 0,1.758 -1.391,3.213 -3.127,3.213 -1.713,0 -3.105,-1.455 -3.105,-3.213 0,-1.777 1.393,-3.211 3.105,-3.211 1.737,0 3.127,1.433 3.127,3.211 z m 13.75,-18.012 c 0,1.778 -1.391,3.213 -3.127,3.213 -1.713,0 -3.105,-1.435 -3.105,-3.213 0,-1.777 1.393,-3.212 3.105,-3.212 1.737,0 3.127,1.435 3.127,3.212 z m 9.168,0 c 0,1.778 -1.393,3.213 -3.105,3.213 -1.736,0 -3.127,-1.435 -3.127,-3.213 0,-1.777 1.391,-3.212 3.127,-3.212 1.713,0 3.105,1.435 3.105,3.212 z"
       id="path224"
       inkscape:connector-curvature="0"
       style="clip-rule:evenodd;fill:#ffffff;fill-rule:evenodd" />
    <path
       d="m 170.566,89.631 c 0,1.778 -1.393,3.213 -3.127,3.213 -1.713,0 -3.105,-1.435 -3.105,-3.213 0,-1.777 1.393,-3.212 3.105,-3.212 1.735,0 3.127,1.435 3.127,3.212 z m -13.75,4.498 c 0,1.777 -1.391,3.212 -3.127,3.212 -1.713,0 -3.105,-1.435 -3.105,-3.212 0,-1.778 1.393,-3.213 3.105,-3.213 1.737,0.001 3.127,1.436 3.127,3.213 z"
       id="path226"
       inkscape:connector-curvature="0"
       style="clip-rule:evenodd;fill:#ffffff;fill-rule:evenodd" />
    <path
       d="m 161.4,94.129 c 0,1.777 -1.393,3.212 -3.105,3.212 -1.734,0 -3.127,-1.435 -3.127,-3.212 0,-1.778 1.393,-3.213 3.127,-3.213 1.713,0.001 3.105,1.436 3.105,3.213 z"
       id="path228"
       inkscape:connector-curvature="0"
       style="clip-rule:evenodd;fill:#ffffff;fill-rule:evenodd" />
    <path
       d="m 156.816,98.627 c 0,1.777 -1.391,3.213 -3.127,3.213 -1.713,0 -3.105,-1.436 -3.105,-3.213 0,-1.777 1.393,-3.212 3.105,-3.212 1.737,0 3.127,1.435 3.127,3.212 z"
       id="path230"
       inkscape:connector-curvature="0"
       style="clip-rule:evenodd;fill:#ffffff;fill-rule:evenodd" />
    <path
       d="m 156.816,103.125 c 0,1.777 -1.391,3.211 -3.127,3.211 -1.713,0 -3.105,-1.434 -3.105,-3.211 0,-1.756 1.393,-3.213 3.105,-3.213 1.737,0 3.127,1.457 3.127,3.213 z"
       id="path232"
       inkscape:connector-curvature="0"
       style="clip-rule:evenodd;fill:#ffffff;fill-rule:evenodd" />
    <path
       d="m 156.816,107.643 c 0,1.758 -1.391,3.213 -3.127,3.213 -1.713,0 -3.105,-1.455 -3.105,-3.213 0,-1.777 1.393,-3.211 3.105,-3.211 1.737,0 3.127,1.433 3.127,3.211 z M 175.15,94.129 c 0,1.777 -1.393,3.212 -3.105,3.212 -1.734,0 -3.127,-1.435 -3.127,-3.212 0,-1.778 1.393,-3.213 3.127,-3.213 1.713,0.001 3.105,1.436 3.105,3.213 z"
       id="path234"
       inkscape:connector-curvature="0"
       style="clip-rule:evenodd;fill:#ffffff;fill-rule:evenodd" />
    <path
       d="m 175.15,98.627 c 0,1.777 -1.393,3.213 -3.105,3.213 -1.734,0 -3.127,-1.436 -3.127,-3.213 0,-1.777 1.393,-3.212 3.127,-3.212 1.713,0 3.105,1.435 3.105,3.212 z"
       id="path236"
       inkscape:connector-curvature="0"
       style="clip-rule:evenodd;fill:#ffffff;fill-rule:evenodd" />
    <path
       d="m 175.15,103.125 c 0,1.777 -1.393,3.211 -3.105,3.211 -1.734,0 -3.127,-1.434 -3.127,-3.211 0,-1.756 1.393,-3.213 3.127,-3.213 1.713,0 3.105,1.457 3.105,3.213 z"
       id="path238"
       inkscape:connector-curvature="0"
       style="clip-rule:evenodd;fill:#ffffff;fill-rule:evenodd" />
    <path
       d="m 175.15,107.643 c 0,1.758 -1.393,3.213 -3.105,3.213 -1.734,0 -3.127,-1.455 -3.127,-3.213 0,-1.777 1.393,-3.211 3.127,-3.211 1.713,0 3.105,1.433 3.105,3.211 z"
       id="path240"
       inkscape:connector-curvature="0"
       style="clip-rule:evenodd;fill:#ffffff;fill-rule:evenodd" />
    <path
       d="m 65.152,112.141 c 0,1.777 -1.392,3.213 -3.105,3.213 -1.734,0 -3.127,-1.436 -3.127,-3.213 0,-1.777 1.393,-3.213 3.127,-3.213 1.713,0 3.105,1.435 3.105,3.213 z"
       id="path242"
       inkscape:connector-curvature="0"
       style="clip-rule:evenodd;fill-rule:evenodd" />
    <path
       d="m 69.735,107.643 c 0,1.758 -1.392,3.213 -3.105,3.213 -1.735,0 -3.127,-1.455 -3.127,-3.213 0,-1.777 1.392,-3.211 3.127,-3.211 1.713,0 3.105,1.433 3.105,3.211 z M 42.236,98.627 c 0,1.777 -1.392,3.213 -3.105,3.213 -1.735,0 -3.127,-1.436 -3.127,-3.213 0,-1.777 1.392,-3.212 3.127,-3.212 1.713,0 3.105,1.435 3.105,3.212 z"
       id="path244"
       inkscape:connector-curvature="0"
       style="clip-rule:evenodd;fill-rule:evenodd" />
  </g>
  <text
     xml:space="preserve"
     style="font-style:normal;font-variant:normal;font-weight:normal;font-stretch:normal;line-height:0%;font-family:'Nimbus Sans L';-inkscape-font-specification:'Nimbus Sans L';letter-spacing:0px;word-spacing:0px;fill:#808080;fill-opacity:1;stroke:none;stroke-width:1px;stroke-linecap:butt;stroke-linejoin:miter;stroke-opacity:1"
     x="167.37222"
     y="157.33113"
     id="text4146"
     transform="rotate(36.074517)"><tspan
       sodipodi:role="line"
       id="tspan4148"
       x="167.37222"
       y="157.33113"
       style="font-size:12.04620552px;line-height:1.25;fill:#808080">orsinium.dev</tspan></text>
</svg>
