<?xml version="1.0" encoding="UTF-8" standalone="no"?>
<svg
   width="3600"
   height="3600"
   viewBox="0 0 277.56863 277.56863"
   id="svg2"
   version="1.1"
   inkscape:version="1.1.2 (0a00cf5339, 2022-02-04)"
   sodipodi:docname="python-old.svg"
   inkscape:export-filename="/home/gram/projects/other/stickers/3sticker/python_old.png"
   inkscape:export-xdpi="63.279999"
   inkscape:export-ydpi="63.279999"
   xmlns:inkscape="http://www.inkscape.org/namespaces/inkscape"
   xmlns:sodipodi="http://sodipodi.sourceforge.net/DTD/sodipodi-0.dtd"
   xmlns="http://www.w3.org/2000/svg"
   xmlns:svg="http://www.w3.org/2000/svg"
   xmlns:rdf="http://www.w3.org/1999/02/22-rdf-syntax-ns#"
   xmlns:cc="http://creativecommons.org/ns#"
   xmlns:dc="http://purl.org/dc/elements/1.1/">
  <metadata
     id="metadata250">
    <rdf:RDF>
      <cc:Work
         rdf:about="">
        <dc:format>image/svg+xml</dc:format>
        <dc:type
           rdf:resource="http://purl.org/dc/dcmitype/StillImage" />
      </cc:Work>
    </rdf:RDF>
  </metadata>
  <defs
     id="defs248" />
  <sodipodi:namedview
     pagecolor="#ffffff"
     bordercolor="#666666"
     borderopacity="1"
     objecttolerance="10"
     gridtolerance="10"
     guidetolerance="10"
     inkscape:pageopacity="0"
     inkscape:pageshadow="2"
     inkscape:window-width="1712"
     inkscape:window-height="860"
     id="namedview246"
     showgrid="false"
     inkscape:snap-bbox="true"
     inkscape:bbox-paths="true"
     inkscape:bbox-nodes="true"
     inkscape:snap-bbox-edge-midpoints="true"
     inkscape:zoom="0.26700352"
     inkscape:cx="308.98469"
     inkscape:cy="2318.3215"
     inkscape:window-x="0"
     inkscape:window-y="30"
     inkscape:window-maximized="1"
     inkscape:current-layer="svg2"
     inkscape:snap-bbox-midpoints="true"
     fit-margin-top="0"
     fit-margin-left="0"
     fit-margin-right="0"
     fit-margin-bottom="0"
     inkscape:snap-global="false"
     inkscape:pagecheckerboard="0">
    <inkscape:grid
       type="xygrid"
       id="grid3578"
       originx="40.093253"
       originy="46.261439" />
  </sodipodi:namedview>
  <circle
     style="fill:#ffffff;fill-opacity:1;stroke:none;stroke-width:1.08003366;stroke-miterlimit:4;stroke-dasharray:none;stroke-opacity:1"
     id="path3580"
     cx="138.78433"
     cy="138.78433"
     r="138.24431"
     inkscape:export-xdpi="63"
     inkscape:export-ydpi="63" />
  <g
     id="g3453"
     transform="matrix(1.4007782,0,0,1.4007782,3.7801227,-4.8608543)">
    <path
       d="m 182.217,116.189 c 0,1.734 -1.369,3.148 -3.062,3.148 -1.691,0 -3.062,-1.414 -3.062,-3.148 0,-1.736 1.371,-3.148 3.062,-3.148 1.693,0 3.062,1.412 3.062,3.148 z M 51.402,103.125 c 0,1.777 -1.392,3.211 -3.105,3.211 -1.735,0 -3.127,-1.434 -3.127,-3.211 0,-1.756 1.392,-3.213 3.127,-3.213 1.713,0 3.105,1.457 3.105,3.213 z m 0,9.016 c 0,1.777 -1.392,3.213 -3.105,3.213 -1.735,0 -3.127,-1.436 -3.127,-3.213 0,-1.777 1.392,-3.213 3.127,-3.213 1.713,0 3.105,1.435 3.105,3.213 z m 82.498,0 c 0,1.777 -1.393,3.213 -3.127,3.213 -1.713,0 -3.105,-1.436 -3.105,-3.213 0,-1.777 1.393,-3.213 3.105,-3.213 1.735,0 3.127,1.435 3.127,3.213 z m -22.916,-9.016 c 0,1.777 -1.393,3.211 -3.127,3.211 -1.713,0 -3.105,-1.434 -3.105,-3.211 0,-1.756 1.393,-3.213 3.105,-3.213 1.735,0 3.127,1.457 3.127,3.213 z"
       id="path8"
       inkscape:connector-curvature="0"
       style="clip-rule:evenodd;fill-rule:evenodd" />
    <path
       d="m 115.568,98.627 c 0,1.777 -1.393,3.213 -3.127,3.213 -1.713,0 -3.105,-1.436 -3.105,-3.213 0,-1.777 1.393,-3.212 3.105,-3.212 1.735,0 3.127,1.435 3.127,3.212 z m 9.166,18.012 c 0,1.777 -1.393,3.213 -3.127,3.213 -1.713,0 -3.105,-1.436 -3.105,-3.213 0,-1.777 1.393,-3.213 3.105,-3.213 1.735,0 3.127,1.435 3.127,3.213 z m -4.584,-4.498 c 0,1.777 -1.393,3.213 -3.127,3.213 -1.713,0 -3.105,-1.436 -3.105,-3.213 0,-1.777 1.393,-3.213 3.105,-3.213 1.735,0 3.127,1.435 3.127,3.213 z m -13.748,4.498 c 0,1.777 -1.393,3.213 -3.127,3.213 -1.715,0 -3.107,-1.436 -3.107,-3.213 0,-1.777 1.393,-3.213 3.107,-3.213 1.735,0 3.127,1.435 3.127,3.213 z m -4.584,-4.498 c 0,1.777 -1.393,3.213 -3.127,3.213 -1.713,0 -3.106,-1.436 -3.106,-3.213 0,-1.777 1.393,-3.213 3.106,-3.213 1.735,0 3.127,1.435 3.127,3.213 z M 83.485,80.615 c 0,1.778 -1.392,3.212 -3.105,3.212 -1.734,0 -3.127,-1.435 -3.127,-3.212 0,-1.756 1.393,-3.213 3.127,-3.213 1.713,0 3.105,1.457 3.105,3.213 z m 22.917,0 c 0,1.778 -1.393,3.212 -3.127,3.212 -1.715,0 -3.107,-1.435 -3.107,-3.212 0,-1.756 1.393,-3.213 3.107,-3.213 1.735,0 3.127,1.457 3.127,3.213 z m -50.417,9.016 c 0,1.778 -1.392,3.213 -3.105,3.213 -1.735,0 -3.127,-1.435 -3.127,-3.213 0,-1.777 1.392,-3.212 3.127,-3.212 1.713,0 3.105,1.435 3.105,3.212 z"
       id="path10"
       inkscape:connector-curvature="0"
       style="clip-rule:evenodd;fill-rule:evenodd" />
    <path
       d="m 60.569,89.631 c 0,1.778 -1.392,3.213 -3.105,3.213 -1.735,0 -3.127,-1.435 -3.127,-3.213 0,-1.777 1.392,-3.212 3.127,-3.212 1.713,0 3.105,1.435 3.105,3.212 z m -18.333,0 c 0,1.778 -1.392,3.213 -3.105,3.213 -1.735,0 -3.127,-1.435 -3.127,-3.213 0,-1.777 1.392,-3.212 3.127,-3.212 1.713,0 3.105,1.435 3.105,3.212 z m -27.5,0 c 0,1.778 -1.392,3.213 -3.127,3.213 -1.713,0 -3.105,-1.435 -3.105,-3.213 0,-1.777 1.392,-3.212 3.105,-3.212 1.735,0 3.127,1.435 3.127,3.212 z m 77.916,0 c 0,1.778 -1.393,3.213 -3.106,3.213 -1.735,0 -3.127,-1.435 -3.127,-3.213 0,-1.777 1.392,-3.212 3.127,-3.212 1.713,0 3.106,1.435 3.106,3.212 z m 36.666,0 c 0,1.778 -1.393,3.213 -3.127,3.213 -1.715,0 -3.105,-1.435 -3.105,-3.213 0,-1.777 1.391,-3.212 3.105,-3.212 1.735,0 3.127,1.435 3.127,3.212 z"
       id="path12"
       inkscape:connector-curvature="0"
       style="clip-rule:evenodd;fill-rule:evenodd" />
    <path
       d="m 124.734,89.631 c 0,1.778 -1.393,3.213 -3.127,3.213 -1.713,0 -3.105,-1.435 -3.105,-3.213 0,-1.777 1.393,-3.212 3.105,-3.212 1.735,0 3.127,1.435 3.127,3.212 z m -27.5,0 c 0,1.778 -1.392,3.213 -3.105,3.213 -1.735,0 -3.127,-1.435 -3.127,-3.213 0,-1.777 1.392,-3.212 3.127,-3.212 1.713,0 3.105,1.435 3.105,3.212 z m 55,0 c 0,1.778 -1.393,3.213 -3.127,3.213 -1.715,0 -3.105,-1.435 -3.105,-3.213 0,-1.777 1.391,-3.212 3.105,-3.212 1.735,0 3.127,1.435 3.127,3.212 z m -96.249,4.498 c 0,1.777 -1.392,3.212 -3.105,3.212 -1.735,0 -3.127,-1.435 -3.127,-3.212 0,-1.778 1.392,-3.213 3.127,-3.213 1.713,0.001 3.105,1.436 3.105,3.213 z"
       id="path14"
       inkscape:connector-curvature="0"
       style="clip-rule:evenodd;fill-rule:evenodd" />
    <path
       d="m 60.569,94.129 c 0,1.777 -1.392,3.212 -3.105,3.212 -1.735,0 -3.127,-1.435 -3.127,-3.212 0,-1.778 1.392,-3.213 3.127,-3.213 1.713,0.001 3.105,1.436 3.105,3.213 z m -45.833,0 c 0,1.777 -1.392,3.212 -3.127,3.212 -1.713,0 -3.105,-1.435 -3.105,-3.212 0,-1.778 1.392,-3.213 3.105,-3.213 1.735,0.001 3.127,1.436 3.127,3.213 z m 59.583,0 c 0,1.777 -1.393,3.212 -3.105,3.212 -1.735,0 -3.127,-1.435 -3.127,-3.212 0,-1.778 1.392,-3.213 3.127,-3.213 1.712,0.001 3.105,1.436 3.105,3.213 z m 13.749,0 c 0,1.777 -1.392,3.212 -3.106,3.212 -1.734,0 -3.126,-1.435 -3.126,-3.212 0,-1.778 1.392,-3.213 3.126,-3.213 1.714,0.001 3.106,1.436 3.106,3.213 z"
       id="path16"
       inkscape:connector-curvature="0"
       style="clip-rule:evenodd;fill-rule:evenodd" />
    <path
       d="m 92.652,94.129 c 0,1.777 -1.393,3.212 -3.106,3.212 -1.735,0 -3.127,-1.435 -3.127,-3.212 0,-1.778 1.392,-3.213 3.127,-3.213 1.713,0.001 3.106,1.436 3.106,3.213 z m 18.332,0 c 0,1.777 -1.393,3.212 -3.127,3.212 -1.713,0 -3.105,-1.435 -3.105,-3.212 0,-1.778 1.393,-3.213 3.105,-3.213 1.735,0.001 3.127,1.436 3.127,3.213 z"
       id="path18"
       inkscape:connector-curvature="0"
       style="clip-rule:evenodd;fill-rule:evenodd" />
    <path
       d="m 115.568,94.129 c 0,1.777 -1.393,3.212 -3.127,3.212 -1.713,0 -3.105,-1.435 -3.105,-3.212 0,-1.778 1.393,-3.213 3.105,-3.213 1.735,0.001 3.127,1.436 3.127,3.213 z m -18.334,0 c 0,1.777 -1.392,3.212 -3.105,3.212 -1.735,0 -3.127,-1.435 -3.127,-3.212 0,-1.778 1.392,-3.213 3.127,-3.213 1.713,0.001 3.105,1.436 3.105,3.213 z m 68.75,0 c 0,1.777 -1.393,3.212 -3.105,3.212 -1.736,0 -3.127,-1.435 -3.127,-3.212 0,-1.778 1.391,-3.213 3.127,-3.213 1.713,0.001 3.105,1.436 3.105,3.213 z M 46.819,98.627 c 0,1.777 -1.392,3.213 -3.105,3.213 -1.735,0 -3.127,-1.436 -3.127,-3.213 0,-1.777 1.392,-3.212 3.127,-3.212 1.713,0 3.105,1.435 3.105,3.212 z m -32.083,0 c 0,1.777 -1.392,3.213 -3.127,3.213 -1.713,0 -3.105,-1.436 -3.105,-3.213 0,-1.777 1.392,-3.212 3.105,-3.212 1.735,0 3.127,1.435 3.127,3.212 z m 59.583,0 c 0,1.777 -1.393,3.213 -3.105,3.213 -1.735,0 -3.127,-1.436 -3.127,-3.213 0,-1.777 1.392,-3.212 3.127,-3.212 1.712,0 3.105,1.435 3.105,3.212 z m 13.749,0 c 0,1.777 -1.392,3.213 -3.106,3.213 -1.734,0 -3.126,-1.436 -3.126,-3.213 0,-1.777 1.392,-3.212 3.126,-3.212 1.714,0 3.106,1.435 3.106,3.212 z"
       id="path20"
       inkscape:connector-curvature="0"
       style="clip-rule:evenodd;fill-rule:evenodd" />
    <path
       d="m 92.652,98.627 c 0,1.777 -1.393,3.213 -3.106,3.213 -1.735,0 -3.127,-1.436 -3.127,-3.213 0,-1.777 1.392,-3.212 3.127,-3.212 1.713,0 3.106,1.435 3.106,3.212 z m 45.832,0 c 0,1.777 -1.393,3.213 -3.105,3.213 -1.734,0 -3.127,-1.436 -3.127,-3.213 0,-1.777 1.393,-3.212 3.127,-3.212 1.713,0 3.105,1.435 3.105,3.212 z"
       id="path22"
       inkscape:connector-curvature="0"
       style="clip-rule:evenodd;fill-rule:evenodd" />
    <path
       d="m 143.066,98.627 c 0,1.777 -1.391,3.213 -3.127,3.213 -1.713,0 -3.105,-1.436 -3.105,-3.213 0,-1.777 1.393,-3.212 3.105,-3.212 1.737,0 3.127,1.435 3.127,3.212 z m -32.082,0 c 0,1.777 -1.393,3.213 -3.127,3.213 -1.713,0 -3.105,-1.436 -3.105,-3.213 0,-1.777 1.393,-3.212 3.105,-3.212 1.735,0 3.127,1.435 3.127,3.212 z m -13.75,0 c 0,1.777 -1.392,3.213 -3.105,3.213 -1.735,0 -3.127,-1.436 -3.127,-3.213 0,-1.777 1.392,-3.212 3.127,-3.212 1.713,0 3.105,1.435 3.105,3.212 z m 73.332,0 c 0,1.777 -1.393,3.213 -3.127,3.213 -1.713,0 -3.105,-1.436 -3.105,-3.213 0,-1.777 1.393,-3.212 3.105,-3.212 1.735,0 3.127,1.435 3.127,3.212 z m -123.747,4.498 c 0,1.777 -1.392,3.211 -3.105,3.211 -1.735,0 -3.127,-1.434 -3.127,-3.211 0,-1.756 1.392,-3.213 3.127,-3.213 1.713,0 3.105,1.457 3.105,3.213 z"
       id="path24"
       inkscape:connector-curvature="0"
       style="clip-rule:evenodd;fill-rule:evenodd" />
    <path
       d="m 42.236,103.125 c 0,1.777 -1.392,3.211 -3.105,3.211 -1.735,0 -3.127,-1.434 -3.127,-3.211 0,-1.756 1.392,-3.213 3.127,-3.213 1.713,0 3.105,1.457 3.105,3.213 z m -27.5,0 c 0,1.777 -1.392,3.211 -3.127,3.211 -1.713,0 -3.105,-1.434 -3.105,-3.211 0,-1.756 1.392,-3.213 3.105,-3.213 1.735,0 3.127,1.457 3.127,3.213 z m 59.583,0 c 0,1.777 -1.393,3.211 -3.105,3.211 -1.735,0 -3.127,-1.434 -3.127,-3.211 0,-1.756 1.392,-3.213 3.127,-3.213 1.712,0 3.105,1.457 3.105,3.213 z m 13.749,0 c 0,1.777 -1.392,3.211 -3.106,3.211 -1.734,0 -3.126,-1.434 -3.126,-3.211 0,-1.756 1.392,-3.213 3.126,-3.213 1.714,0 3.106,1.457 3.106,3.213 z m 50.416,0 c 0,1.777 -1.393,3.211 -3.105,3.211 -1.734,0 -3.127,-1.434 -3.127,-3.211 0,-1.756 1.393,-3.213 3.127,-3.213 1.713,0 3.105,1.457 3.105,3.213 z"
       id="path26"
       inkscape:connector-curvature="0"
       style="clip-rule:evenodd;fill-rule:evenodd" />
    <path
       d="m 143.066,103.125 c 0,1.777 -1.391,3.211 -3.127,3.211 -1.713,0 -3.105,-1.434 -3.105,-3.211 0,-1.756 1.393,-3.213 3.105,-3.213 1.737,0 3.127,1.457 3.127,3.213 z m -27.498,0 c 0,1.777 -1.393,3.211 -3.127,3.211 -1.713,0 -3.105,-1.434 -3.105,-3.211 0,-1.756 1.393,-3.213 3.105,-3.213 1.735,0 3.127,1.457 3.127,3.213 z m -18.334,0 c 0,1.777 -1.392,3.211 -3.105,3.211 -1.735,0 -3.127,-1.434 -3.127,-3.211 0,-1.756 1.392,-3.213 3.127,-3.213 1.713,0 3.105,1.457 3.105,3.213 z m 68.75,0 c 0,1.777 -1.393,3.211 -3.105,3.211 -1.736,0 -3.127,-1.434 -3.127,-3.211 0,-1.756 1.391,-3.213 3.127,-3.213 1.713,0 3.105,1.457 3.105,3.213 z"
       id="path28"
       inkscape:connector-curvature="0"
       style="clip-rule:evenodd;fill-rule:evenodd" />
    <path
       d="m 170.566,103.125 c 0,1.777 -1.393,3.211 -3.127,3.211 -1.713,0 -3.105,-1.434 -3.105,-3.211 0,-1.756 1.393,-3.213 3.105,-3.213 1.735,0 3.127,1.457 3.127,3.213 z m -123.747,4.518 c 0,1.758 -1.392,3.213 -3.105,3.213 -1.735,0 -3.127,-1.455 -3.127,-3.213 0,-1.777 1.392,-3.211 3.127,-3.211 1.713,0 3.105,1.433 3.105,3.211 z"
       id="path30"
       inkscape:connector-curvature="0"
       style="clip-rule:evenodd;fill-rule:evenodd" />
    <path
       d="m 42.236,107.643 c 0,1.758 -1.392,3.213 -3.105,3.213 -1.735,0 -3.127,-1.455 -3.127,-3.213 0,-1.777 1.392,-3.211 3.127,-3.211 1.713,0 3.105,1.433 3.105,3.211 z m -13.75,0 c 0,1.758 -1.392,3.213 -3.105,3.213 -1.734,0 -3.127,-1.455 -3.127,-3.213 0,-1.777 1.393,-3.211 3.127,-3.211 1.713,0 3.105,1.433 3.105,3.211 z"
       id="path32"
       inkscape:connector-curvature="0"
       style="clip-rule:evenodd;fill-rule:evenodd" />
    <path
       d="m 37.653,107.643 c 0,1.758 -1.392,3.213 -3.106,3.213 -1.735,0 -3.126,-1.455 -3.126,-3.213 0,-1.777 1.392,-3.211 3.126,-3.211 1.714,0 3.106,1.433 3.106,3.211 z"
       id="path34"
       inkscape:connector-curvature="0"
       style="clip-rule:evenodd;fill-rule:evenodd" />
    <path
       d="m 33.069,107.643 c 0,1.758 -1.392,3.213 -3.105,3.213 -1.735,0 -3.127,-1.455 -3.127,-3.213 0,-1.777 1.392,-3.211 3.127,-3.211 1.713,0 3.105,1.433 3.105,3.211 z m -18.333,0 c 0,1.758 -1.392,3.213 -3.127,3.213 -1.713,0 -3.105,-1.455 -3.105,-3.213 0,-1.777 1.392,-3.211 3.105,-3.211 1.735,0 3.127,1.433 3.127,3.211 z m 59.583,0 c 0,1.758 -1.393,3.213 -3.105,3.213 -1.735,0 -3.127,-1.455 -3.127,-3.213 0,-1.777 1.392,-3.211 3.127,-3.211 1.712,0 3.105,1.433 3.105,3.211 z"
       id="path36"
       inkscape:connector-curvature="0"
       style="clip-rule:evenodd;fill-rule:evenodd" />
    <path
       d="m 78.902,107.643 c 0,1.758 -1.392,3.213 -3.105,3.213 -1.735,0 -3.127,-1.455 -3.127,-3.213 0,-1.777 1.392,-3.211 3.127,-3.211 1.713,0 3.105,1.433 3.105,3.211 z m 50.416,0 c 0,1.758 -1.393,3.213 -3.127,3.213 -1.715,0 -3.105,-1.455 -3.105,-3.213 0,-1.777 1.391,-3.211 3.105,-3.211 1.735,0 3.127,1.433 3.127,3.211 z m -18.334,0 c 0,1.758 -1.393,3.213 -3.127,3.213 -1.713,0 -3.105,-1.455 -3.105,-3.213 0,-1.777 1.393,-3.211 3.105,-3.211 1.735,0 3.127,1.433 3.127,3.211 z"
       id="path38"
       inkscape:connector-curvature="0"
       style="clip-rule:evenodd;fill-rule:evenodd" />
    <path
       d="m 115.568,107.643 c 0,1.758 -1.393,3.213 -3.127,3.213 -1.713,0 -3.105,-1.455 -3.105,-3.213 0,-1.777 1.393,-3.211 3.105,-3.211 1.735,0 3.127,1.433 3.127,3.211 z m -18.334,0 c 0,1.758 -1.392,3.213 -3.105,3.213 -1.735,0 -3.127,-1.455 -3.127,-3.213 0,-1.777 1.392,-3.211 3.127,-3.211 1.713,0 3.105,1.433 3.105,3.211 z m 68.75,0 c 0,1.758 -1.393,3.213 -3.105,3.213 -1.736,0 -3.127,-1.455 -3.127,-3.213 0,-1.777 1.391,-3.211 3.127,-3.211 1.713,0 3.105,1.433 3.105,3.211 z"
       id="path40"
       inkscape:connector-curvature="0"
       style="clip-rule:evenodd;fill-rule:evenodd" />
    <path
       d="m 170.566,107.643 c 0,1.758 -1.393,3.213 -3.127,3.213 -1.713,0 -3.105,-1.455 -3.105,-3.213 0,-1.777 1.393,-3.211 3.105,-3.211 1.735,0 3.127,1.433 3.127,3.211 z m -123.747,4.498 c 0,1.777 -1.392,3.213 -3.105,3.213 -1.735,0 -3.127,-1.436 -3.127,-3.213 0,-1.777 1.392,-3.213 3.127,-3.213 1.713,0 3.105,1.435 3.105,3.213 z m -18.333,0 c 0,1.777 -1.392,3.213 -3.105,3.213 -1.734,0 -3.127,-1.436 -3.127,-3.213 0,-1.777 1.393,-3.213 3.127,-3.213 1.713,0 3.105,1.435 3.105,3.213 z m -9.166,0 c 0,1.777 -1.393,3.213 -3.105,3.213 -1.735,0 -3.127,-1.436 -3.127,-3.213 0,-1.777 1.392,-3.213 3.127,-3.213 1.712,0 3.105,1.435 3.105,3.213 z"
       id="path42"
       inkscape:connector-curvature="0"
       style="clip-rule:evenodd;fill-rule:evenodd" />
    <path
       d="m 14.736,112.141 c 0,1.777 -1.392,3.213 -3.127,3.213 -1.713,0 -3.105,-1.436 -3.105,-3.213 0,-1.777 1.392,-3.213 3.105,-3.213 1.735,0 3.127,1.435 3.127,3.213 z m 54.999,0 c 0,1.777 -1.392,3.213 -3.105,3.213 -1.735,0 -3.127,-1.436 -3.127,-3.213 0,-1.777 1.392,-3.213 3.127,-3.213 1.713,0 3.105,1.435 3.105,3.213 z"
       id="path44"
       inkscape:connector-curvature="0"
       style="clip-rule:evenodd;fill-rule:evenodd" />
    <path
       d="m 74.319,112.141 c 0,1.777 -1.393,3.213 -3.105,3.213 -1.735,0 -3.127,-1.436 -3.127,-3.213 0,-1.777 1.392,-3.213 3.127,-3.213 1.712,0 3.105,1.435 3.105,3.213 z"
       id="path46"
       inkscape:connector-curvature="0"
       style="clip-rule:evenodd;fill-rule:evenodd" />
    <path
       d="m 78.902,112.141 c 0,1.777 -1.392,3.213 -3.105,3.213 -1.735,0 -3.127,-1.436 -3.127,-3.213 0,-1.777 1.392,-3.213 3.127,-3.213 1.713,0 3.105,1.435 3.105,3.213 z m 13.75,0 c 0,1.777 -1.393,3.213 -3.106,3.213 -1.735,0 -3.127,-1.436 -3.127,-3.213 0,-1.777 1.392,-3.213 3.127,-3.213 1.713,0 3.106,1.435 3.106,3.213 z m 36.666,0 c 0,1.777 -1.393,3.213 -3.127,3.213 -1.715,0 -3.105,-1.436 -3.105,-3.213 0,-1.777 1.391,-3.213 3.105,-3.213 1.735,0 3.127,1.435 3.127,3.213 z"
       id="path48"
       inkscape:connector-curvature="0"
       style="clip-rule:evenodd;fill-rule:evenodd" />
    <path
       d="m 124.734,112.141 c 0,1.777 -1.393,3.213 -3.127,3.213 -1.713,0 -3.105,-1.436 -3.105,-3.213 0,-1.777 1.393,-3.213 3.105,-3.213 1.735,0 3.127,1.435 3.127,3.213 z m -13.75,0 c 0,1.777 -1.393,3.213 -3.127,3.213 -1.713,0 -3.105,-1.436 -3.105,-3.213 0,-1.777 1.393,-3.213 3.105,-3.213 1.735,0 3.127,1.435 3.127,3.213 z"
       id="path50"
       inkscape:connector-curvature="0"
       style="clip-rule:evenodd;fill-rule:evenodd" />
    <path
       d="m 106.402,112.141 c 0,1.777 -1.393,3.213 -3.127,3.213 -1.715,0 -3.107,-1.436 -3.107,-3.213 0,-1.777 1.393,-3.213 3.107,-3.213 1.735,0 3.127,1.435 3.127,3.213 z m 9.166,0 c 0,1.777 -1.393,3.213 -3.127,3.213 -1.713,0 -3.105,-1.436 -3.105,-3.213 0,-1.777 1.393,-3.213 3.105,-3.213 1.735,0 3.127,1.435 3.127,3.213 z m -18.334,0 c 0,1.777 -1.392,3.213 -3.105,3.213 -1.735,0 -3.127,-1.436 -3.127,-3.213 0,-1.777 1.392,-3.213 3.127,-3.213 1.713,0 3.105,1.435 3.105,3.213 z m 55,0 c 0,1.777 -1.393,3.213 -3.127,3.213 -1.715,0 -3.105,-1.436 -3.105,-3.213 0,-1.777 1.391,-3.213 3.105,-3.213 1.735,0 3.127,1.435 3.127,3.213 z"
       id="path52"
       inkscape:connector-curvature="0"
       style="clip-rule:evenodd;fill-rule:evenodd" />
    <path
       d="m 156.816,112.141 c 0,1.777 -1.391,3.213 -3.127,3.213 -1.713,0 -3.105,-1.436 -3.105,-3.213 0,-1.777 1.393,-3.213 3.105,-3.213 1.737,0 3.127,1.435 3.127,3.213 z m 9.168,0 c 0,1.777 -1.393,3.213 -3.105,3.213 -1.736,0 -3.127,-1.436 -3.127,-3.213 0,-1.777 1.391,-3.213 3.127,-3.213 1.713,0 3.105,1.435 3.105,3.213 z"
       id="path54"
       inkscape:connector-curvature="0"
       style="clip-rule:evenodd;fill-rule:evenodd" />
    <path
       d="m 170.566,112.141 c 0,1.777 -1.393,3.213 -3.127,3.213 -1.713,0 -3.105,-1.436 -3.105,-3.213 0,-1.777 1.393,-3.213 3.105,-3.213 1.735,0 3.127,1.435 3.127,3.213 z"
       id="path56"
       inkscape:connector-curvature="0"
       style="clip-rule:evenodd;fill-rule:evenodd" />
    <path
       d="m 175.15,112.141 c 0,1.777 -1.393,3.213 -3.105,3.213 -1.734,0 -3.127,-1.436 -3.127,-3.213 0,-1.777 1.393,-3.213 3.127,-3.213 1.713,0 3.105,1.435 3.105,3.213 z m -119.165,4.498 c 0,1.777 -1.392,3.213 -3.105,3.213 -1.735,0 -3.127,-1.436 -3.127,-3.213 0,-1.777 1.392,-3.213 3.127,-3.213 1.713,0 3.105,1.435 3.105,3.213 z"
       id="path58"
       inkscape:connector-curvature="0"
       style="clip-rule:evenodd;fill-rule:evenodd" />
    <path
       d="m 51.402,116.639 c 0,1.777 -1.392,3.213 -3.105,3.213 -1.735,0 -3.127,-1.436 -3.127,-3.213 0,-1.777 1.392,-3.213 3.127,-3.213 1.713,0 3.105,1.435 3.105,3.213 z m 13.75,0 c 0,1.777 -1.392,3.213 -3.105,3.213 -1.734,0 -3.127,-1.436 -3.127,-3.213 0,-1.777 1.393,-3.213 3.127,-3.213 1.713,0 3.105,1.435 3.105,3.213 z"
       id="path60"
       inkscape:connector-curvature="0"
       style="clip-rule:evenodd;fill-rule:evenodd" />
    <path
       d="m 60.569,116.639 c 0,1.777 -1.392,3.213 -3.105,3.213 -1.735,0 -3.127,-1.436 -3.127,-3.213 0,-1.777 1.392,-3.213 3.127,-3.213 1.713,0 3.105,1.435 3.105,3.213 z m -32.083,0 c 0,1.777 -1.392,3.213 -3.105,3.213 -1.734,0 -3.127,-1.436 -3.127,-3.213 0,-1.777 1.393,-3.213 3.127,-3.213 1.713,0 3.105,1.435 3.105,3.213 z"
       id="path62"
       inkscape:connector-curvature="0"
       style="clip-rule:evenodd;fill-rule:evenodd" />
    <path
       d="m 23.903,116.639 c 0,1.777 -1.392,3.213 -3.105,3.213 -1.735,0 -3.127,-1.436 -3.127,-3.213 0,-1.777 1.392,-3.213 3.127,-3.213 1.713,0 3.105,1.435 3.105,3.213 z"
       id="path64"
       inkscape:connector-curvature="0"
       style="clip-rule:evenodd;fill-rule:evenodd" />
    <path
       d="m 19.32,116.639 c 0,1.777 -1.393,3.213 -3.105,3.213 -1.735,0 -3.127,-1.436 -3.127,-3.213 0,-1.777 1.392,-3.213 3.127,-3.213 1.712,0 3.105,1.435 3.105,3.213 z m 50.415,0 c 0,1.777 -1.392,3.213 -3.105,3.213 -1.735,0 -3.127,-1.436 -3.127,-3.213 0,-1.777 1.392,-3.213 3.127,-3.213 1.713,0 3.105,1.435 3.105,3.213 z m 13.75,0 c 0,1.777 -1.392,3.213 -3.105,3.213 -1.734,0 -3.127,-1.436 -3.127,-3.213 0,-1.777 1.393,-3.213 3.127,-3.213 1.713,0 3.105,1.435 3.105,3.213 z"
       id="path66"
       inkscape:connector-curvature="0"
       style="clip-rule:evenodd;fill-rule:evenodd" />
    <path
       d="m 88.068,116.639 c 0,1.777 -1.392,3.213 -3.106,3.213 -1.734,0 -3.126,-1.436 -3.126,-3.213 0,-1.777 1.392,-3.213 3.126,-3.213 1.714,0 3.106,1.435 3.106,3.213 z"
       id="path68"
       inkscape:connector-curvature="0"
       style="clip-rule:evenodd;fill-rule:evenodd" />
    <path
       d="m 92.652,116.639 c 0,1.777 -1.393,3.213 -3.106,3.213 -1.735,0 -3.127,-1.436 -3.127,-3.213 0,-1.777 1.392,-3.213 3.127,-3.213 1.713,0 3.106,1.435 3.106,3.213 z m 45.832,0 c 0,1.777 -1.393,3.213 -3.105,3.213 -1.734,0 -3.127,-1.436 -3.127,-3.213 0,-1.777 1.393,-3.213 3.127,-3.213 1.713,0 3.105,1.435 3.105,3.213 z"
       id="path70"
       inkscape:connector-curvature="0"
       style="clip-rule:evenodd;fill-rule:evenodd" />
    <path
       d="m 133.9,116.639 c 0,1.777 -1.393,3.213 -3.127,3.213 -1.713,0 -3.105,-1.436 -3.105,-3.213 0,-1.777 1.393,-3.213 3.105,-3.213 1.735,0 3.127,1.435 3.127,3.213 z m 13.75,0 c 0,1.777 -1.393,3.213 -3.105,3.213 -1.734,0 -3.127,-1.436 -3.127,-3.213 0,-1.777 1.393,-3.213 3.127,-3.213 1.713,0 3.105,1.435 3.105,3.213 z"
       id="path72"
       inkscape:connector-curvature="0"
       style="clip-rule:evenodd;fill-rule:evenodd" />
    <path
       d="m 143.066,116.639 c 0,1.777 -1.391,3.213 -3.127,3.213 -1.713,0 -3.105,-1.436 -3.105,-3.213 0,-1.777 1.393,-3.213 3.105,-3.213 1.737,0 3.127,1.435 3.127,3.213 z m -13.748,0 c 0,1.777 -1.393,3.213 -3.127,3.213 -1.715,0 -3.105,-1.436 -3.105,-3.213 0,-1.777 1.391,-3.213 3.105,-3.213 1.735,0 3.127,1.435 3.127,3.213 z m -18.334,0 c 0,1.777 -1.393,3.213 -3.127,3.213 -1.713,0 -3.105,-1.436 -3.105,-3.213 0,-1.777 1.393,-3.213 3.105,-3.213 1.735,0 3.127,1.435 3.127,3.213 z m 9.166,0 c 0,1.777 -1.393,3.213 -3.127,3.213 -1.713,0 -3.105,-1.436 -3.105,-3.213 0,-1.777 1.393,-3.213 3.105,-3.213 1.735,0 3.127,1.435 3.127,3.213 z m -18.332,0 c 0,1.777 -1.393,3.213 -3.127,3.213 -1.713,0 -3.106,-1.436 -3.106,-3.213 0,-1.777 1.393,-3.213 3.106,-3.213 1.735,0 3.127,1.435 3.127,3.213 z"
       id="path74"
       inkscape:connector-curvature="0"
       style="clip-rule:evenodd;fill-rule:evenodd" />
    <path
       d="m 97.234,116.639 c 0,1.777 -1.392,3.213 -3.105,3.213 -1.735,0 -3.127,-1.436 -3.127,-3.213 0,-1.777 1.392,-3.213 3.127,-3.213 1.713,0 3.105,1.435 3.105,3.213 z m 55,0 c 0,1.777 -1.393,3.213 -3.127,3.213 -1.715,0 -3.105,-1.436 -3.105,-3.213 0,-1.777 1.391,-3.213 3.105,-3.213 1.735,0 3.127,1.435 3.127,3.213 z"
       id="path76"
       inkscape:connector-curvature="0"
       style="clip-rule:evenodd;fill-rule:evenodd" />
    <path
       d="m 156.816,116.639 c 0,1.777 -1.391,3.213 -3.127,3.213 -1.713,0 -3.105,-1.436 -3.105,-3.213 0,-1.777 1.393,-3.213 3.105,-3.213 1.737,0 3.127,1.435 3.127,3.213 z m 9.168,0 c 0,1.777 -1.393,3.213 -3.105,3.213 -1.736,0 -3.127,-1.436 -3.127,-3.213 0,-1.777 1.391,-3.213 3.127,-3.213 1.713,0 3.105,1.435 3.105,3.213 z"
       id="path78"
       inkscape:connector-curvature="0"
       style="clip-rule:evenodd;fill-rule:evenodd" />
    <path
       d="m 161.4,116.639 c 0,1.777 -1.393,3.213 -3.105,3.213 -1.734,0 -3.127,-1.436 -3.127,-3.213 0,-1.777 1.393,-3.213 3.127,-3.213 1.713,0 3.105,1.435 3.105,3.213 z m 13.75,0 c 0,1.777 -1.393,3.213 -3.105,3.213 -1.734,0 -3.127,-1.436 -3.127,-3.213 0,-1.777 1.393,-3.213 3.127,-3.213 1.713,0 3.105,1.435 3.105,3.213 z M 51.402,85.134 c 0,1.756 -1.392,3.213 -3.105,3.213 -1.735,0 -3.127,-1.457 -3.127,-3.213 0,-1.777 1.392,-3.212 3.127,-3.212 1.713,-10e-4 3.105,1.434 3.105,3.212 z m 13.75,0 c 0,1.756 -1.392,3.213 -3.105,3.213 -1.734,0 -3.127,-1.457 -3.127,-3.213 0,-1.777 1.393,-3.212 3.127,-3.212 1.713,-10e-4 3.105,1.434 3.105,3.212 z"
       id="path80"
       inkscape:connector-curvature="0"
       style="clip-rule:evenodd;fill-rule:evenodd" />
    <path
       d="m 60.569,85.134 c 0,1.756 -1.392,3.213 -3.105,3.213 -1.735,0 -3.127,-1.457 -3.127,-3.213 0,-1.777 1.392,-3.212 3.127,-3.212 1.713,-10e-4 3.105,1.434 3.105,3.212 z m -13.75,0 c 0,1.756 -1.392,3.213 -3.105,3.213 -1.735,0 -3.127,-1.457 -3.127,-3.213 0,-1.777 1.392,-3.212 3.127,-3.212 1.713,-10e-4 3.105,1.434 3.105,3.212 z"
       id="path82"
       inkscape:connector-curvature="0"
       style="clip-rule:evenodd;fill-rule:evenodd" />
    <path
       d="m 42.236,85.134 c 0,1.756 -1.392,3.213 -3.105,3.213 -1.735,0 -3.127,-1.457 -3.127,-3.213 0,-1.777 1.392,-3.212 3.127,-3.212 1.713,-10e-4 3.105,1.434 3.105,3.212 z m -13.75,0 c 0,1.756 -1.392,3.213 -3.105,3.213 -1.734,0 -3.127,-1.457 -3.127,-3.213 0,-1.777 1.393,-3.212 3.127,-3.212 1.713,-10e-4 3.105,1.434 3.105,3.212 z"
       id="path84"
       inkscape:connector-curvature="0"
       style="clip-rule:evenodd;fill-rule:evenodd" />
    <path
       d="m 23.903,85.134 c 0,1.756 -1.392,3.213 -3.105,3.213 -1.735,0 -3.127,-1.457 -3.127,-3.213 0,-1.777 1.392,-3.212 3.127,-3.212 1.713,-10e-4 3.105,1.434 3.105,3.212 z m 13.75,0 c 0,1.756 -1.392,3.213 -3.106,3.213 -1.735,0 -3.126,-1.457 -3.126,-3.213 0,-1.777 1.392,-3.212 3.126,-3.212 1.714,-10e-4 3.106,1.434 3.106,3.212 z"
       id="path86"
       inkscape:connector-curvature="0"
       style="clip-rule:evenodd;fill-rule:evenodd" />
    <path
       d="m 33.069,85.134 c 0,1.756 -1.392,3.213 -3.105,3.213 -1.735,0 -3.127,-1.457 -3.127,-3.213 0,-1.777 1.392,-3.212 3.127,-3.212 1.713,-10e-4 3.105,1.434 3.105,3.212 z m -13.749,0 c 0,1.756 -1.393,3.213 -3.105,3.213 -1.735,0 -3.127,-1.457 -3.127,-3.213 0,-1.777 1.392,-3.212 3.127,-3.212 1.712,-10e-4 3.105,1.434 3.105,3.212 z"
       id="path88"
       inkscape:connector-curvature="0"
       style="clip-rule:evenodd;fill-rule:evenodd" />
    <path
       d="m 14.736,85.134 c 0,1.756 -1.392,3.213 -3.127,3.213 -1.713,0 -3.105,-1.457 -3.105,-3.213 0,-1.777 1.392,-3.212 3.105,-3.212 1.735,-10e-4 3.127,1.434 3.127,3.212 z m 54.999,0 c 0,1.756 -1.392,3.213 -3.105,3.213 -1.735,0 -3.127,-1.457 -3.127,-3.213 0,-1.777 1.392,-3.212 3.127,-3.212 1.713,-10e-4 3.105,1.434 3.105,3.212 z"
       id="path90"
       inkscape:connector-curvature="0"
       style="clip-rule:evenodd;fill-rule:evenodd" />
    <path
       d="m 74.319,85.134 c 0,1.756 -1.393,3.213 -3.105,3.213 -1.735,0 -3.127,-1.457 -3.127,-3.213 0,-1.777 1.392,-3.212 3.127,-3.212 1.712,-10e-4 3.105,1.434 3.105,3.212 z m 13.749,0 c 0,1.756 -1.392,3.213 -3.106,3.213 -1.734,0 -3.126,-1.457 -3.126,-3.213 0,-1.777 1.392,-3.212 3.126,-3.212 1.714,-10e-4 3.106,1.434 3.106,3.212 z m 50.416,0 c 0,1.756 -1.393,3.213 -3.105,3.213 -1.734,0 -3.127,-1.457 -3.127,-3.213 0,-1.777 1.393,-3.212 3.127,-3.212 1.713,-10e-4 3.105,1.434 3.105,3.212 z"
       id="path92"
       inkscape:connector-curvature="0"
       style="clip-rule:evenodd;fill-rule:evenodd" />
    <path
       d="m 133.9,85.134 c 0,1.756 -1.393,3.213 -3.127,3.213 -1.713,0 -3.105,-1.457 -3.105,-3.213 0,-1.777 1.393,-3.212 3.105,-3.212 1.735,-10e-4 3.127,1.434 3.127,3.212 z m 13.75,0 c 0,1.756 -1.393,3.213 -3.105,3.213 -1.734,0 -3.127,-1.457 -3.127,-3.213 0,-1.777 1.393,-3.212 3.127,-3.212 1.713,-10e-4 3.105,1.434 3.105,3.212 z"
       id="path94"
       inkscape:connector-curvature="0"
       style="clip-rule:evenodd;fill-rule:evenodd" />
    <path
       d="m 143.066,85.134 c 0,1.756 -1.391,3.213 -3.127,3.213 -1.713,0 -3.105,-1.457 -3.105,-3.213 0,-1.777 1.393,-3.212 3.105,-3.212 1.737,-10e-4 3.127,1.434 3.127,3.212 z m -13.748,0 c 0,1.756 -1.393,3.213 -3.127,3.213 -1.715,0 -3.105,-1.457 -3.105,-3.213 0,-1.777 1.391,-3.212 3.105,-3.212 1.735,-10e-4 3.127,1.434 3.127,3.212 z m -18.334,0 c 0,1.756 -1.393,3.213 -3.127,3.213 -1.713,0 -3.105,-1.457 -3.105,-3.213 0,-1.777 1.393,-3.212 3.105,-3.212 1.735,-10e-4 3.127,1.434 3.127,3.212 z m 9.166,0 c 0,1.756 -1.393,3.213 -3.127,3.213 -1.713,0 -3.105,-1.457 -3.105,-3.213 0,-1.777 1.393,-3.212 3.105,-3.212 1.735,-10e-4 3.127,1.434 3.127,3.212 z"
       id="path96"
       inkscape:connector-curvature="0"
       style="clip-rule:evenodd;fill-rule:evenodd" />
    <path
       d="m 115.568,85.134 c 0,1.756 -1.393,3.213 -3.127,3.213 -1.713,0 -3.105,-1.457 -3.105,-3.213 0,-1.777 1.393,-3.212 3.105,-3.212 1.735,-10e-4 3.127,1.434 3.127,3.212 z m -18.334,0 c 0,1.756 -1.392,3.213 -3.105,3.213 -1.735,0 -3.127,-1.457 -3.127,-3.213 0,-1.777 1.392,-3.212 3.127,-3.212 1.713,-10e-4 3.105,1.434 3.105,3.212 z m 55,0 c 0,1.756 -1.393,3.213 -3.127,3.213 -1.715,0 -3.105,-1.457 -3.105,-3.213 0,-1.777 1.391,-3.212 3.105,-3.212 1.735,-10e-4 3.127,1.434 3.127,3.212 z"
       id="path98"
       inkscape:connector-curvature="0"
       style="clip-rule:evenodd;fill-rule:evenodd" />
    <path
       d="m 156.816,85.134 c 0,1.756 -1.391,3.213 -3.127,3.213 -1.713,0 -3.105,-1.457 -3.105,-3.213 0,-1.777 1.393,-3.212 3.105,-3.212 1.737,-10e-4 3.127,1.434 3.127,3.212 z m 9.168,0 c 0,1.756 -1.393,3.213 -3.105,3.213 -1.736,0 -3.127,-1.457 -3.127,-3.213 0,-1.777 1.391,-3.212 3.127,-3.212 1.713,-10e-4 3.105,1.434 3.105,3.212 z"
       id="path100"
       inkscape:connector-curvature="0"
       style="clip-rule:evenodd;fill-rule:evenodd" />
    <path
       d="m 161.4,85.134 c 0,1.756 -1.393,3.213 -3.105,3.213 -1.734,0 -3.127,-1.457 -3.127,-3.213 0,-1.777 1.393,-3.212 3.127,-3.212 1.713,-10e-4 3.105,1.434 3.105,3.212 z m 9.166,0 c 0,1.756 -1.393,3.213 -3.127,3.213 -1.713,0 -3.105,-1.457 -3.105,-3.213 0,-1.777 1.393,-3.212 3.105,-3.212 1.735,-10e-4 3.127,1.434 3.127,3.212 z"
       id="path102"
       inkscape:connector-curvature="0"
       style="clip-rule:evenodd;fill-rule:evenodd" />
    <path
       d="m 175.15,85.134 c 0,1.756 -1.393,3.213 -3.105,3.213 -1.734,0 -3.127,-1.457 -3.127,-3.213 0,-1.777 1.393,-3.212 3.127,-3.212 1.713,-10e-4 3.105,1.434 3.105,3.212 z M 74.319,80.615 c 0,1.778 -1.393,3.212 -3.105,3.212 -1.735,0 -3.127,-1.435 -3.127,-3.212 0,-1.756 1.392,-3.213 3.127,-3.213 1.712,0 3.105,1.457 3.105,3.213 z m 13.749,0 c 0,1.778 -1.392,3.212 -3.106,3.212 -1.734,0 -3.126,-1.435 -3.126,-3.212 0,-1.756 1.392,-3.213 3.126,-3.213 1.714,0 3.106,1.457 3.106,3.213 z m 22.916,0 c 0,1.778 -1.393,3.212 -3.127,3.212 -1.713,0 -3.105,-1.435 -3.105,-3.212 0,-1.756 1.393,-3.213 3.105,-3.213 1.735,0 3.127,1.457 3.127,3.213 z m -13.75,0 c 0,1.778 -1.392,3.212 -3.105,3.212 -1.735,0 -3.127,-1.435 -3.127,-3.212 0,-1.756 1.392,-3.213 3.127,-3.213 1.713,0 3.105,1.457 3.105,3.213 z"
       id="path104"
       inkscape:connector-curvature="0"
       style="clip-rule:evenodd;fill-rule:evenodd" />
    <path
       d="m 74.319,76.118 c 0,1.777 -1.393,3.212 -3.105,3.212 -1.735,0 -3.127,-1.435 -3.127,-3.212 0,-1.778 1.392,-3.213 3.127,-3.213 1.712,0 3.105,1.435 3.105,3.213 z m 9.166,0 c 0,1.777 -1.392,3.212 -3.105,3.212 -1.734,0 -3.127,-1.435 -3.127,-3.212 0,-1.778 1.393,-3.213 3.127,-3.213 1.713,0 3.105,1.435 3.105,3.213 z"
       id="path106"
       inkscape:connector-curvature="0"
       style="clip-rule:evenodd;fill-rule:evenodd" />
    <path
       d="m 78.902,76.118 c 0,1.777 -1.392,3.212 -3.105,3.212 -1.735,0 -3.127,-1.435 -3.127,-3.212 0,-1.778 1.392,-3.213 3.127,-3.213 1.713,0 3.105,1.435 3.105,3.213 z m 27.5,0 c 0,1.777 -1.393,3.212 -3.127,3.212 -1.715,0 -3.107,-1.435 -3.107,-3.212 0,-1.778 1.393,-3.213 3.107,-3.213 1.735,0 3.127,1.435 3.127,3.213 z"
       id="path108"
       inkscape:connector-curvature="0"
       style="clip-rule:evenodd;fill-rule:evenodd" />
    <path
       d="m 101.818,76.118 c 0,1.777 -1.393,3.212 -3.127,3.212 -1.713,0 -3.106,-1.435 -3.106,-3.212 0,-1.778 1.393,-3.213 3.106,-3.213 1.735,0 3.127,1.435 3.127,3.213 z"
       id="path110"
       inkscape:connector-curvature="0"
       style="clip-rule:evenodd;fill-rule:evenodd" />
    <path
       d="m 97.234,76.118 c 0,1.777 -1.392,3.212 -3.105,3.212 -1.735,0 -3.127,-1.435 -3.127,-3.212 0,-1.778 1.392,-3.213 3.127,-3.213 1.713,0 3.105,1.435 3.105,3.213 z m 82.477,40.521 c 0,1.777 -1.391,3.213 -3.105,3.213 -1.734,0 -3.127,-1.436 -3.127,-3.213 0,-1.777 1.393,-3.213 3.127,-3.213 1.714,0 3.105,1.435 3.105,3.213 z m -4.582,-31.505 c 0,1.756 -1.393,3.213 -3.105,3.213 -1.734,0 -3.127,-1.457 -3.127,-3.213 0,-1.777 1.393,-3.212 3.127,-3.212 1.712,-10e-4 3.105,1.434 3.105,3.212 z"
       id="path112"
       inkscape:connector-curvature="0"
       style="clip-rule:evenodd;fill-rule:evenodd" />
    <path
       d="m 179.711,89.631 c 0,1.778 -1.391,3.213 -3.105,3.213 -1.734,0 -3.127,-1.435 -3.127,-3.213 0,-1.777 1.393,-3.212 3.127,-3.212 1.714,0 3.105,1.435 3.105,3.212 z"
       id="path114"
       inkscape:connector-curvature="0"
       style="clip-rule:evenodd;fill-rule:evenodd" />
    <path
       d="m 184.252,94.129 c 0,1.777 -1.393,3.212 -3.105,3.212 -1.734,0 -3.127,-1.435 -3.127,-3.212 0,-1.778 1.393,-3.213 3.127,-3.213 1.712,0.001 3.105,1.436 3.105,3.213 z"
       id="path116"
       inkscape:connector-curvature="0"
       style="clip-rule:evenodd;fill-rule:evenodd" />
    <path
       d="m 184.252,98.627 c 0,1.777 -1.393,3.213 -3.105,3.213 -1.734,0 -3.127,-1.436 -3.127,-3.213 0,-1.777 1.393,-3.212 3.127,-3.212 1.712,0 3.105,1.435 3.105,3.212 z"
       id="path118"
       inkscape:connector-curvature="0"
       style="clip-rule:evenodd;fill-rule:evenodd" />
    <path
       d="m 184.252,103.125 c 0,1.777 -1.393,3.211 -3.105,3.211 -1.734,0 -3.127,-1.434 -3.127,-3.211 0,-1.756 1.393,-3.213 3.127,-3.213 1.712,0 3.105,1.457 3.105,3.213 z"
       id="path120"
       inkscape:connector-curvature="0"
       style="clip-rule:evenodd;fill-rule:evenodd" />
    <path
       d="m 184.252,107.643 c 0,1.758 -1.393,3.213 -3.105,3.213 -1.734,0 -3.127,-1.455 -3.127,-3.213 0,-1.777 1.393,-3.211 3.127,-3.211 1.712,0 3.105,1.433 3.105,3.211 z"
       id="path122"
       inkscape:connector-curvature="0"
       style="clip-rule:evenodd;fill-rule:evenodd" />
    <path
       d="m 184.252,112.141 c 0,1.777 -1.393,3.213 -3.105,3.213 -1.734,0 -3.127,-1.436 -3.127,-3.213 0,-1.777 1.393,-3.213 3.127,-3.213 1.712,0 3.105,1.435 3.105,3.213 z"
       id="path124"
       inkscape:connector-curvature="0"
       style="clip-rule:evenodd;fill-rule:evenodd" />
    <path
       d="m 184.252,116.639 c 0,1.777 -1.393,3.213 -3.105,3.213 -1.734,0 -3.127,-1.436 -3.127,-3.213 0,-1.777 1.393,-3.213 3.127,-3.213 1.712,0 3.105,1.435 3.105,3.213 z M 51.402,89.631 c 0,1.778 -1.392,3.213 -3.105,3.213 -1.735,0 -3.127,-1.435 -3.127,-3.213 0,-1.777 1.392,-3.212 3.127,-3.212 1.713,0 3.105,1.435 3.105,3.212 z m -13.749,0 c 0,1.778 -1.392,3.213 -3.106,3.213 -1.735,0 -3.126,-1.435 -3.126,-3.213 0,-1.777 1.392,-3.212 3.126,-3.212 1.714,0 3.106,1.435 3.106,3.212 z m 32.082,0 c 0,1.778 -1.392,3.213 -3.105,3.213 -1.735,0 -3.127,-1.435 -3.127,-3.213 0,-1.777 1.392,-3.212 3.127,-3.212 1.713,0 3.105,1.435 3.105,3.212 z m 18.333,0 c 0,1.778 -1.392,3.213 -3.106,3.213 -1.734,0 -3.126,-1.435 -3.126,-3.213 0,-1.777 1.392,-3.212 3.126,-3.212 1.714,0 3.106,1.435 3.106,3.212 z m 59.582,0 c 0,1.778 -1.393,3.213 -3.105,3.213 -1.734,0 -3.127,-1.435 -3.127,-3.213 0,-1.777 1.393,-3.212 3.127,-3.212 1.713,0 3.105,1.435 3.105,3.212 z m -41.248,0 c 0,1.778 -1.393,3.213 -3.127,3.213 -1.715,0 -3.107,-1.435 -3.107,-3.213 0,-1.777 1.393,-3.212 3.107,-3.212 1.735,0 3.127,1.435 3.127,3.212 z m 13.748,0 c 0,1.778 -1.393,3.213 -3.127,3.213 -1.713,0 -3.105,-1.435 -3.105,-3.213 0,-1.777 1.393,-3.212 3.105,-3.212 1.735,0 3.127,1.435 3.127,3.212 z m 41.25,0 c 0,1.778 -1.393,3.213 -3.105,3.213 -1.734,0 -3.127,-1.435 -3.127,-3.213 0,-1.777 1.393,-3.212 3.127,-3.212 1.713,0 3.105,1.435 3.105,3.212 z m 13.75,0 c 0,1.778 -1.393,3.213 -3.105,3.213 -1.734,0 -3.127,-1.435 -3.127,-3.213 0,-1.777 1.393,-3.212 3.127,-3.212 1.713,0 3.105,1.435 3.105,3.212 z"
       id="path126"
       inkscape:connector-curvature="0"
       style="clip-rule:evenodd;fill-rule:evenodd" />
    <path
       d="m 51.402,94.129 c 0,1.777 -1.392,3.212 -3.105,3.212 -1.735,0 -3.127,-1.435 -3.127,-3.212 0,-1.778 1.392,-3.213 3.127,-3.213 1.713,0.001 3.105,1.436 3.105,3.213 z m -9.166,0 c 0,1.777 -1.392,3.212 -3.105,3.212 -1.735,0 -3.127,-1.435 -3.127,-3.212 0,-1.778 1.392,-3.213 3.127,-3.213 1.713,0.001 3.105,1.436 3.105,3.213 z m -13.75,0 c 0,1.777 -1.392,3.212 -3.105,3.212 -1.734,0 -3.127,-1.435 -3.127,-3.212 0,-1.778 1.393,-3.213 3.127,-3.213 1.713,0.001 3.105,1.436 3.105,3.213 z"
       id="path128"
       inkscape:connector-curvature="0"
       style="clip-rule:evenodd;fill-rule:evenodd" />
    <path
       d="m 23.903,94.129 c 0,1.777 -1.392,3.212 -3.105,3.212 -1.735,0 -3.127,-1.435 -3.127,-3.212 0,-1.778 1.392,-3.213 3.127,-3.213 1.713,0.001 3.105,1.436 3.105,3.213 z m 9.166,0 c 0,1.777 -1.392,3.212 -3.105,3.212 -1.735,0 -3.127,-1.435 -3.127,-3.212 0,-1.778 1.392,-3.213 3.127,-3.213 1.713,0.001 3.105,1.436 3.105,3.213 z m 36.666,0 c 0,1.777 -1.392,3.212 -3.105,3.212 -1.735,0 -3.127,-1.435 -3.127,-3.212 0,-1.778 1.392,-3.213 3.127,-3.213 1.713,0.001 3.105,1.436 3.105,3.213 z m 13.75,0 c 0,1.777 -1.392,3.212 -3.105,3.212 -1.734,0 -3.127,-1.435 -3.127,-3.212 0,-1.778 1.393,-3.213 3.127,-3.213 1.713,0.001 3.105,1.436 3.105,3.213 z m 50.415,0 c 0,1.777 -1.393,3.212 -3.127,3.212 -1.713,0 -3.105,-1.435 -3.105,-3.212 0,-1.778 1.393,-3.213 3.105,-3.213 1.735,0.001 3.127,1.436 3.127,3.213 z m -9.166,0 c 0,1.777 -1.393,3.212 -3.127,3.212 -1.713,0 -3.105,-1.435 -3.105,-3.212 0,-1.778 1.393,-3.213 3.105,-3.213 1.735,0.001 3.127,1.436 3.127,3.213 z m 27.5,0 c 0,1.777 -1.393,3.212 -3.127,3.212 -1.715,0 -3.105,-1.435 -3.105,-3.212 0,-1.778 1.391,-3.213 3.105,-3.213 1.735,0.001 3.127,1.436 3.127,3.213 z M 37.653,98.627 c 0,1.777 -1.392,3.213 -3.106,3.213 -1.735,0 -3.126,-1.436 -3.126,-3.213 0,-1.777 1.392,-3.212 3.126,-3.212 1.714,0 3.106,1.435 3.106,3.212 z"
       id="path130"
       inkscape:connector-curvature="0"
       style="clip-rule:evenodd;fill-rule:evenodd" />
    <path
       d="m 69.735,98.627 c 0,1.777 -1.392,3.213 -3.105,3.213 -1.735,0 -3.127,-1.436 -3.127,-3.213 0,-1.777 1.392,-3.212 3.127,-3.212 1.713,0 3.105,1.435 3.105,3.212 z m 13.75,0 c 0,1.777 -1.392,3.213 -3.105,3.213 -1.734,0 -3.127,-1.436 -3.127,-3.213 0,-1.777 1.393,-3.212 3.127,-3.212 1.713,0 3.105,1.435 3.105,3.212 z m 50.415,0 c 0,1.777 -1.393,3.213 -3.127,3.213 -1.713,0 -3.105,-1.436 -3.105,-3.213 0,-1.777 1.393,-3.212 3.105,-3.212 1.735,0 3.127,1.435 3.127,3.212 z m -9.166,0 c 0,1.777 -1.393,3.213 -3.127,3.213 -1.713,0 -3.105,-1.436 -3.105,-3.213 0,-1.777 1.393,-3.212 3.105,-3.212 1.735,0 3.127,1.435 3.127,3.212 z m -18.332,0 c 0,1.777 -1.393,3.213 -3.127,3.213 -1.715,0 -3.107,-1.436 -3.107,-3.213 0,-1.777 1.393,-3.212 3.107,-3.212 1.735,0 3.127,1.435 3.127,3.212 z m 45.832,0 c 0,1.777 -1.393,3.213 -3.127,3.213 -1.715,0 -3.105,-1.436 -3.105,-3.213 0,-1.777 1.391,-3.212 3.105,-3.212 1.735,0 3.127,1.435 3.127,3.212 z m 9.166,0 c 0,1.777 -1.393,3.213 -3.105,3.213 -1.734,0 -3.127,-1.436 -3.127,-3.213 0,-1.777 1.393,-3.212 3.127,-3.212 1.713,0 3.105,1.435 3.105,3.212 z m -105.415,4.498 c 0,1.777 -1.392,3.211 -3.105,3.211 -1.735,0 -3.127,-1.434 -3.127,-3.211 0,-1.756 1.392,-3.213 3.127,-3.213 1.713,0 3.105,1.457 3.105,3.213 z"
       id="path132"
       inkscape:connector-curvature="0"
       style="clip-rule:evenodd;fill-rule:evenodd" />
    <path
       d="m 60.569,103.125 c 0,1.777 -1.392,3.211 -3.105,3.211 -1.735,0 -3.127,-1.434 -3.127,-3.211 0,-1.756 1.392,-3.213 3.127,-3.213 1.713,0 3.105,1.457 3.105,3.213 z m -32.083,0 c 0,1.777 -1.392,3.211 -3.105,3.211 -1.734,0 -3.127,-1.434 -3.127,-3.211 0,-1.756 1.393,-3.213 3.127,-3.213 1.713,0 3.105,1.457 3.105,3.213 z"
       id="path134"
       inkscape:connector-curvature="0"
       style="clip-rule:evenodd;fill-rule:evenodd" />
    <path
       d="m 23.903,103.125 c 0,1.777 -1.392,3.211 -3.105,3.211 -1.735,0 -3.127,-1.434 -3.127,-3.211 0,-1.756 1.392,-3.213 3.127,-3.213 1.713,0 3.105,1.457 3.105,3.213 z m 13.75,0 c 0,1.777 -1.392,3.211 -3.106,3.211 -1.735,0 -3.126,-1.434 -3.126,-3.211 0,-1.756 1.392,-3.213 3.126,-3.213 1.714,0 3.106,1.457 3.106,3.213 z"
       id="path136"
       inkscape:connector-curvature="0"
       style="clip-rule:evenodd;fill-rule:evenodd" />
    <path
       d="m 33.069,103.125 c 0,1.777 -1.392,3.211 -3.105,3.211 -1.735,0 -3.127,-1.434 -3.127,-3.211 0,-1.756 1.392,-3.213 3.127,-3.213 1.713,0 3.105,1.457 3.105,3.213 z m 36.666,0 c 0,1.777 -1.392,3.211 -3.105,3.211 -1.735,0 -3.127,-1.434 -3.127,-3.211 0,-1.756 1.392,-3.213 3.127,-3.213 1.713,0 3.105,1.457 3.105,3.213 z m 13.75,0 c 0,1.777 -1.392,3.211 -3.105,3.211 -1.734,0 -3.127,-1.434 -3.127,-3.211 0,-1.756 1.393,-3.213 3.127,-3.213 1.713,0 3.105,1.457 3.105,3.213 z m 50.415,0 c 0,1.777 -1.393,3.211 -3.127,3.211 -1.713,0 -3.105,-1.434 -3.105,-3.211 0,-1.756 1.393,-3.213 3.105,-3.213 1.735,0 3.127,1.457 3.127,3.213 z m -9.166,0 c 0,1.777 -1.393,3.211 -3.127,3.211 -1.713,0 -3.105,-1.434 -3.105,-3.211 0,-1.756 1.393,-3.213 3.105,-3.213 1.735,0 3.127,1.457 3.127,3.213 z m -18.332,0 c 0,1.777 -1.393,3.211 -3.127,3.211 -1.715,0 -3.107,-1.434 -3.107,-3.211 0,-1.756 1.393,-3.213 3.107,-3.213 1.735,0 3.127,1.457 3.127,3.213 z m 45.832,0 c 0,1.777 -1.393,3.211 -3.127,3.211 -1.715,0 -3.105,-1.434 -3.105,-3.211 0,-1.756 1.391,-3.213 3.105,-3.213 1.735,0 3.127,1.457 3.127,3.213 z m 9.166,0 c 0,1.777 -1.393,3.211 -3.105,3.211 -1.734,0 -3.127,-1.434 -3.127,-3.211 0,-1.756 1.393,-3.213 3.127,-3.213 1.713,0 3.105,1.457 3.105,3.213 z"
       id="path138"
       inkscape:connector-curvature="0"
       style="clip-rule:evenodd;fill-rule:evenodd" />
    <path
       d="m 65.152,107.643 c 0,1.758 -1.392,3.213 -3.105,3.213 -1.734,0 -3.127,-1.455 -3.127,-3.213 0,-1.777 1.393,-3.211 3.127,-3.211 1.713,0 3.105,1.433 3.105,3.211 z m -41.249,0 c 0,1.758 -1.392,3.213 -3.105,3.213 -1.735,0 -3.127,-1.455 -3.127,-3.213 0,-1.777 1.392,-3.211 3.127,-3.211 1.713,0 3.105,1.433 3.105,3.211 z m 68.749,0 c 0,1.758 -1.393,3.213 -3.106,3.213 -1.735,0 -3.127,-1.455 -3.127,-3.213 0,-1.777 1.392,-3.211 3.127,-3.211 1.713,0 3.106,1.433 3.106,3.211 z m 54.998,0 c 0,1.758 -1.393,3.213 -3.105,3.213 -1.734,0 -3.127,-1.455 -3.127,-3.213 0,-1.777 1.393,-3.211 3.127,-3.211 1.713,0 3.105,1.433 3.105,3.211 z m -22.916,0 c 0,1.758 -1.393,3.213 -3.127,3.213 -1.713,0 -3.105,-1.455 -3.105,-3.213 0,-1.777 1.393,-3.211 3.105,-3.211 1.735,0 3.127,1.433 3.127,3.211 z m -18.332,0 c 0,1.758 -1.393,3.213 -3.127,3.213 -1.715,0 -3.107,-1.455 -3.107,-3.213 0,-1.777 1.393,-3.211 3.107,-3.211 1.735,0 3.127,1.433 3.127,3.211 z m 54.998,0 c 0,1.758 -1.393,3.213 -3.105,3.213 -1.734,0 -3.127,-1.455 -3.127,-3.213 0,-1.777 1.393,-3.211 3.127,-3.211 1.713,0 3.105,1.433 3.105,3.211 z m -105.415,4.498 c 0,1.777 -1.392,3.213 -3.105,3.213 -1.735,0 -3.127,-1.436 -3.127,-3.213 0,-1.777 1.392,-3.213 3.127,-3.213 1.713,0 3.105,1.435 3.105,3.213 z"
       id="path140"
       inkscape:connector-curvature="0"
       style="clip-rule:evenodd;fill-rule:evenodd" />
    <path
       d="m 60.569,112.141 c 0,1.777 -1.392,3.213 -3.105,3.213 -1.735,0 -3.127,-1.436 -3.127,-3.213 0,-1.777 1.392,-3.213 3.127,-3.213 1.713,0 3.105,1.435 3.105,3.213 z m -36.666,0 c 0,1.777 -1.392,3.213 -3.105,3.213 -1.735,0 -3.127,-1.436 -3.127,-3.213 0,-1.777 1.392,-3.213 3.127,-3.213 1.713,0 3.105,1.435 3.105,3.213 z m 59.582,0 c 0,1.777 -1.392,3.213 -3.105,3.213 -1.734,0 -3.127,-1.436 -3.127,-3.213 0,-1.777 1.393,-3.213 3.127,-3.213 1.713,0 3.105,1.435 3.105,3.213 z"
       id="path142"
       inkscape:connector-curvature="0"
       style="clip-rule:evenodd;fill-rule:evenodd" />
    <path
       d="m 88.068,112.141 c 0,1.777 -1.392,3.213 -3.106,3.213 -1.734,0 -3.126,-1.436 -3.126,-3.213 0,-1.777 1.392,-3.213 3.126,-3.213 1.714,0 3.106,1.435 3.106,3.213 z m 50.416,0 c 0,1.777 -1.393,3.213 -3.105,3.213 -1.734,0 -3.127,-1.436 -3.127,-3.213 0,-1.777 1.393,-3.213 3.127,-3.213 1.713,0 3.105,1.435 3.105,3.213 z"
       id="path144"
       inkscape:connector-curvature="0"
       style="clip-rule:evenodd;fill-rule:evenodd" />
    <path
       d="m 143.066,112.141 c 0,1.777 -1.391,3.213 -3.127,3.213 -1.713,0 -3.105,-1.436 -3.105,-3.213 0,-1.777 1.393,-3.213 3.105,-3.213 1.737,0 3.127,1.435 3.127,3.213 z m 18.334,0 c 0,1.777 -1.393,3.213 -3.105,3.213 -1.734,0 -3.127,-1.436 -3.127,-3.213 0,-1.777 1.393,-3.213 3.127,-3.213 1.713,0 3.105,1.435 3.105,3.213 z M 83.485,85.134 c 0,1.756 -1.392,3.213 -3.105,3.213 -1.734,0 -3.127,-1.457 -3.127,-3.213 0,-1.777 1.393,-3.212 3.127,-3.212 1.713,-10e-4 3.105,1.434 3.105,3.212 z m 22.917,0 c 0,1.756 -1.393,3.213 -3.127,3.213 -1.715,0 -3.107,-1.457 -3.107,-3.213 0,-1.777 1.393,-3.212 3.107,-3.212 1.735,-10e-4 3.127,1.434 3.127,3.212 z m 73.309,8.995 c 0,1.777 -1.391,3.212 -3.105,3.212 -1.734,0 -3.127,-1.435 -3.127,-3.212 0,-1.778 1.393,-3.213 3.127,-3.213 1.714,0.001 3.105,1.436 3.105,3.213 z"
       id="path146"
       inkscape:connector-curvature="0"
       style="clip-rule:evenodd;fill-rule:evenodd" />
    <path
       d="m 179.711,98.627 c 0,1.777 -1.391,3.213 -3.105,3.213 -1.734,0 -3.127,-1.436 -3.127,-3.213 0,-1.777 1.393,-3.212 3.127,-3.212 1.714,0 3.105,1.435 3.105,3.212 z"
       id="path148"
       inkscape:connector-curvature="0"
       style="clip-rule:evenodd;fill-rule:evenodd" />
    <path
       d="m 179.711,103.125 c 0,1.777 -1.391,3.211 -3.105,3.211 -1.734,0 -3.127,-1.434 -3.127,-3.211 0,-1.756 1.393,-3.213 3.127,-3.213 1.714,0 3.105,1.457 3.105,3.213 z"
       id="path150"
       inkscape:connector-curvature="0"
       style="clip-rule:evenodd;fill-rule:evenodd" />
    <path
       d="m 179.711,107.643 c 0,1.758 -1.391,3.213 -3.105,3.213 -1.734,0 -3.127,-1.455 -3.127,-3.213 0,-1.777 1.393,-3.211 3.127,-3.211 1.714,0 3.105,1.433 3.105,3.211 z"
       id="path152"
       inkscape:connector-curvature="0"
       style="clip-rule:evenodd;fill-rule:evenodd" />
    <path
       d="m 179.711,112.141 c 0,1.777 -1.391,3.213 -3.105,3.213 -1.734,0 -3.127,-1.436 -3.127,-3.213 0,-1.777 1.393,-3.213 3.127,-3.213 1.714,0 3.105,1.435 3.105,3.213 z m -32.061,0 c 0,1.777 -1.393,3.213 -3.105,3.213 -1.734,0 -3.127,-1.436 -3.127,-3.213 0,-1.777 1.393,-3.213 3.127,-3.213 1.713,0 3.105,1.435 3.105,3.213 z"
       id="path154"
       inkscape:connector-curvature="0"
       style="clip-rule:evenodd;fill-rule:evenodd" />
    <path
       d="m 152.234,107.643 c 0,1.758 -1.393,3.213 -3.127,3.213 -1.715,0 -3.105,-1.455 -3.105,-3.213 0,-1.777 1.391,-3.211 3.105,-3.211 1.735,0 3.127,1.433 3.127,3.211 z m -13.75,-13.514 c 0,1.777 -1.393,3.212 -3.105,3.212 -1.734,0 -3.127,-1.435 -3.127,-3.212 0,-1.778 1.393,-3.213 3.127,-3.213 1.713,0.001 3.105,1.436 3.105,3.213 z"
       id="path156"
       inkscape:connector-curvature="0"
       style="clip-rule:evenodd;fill-rule:evenodd" />
    <path
       d="m 143.066,94.129 c 0,1.777 -1.391,3.212 -3.127,3.212 -1.713,0 -3.105,-1.435 -3.105,-3.212 0,-1.778 1.393,-3.213 3.105,-3.213 1.737,0.001 3.127,1.436 3.127,3.213 z m 27.5,0 c 0,1.777 -1.393,3.212 -3.127,3.212 -1.713,0 -3.105,-1.435 -3.105,-3.212 0,-1.778 1.393,-3.213 3.105,-3.213 1.735,0.001 3.127,1.436 3.127,3.213 z"
       id="path158"
       inkscape:connector-curvature="0"
       style="clip-rule:evenodd;fill-rule:evenodd" />
    <path
       d="m 165.984,98.627 c 0,1.777 -1.393,3.213 -3.105,3.213 -1.736,0 -3.127,-1.436 -3.127,-3.213 0,-1.777 1.391,-3.212 3.127,-3.212 1.713,0 3.105,1.435 3.105,3.212 z"
       id="path160"
       inkscape:connector-curvature="0"
       style="clip-rule:evenodd;fill-rule:evenodd" />
    <path
       d="m 28.486,89.631 c 0,1.778 -1.392,3.213 -3.105,3.213 -1.734,0 -3.127,-1.435 -3.127,-3.213 0,-1.777 1.393,-3.212 3.127,-3.212 1.713,0 3.105,1.435 3.105,3.212 z"
       id="path162"
       inkscape:connector-curvature="0"
       style="clip-rule:evenodd;fill:#ffffff;fill-rule:evenodd" />
    <path
       d="m 23.903,89.631 c 0,1.778 -1.392,3.213 -3.105,3.213 -1.735,0 -3.127,-1.435 -3.127,-3.213 0,-1.777 1.392,-3.212 3.127,-3.212 1.713,0 3.105,1.435 3.105,3.212 z m 9.166,0 c 0,1.778 -1.392,3.213 -3.105,3.213 -1.735,0 -3.127,-1.435 -3.127,-3.213 0,-1.777 1.392,-3.212 3.127,-3.212 1.713,0 3.105,1.435 3.105,3.212 z"
       id="path164"
       inkscape:connector-curvature="0"
       style="clip-rule:evenodd;fill:#ffffff;fill-rule:evenodd" />
    <path
       d="m 19.32,89.631 c 0,1.778 -1.393,3.213 -3.105,3.213 -1.735,0 -3.127,-1.435 -3.127,-3.213 0,-1.777 1.392,-3.212 3.127,-3.212 1.712,0 3.105,1.435 3.105,3.212 z m 18.333,4.498 c 0,1.777 -1.392,3.212 -3.106,3.212 -1.735,0 -3.126,-1.435 -3.126,-3.212 0,-1.778 1.392,-3.213 3.126,-3.213 1.714,0.001 3.106,1.436 3.106,3.213 z"
       id="path166"
       inkscape:connector-curvature="0"
       style="clip-rule:evenodd;fill:#ffffff;fill-rule:evenodd" />
    <path
       d="m 19.32,94.129 c 0,1.777 -1.393,3.212 -3.105,3.212 -1.735,0 -3.127,-1.435 -3.127,-3.212 0,-1.778 1.392,-3.213 3.127,-3.213 1.712,0.001 3.105,1.436 3.105,3.213 z m 9.166,4.498 c 0,1.777 -1.392,3.213 -3.105,3.213 -1.734,0 -3.127,-1.436 -3.127,-3.213 0,-1.777 1.393,-3.212 3.127,-3.212 1.713,0 3.105,1.435 3.105,3.212 z"
       id="path168"
       inkscape:connector-curvature="0"
       style="clip-rule:evenodd;fill:#ffffff;fill-rule:evenodd" />
    <path
       d="m 23.903,98.627 c 0,1.777 -1.392,3.213 -3.105,3.213 -1.735,0 -3.127,-1.436 -3.127,-3.213 0,-1.777 1.392,-3.212 3.127,-3.212 1.713,0 3.105,1.435 3.105,3.212 z m 9.166,0 c 0,1.777 -1.392,3.213 -3.105,3.213 -1.735,0 -3.127,-1.436 -3.127,-3.213 0,-1.777 1.392,-3.212 3.127,-3.212 1.713,0 3.105,1.435 3.105,3.212 z"
       id="path170"
       inkscape:connector-curvature="0"
       style="clip-rule:evenodd;fill:#ffffff;fill-rule:evenodd" />
    <path
       d="m 19.32,98.627 c 0,1.777 -1.393,3.213 -3.105,3.213 -1.735,0 -3.127,-1.436 -3.127,-3.213 0,-1.777 1.392,-3.212 3.127,-3.212 1.712,0 3.105,1.435 3.105,3.212 z"
       id="path172"
       inkscape:connector-curvature="0"
       style="clip-rule:evenodd;fill:#ffffff;fill-rule:evenodd" />
    <path
       d="m 19.32,103.125 c 0,1.777 -1.393,3.211 -3.105,3.211 -1.735,0 -3.127,-1.434 -3.127,-3.211 0,-1.756 1.392,-3.213 3.127,-3.213 1.712,0 3.105,1.457 3.105,3.213 z"
       id="path174"
       inkscape:connector-curvature="0"
       style="clip-rule:evenodd;fill:#ffffff;fill-rule:evenodd" />
    <path
       d="m 19.32,107.643 c 0,1.758 -1.393,3.213 -3.105,3.213 -1.735,0 -3.127,-1.455 -3.127,-3.213 0,-1.777 1.392,-3.211 3.127,-3.211 1.712,0 3.105,1.433 3.105,3.211 z M 65.152,89.631 c 0,1.778 -1.392,3.213 -3.105,3.213 -1.734,0 -3.127,-1.435 -3.127,-3.213 0,-1.777 1.393,-3.212 3.127,-3.212 1.713,0 3.105,1.435 3.105,3.212 z m -18.333,0 c 0,1.778 -1.392,3.213 -3.105,3.213 -1.735,0 -3.127,-1.435 -3.127,-3.213 0,-1.777 1.392,-3.212 3.127,-3.212 1.713,0 3.105,1.435 3.105,3.212 z"
       id="path176"
       inkscape:connector-curvature="0"
       style="clip-rule:evenodd;fill:#ffffff;fill-rule:evenodd" />
    <path
       d="m 65.152,94.129 c 0,1.777 -1.392,3.212 -3.105,3.212 -1.734,0 -3.127,-1.435 -3.127,-3.212 0,-1.778 1.393,-3.213 3.127,-3.213 1.713,0.001 3.105,1.436 3.105,3.213 z m -18.333,0 c 0,1.777 -1.392,3.212 -3.105,3.212 -1.735,0 -3.127,-1.435 -3.127,-3.212 0,-1.778 1.392,-3.213 3.127,-3.213 1.713,0.001 3.105,1.436 3.105,3.213 z m 9.166,4.498 c 0,1.777 -1.392,3.213 -3.105,3.213 -1.735,0 -3.127,-1.436 -3.127,-3.213 0,-1.777 1.392,-3.212 3.127,-3.212 1.713,0 3.105,1.435 3.105,3.212 z"
       id="path178"
       inkscape:connector-curvature="0"
       style="clip-rule:evenodd;fill:#ffffff;fill-rule:evenodd" />
    <path
       d="m 51.402,98.627 c 0,1.777 -1.392,3.213 -3.105,3.213 -1.735,0 -3.127,-1.436 -3.127,-3.213 0,-1.777 1.392,-3.212 3.127,-3.212 1.713,0 3.105,1.435 3.105,3.212 z m 13.75,0 c 0,1.777 -1.392,3.213 -3.105,3.213 -1.734,0 -3.127,-1.436 -3.127,-3.213 0,-1.777 1.393,-3.212 3.127,-3.212 1.713,0 3.105,1.435 3.105,3.212 z"
       id="path180"
       inkscape:connector-curvature="0"
       style="clip-rule:evenodd;fill:#ffffff;fill-rule:evenodd" />
    <path
       d="m 60.569,98.627 c 0,1.777 -1.392,3.213 -3.105,3.213 -1.735,0 -3.127,-1.436 -3.127,-3.213 0,-1.777 1.392,-3.212 3.127,-3.212 1.713,0 3.105,1.435 3.105,3.212 z"
       id="path182"
       inkscape:connector-curvature="0"
       style="clip-rule:evenodd;fill:#ffffff;fill-rule:evenodd" />
    <path
       d="m 65.152,103.125 c 0,1.777 -1.392,3.211 -3.105,3.211 -1.734,0 -3.127,-1.434 -3.127,-3.211 0,-1.756 1.393,-3.213 3.127,-3.213 1.713,0 3.105,1.457 3.105,3.213 z m -9.167,4.518 c 0,1.758 -1.392,3.213 -3.105,3.213 -1.735,0 -3.127,-1.455 -3.127,-3.213 0,-1.777 1.392,-3.211 3.127,-3.211 1.713,0 3.105,1.433 3.105,3.211 z"
       id="path184"
       inkscape:connector-curvature="0"
       style="clip-rule:evenodd;fill:#ffffff;fill-rule:evenodd" />
    <path
       d="m 51.402,107.643 c 0,1.758 -1.392,3.213 -3.105,3.213 -1.735,0 -3.127,-1.455 -3.127,-3.213 0,-1.777 1.392,-3.211 3.127,-3.211 1.713,0 3.105,1.433 3.105,3.211 z m 9.167,0 c 0,1.758 -1.392,3.213 -3.105,3.213 -1.735,0 -3.127,-1.455 -3.127,-3.213 0,-1.777 1.392,-3.211 3.127,-3.211 1.713,0 3.105,1.433 3.105,3.211 z m 13.75,-18.012 c 0,1.778 -1.393,3.213 -3.105,3.213 -1.735,0 -3.127,-1.435 -3.127,-3.213 0,-1.777 1.392,-3.212 3.127,-3.212 1.712,0 3.105,1.435 3.105,3.212 z m 9.166,0 c 0,1.778 -1.392,3.213 -3.105,3.213 -1.734,0 -3.127,-1.435 -3.127,-3.213 0,-1.777 1.393,-3.212 3.127,-3.212 1.713,0 3.105,1.435 3.105,3.212 z"
       id="path186"
       inkscape:connector-curvature="0"
       style="clip-rule:evenodd;fill:#ffffff;fill-rule:evenodd" />
    <path
       d="m 78.902,89.631 c 0,1.778 -1.392,3.213 -3.105,3.213 -1.735,0 -3.127,-1.435 -3.127,-3.213 0,-1.777 1.392,-3.212 3.127,-3.212 1.713,0 3.105,1.435 3.105,3.212 z"
       id="path188"
       inkscape:connector-curvature="0"
       style="clip-rule:evenodd;fill:#ffffff;fill-rule:evenodd" />
    <path
       d="m 78.902,94.129 c 0,1.777 -1.392,3.212 -3.105,3.212 -1.735,0 -3.127,-1.435 -3.127,-3.212 0,-1.778 1.392,-3.213 3.127,-3.213 1.713,0.001 3.105,1.436 3.105,3.213 z"
       id="path190"
       inkscape:connector-curvature="0"
       style="clip-rule:evenodd;fill:#ffffff;fill-rule:evenodd" />
    <path
       d="m 78.902,98.627 c 0,1.777 -1.392,3.213 -3.105,3.213 -1.735,0 -3.127,-1.436 -3.127,-3.213 0,-1.777 1.392,-3.212 3.127,-3.212 1.713,0 3.105,1.435 3.105,3.212 z"
       id="path192"
       inkscape:connector-curvature="0"
       style="clip-rule:evenodd;fill:#ffffff;fill-rule:evenodd" />
    <path
       d="m 78.902,103.125 c 0,1.777 -1.392,3.211 -3.105,3.211 -1.735,0 -3.127,-1.434 -3.127,-3.211 0,-1.756 1.392,-3.213 3.127,-3.213 1.713,0 3.105,1.457 3.105,3.213 z m 13.75,0 c 0,1.777 -1.393,3.211 -3.106,3.211 -1.735,0 -3.127,-1.434 -3.127,-3.211 0,-1.756 1.392,-3.213 3.127,-3.213 1.713,0 3.106,1.457 3.106,3.213 z"
       id="path194"
       inkscape:connector-curvature="0"
       style="clip-rule:evenodd;fill:#ffffff;fill-rule:evenodd" />
    <path
       d="m 83.485,107.643 c 0,1.758 -1.392,3.213 -3.105,3.213 -1.734,0 -3.127,-1.455 -3.127,-3.213 0,-1.777 1.393,-3.211 3.127,-3.211 1.713,0 3.105,1.433 3.105,3.211 z"
       id="path196"
       inkscape:connector-curvature="0"
       style="clip-rule:evenodd;fill:#ffffff;fill-rule:evenodd" />
    <path
       d="m 88.068,107.643 c 0,1.758 -1.392,3.213 -3.106,3.213 -1.734,0 -3.126,-1.455 -3.126,-3.213 0,-1.777 1.392,-3.211 3.126,-3.211 1.714,0 3.106,1.433 3.106,3.211 z M 78.902,85.134 c 0,1.756 -1.392,3.213 -3.105,3.213 -1.735,0 -3.127,-1.457 -3.127,-3.213 0,-1.777 1.392,-3.212 3.127,-3.212 1.713,-10e-4 3.105,1.434 3.105,3.212 z"
       id="path198"
       inkscape:connector-curvature="0"
       style="clip-rule:evenodd;fill:#ffffff;fill-rule:evenodd" />
    <path
       d="m 78.902,80.615 c 0,1.778 -1.392,3.212 -3.105,3.212 -1.735,0 -3.127,-1.435 -3.127,-3.212 0,-1.756 1.392,-3.213 3.127,-3.213 1.713,0 3.105,1.457 3.105,3.213 z m 32.082,9.016 c 0,1.778 -1.393,3.213 -3.127,3.213 -1.713,0 -3.105,-1.435 -3.105,-3.213 0,-1.777 1.393,-3.212 3.105,-3.212 1.735,0 3.127,1.435 3.127,3.212 z"
       id="path200"
       inkscape:connector-curvature="0"
       style="clip-rule:evenodd;fill:#ffffff;fill-rule:evenodd" />
    <path
       d="m 115.568,89.631 c 0,1.778 -1.393,3.213 -3.127,3.213 -1.713,0 -3.105,-1.435 -3.105,-3.213 0,-1.777 1.393,-3.212 3.105,-3.212 1.735,0 3.127,1.435 3.127,3.212 z m -13.75,0 c 0,1.778 -1.393,3.213 -3.127,3.213 -1.713,0 -3.106,-1.435 -3.106,-3.213 0,-1.777 1.393,-3.212 3.106,-3.212 1.735,0 3.127,1.435 3.127,3.212 z"
       id="path202"
       inkscape:connector-curvature="0"
       style="clip-rule:evenodd;fill:#ffffff;fill-rule:evenodd" />
    <path
       d="m 106.402,94.129 c 0,1.777 -1.393,3.212 -3.127,3.212 -1.715,0 -3.107,-1.435 -3.107,-3.212 0,-1.778 1.393,-3.213 3.107,-3.213 1.735,0.001 3.127,1.436 3.127,3.213 z m 13.748,0 c 0,1.777 -1.393,3.212 -3.127,3.212 -1.713,0 -3.105,-1.435 -3.105,-3.212 0,-1.778 1.393,-3.213 3.105,-3.213 1.735,0.001 3.127,1.436 3.127,3.213 z"
       id="path204"
       inkscape:connector-curvature="0"
       style="clip-rule:evenodd;fill:#ffffff;fill-rule:evenodd" />
    <path
       d="m 101.818,94.129 c 0,1.777 -1.393,3.212 -3.127,3.212 -1.713,0 -3.106,-1.435 -3.106,-3.212 0,-1.778 1.393,-3.213 3.106,-3.213 1.735,0.001 3.127,1.436 3.127,3.213 z m 18.332,4.498 c 0,1.777 -1.393,3.213 -3.127,3.213 -1.713,0 -3.105,-1.436 -3.105,-3.213 0,-1.777 1.393,-3.212 3.105,-3.212 1.735,0 3.127,1.435 3.127,3.212 z"
       id="path206"
       inkscape:connector-curvature="0"
       style="clip-rule:evenodd;fill:#ffffff;fill-rule:evenodd" />
    <path
       d="m 101.818,98.627 c 0,1.777 -1.393,3.213 -3.127,3.213 -1.713,0 -3.106,-1.436 -3.106,-3.213 0,-1.777 1.393,-3.212 3.106,-3.212 1.735,0 3.127,1.435 3.127,3.212 z m 18.332,4.498 c 0,1.777 -1.393,3.211 -3.127,3.211 -1.713,0 -3.105,-1.434 -3.105,-3.211 0,-1.756 1.393,-3.213 3.105,-3.213 1.735,0 3.127,1.457 3.127,3.213 z"
       id="path208"
       inkscape:connector-curvature="0"
       style="clip-rule:evenodd;fill:#ffffff;fill-rule:evenodd" />
    <path
       d="m 101.818,103.125 c 0,1.777 -1.393,3.211 -3.127,3.211 -1.713,0 -3.106,-1.434 -3.106,-3.211 0,-1.756 1.393,-3.213 3.106,-3.213 1.735,0 3.127,1.457 3.127,3.213 z m 18.332,4.518 c 0,1.758 -1.393,3.213 -3.127,3.213 -1.713,0 -3.105,-1.455 -3.105,-3.213 0,-1.777 1.393,-3.211 3.105,-3.211 1.735,0 3.127,1.433 3.127,3.211 z"
       id="path210"
       inkscape:connector-curvature="0"
       style="clip-rule:evenodd;fill:#ffffff;fill-rule:evenodd" />
    <path
       d="m 101.818,107.643 c 0,1.758 -1.393,3.213 -3.127,3.213 -1.713,0 -3.106,-1.455 -3.106,-3.213 0,-1.777 1.393,-3.211 3.106,-3.211 1.735,0 3.127,1.433 3.127,3.211 z m 0,-22.509 c 0,1.756 -1.393,3.213 -3.127,3.213 -1.713,0 -3.106,-1.457 -3.106,-3.213 0,-1.777 1.393,-3.212 3.106,-3.212 1.735,-10e-4 3.127,1.434 3.127,3.212 z"
       id="path212"
       inkscape:connector-curvature="0"
       style="clip-rule:evenodd;fill:#ffffff;fill-rule:evenodd" />
    <path
       d="m 101.818,80.615 c 0,1.778 -1.393,3.212 -3.127,3.212 -1.713,0 -3.106,-1.435 -3.106,-3.212 0,-1.756 1.393,-3.213 3.106,-3.213 1.735,0 3.127,1.457 3.127,3.213 z m 36.666,9.016 c 0,1.778 -1.393,3.213 -3.105,3.213 -1.734,0 -3.127,-1.435 -3.127,-3.213 0,-1.777 1.393,-3.212 3.127,-3.212 1.713,0 3.105,1.435 3.105,3.212 z"
       id="path214"
       inkscape:connector-curvature="0"
       style="clip-rule:evenodd;fill:#ffffff;fill-rule:evenodd" />
    <path
       d="m 133.9,89.631 c 0,1.778 -1.393,3.213 -3.127,3.213 -1.713,0 -3.105,-1.435 -3.105,-3.213 0,-1.777 1.393,-3.212 3.105,-3.212 1.735,0 3.127,1.435 3.127,3.212 z m 9.166,0 c 0,1.778 -1.391,3.213 -3.127,3.213 -1.713,0 -3.105,-1.435 -3.105,-3.213 0,-1.777 1.393,-3.212 3.105,-3.212 1.737,0 3.127,1.435 3.127,3.212 z"
       id="path216"
       inkscape:connector-curvature="0"
       style="clip-rule:evenodd;fill:#ffffff;fill-rule:evenodd" />
    <path
       d="m 147.65,94.129 c 0,1.777 -1.393,3.212 -3.105,3.212 -1.734,0 -3.127,-1.435 -3.127,-3.212 0,-1.778 1.393,-3.213 3.127,-3.213 1.713,0.001 3.105,1.436 3.105,3.213 z m -18.332,0 c 0,1.777 -1.393,3.212 -3.127,3.212 -1.715,0 -3.105,-1.435 -3.105,-3.212 0,-1.778 1.391,-3.213 3.105,-3.213 1.735,0.001 3.127,1.436 3.127,3.213 z"
       id="path218"
       inkscape:connector-curvature="0"
       style="clip-rule:evenodd;fill:#ffffff;fill-rule:evenodd" />
    <path
       d="m 147.65,98.627 c 0,1.777 -1.393,3.213 -3.105,3.213 -1.734,0 -3.127,-1.436 -3.127,-3.213 0,-1.777 1.393,-3.212 3.127,-3.212 1.713,0 3.105,1.435 3.105,3.212 z m -18.332,0 c 0,1.777 -1.393,3.213 -3.127,3.213 -1.715,0 -3.105,-1.436 -3.105,-3.213 0,-1.777 1.391,-3.212 3.105,-3.212 1.735,0 3.127,1.435 3.127,3.212 z"
       id="path220"
       inkscape:connector-curvature="0"
       style="clip-rule:evenodd;fill:#ffffff;fill-rule:evenodd" />
    <path
       d="m 147.65,103.125 c 0,1.777 -1.393,3.211 -3.105,3.211 -1.734,0 -3.127,-1.434 -3.127,-3.211 0,-1.756 1.393,-3.213 3.127,-3.213 1.713,0 3.105,1.457 3.105,3.213 z m -18.332,0 c 0,1.777 -1.393,3.211 -3.127,3.211 -1.715,0 -3.105,-1.434 -3.105,-3.211 0,-1.756 1.391,-3.213 3.105,-3.213 1.735,0 3.127,1.457 3.127,3.213 z m 9.166,4.518 c 0,1.758 -1.393,3.213 -3.105,3.213 -1.734,0 -3.127,-1.455 -3.127,-3.213 0,-1.777 1.393,-3.211 3.127,-3.211 1.713,0 3.105,1.433 3.105,3.211 z"
       id="path222"
       inkscape:connector-curvature="0"
       style="clip-rule:evenodd;fill:#ffffff;fill-rule:evenodd" />
    <path
       d="m 133.9,107.643 c 0,1.758 -1.393,3.213 -3.127,3.213 -1.713,0 -3.105,-1.455 -3.105,-3.213 0,-1.777 1.393,-3.211 3.105,-3.211 1.735,0 3.127,1.433 3.127,3.211 z m 9.166,0 c 0,1.758 -1.391,3.213 -3.127,3.213 -1.713,0 -3.105,-1.455 -3.105,-3.213 0,-1.777 1.393,-3.211 3.105,-3.211 1.737,0 3.127,1.433 3.127,3.211 z m 13.75,-18.012 c 0,1.778 -1.391,3.213 -3.127,3.213 -1.713,0 -3.105,-1.435 -3.105,-3.213 0,-1.777 1.393,-3.212 3.105,-3.212 1.737,0 3.127,1.435 3.127,3.212 z m 9.168,0 c 0,1.778 -1.393,3.213 -3.105,3.213 -1.736,0 -3.127,-1.435 -3.127,-3.213 0,-1.777 1.391,-3.212 3.127,-3.212 1.713,0 3.105,1.435 3.105,3.212 z"
       id="path224"
       inkscape:connector-curvature="0"
       style="clip-rule:evenodd;fill:#ffffff;fill-rule:evenodd" />
    <path
       d="m 170.566,89.631 c 0,1.778 -1.393,3.213 -3.127,3.213 -1.713,0 -3.105,-1.435 -3.105,-3.213 0,-1.777 1.393,-3.212 3.105,-3.212 1.735,0 3.127,1.435 3.127,3.212 z m -13.75,4.498 c 0,1.777 -1.391,3.212 -3.127,3.212 -1.713,0 -3.105,-1.435 -3.105,-3.212 0,-1.778 1.393,-3.213 3.105,-3.213 1.737,0.001 3.127,1.436 3.127,3.213 z"
       id="path226"
       inkscape:connector-curvature="0"
       style="clip-rule:evenodd;fill:#ffffff;fill-rule:evenodd" />
    <path
       d="m 161.4,94.129 c 0,1.777 -1.393,3.212 -3.105,3.212 -1.734,0 -3.127,-1.435 -3.127,-3.212 0,-1.778 1.393,-3.213 3.127,-3.213 1.713,0.001 3.105,1.436 3.105,3.213 z"
       id="path228"
       inkscape:connector-curvature="0"
       style="clip-rule:evenodd;fill:#ffffff;fill-rule:evenodd" />
    <path
       d="m 156.816,98.627 c 0,1.777 -1.391,3.213 -3.127,3.213 -1.713,0 -3.105,-1.436 -3.105,-3.213 0,-1.777 1.393,-3.212 3.105,-3.212 1.737,0 3.127,1.435 3.127,3.212 z"
       id="path230"
       inkscape:connector-curvature="0"
       style="clip-rule:evenodd;fill:#ffffff;fill-rule:evenodd" />
    <path
       d="m 156.816,103.125 c 0,1.777 -1.391,3.211 -3.127,3.211 -1.713,0 -3.105,-1.434 -3.105,-3.211 0,-1.756 1.393,-3.213 3.105,-3.213 1.737,0 3.127,1.457 3.127,3.213 z"
       id="path232"
       inkscape:connector-curvature="0"
       style="clip-rule:evenodd;fill:#ffffff;fill-rule:evenodd" />
    <path
       d="m 156.816,107.643 c 0,1.758 -1.391,3.213 -3.127,3.213 -1.713,0 -3.105,-1.455 -3.105,-3.213 0,-1.777 1.393,-3.211 3.105,-3.211 1.737,0 3.127,1.433 3.127,3.211 z M 175.15,94.129 c 0,1.777 -1.393,3.212 -3.105,3.212 -1.734,0 -3.127,-1.435 -3.127,-3.212 0,-1.778 1.393,-3.213 3.127,-3.213 1.713,0.001 3.105,1.436 3.105,3.213 z"
       id="path234"
       inkscape:connector-curvature="0"
       style="clip-rule:evenodd;fill:#ffffff;fill-rule:evenodd" />
    <path
       d="m 175.15,98.627 c 0,1.777 -1.393,3.213 -3.105,3.213 -1.734,0 -3.127,-1.436 -3.127,-3.213 0,-1.777 1.393,-3.212 3.127,-3.212 1.713,0 3.105,1.435 3.105,3.212 z"
       id="path236"
       inkscape:connector-curvature="0"
       style="clip-rule:evenodd;fill:#ffffff;fill-rule:evenodd" />
    <path
       d="m 175.15,103.125 c 0,1.777 -1.393,3.211 -3.105,3.211 -1.734,0 -3.127,-1.434 -3.127,-3.211 0,-1.756 1.393,-3.213 3.127,-3.213 1.713,0 3.105,1.457 3.105,3.213 z"
       id="path238"
       inkscape:connector-curvature="0"
       style="clip-rule:evenodd;fill:#ffffff;fill-rule:evenodd" />
    <path
       d="m 175.15,107.643 c 0,1.758 -1.393,3.213 -3.105,3.213 -1.734,0 -3.127,-1.455 -3.127,-3.213 0,-1.777 1.393,-3.211 3.127,-3.211 1.713,0 3.105,1.433 3.105,3.211 z"
       id="path240"
       inkscape:connector-curvature="0"
       style="clip-rule:evenodd;fill:#ffffff;fill-rule:evenodd" />
    <path
       d="m 65.152,112.141 c 0,1.777 -1.392,3.213 -3.105,3.213 -1.734,0 -3.127,-1.436 -3.127,-3.213 0,-1.777 1.393,-3.213 3.127,-3.213 1.713,0 3.105,1.435 3.105,3.213 z"
       id="path242"
       inkscape:connector-curvature="0"
       style="clip-rule:evenodd;fill-rule:evenodd" />
    <path
       d="m 69.735,107.643 c 0,1.758 -1.392,3.213 -3.105,3.213 -1.735,0 -3.127,-1.455 -3.127,-3.213 0,-1.777 1.392,-3.211 3.127,-3.211 1.713,0 3.105,1.433 3.105,3.211 z M 42.236,98.627 c 0,1.777 -1.392,3.213 -3.105,3.213 -1.735,0 -3.127,-1.436 -3.127,-3.213 0,-1.777 1.392,-3.212 3.127,-3.212 1.713,0 3.105,1.435 3.105,3.212 z"
       id="path244"
       inkscape:connector-curvature="0"
       style="clip-rule:evenodd;fill-rule:evenodd" />
  </g>
  <g
     aria-label="orsinium.dev"
     transform="rotate(36.074517)"
     id="text4146"
     style="line-height:0%;font-family:'Nimbus Sans L';-inkscape-font-specification:'Nimbus Sans L';letter-spacing:0px;word-spacing:0px;fill:#808080;stroke-width:1px">
    <path
       d="m 170.64879,150.83823 c -1.78284,0 -2.8429,1.26485 -2.8429,3.38498 0,2.13218 1.06006,3.38498 2.85495,3.38498 1.78284,0 2.85495,-1.26485 2.85495,-3.3368 0,-2.1924 -1.03598,-3.43316 -2.867,-3.43316 z m 0.0121,0.92755 c 1.13234,0 1.80693,0.92756 1.80693,2.49357 0,1.49373 -0.69868,2.42129 -1.80693,2.42129 -1.1203,0 -1.80693,-0.92756 -1.80693,-2.45743 0,-1.52987 0.68663,-2.45743 1.80693,-2.45743 z"
       style="font-size:12.0462px;line-height:1.25"
       id="path1090" />
    <path
       d="m 174.9011,151.01892 v 6.31221 h 1.01188 v -3.27657 c 0.012,-1.51782 0.63845,-2.19241 2.02376,-2.15627 v -1.02393 c -0.16864,-0.0241 -0.26501,-0.0361 -0.38548,-0.0361 -0.65049,0 -1.14439,0.38547 -1.7226,1.32508 v -1.14439 z"
       style="font-size:12.0462px;line-height:1.25"
       id="path1092" />
    <path
       d="m 183.41773,152.77767 c -0.012,-1.24076 -0.83118,-1.93944 -2.28877,-1.93944 -1.46964,0 -2.42129,0.75891 -2.42129,1.92739 0,0.98779 0.50594,1.45759 1.99967,1.81898 l 0.9396,0.22887 c 0.69868,0.16865 0.97575,0.42162 0.97575,0.86733 0,0.60231 -0.59027,0.99984 -1.46964,0.99984 -0.54208,0 -0.99984,-0.1566 -1.25281,-0.42162 -0.1566,-0.18069 -0.22888,-0.36139 -0.28911,-0.8071 h -1.06006 c 0.0482,1.45759 0.86732,2.15627 2.51765,2.15627 1.5901,0 2.60198,-0.783 2.60198,-1.99967 0,-0.9396 -0.53003,-1.45759 -1.78283,-1.75874 l -0.9637,-0.22888 c -0.81914,-0.19274 -1.16848,-0.45776 -1.16848,-0.90347 0,-0.59026 0.51799,-0.95165 1.33713,-0.95165 0.80709,0 1.24076,0.34934 1.26485,1.01189 z"
       style="font-size:12.0462px;line-height:1.25"
       id="path1094" />
    <path
       d="m 185.97151,151.01892 h -0.99984 v 6.31221 h 0.99984 z m 0,-2.46947 h -1.01188 v 1.26485 h 1.01188 z"
       style="font-size:12.0462px;line-height:1.25"
       id="path1096" />
    <path
       d="m 187.68205,151.01892 v 6.31221 h 1.01188 v -3.48135 c 0,-1.28895 0.67459,-2.13218 1.71056,-2.13218 0.79505,0 1.30099,0.48185 1.30099,1.24076 v 4.37277 h 0.99983 v -4.7703 c 0,-1.04802 -0.783,-1.7226 -1.99967,-1.7226 -0.9396,0 -1.54191,0.36138 -2.09604,1.24076 v -1.06007 z"
       style="font-size:12.0462px;line-height:1.25"
       id="path1098" />
    <path
       d="m 195.34343,151.01892 h -0.99984 v 6.31221 h 0.99984 z m 0,-2.46947 h -1.01188 v 1.26485 h 1.01188 z"
       style="font-size:12.0462px;line-height:1.25"
       id="path1100" />
    <path
       d="m 202.01701,157.33113 v -6.31221 h -0.99984 v 3.57772 c 0,1.28895 -0.67459,2.13218 -1.72261,2.13218 -0.79505,0 -1.30099,-0.48185 -1.30099,-1.24076 v -4.46914 h -0.99983 v 4.86667 c 0,1.04802 0.783,1.7226 2.01172,1.7226 0.92755,0 1.51782,-0.32524 2.10808,-1.15643 v 0.87937 z"
       style="font-size:12.0462px;line-height:1.25"
       id="path1102" />
    <path
       d="m 203.75166,151.01892 v 6.31221 h 1.01188 v -3.9632 c 0,-0.91551 0.66254,-1.65033 1.48168,-1.65033 0.74687,0 1.16849,0.45776 1.16849,1.26485 v 4.34868 h 1.01188 v -3.9632 c 0,-0.91551 0.66254,-1.65033 1.48168,-1.65033 0.73482,0 1.16848,0.4698 1.16848,1.26485 v 4.34868 h 1.01188 v -4.73416 c 0,-1.13234 -0.65049,-1.75874 -1.83102,-1.75874 -0.84323,0 -1.34918,0.25297 -1.93944,0.96369 -0.37343,-0.67458 -0.87937,-0.96369 -1.69851,-0.96369 -0.84324,0 -1.40941,0.3132 -1.93944,1.07211 v -0.89142 z"
       style="font-size:12.0462px;line-height:1.25"
       id="path1104" />
    <path
       d="m 215.24372,156.07833 h -1.25281 v 1.2528 h 1.25281 z"
       style="font-size:12.0462px;line-height:1.25"
       id="path1106" />
    <path
       d="m 222.25461,148.54945 h -0.99984 v 3.26452 c -0.42161,-0.63845 -1.0962,-0.97574 -1.93944,-0.97574 -1.63828,0 -2.71039,1.31303 -2.71039,3.32475 0,2.13218 1.03597,3.44521 2.74653,3.44521 0.86733,0 1.46964,-0.32524 2.01172,-1.10825 v 0.83119 h 0.89142 z m -2.77063,3.22838 c 1.08416,0 1.77079,0.95165 1.77079,2.46947 0,1.45759 -0.69868,2.42129 -1.75874,2.42129 -1.10825,0 -1.84307,-0.97574 -1.84307,-2.44538 0,-1.46964 0.73482,-2.44538 1.83102,-2.44538 z"
       style="font-size:12.0462px;line-height:1.25"
       id="path1108" />
    <path
       d="m 229.16913,154.51232 c 0,-0.9637 -0.0723,-1.54192 -0.25298,-2.01172 -0.40957,-1.03597 -1.37326,-1.66237 -2.55379,-1.66237 -1.75875,0 -2.89109,1.33713 -2.89109,3.42112 0,2.08399 1.08416,3.34884 2.867,3.34884 1.44554,0 2.44538,-0.81914 2.69835,-2.19241 h -1.01188 c -0.27707,0.83119 -0.84324,1.26486 -1.65033,1.26486 -0.63845,0 -1.18053,-0.28911 -1.51783,-0.81915 -0.24092,-0.36138 -0.32524,-0.72277 -0.33729,-1.34917 z m -4.62575,-0.81914 c 0.0843,-1.16849 0.79505,-1.9274 1.80693,-1.9274 1.02393,0 1.73466,0.79505 1.73466,1.9274 z"
       style="font-size:12.0462px;line-height:1.25"
       id="path1110" />
    <path
       d="m 232.93957,157.33113 2.42129,-6.31221 h -1.13235 l -1.78283,5.11964 -1.68647,-5.11964 h -1.13235 l 2.2165,6.31221 z"
       style="font-size:12.0462px;line-height:1.25"
       id="path1112" />
  </g>
</svg>
