<?xml version="1.0" encoding="UTF-8" standalone="no"?>
<svg
   xmlns:dc="http://purl.org/dc/elements/1.1/"
   xmlns:cc="http://creativecommons.org/ns#"
   xmlns:rdf="http://www.w3.org/1999/02/22-rdf-syntax-ns#"
   xmlns:svg="http://www.w3.org/2000/svg"
   xmlns="http://www.w3.org/2000/svg"
   xmlns:sodipodi="http://sodipodi.sourceforge.net/DTD/sodipodi-0.dtd"
   xmlns:inkscape="http://www.inkscape.org/namespaces/inkscape"
   width="3600"
   height="3600"
   viewBox="0 0 368.64 368.6747"
   preserveAspectRatio="xMinYMin meet"
   id="svg2"
   version="1.1"
   inkscape:version="0.91 r13725"
   sodipodi:docname="python.svg"
   inkscape:export-filename="/home/gram/projects/other/stickers/3sticker/python.png"
   inkscape:export-xdpi="50.619999"
   inkscape:export-ydpi="50.619999">
  <metadata
     id="metadata22">
    <rdf:RDF>
      <cc:Work
         rdf:about="">
        <dc:format>image/svg+xml</dc:format>
        <dc:type
           rdf:resource="http://purl.org/dc/dcmitype/StillImage" />
        <dc:title />
      </cc:Work>
    </rdf:RDF>
  </metadata>
  <sodipodi:namedview
     pagecolor="#ffffff"
     bordercolor="#666666"
     borderopacity="1"
     objecttolerance="10"
     gridtolerance="10"
     guidetolerance="10"
     inkscape:pageopacity="0"
     inkscape:pageshadow="2"
     inkscape:window-width="1366"
     inkscape:window-height="694"
     id="namedview20"
     showgrid="false"
     inkscape:snap-bbox="true"
     inkscape:bbox-paths="true"
     inkscape:bbox-nodes="true"
     inkscape:snap-bbox-edge-midpoints="true"
     inkscape:zoom="0.094779115"
     inkscape:cx="1295.2681"
     inkscape:cy="2161.4012"
     inkscape:window-x="0"
     inkscape:window-y="24"
     inkscape:window-maximized="1"
     inkscape:current-layer="svg2"
     fit-margin-top="0"
     fit-margin-left="0"
     fit-margin-right="0"
     fit-margin-bottom="0"
     inkscape:snap-global="false">
    <inkscape:grid
       type="xygrid"
       id="grid3350"
       originx="57.344"
       originy="57.349394" />
  </sodipodi:namedview>
  <defs
     id="defs4">
    <linearGradient
       x1="24.714632"
       y1="22.897127"
       x2="151.13583"
       y2="148.33623"
       id="a"
       gradientTransform="matrix(1.1202469,0,0,1.1227451,41.920954,40.772429)"
       gradientUnits="userSpaceOnUse">
      <stop
         stop-color="#387EB8"
         offset="0%"
         id="stop7" />
      <stop
         stop-color="#366994"
         offset="100%"
         id="stop9" />
    </linearGradient>
    <linearGradient
       x1="102.48345"
       y1="103.26573"
       x2="238.2592"
       y2="231.90517"
       id="b"
       gradientTransform="matrix(1.1202468,0,0,1.1227454,41.920954,40.772429)"
       gradientUnits="userSpaceOnUse">
      <stop
         stop-color="#FFE052"
         offset="0%"
         id="stop12" />
      <stop
         stop-color="#FFC331"
         offset="100%"
         id="stop14" />
    </linearGradient>
  </defs>
  <circle
     style="fill:#ffffff;fill-opacity:1;stroke:none;stroke-width:1.14851928;stroke-miterlimit:4;stroke-dasharray:none;stroke-opacity:1"
     id="path3352"
     cx="184.33736"
     cy="184.33736"
     r="183.76309" />
  <path
     d="m 184.25666,40.853177 c -72.70879,0 -68.16898,31.530842 -68.16898,31.530842 l 0.0807,32.666911 69.38468,0 0,9.80748 -96.943181,0 c 0,0 -46.526356,-5.27663 -46.526356,68.08599 0,73.36486 40.609346,70.76299 40.609346,70.76299 l 24.235511,0 0,-34.04411 c 0,0 -1.30654,-40.60935 39.96112,-40.60935 l 68.8172,0 c 0,0 38.66355,0.62467 38.66355,-37.3671 l 0,-62.817204 c 0,0 5.87215,-38.016449 -70.11364,-38.016449 z m -38.25869,21.967851 a 12.471028,12.471028 0 0 1 12.48224,12.482243"
     id="path16"
     inkscape:connector-curvature="0"
     style="fill:url(#a)" />
  <path
     d="m 186.32133,325.77356 c 72.70879,0 68.16897,-31.53084 68.16897,-31.53084 l -0.0807,-32.6658 -69.3858,0 0,-9.80748 96.94318,0 c 0,0 46.52636,5.27664 46.52636,-68.08822 0,-73.36374 -40.60935,-70.76187 -40.60935,-70.76187 l -24.23552,0 0,34.04299 c 0,0 1.30655,40.60935 -39.96112,40.60935 l -68.81719,0 c 0,0 -38.66356,-0.62468 -38.66356,37.36822 l 0,62.81832 c 0,0 -5.87103,38.01533 70.11365,38.01533 z m 38.25869,-21.96561"
     id="path18"
     inkscape:connector-curvature="0"
     style="fill:url(#b)" />
  <text
     xml:space="preserve"
     style="font-style:normal;font-variant:normal;font-weight:normal;font-stretch:normal;font-size:11.52008629px;line-height:125%;font-family:'Nimbus Sans L';-inkscape-font-specification:'Nimbus Sans L';letter-spacing:0px;word-spacing:0px;fill:#808080;fill-opacity:1;stroke:none;stroke-width:1px;stroke-linecap:butt;stroke-linejoin:miter;stroke-opacity:1"
     x="217.43776"
     y="120.51989"
     id="text4146"
     sodipodi:linespacing="125%"
     transform="matrix(0.54229475,0.84018834,-0.84018826,0.5422948,0,0)"><tspan
       sodipodi:role="line"
       id="tspan4148"
       x="217.43776"
       y="120.51989"
       style="font-size:16.00012016px;fill:#808080">@orsinium</tspan></text>
</svg>
