<?xml version="1.0" encoding="UTF-8" standalone="no"?>
<svg
   width="3633.0549"
   height="1446.4519"
   viewBox="0 0 280.11724 111.52491"
   id="svg2"
   version="1.1"
   inkscape:version="1.1.2 (0a00cf5339, 2022-02-04)"
   sodipodi:docname="python-powered.svg"
   inkscape:export-filename="/home/gram/projects/other/stickers/3sticker/python_old.png"
   inkscape:export-xdpi="63.279999"
   inkscape:export-ydpi="63.279999"
   xmlns:inkscape="http://www.inkscape.org/namespaces/inkscape"
   xmlns:sodipodi="http://sodipodi.sourceforge.net/DTD/sodipodi-0.dtd"
   xmlns="http://www.w3.org/2000/svg"
   xmlns:svg="http://www.w3.org/2000/svg"
   xmlns:rdf="http://www.w3.org/1999/02/22-rdf-syntax-ns#"
   xmlns:cc="http://creativecommons.org/ns#"
   xmlns:dc="http://purl.org/dc/elements/1.1/">
  <metadata
     id="metadata250">
    <rdf:RDF>
      <cc:Work
         rdf:about="">
        <dc:format>image/svg+xml</dc:format>
        <dc:type
           rdf:resource="http://purl.org/dc/dcmitype/StillImage" />
      </cc:Work>
    </rdf:RDF>
  </metadata>
  <defs
     id="defs248" />
  <sodipodi:namedview
     pagecolor="#ffffff"
     bordercolor="#666666"
     borderopacity="1"
     objecttolerance="10"
     gridtolerance="10"
     guidetolerance="10"
     inkscape:pageopacity="0"
     inkscape:pageshadow="2"
     inkscape:window-width="1712"
     inkscape:window-height="860"
     id="namedview246"
     showgrid="true"
     inkscape:snap-bbox="true"
     inkscape:bbox-paths="true"
     inkscape:bbox-nodes="true"
     inkscape:snap-bbox-edge-midpoints="true"
     inkscape:zoom="0.13350176"
     inkscape:cx="670.40315"
     inkscape:cy="981.26047"
     inkscape:window-x="0"
     inkscape:window-y="30"
     inkscape:window-maximized="1"
     inkscape:current-layer="svg2"
     inkscape:snap-bbox-midpoints="true"
     fit-margin-top="0"
     fit-margin-left="0"
     fit-margin-right="0"
     fit-margin-bottom="0"
     inkscape:snap-global="false"
     inkscape:pagecheckerboard="0">
    <inkscape:grid
       type="xygrid"
       id="grid3578"
       originx="45.725979"
       originy="-43.177327" />
  </sodipodi:namedview>
  <g
     id="g169"
     transform="matrix(18.371264,0,0,19.954094,-2836.1134,-1117.7434)">
    <path
       id="path2"
       d="m 169.62527,58.810278 c 0,0.741141 -0.81226,1.451937 -2.25821,1.976028 -1.44594,0.524093 -3.40707,0.818509 -5.45197,0.818509 -2.0449,0 -4.00602,-0.294416 -5.45201,-0.818509 -1.44595,-0.524091 -2.25829,-1.234887 -2.25829,-1.976028 0,-0.741141 0.81234,-1.451937 2.25829,-1.976028 1.44599,-0.524092 3.40711,-0.818509 5.45201,-0.818509 2.0449,0 4.00603,0.294417 5.45197,0.818509 1.44595,0.524091 2.25821,1.234887 2.25821,1.976028 z"
       style="fill:#0063af;stroke-width:0.0771024"
       inkscape:connector-curvature="0" />
    <path
       id="path4"
       d="m 156.75341,56.513169 c -0.10805,0 -0.19562,0.08756 -0.19562,0.195618 0,0.05477 0.0226,0.10422 0.0588,0.139726 -9.9e-4,9.68e-4 -0.002,0.0019 -0.003,0.0029 -0.0355,-0.03626 -0.0849,-0.05882 -0.13973,-0.05882 -0.10805,0 -0.19561,0.08756 -0.19561,0.195618 0,0.05477 0.0226,0.10422 0.0588,0.139726 -0.0363,0.03551 -0.0588,0.08495 -0.0588,0.139727 0,0.05477 0.0226,0.104221 0.0588,0.139727 -0.0363,0.03551 -0.0588,0.08495 -0.0588,0.139727 0,0.05477 0.0226,0.10422 0.0588,0.139727 -0.0363,0.03551 -0.0588,0.08495 -0.0588,0.139727 0,0.05477 0.0226,0.10422 0.0588,0.139727 -0.0363,0.03551 -0.0588,0.08495 -0.0588,0.139726 0,0.05477 0.0226,0.104221 0.0588,0.139727 -0.0363,0.03551 -0.0588,0.08495 -0.0588,0.139727 0,0.05477 0.0226,0.10422 0.0588,0.139727 -0.0363,0.03551 -0.0588,0.08495 -0.0588,0.139727 0,0.05477 0.0226,0.10422 0.0588,0.139727 -9.9e-4,9.67e-4 -0.002,0.0019 -0.003,0.0029 -0.0355,-0.03626 -0.0849,-0.05882 -0.13973,-0.05882 -0.10805,0 -0.19561,0.08756 -0.19561,0.195617 0,0.05477 0.0225,0.104221 0.0588,0.139727 -9.8e-4,9.61e-4 -0.002,0.002 -0.003,0.0029 -0.0355,-0.03626 -0.0849,-0.05882 -0.13972,-0.05882 -0.10806,0 -0.19562,0.08756 -0.19562,0.195617 0,0.05477 0.0225,0.104221 0.0588,0.139727 -0.0363,0.03551 -0.0588,0.08495 -0.0588,0.139727 0,0.05477 0.0225,0.104221 0.0588,0.139727 -0.0363,0.03551 -0.0588,0.08495 -0.0588,0.139727 0,0.05477 0.0225,0.10422 0.0588,0.139727 -0.0363,0.03551 -0.0588,0.08495 -0.0588,0.139727 0,0.05477 0.0225,0.10422 0.0588,0.139726 -0.0363,0.03551 -0.0588,0.08495 -0.0588,0.139727 0,0.05477 0.0225,0.104221 0.0588,0.139727 -0.0363,0.03551 -0.0588,0.08495 -0.0588,0.139727 0,0.108055 0.0876,0.195618 0.19562,0.195618 0.0548,0 0.10422,-0.02256 0.13972,-0.05882 9.7e-4,9.9e-4 0.002,0.002 0.003,0.0029 -0.0363,0.03551 -0.0588,0.08495 -0.0588,0.139726 0,0.108056 0.0876,0.195618 0.19561,0.195618 0.0548,0 0.10423,-0.02256 0.13973,-0.05882 0.0355,0.03626 0.085,0.05882 0.13973,0.05882 0.007,0 0.0134,-3.47e-4 0.02,-10e-4 0.0986,-0.01002 0.17562,-0.09331 0.17562,-0.194614 0,-0.05477 -0.0226,-0.10422 -0.0588,-0.139727 9.9e-4,-9.61e-4 0.002,-0.002 0.003,-0.0029 0.0355,0.03626 0.085,0.05882 0.13973,0.05882 0.007,0 0.0134,-3.47e-4 0.02,-9.9e-4 0.0987,-0.01002 0.17562,-0.09331 0.17562,-0.194614 0,-0.05477 -0.0225,-0.10422 -0.0588,-0.139727 9.9e-4,-9.62e-4 0.002,-0.002 0.003,-0.0029 0.0355,0.03626 0.085,0.05882 0.13972,0.05882 0.0548,0 0.10423,-0.02256 0.13973,-0.05882 0.0355,0.03626 0.085,0.05882 0.13973,0.05882 0.0548,0 0.10422,-0.02256 0.13973,-0.05882 0.0355,0.03626 0.0849,0.05882 0.13972,0.05882 0.007,0 0.0134,-3.47e-4 0.02,-0.001 0.0468,-0.0048 0.0886,-0.02602 0.11973,-0.05781 9.6e-4,9.91e-4 0.002,0.002 0.003,0.0029 -0.0363,0.03551 -0.0588,0.08495 -0.0588,0.139727 0,0.108055 0.0876,0.195617 0.19562,0.195617 0.0548,0 0.10422,-0.02256 0.13973,-0.05882 9.6e-4,9.91e-4 0.002,0.002 0.003,0.0029 -0.0363,0.03551 -0.0588,0.08495 -0.0588,0.139727 0,0.108055 0.0876,0.195618 0.19562,0.195618 0.0548,0 0.10422,-0.02256 0.13973,-0.05882 0.0355,0.03626 0.0849,0.05882 0.13972,0.05882 0.0548,0 0.10422,-0.02256 0.13973,-0.05882 0.0355,0.03626 0.0849,0.05882 0.13973,0.05882 0.0548,0 0.10422,-0.02256 0.13972,-0.05882 0.0355,0.03626 0.085,0.05882 0.13973,0.05882 0.0548,0 0.10422,-0.02256 0.13973,-0.05882 0.0355,0.03626 0.0849,0.05882 0.13972,0.05882 0.10806,0 0.19562,-0.08756 0.19562,-0.195618 0,-0.05477 -0.0225,-0.104221 -0.0588,-0.139727 9.9e-4,-9.61e-4 0.002,-0.002 0.003,-0.0029 0.0355,0.03626 0.0849,0.05882 0.13972,0.05882 0.0548,0 0.10422,-0.02256 0.13973,-0.05882 9.6e-4,9.91e-4 0.002,0.002 0.003,0.0029 -0.0363,0.03551 -0.0588,0.08495 -0.0588,0.139727 0,0.108055 0.0876,0.195618 0.19562,0.195618 0.0548,0 0.10422,-0.02256 0.13973,-0.05882 0.0355,0.03626 0.0849,0.05882 0.13972,0.05882 0.0548,0 0.10423,-0.02256 0.13973,-0.05882 0.0355,0.03626 0.085,0.05882 0.13973,0.05882 0.0548,0 0.10422,-0.02256 0.13973,-0.05882 0.0355,0.03626 0.0849,0.05882 0.13972,0.05882 0.10806,0 0.19562,-0.08756 0.19562,-0.195618 0,-0.05477 -0.0226,-0.104221 -0.0588,-0.139727 9.9e-4,-9.61e-4 0.002,-0.002 0.003,-0.0029 0.0355,0.03626 0.085,0.05882 0.13973,0.05882 0.0548,0 0.10422,-0.02256 0.13973,-0.05882 9.6e-4,9.91e-4 0.002,0.002 0.003,0.0029 -0.0363,0.03551 -0.0588,0.08495 -0.0588,0.139727 0,0.108055 0.0876,0.195618 0.19562,0.195618 0.0548,0 0.10422,-0.02256 0.13973,-0.05882 0.0355,0.03626 0.085,0.05882 0.13972,0.05882 0.0548,0 0.10422,-0.02256 0.13973,-0.05882 0.0355,0.03626 0.0849,0.05882 0.13973,0.05882 0.0548,0 0.10422,-0.02256 0.13972,-0.05882 0.0355,0.03626 0.085,0.05882 0.13973,0.05882 0.0548,0 0.10422,-0.02256 0.13973,-0.05882 0.0355,0.03626 0.0849,0.05882 0.13972,0.05882 0.0548,0 0.10422,-0.02256 0.13973,-0.05882 0.0355,0.03626 0.0849,0.05882 0.13973,0.05882 0.0548,0 0.10422,-0.02256 0.13972,-0.05882 0.0355,0.03626 0.085,0.05882 0.13973,0.05882 0.0548,0 0.10422,-0.02256 0.13973,-0.05882 0.0355,0.03626 0.0849,0.05882 0.13972,0.05882 0.10806,0 0.19562,-0.08756 0.19562,-0.195618 0,-0.05477 -0.0225,-0.104221 -0.0588,-0.139727 9.9e-4,-9.61e-4 0.002,-0.002 0.003,-0.0029 0.0355,0.03626 0.0849,0.05882 0.13972,0.05882 0.10806,0 0.19562,-0.08756 0.19562,-0.195617 0,-0.05477 -0.0225,-0.104221 -0.0588,-0.139727 0.0363,-0.03551 0.0588,-0.08495 0.0588,-0.139727 0,-0.05477 -0.0225,-0.104221 -0.0588,-0.139727 0.001,-9.61e-4 0.002,-0.002 0.003,-0.0029 0.0355,0.03626 0.085,0.05882 0.13973,0.05882 0.0548,0 0.10422,-0.02255 0.13973,-0.05882 0.0355,0.03626 0.0849,0.05882 0.13972,0.05882 0.0548,0 0.10422,-0.02255 0.13973,-0.05882 9.7e-4,9.91e-4 0.002,0.002 0.003,0.0029 -0.0363,0.03551 -0.0588,0.08495 -0.0588,0.139727 0,0.108055 0.0876,0.195618 0.19562,0.195618 0.0548,0 0.10422,-0.02255 0.13973,-0.05882 9.6e-4,9.9e-4 0.002,0.002 0.003,0.0029 -0.0363,0.03551 -0.0588,0.08495 -0.0588,0.139726 0,0.108056 0.0876,0.195618 0.19562,0.195618 0.0548,0 0.10422,-0.02255 0.13972,-0.05882 9.7e-4,9.91e-4 0.002,0.002 0.003,0.0029 -0.0363,0.03551 -0.0588,0.08495 -0.0588,0.139727 0,0.108055 0.0876,0.195617 0.19562,0.195617 0.0548,0 0.10422,-0.02256 0.13973,-0.05882 0.0355,0.03626 0.085,0.05882 0.13972,0.05882 0.0548,0 0.10422,-0.02256 0.13973,-0.05882 0.0355,0.03626 0.0849,0.05882 0.13973,0.05882 0.0548,0 0.10422,-0.02256 0.13972,-0.05882 0.0355,0.03626 0.085,0.05882 0.13973,0.05882 0.10806,0 0.19562,-0.08756 0.19562,-0.195617 0,-0.05477 -0.0226,-0.104221 -0.0588,-0.139727 9.9e-4,-9.62e-4 0.002,-0.002 0.003,-0.0029 0.0355,0.03626 0.0849,0.05882 0.13973,0.05882 0.0548,0 0.10422,-0.02255 0.13972,-0.05882 9.7e-4,9.91e-4 0.002,0.002 0.003,0.0029 -0.0363,0.03551 -0.0588,0.08495 -0.0588,0.139727 0,0.108055 0.0876,0.195617 0.19562,0.195617 0.0548,0 0.10422,-0.02256 0.13973,-0.05882 0.0355,0.03626 0.0849,0.05882 0.13972,0.05882 0.0548,0 0.10422,-0.02256 0.13973,-0.05882 0.0355,0.03626 0.0849,0.05882 0.13973,0.05882 0.0548,0 0.10422,-0.02256 0.13972,-0.05882 0.0355,0.03626 0.0849,0.05882 0.13973,0.05882 0.0548,0 0.10422,-0.02256 0.13973,-0.05882 0.0355,0.03626 0.085,0.05882 0.13973,0.05882 0.0548,0 0.10422,-0.02256 0.13972,-0.05882 0.0355,0.03626 0.085,0.05882 0.13973,0.05882 0.007,0 0.0134,-3.47e-4 0.02,-10e-4 0.0987,-0.01002 0.17562,-0.09331 0.17562,-0.194613 0,-0.05477 -0.0225,-0.104221 -0.0588,-0.139727 9.8e-4,-9.61e-4 0.002,-0.002 0.003,-0.0029 0.0355,0.03626 0.0849,0.05882 0.13972,0.05882 0.10806,0 0.19562,-0.08756 0.19562,-0.195618 0,-0.05477 -0.0226,-0.10422 -0.0588,-0.139726 0.0363,-0.03551 0.0588,-0.08495 0.0588,-0.139727 0,-0.05477 -0.0226,-0.104221 -0.0588,-0.139727 0.0363,-0.03551 0.0588,-0.08495 0.0588,-0.139727 0,-0.05477 -0.0226,-0.10422 -0.0588,-0.139727 0.0363,-0.03551 0.0588,-0.08495 0.0588,-0.139727 0,-0.05477 -0.0226,-0.10422 -0.0588,-0.139726 0.0363,-0.03551 0.0588,-0.08495 0.0588,-0.139727 0,-0.05477 -0.0226,-0.104221 -0.0588,-0.139727 0.0363,-0.03551 0.0588,-0.08495 0.0588,-0.139727 0,-0.05477 -0.0226,-0.104221 -0.0588,-0.139727 0.0363,-0.03551 0.0588,-0.08495 0.0588,-0.139727 0,-0.05477 -0.0226,-0.10422 -0.0588,-0.139727 0.0363,-0.03551 0.0588,-0.08495 0.0588,-0.139726 0,-0.108056 -0.0876,-0.195618 -0.19562,-0.195618 -0.0548,0 -0.10422,0.02255 -0.13972,0.05882 -9.7e-4,-9.88e-4 -0.002,-0.002 -0.003,-0.0029 0.0363,-0.03551 0.0588,-0.08495 0.0588,-0.139727 0,-0.108055 -0.0876,-0.195618 -0.19562,-0.195618 -0.0548,0 -0.10422,0.02255 -0.13973,0.05882 -0.0355,-0.03626 -0.0849,-0.05882 -0.13972,-0.05882 -0.0548,0 -0.10422,0.02255 -0.13973,0.05882 -0.0355,-0.03626 -0.0849,-0.05882 -0.13973,-0.05882 -0.0473,0 -0.0906,0.01676 -0.12444,0.04467 -0.005,0.004 -0.009,0.0082 -0.0139,0.01262 -4.6e-4,4.86e-4 -9e-4,10e-4 -0.001,0.0015 -9.6e-4,-9.87e-4 -0.002,-0.002 -0.003,-0.0029 0.0363,-0.03551 0.0588,-0.08495 0.0588,-0.139726 0,-0.05477 -0.0225,-0.104221 -0.0588,-0.139727 0.0363,-0.03551 0.0588,-0.08495 0.0588,-0.139727 0,-0.05477 -0.0225,-0.104221 -0.0588,-0.139727 0.0363,-0.03551 0.0588,-0.08495 0.0588,-0.139727 0,-0.05477 -0.0225,-0.10422 -0.0588,-0.139727 0.0363,-0.03551 0.0588,-0.08495 0.0588,-0.139727 0,-0.05477 -0.0225,-0.10422 -0.0588,-0.139726 0.0363,-0.03551 0.0588,-0.08495 0.0588,-0.139727 0,-0.108056 -0.0876,-0.195618 -0.19562,-0.195618 -0.0548,0 -0.10422,0.02255 -0.13973,0.05882 -9.6e-4,-9.88e-4 -0.002,-0.002 -0.003,-0.0029 0.0363,-0.03551 0.0588,-0.08495 0.0588,-0.139727 0,-0.108056 -0.0876,-0.195618 -0.19561,-0.195618 -0.0548,0 -0.10422,0.02255 -0.13973,0.05882 -0.0355,-0.03626 -0.0849,-0.05882 -0.13973,-0.05882 -0.0548,0 -0.10422,0.02255 -0.13972,0.05882 -0.0355,-0.03626 -0.0849,-0.05882 -0.13973,-0.05882 -0.10806,0 -0.19562,0.08756 -0.19562,0.195618 0,0.05477 0.0226,0.10422 0.0588,0.139727 -9.9e-4,9.67e-4 -0.002,0.0019 -0.003,0.0029 -0.0355,-0.03626 -0.085,-0.05882 -0.13973,-0.05882 -0.0548,0 -0.10422,0.02256 -0.13972,0.05882 -9.7e-4,-9.88e-4 -0.002,-0.002 -0.003,-0.0029 0.0363,-0.03551 0.0588,-0.08495 0.0588,-0.139727 0,-0.108056 -0.0876,-0.195618 -0.19562,-0.195618 -0.0548,0 -0.10422,0.02255 -0.13973,0.05882 -0.0355,-0.03626 -0.085,-0.05882 -0.13972,-0.05882 -0.0548,0 -0.10422,0.02255 -0.13973,0.05882 -0.0355,-0.03626 -0.0849,-0.05882 -0.13973,-0.05882 -0.0548,0 -0.10422,0.02255 -0.13972,0.05882 -0.0355,-0.03626 -0.0849,-0.05882 -0.13973,-0.05882 -0.0548,0 -0.10422,0.02255 -0.13973,0.05882 -0.0355,-0.03626 -0.0849,-0.05882 -0.13972,-0.05882 -0.0548,0 -0.10423,0.02255 -0.13973,0.05882 -0.0355,-0.03626 -0.085,-0.05882 -0.13973,-0.05882 -0.0548,0 -0.10422,0.02255 -0.13973,0.05882 -0.0355,-0.03626 -0.0849,-0.05882 -0.13972,-0.05882 -0.0548,0 -0.10422,0.02255 -0.13973,0.05882 -0.0355,-0.03626 -0.0849,-0.05882 -0.13973,-0.05882 -0.0548,0 -0.10422,0.02255 -0.13972,0.05882 -0.0355,-0.03626 -0.085,-0.05882 -0.13973,-0.05882 -0.0548,0 -0.10422,0.02255 -0.13973,0.05882 -0.0355,-0.03626 -0.0849,-0.05882 -0.13972,-0.05882 -0.0548,0 -0.10422,0.02255 -0.13973,0.05882 -0.0355,-0.03626 -0.0849,-0.05882 -0.13973,-0.05882 -0.10805,0 -0.19561,0.08756 -0.19561,0.195618 0,0.05477 0.0225,0.10422 0.0588,0.139727 -9.9e-4,9.67e-4 -0.002,0.0019 -0.003,0.0029 -0.0355,-0.03626 -0.0849,-0.05882 -0.13972,-0.05882 -0.0548,0 -0.10423,0.02256 -0.13973,0.05882 -9.7e-4,-9.88e-4 -0.002,-0.002 -0.003,-0.0029 0.0363,-0.03551 0.0588,-0.08495 0.0588,-0.139727 0,-0.108056 -0.0876,-0.195618 -0.19562,-0.195618 -0.0548,0 -0.10422,0.02255 -0.13973,0.05882 -0.0355,-0.03626 -0.0849,-0.05882 -0.13973,-0.05882 -0.0548,0 -0.10422,0.02255 -0.13972,0.05882 -0.0355,-0.03626 -0.085,-0.05882 -0.13973,-0.05882 -0.0548,0 -0.10422,0.02255 -0.13973,0.05882 -0.0355,-0.03626 -0.0849,-0.05882 -0.13972,-0.05882 -0.0548,0 -0.10422,0.02255 -0.13973,0.05882 -0.0355,-0.03626 -0.085,-0.05882 -0.13973,-0.05882 -0.0548,0 -0.10422,0.02255 -0.13972,0.05882 -0.0355,-0.03626 -0.085,-0.05882 -0.13973,-0.05882 -0.0548,0 -0.10422,0.02255 -0.13973,0.05882 -0.0355,-0.03626 -0.085,-0.05882 -0.13972,-0.05882 -0.0548,0 -0.10423,0.02255 -0.13973,0.05882 -0.0355,-0.03626 -0.085,-0.05882 -0.13973,-0.05882 -0.0548,0 -0.10422,0.02255 -0.13973,0.05882 -0.0355,-0.03626 -0.085,-0.05882 -0.13972,-0.05882 -0.0548,0 -0.10422,0.02255 -0.13973,0.05882 -0.0355,-0.03626 -0.0849,-0.05882 -0.13973,-0.05882 -0.0548,0 -0.10422,0.02255 -0.13972,0.05882 -0.0355,-0.03626 -0.085,-0.05882 -0.13973,-0.05882 -0.10806,0 -0.19562,0.08756 -0.19562,0.195618 0,0.05477 0.0226,0.10422 0.0588,0.139727 -9.9e-4,9.67e-4 -0.002,0.0019 -0.003,0.0029 -0.0355,-0.03626 -0.0849,-0.05882 -0.13973,-0.05882 -0.0548,0 -0.10422,0.02256 -0.13972,0.05882 -9.7e-4,-9.88e-4 -0.002,-0.002 -0.003,-0.0029 0.0363,-0.03551 0.0588,-0.08495 0.0588,-0.139727 0,-0.108056 -0.0876,-0.195618 -0.19562,-0.195618 -0.0548,0 -0.10422,0.02255 -0.13972,0.05882 -0.0355,-0.03626 -0.085,-0.05882 -0.13973,-0.05882 -0.0548,0 -0.10422,0.02255 -0.13973,0.05882 -0.0355,-0.03626 -0.0849,-0.05882 -0.13972,-0.05882 -0.0548,0 -0.10422,0.02255 -0.13973,0.05882 -0.0355,-0.03626 -0.0849,-0.05882 -0.13973,-0.05882 -0.0548,0 -0.10422,0.02255 -0.13972,0.05882 -0.0355,-0.03626 -0.085,-0.05882 -0.13973,-0.05882 -0.0548,0 -0.10422,0.02255 -0.13973,0.05882 -0.0355,-0.03626 -0.0849,-0.05882 -0.13972,-0.05882 -0.0548,0 -0.10422,0.02255 -0.13973,0.05882 -0.0355,-0.03626 -0.0849,-0.05882 -0.13973,-0.05882 -0.0548,0 -0.10422,0.02255 -0.13972,0.05882 -0.0355,-0.03626 -0.085,-0.05882 -0.13973,-0.05882 z m 1.25754,1.450234 c 0.0355,0.03626 0.085,0.05882 0.13973,0.05882 0.0548,0 0.10422,-0.02255 0.13973,-0.05882 9.6e-4,9.87e-4 0.002,0.002 0.003,0.0029 -0.0363,0.03551 -0.0588,0.08495 -0.0588,0.139727 0,0.05477 0.0226,0.10422 0.0588,0.139726 -0.0363,0.03551 -0.0588,0.08495 -0.0588,0.139727 0,0.05477 0.0226,0.104221 0.0588,0.139727 -0.0363,0.03551 -0.0588,0.08495 -0.0588,0.139727 0,0.05477 0.0226,0.10422 0.0588,0.139727 -9.9e-4,9.68e-4 -0.002,0.0019 -0.003,0.0029 -0.0355,-0.03626 -0.085,-0.05882 -0.13973,-0.05882 -0.0548,0 -0.10422,0.02255 -0.13973,0.05882 -0.0355,-0.03626 -0.085,-0.05882 -0.13972,-0.05882 -0.10806,0 -0.19562,0.08756 -0.19562,0.195617 0,0.05477 0.0225,0.104221 0.0588,0.139727 -9.9e-4,9.62e-4 -0.002,0.0019 -0.003,0.0029 -0.0355,-0.03626 -0.085,-0.05882 -0.13972,-0.05882 -0.0548,0 -0.10422,0.02255 -0.13973,0.05882 -9.6e-4,-9.91e-4 -0.002,-0.002 -0.003,-0.0029 0.0363,-0.03551 0.0588,-0.08495 0.0588,-0.139727 0,-0.05477 -0.0226,-0.10422 -0.0588,-0.139726 0.0363,-0.03551 0.0588,-0.08495 0.0588,-0.139727 0,-0.05477 -0.0226,-0.104221 -0.0588,-0.139727 0.0363,-0.03551 0.0588,-0.08495 0.0588,-0.139727 0,-0.05477 -0.0226,-0.10422 -0.0588,-0.139727 9.9e-4,-9.67e-4 0.002,-0.0019 0.003,-0.0029 0.0355,0.03626 0.085,0.05882 0.13973,0.05882 0.0548,0 0.10422,-0.02255 0.13972,-0.05882 0.0355,0.03626 0.085,0.05882 0.13973,0.05882 0.10806,0 0.19562,-0.08756 0.19562,-0.195617 0,-0.05477 -0.0226,-0.104221 -0.0588,-0.139727 9.9e-4,-9.68e-4 0.002,-0.0019 0.003,-0.0029 z m 1.95618,0 c 0.0355,0.03626 0.0849,0.05882 0.13973,0.05882 0.0548,0 0.10422,-0.02255 0.13972,-0.05882 9.6e-4,9.87e-4 0.002,0.002 0.003,0.0029 -0.0363,0.03551 -0.0588,0.08495 -0.0588,0.139727 0,0.05477 0.0226,0.10422 0.0588,0.139726 -0.0363,0.03551 -0.0588,0.08495 -0.0588,0.139727 0,0.05477 0.0226,0.104221 0.0588,0.139727 -0.0363,0.03551 -0.0588,0.08495 -0.0588,0.139727 0,0.05477 0.0226,0.10422 0.0588,0.139727 -0.0363,0.03551 -0.0588,0.08495 -0.0588,0.139727 0,0.05477 0.0226,0.10422 0.0588,0.139726 -9.9e-4,9.62e-4 -0.002,0.002 -0.003,0.0029 -0.0355,-0.03626 -0.0849,-0.05882 -0.13972,-0.05882 -0.0548,0 -0.10422,0.02255 -0.13973,0.05882 -9.6e-4,-9.9e-4 -0.002,-0.002 -0.003,-0.0029 0.0363,-0.03551 0.0588,-0.08495 0.0588,-0.139726 0,-0.108055 -0.0876,-0.195618 -0.19562,-0.195618 -0.0548,0 -0.10422,0.02255 -0.13973,0.05882 -9.6e-4,-9.88e-4 -0.002,-0.002 -0.003,-0.0029 0.0363,-0.03551 0.0588,-0.08495 0.0588,-0.139727 0,-0.05477 -0.0226,-0.10422 -0.0588,-0.139727 0.0363,-0.03551 0.0588,-0.08495 0.0588,-0.139726 0,-0.05477 -0.0226,-0.104221 -0.0588,-0.139727 9.9e-4,-9.68e-4 0.002,-0.0019 0.003,-0.0029 0.0355,0.03626 0.0849,0.05882 0.13973,0.05882 0.10805,0 0.19562,-0.08756 0.19562,-0.195618 0,-0.05477 -0.0226,-0.10422 -0.0588,-0.139727 9.9e-4,-9.67e-4 0.002,-0.0019 0.003,-0.0029 z"
       style="fill:#000000;stroke-width:0.0771024"
       inkscape:connector-curvature="0" />
    <path
       id="path6"
       d="m 156.75341,56.787034 c -0.11114,0 -0.20121,0.09007 -0.20121,0.201206 0,0.05433 0.0216,0.103528 0.0566,0.139727 -0.035,0.0362 -0.0566,0.0854 -0.0566,0.139727 0,0.05433 0.0216,0.103528 0.0566,0.139727 -0.035,0.0362 -0.0566,0.0854 -0.0566,0.139727 0,0.05433 0.0216,0.103528 0.0566,0.139726 -0.035,0.0362 -0.0566,0.0854 -0.0566,0.139727 0,0.05433 0.0216,0.103529 0.0566,0.139727 -0.035,0.0362 -0.0566,0.0854 -0.0566,0.139727 0,0.05433 0.0216,0.103528 0.0566,0.139727 -0.035,0.0362 -0.0566,0.0854 -0.0566,0.139727 0,0.05433 0.0216,0.103528 0.0566,0.139727 -0.035,0.0362 -0.0566,0.0854 -0.0566,0.139726 0,0.111141 0.0901,0.201207 0.20121,0.201207 0.11114,0 0.20121,-0.09007 0.20121,-0.201207 0,-0.05433 -0.0216,-0.103528 -0.0566,-0.139726 0.035,-0.0362 0.0566,-0.0854 0.0566,-0.139727 0,-0.05433 -0.0216,-0.103529 -0.0566,-0.139727 0.035,-0.0362 0.0566,-0.0854 0.0566,-0.139727 0,-0.04187 -0.0128,-0.08074 -0.0347,-0.112939 0.0322,0.02188 0.0711,0.03469 0.11293,0.03469 0.0543,0 0.10353,-0.02163 0.13973,-0.05661 0.0362,0.03499 0.0854,0.05661 0.13973,0.05661 0.0543,0 0.10353,-0.02163 0.13973,-0.05661 0.0362,0.03499 0.0854,0.05661 0.13972,0.05661 0.11114,0 0.20121,-0.09007 0.20121,-0.201206 0,-0.04187 -0.0128,-0.08074 -0.0347,-0.112939 0.0322,0.02188 0.0711,0.03469 0.11294,0.03469 0.11114,0 0.2012,-0.09007 0.2012,-0.201207 0,-0.05433 -0.0216,-0.103528 -0.0566,-0.139726 0.035,-0.0362 0.0566,-0.0854 0.0566,-0.139727 0,-0.111141 -0.0901,-0.201207 -0.2012,-0.201207 -0.0419,0 -0.0807,0.01281 -0.11294,0.03469 0.0219,-0.0322 0.0347,-0.07106 0.0347,-0.112939 0,-0.11114 -0.0901,-0.201206 -0.20121,-0.201206 -0.0543,0 -0.10353,0.02163 -0.13972,0.05661 -0.0362,-0.03499 -0.0854,-0.05661 -0.13973,-0.05661 -0.0543,0 -0.10353,0.02163 -0.13973,0.05661 -0.0362,-0.03499 -0.0854,-0.05661 -0.13973,-0.05661 -0.0543,0 -0.10352,0.02163 -0.13972,0.05661 -0.0362,-0.03499 -0.0854,-0.05661 -0.13973,-0.05661 z m 1.67672,0 c -0.11114,0 -0.2012,0.09007 -0.2012,0.201206 0,0.05433 0.0216,0.103528 0.0566,0.139727 -0.035,0.0362 -0.0566,0.0854 -0.0566,0.139727 0,0.05433 0.0216,0.103528 0.0566,0.139727 -0.035,0.0362 -0.0566,0.0854 -0.0566,0.139727 0,0.11114 0.0901,0.201206 0.2012,0.201206 0.0419,0 0.0807,-0.01281 0.11294,-0.03469 -0.0219,0.0322 -0.0347,0.07106 -0.0347,0.112939 0,0.11114 0.0901,0.201207 0.20121,0.201207 0.0419,0 0.0807,-0.01281 0.11294,-0.03469 -0.0219,0.0322 -0.0347,0.07106 -0.0347,0.112938 0,0.05433 0.0216,0.103529 0.0566,0.139727 -0.035,0.0362 -0.0566,0.0854 -0.0566,0.139727 0,0.05433 0.0216,0.103528 0.0566,0.139727 -0.035,0.0362 -0.0566,0.0854 -0.0566,0.139727 0,0.11114 0.0901,0.201206 0.20121,0.201206 0.11114,0 0.20121,-0.09007 0.20121,-0.201206 0,-0.05433 -0.0216,-0.103529 -0.0566,-0.139727 0.035,-0.0362 0.0566,-0.0854 0.0566,-0.139727 0,-0.05433 -0.0216,-0.103528 -0.0566,-0.139727 0.035,-0.0362 0.0566,-0.0854 0.0566,-0.139727 0,-0.04187 -0.0128,-0.08074 -0.0347,-0.112938 0.0322,0.02188 0.0711,0.03469 0.11293,0.03469 0.11114,0 0.20121,-0.09007 0.20121,-0.201207 0,-0.04187 -0.0128,-0.08074 -0.0347,-0.112939 0.0322,0.02188 0.0711,0.03469 0.11294,0.03469 0.11114,0 0.2012,-0.09007 0.2012,-0.201206 0,-0.05433 -0.0216,-0.103529 -0.0566,-0.139727 0.035,-0.0362 0.0566,-0.0854 0.0566,-0.139727 0,-0.05433 -0.0216,-0.103528 -0.0566,-0.139727 0.035,-0.0362 0.0566,-0.0854 0.0566,-0.139727 0,-0.111141 -0.0901,-0.201206 -0.2012,-0.201206 -0.11114,0 -0.20121,0.09007 -0.20121,0.201206 0,0.05433 0.0216,0.103528 0.0566,0.139727 -0.035,0.0362 -0.0566,0.0854 -0.0566,0.139727 0,0.05433 0.0216,0.103528 0.0566,0.139727 -0.035,0.0362 -0.0566,0.0854 -0.0566,0.139727 0,0.04187 0.0128,0.08074 0.0347,0.112938 -0.0322,-0.02188 -0.0711,-0.03469 -0.11294,-0.03469 -0.11114,0 -0.2012,0.09007 -0.2012,0.201207 0,0.04187 0.0128,0.08074 0.0347,0.112939 -0.0322,-0.02188 -0.0711,-0.03469 -0.11294,-0.03469 -0.0419,0 -0.0807,0.01281 -0.11294,0.03469 0.0219,-0.0322 0.0347,-0.07107 0.0347,-0.112939 0,-0.111141 -0.0901,-0.201207 -0.2012,-0.201207 -0.0419,0 -0.0807,0.01281 -0.11294,0.03469 0.0219,-0.0322 0.0347,-0.07106 0.0347,-0.112938 0,-0.05433 -0.0216,-0.103529 -0.0566,-0.139727 0.035,-0.0362 0.0566,-0.0854 0.0566,-0.139727 0,-0.05433 -0.0216,-0.103528 -0.0566,-0.139727 0.035,-0.0362 0.0566,-0.0854 0.0566,-0.139727 0,-0.111141 -0.0901,-0.201206 -0.20121,-0.201206 z m 1.67673,0 c -0.11114,0 -0.20121,0.09007 -0.20121,0.201206 0,0.111141 0.0901,0.201207 0.20121,0.201207 0.0543,0 0.10352,-0.02163 0.13972,-0.05661 0.0362,0.03499 0.0854,0.05661 0.13973,0.05661 0.0419,0 0.0807,-0.01281 0.11294,-0.03469 -0.0219,0.0322 -0.0347,0.07106 -0.0347,0.112939 0,0.05433 0.0216,0.103528 0.0566,0.139726 -0.035,0.0362 -0.0566,0.0854 -0.0566,0.139727 0,0.05433 0.0216,0.103529 0.0566,0.139727 -0.035,0.0362 -0.0566,0.0854 -0.0566,0.139727 0,0.05433 0.0216,0.103528 0.0566,0.139727 -0.035,0.0362 -0.0566,0.0854 -0.0566,0.139727 0,0.05433 0.0216,0.103528 0.0566,0.139726 -0.035,0.0362 -0.0566,0.0854 -0.0566,0.139727 0,0.05433 0.0216,0.103529 0.0566,0.139727 -0.035,0.0362 -0.0566,0.0854 -0.0566,0.139727 0,0.111141 0.0901,0.201207 0.2012,0.201207 0.11114,0 0.20121,-0.09007 0.20121,-0.201207 0,-0.05433 -0.0216,-0.103528 -0.0566,-0.139727 0.035,-0.0362 0.0566,-0.0854 0.0566,-0.139727 0,-0.05433 -0.0216,-0.103528 -0.0566,-0.139727 0.035,-0.0362 0.0566,-0.0854 0.0566,-0.139726 0,-0.05433 -0.0216,-0.103529 -0.0566,-0.139727 0.035,-0.0362 0.0566,-0.0854 0.0566,-0.139727 0,-0.05433 -0.0216,-0.103528 -0.0566,-0.139727 0.035,-0.0362 0.0566,-0.0854 0.0566,-0.139727 0,-0.05433 -0.0216,-0.103528 -0.0566,-0.139727 0.035,-0.0362 0.0566,-0.0854 0.0566,-0.139726 0,-0.04187 -0.0128,-0.08074 -0.0347,-0.112939 0.0322,0.02188 0.0711,0.03469 0.11294,0.03469 0.0543,0 0.10352,-0.02163 0.13972,-0.05661 0.0362,0.03499 0.0854,0.05661 0.13973,0.05661 0.11114,0 0.20121,-0.09007 0.20121,-0.201207 0,-0.111141 -0.0901,-0.201206 -0.20121,-0.201206 -0.0543,0 -0.10353,0.02163 -0.13973,0.05661 -0.0362,-0.03499 -0.0854,-0.05661 -0.13972,-0.05661 -0.0543,0 -0.10353,0.02163 -0.13973,0.05661 -0.0362,-0.03499 -0.0854,-0.05661 -0.13973,-0.05661 -0.0543,0 -0.10352,0.02163 -0.13972,0.05661 -0.0362,-0.03499 -0.0854,-0.05661 -0.13973,-0.05661 -0.0543,0 -0.10353,0.02163 -0.13973,0.05661 -0.0362,-0.03499 -0.0854,-0.05661 -0.13972,-0.05661 z m 1.67672,0 c -0.11114,0 -0.20121,0.09007 -0.20121,0.201206 0,0.05433 0.0216,0.103528 0.0566,0.139727 -0.035,0.0362 -0.0566,0.0854 -0.0566,0.139727 0,0.05433 0.0216,0.103528 0.0566,0.139727 -0.035,0.0362 -0.0566,0.0854 -0.0566,0.139727 0,0.05433 0.0216,0.103528 0.0566,0.139726 -0.035,0.0362 -0.0566,0.0854 -0.0566,0.139727 0,0.05433 0.0216,0.103529 0.0566,0.139727 -0.035,0.0362 -0.0566,0.0854 -0.0566,0.139727 0,0.05433 0.0216,0.103528 0.0566,0.139727 -0.035,0.0362 -0.0566,0.0854 -0.0566,0.139727 0,0.05433 0.0216,0.103528 0.0566,0.139727 -0.035,0.0362 -0.0566,0.0854 -0.0566,0.139726 0,0.111141 0.0901,0.201207 0.20121,0.201207 0.11114,0 0.2012,-0.09007 0.2012,-0.201207 0,-0.05433 -0.0216,-0.103528 -0.0566,-0.139726 0.035,-0.0362 0.0566,-0.0854 0.0566,-0.139727 0,-0.05433 -0.0216,-0.103529 -0.0566,-0.139727 0.035,-0.0362 0.0566,-0.0854 0.0566,-0.139727 0,-0.04187 -0.0128,-0.08074 -0.0347,-0.112939 0.0322,0.02188 0.0711,0.03469 0.11294,0.03469 0.0543,0 0.10353,-0.02163 0.13973,-0.05661 0.0362,0.03499 0.0854,0.05661 0.13973,0.05661 0.0543,0 0.10352,-0.02163 0.13972,-0.05661 0.0362,0.03499 0.0854,0.05661 0.13973,0.05661 0.0419,0 0.0807,-0.01281 0.11294,-0.03469 -0.0219,0.0322 -0.0347,0.07106 -0.0347,0.112939 0,0.05433 0.0216,0.103528 0.0566,0.139727 -0.035,0.0362 -0.0566,0.0854 -0.0566,0.139727 0,0.05433 0.0216,0.103528 0.0566,0.139727 -0.035,0.0362 -0.0566,0.0854 -0.0566,0.139726 0,0.111141 0.0901,0.201207 0.2012,0.201207 0.11114,0 0.20121,-0.09007 0.20121,-0.201207 0,-0.05433 -0.0216,-0.103528 -0.0566,-0.139726 0.035,-0.0362 0.0566,-0.0854 0.0566,-0.139727 0,-0.05433 -0.0216,-0.103529 -0.0566,-0.139727 0.035,-0.0362 0.0566,-0.0854 0.0566,-0.139727 0,-0.05433 -0.0216,-0.103528 -0.0566,-0.139727 0.035,-0.0362 0.0566,-0.0854 0.0566,-0.139727 0,-0.05433 -0.0216,-0.103528 -0.0566,-0.139727 0.035,-0.0362 0.0566,-0.0854 0.0566,-0.139726 0,-0.05433 -0.0216,-0.103529 -0.0566,-0.139727 0.035,-0.0362 0.0566,-0.0854 0.0566,-0.139727 0,-0.05433 -0.0216,-0.103528 -0.0566,-0.139727 0.035,-0.0362 0.0566,-0.0854 0.0566,-0.139727 0,-0.111141 -0.0901,-0.201206 -0.20121,-0.201206 -0.11114,0 -0.2012,0.09007 -0.2012,0.201206 0,0.05433 0.0216,0.103528 0.0566,0.139727 -0.035,0.0362 -0.0566,0.0854 -0.0566,0.139727 0,0.05433 0.0216,0.103528 0.0566,0.139727 -0.035,0.0362 -0.0566,0.0854 -0.0566,0.139727 0,0.04187 0.0128,0.08074 0.0347,0.112938 -0.0322,-0.02188 -0.0711,-0.03469 -0.11294,-0.03469 -0.0543,0 -0.10353,0.02163 -0.13973,0.05661 -0.0362,-0.03499 -0.0854,-0.05661 -0.13972,-0.05661 -0.0543,0 -0.10353,0.02163 -0.13973,0.05661 -0.0362,-0.03499 -0.0854,-0.05661 -0.13973,-0.05661 -0.0419,0 -0.0807,0.01281 -0.11294,0.03469 0.0219,-0.0322 0.0347,-0.07106 0.0347,-0.112938 0,-0.05433 -0.0216,-0.103529 -0.0566,-0.139727 0.035,-0.0362 0.0566,-0.0854 0.0566,-0.139727 0,-0.05433 -0.0216,-0.103528 -0.0566,-0.139727 0.035,-0.0362 0.0566,-0.0854 0.0566,-0.139727 0,-0.111141 -0.0901,-0.201206 -0.2012,-0.201206 z m 1.95617,0 c -0.11114,0 -0.2012,0.09007 -0.2012,0.201206 0,0.04187 0.0128,0.08074 0.0347,0.112939 -0.0322,-0.02188 -0.0711,-0.03469 -0.11294,-0.03469 -0.11114,0 -0.20121,0.09007 -0.20121,0.201207 0,0.05433 0.0216,0.103528 0.0566,0.139726 -0.035,0.0362 -0.0566,0.0854 -0.0566,0.139727 0,0.05433 0.0216,0.103529 0.0566,0.139727 -0.035,0.0362 -0.0566,0.0854 -0.0566,0.139727 0,0.05433 0.0216,0.103528 0.0566,0.139727 -0.035,0.0362 -0.0566,0.0854 -0.0566,0.139727 0,0.05433 0.0216,0.103528 0.0566,0.139726 -0.035,0.0362 -0.0566,0.0854 -0.0566,0.139727 0,0.111141 0.0901,0.201207 0.20121,0.201207 0.0419,0 0.0807,-0.01281 0.11294,-0.03469 -0.0219,0.0322 -0.0347,0.07107 -0.0347,0.112939 0,0.11114 0.0901,0.201206 0.2012,0.201206 0.0543,0 0.10353,-0.02163 0.13973,-0.05661 0.0362,0.03499 0.0854,0.05661 0.13973,0.05661 0.0543,0 0.10353,-0.02163 0.13972,-0.05661 0.0362,0.03499 0.0854,0.05661 0.13973,0.05661 0.11114,0 0.20121,-0.09007 0.20121,-0.201206 0,-0.04187 -0.0128,-0.08074 -0.0347,-0.112939 0.0322,0.02188 0.0711,0.03469 0.11294,0.03469 0.11114,0 0.2012,-0.09007 0.2012,-0.201207 0,-0.05433 -0.0216,-0.103528 -0.0566,-0.139727 0.035,-0.0362 0.0566,-0.0854 0.0566,-0.139726 0,-0.05433 -0.0216,-0.103529 -0.0566,-0.139727 0.035,-0.0362 0.0566,-0.0854 0.0566,-0.139727 0,-0.05433 -0.0216,-0.103528 -0.0566,-0.139727 0.035,-0.0362 0.0566,-0.0854 0.0566,-0.139727 0,-0.05433 -0.0216,-0.103528 -0.0566,-0.139727 0.035,-0.0362 0.0566,-0.0854 0.0566,-0.139726 0,-0.111141 -0.0901,-0.201207 -0.2012,-0.201207 -0.0419,0 -0.0807,0.01281 -0.11294,0.03469 0.0219,-0.0322 0.0347,-0.07107 0.0347,-0.112939 0,-0.111141 -0.0901,-0.201206 -0.20121,-0.201206 -0.0543,0 -0.10353,0.02163 -0.13973,0.05661 -0.0362,-0.03499 -0.0854,-0.05661 -0.13972,-0.05661 -0.0543,0 -0.10353,0.02163 -0.13973,0.05661 -0.0362,-0.03499 -0.0854,-0.05661 -0.13973,-0.05661 z m 1.39727,0 c -0.11114,0 -0.2012,0.09007 -0.2012,0.201206 0,0.05433 0.0216,0.103528 0.0566,0.139727 -0.035,0.0362 -0.0566,0.0854 -0.0566,0.139727 0,0.05433 0.0216,0.103528 0.0566,0.139727 -0.035,0.0362 -0.0566,0.0854 -0.0566,0.139727 0,0.05433 0.0216,0.103528 0.0566,0.139726 -0.035,0.0362 -0.0566,0.0854 -0.0566,0.139727 0,0.05433 0.0216,0.103529 0.0566,0.139727 -0.035,0.0362 -0.0566,0.0854 -0.0566,0.139727 0,0.05433 0.0216,0.103528 0.0566,0.139727 -0.035,0.0362 -0.0566,0.0854 -0.0566,0.139727 0,0.05433 0.0216,0.103528 0.0566,0.139727 -0.035,0.0362 -0.0566,0.0854 -0.0566,0.139726 0,0.111141 0.0901,0.201207 0.2012,0.201207 0.11114,0 0.20121,-0.09007 0.20121,-0.201207 0,-0.05433 -0.0216,-0.103528 -0.0566,-0.139726 0.035,-0.0362 0.0566,-0.0854 0.0566,-0.139727 0,-0.05433 -0.0216,-0.103529 -0.0566,-0.139727 0.035,-0.0362 0.0566,-0.0854 0.0566,-0.139727 0,-0.05433 -0.0216,-0.103528 -0.0566,-0.139727 0.035,-0.0362 0.0566,-0.0854 0.0566,-0.139727 0,-0.04187 -0.0128,-0.08074 -0.0347,-0.112938 0.0322,0.02188 0.0711,0.03469 0.11294,0.03469 0.0419,0 0.0807,-0.01281 0.11294,-0.03469 -0.0219,0.0322 -0.0347,0.07107 -0.0347,0.112938 0,0.111141 0.0901,0.201207 0.2012,0.201207 0.0419,0 0.0807,-0.01281 0.11294,-0.03469 -0.007,0.01083 -0.0137,0.0224 -0.0189,0.0346 -0.0102,0.02407 -0.0158,0.05055 -0.0158,0.07833 0,0.04862 0.0172,0.09322 0.0459,0.128003 0.0369,0.04472 0.0927,0.0732 0.15527,0.0732 0.0419,0 0.0807,-0.01281 0.11294,-0.03469 -0.0219,0.0322 -0.0347,0.07107 -0.0347,0.112939 0,0.05433 0.0216,0.103528 0.0566,0.139726 -0.035,0.0362 -0.0566,0.0854 -0.0566,0.139727 0,0.111141 0.0901,0.201207 0.20121,0.201207 0.11114,0 0.2012,-0.09007 0.2012,-0.201207 0,-0.05433 -0.0216,-0.103528 -0.0566,-0.139727 0.035,-0.0362 0.0566,-0.0854 0.0566,-0.139726 0,-0.05433 -0.0216,-0.103529 -0.0566,-0.139727 0.035,-0.0362 0.0566,-0.0854 0.0566,-0.139727 0,-0.05433 -0.0216,-0.103529 -0.0566,-0.139727 0.035,-0.0362 0.0566,-0.0854 0.0566,-0.139727 0,-0.05433 -0.0216,-0.103528 -0.0566,-0.139727 0.035,-0.0362 0.0566,-0.0854 0.0566,-0.139727 0,-0.05433 -0.0216,-0.103528 -0.0566,-0.139726 0.035,-0.0362 0.0566,-0.0854 0.0566,-0.139727 0,-0.05433 -0.0216,-0.103529 -0.0566,-0.139727 0.035,-0.0362 0.0566,-0.0854 0.0566,-0.139727 0,-0.111141 -0.0901,-0.201207 -0.2012,-0.201207 -0.11114,0 -0.20121,0.09007 -0.20121,0.201207 0,0.05433 0.0216,0.103528 0.0566,0.139727 -0.035,0.0362 -0.0566,0.0854 -0.0566,0.139727 0,0.05433 0.0216,0.103528 0.0566,0.139727 -0.035,0.0362 -0.0566,0.0854 -0.0566,0.139726 0,0.05433 0.0216,0.103529 0.0566,0.139727 -0.035,0.0362 -0.0566,0.0854 -0.0566,0.139727 0,0.04187 0.0128,0.08074 0.0347,0.112939 -1.5e-4,-1e-4 -3.1e-4,-2.16e-4 -4.6e-4,-3.32e-4 -0.0321,-0.02169 -0.0708,-0.03436 -0.1125,-0.03436 -0.0417,0 -0.0804,0.01267 -0.11251,0.03436 -1.5e-4,10e-5 -3e-4,2.16e-4 -4.6e-4,3.32e-4 0.0219,-0.0322 0.0347,-0.07107 0.0347,-0.112939 0,-0.11114 -0.0901,-0.201207 -0.20121,-0.201207 -0.0419,0 -0.0807,0.01281 -0.11293,0.03469 0.0219,-0.0322 0.0347,-0.07107 0.0347,-0.112938 0,-0.111141 -0.0901,-0.201207 -0.20121,-0.201207 -0.0419,0 -0.0807,0.01281 -0.11294,0.03469 0.0219,-0.0322 0.0347,-0.07106 0.0347,-0.112938 0,-0.05433 -0.0216,-0.103529 -0.0566,-0.139727 0.035,-0.0362 0.0566,-0.0854 0.0566,-0.139727 0,-0.111141 -0.0901,-0.201207 -0.2012,-0.201207 z m -7.96443,0.345802 c 0.0362,0.03499 0.0854,0.05661 0.13973,0.05661 0.0543,0 0.10353,-0.02163 0.13973,-0.05661 0.0362,0.03499 0.0854,0.05661 0.13972,0.05661 0.0419,0 0.0807,-0.01281 0.11294,-0.03469 -0.0219,0.0322 -0.0347,0.07106 -0.0347,0.112938 0,0.05433 0.0216,0.103528 0.0566,0.139727 -0.035,0.0362 -0.0566,0.0854 -0.0566,0.139727 0,0.04187 0.0128,0.08074 0.0347,0.112939 -0.0322,-0.02188 -0.0711,-0.03469 -0.11294,-0.03469 -0.0543,0 -0.10353,0.02163 -0.13972,0.05661 -0.0362,-0.03499 -0.0854,-0.05661 -0.13973,-0.05661 -0.0543,0 -0.10353,0.02163 -0.13973,0.05661 -0.0362,-0.03499 -0.0854,-0.05661 -0.13972,-0.05661 -0.0419,0 -0.0807,0.01281 -0.11294,0.03469 0.0219,-0.0322 0.0347,-0.07106 0.0347,-0.112939 0,-0.05433 -0.0216,-0.103528 -0.0566,-0.139727 0.035,-0.0362 0.0566,-0.0854 0.0566,-0.139727 0,-0.04187 -0.0128,-0.08074 -0.0347,-0.112938 0.0322,0.02188 0.0711,0.03469 0.11294,0.03469 0.0543,0 0.10352,-0.02163 0.13972,-0.05661 z m 6.70689,0 c 0.0362,0.03499 0.0854,0.05661 0.13973,0.05661 0.0543,0 0.10353,-0.02163 0.13972,-0.05661 0.0362,0.03499 0.0854,0.05661 0.13973,0.05661 0.0419,0 0.0807,-0.01281 0.11294,-0.03469 -0.0219,0.0322 -0.0347,0.07106 -0.0347,0.112938 0,0.05433 0.0216,0.103528 0.0566,0.139727 -0.035,0.0362 -0.0566,0.0854 -0.0566,0.139727 0,0.05433 0.0216,0.103528 0.0566,0.139727 -0.035,0.0362 -0.0566,0.0854 -0.0566,0.139727 0,0.05433 0.0216,0.103528 0.0566,0.139726 -0.035,0.0362 -0.0566,0.0854 -0.0566,0.139727 0,0.05433 0.0216,0.103529 0.0566,0.139727 -0.035,0.0362 -0.0566,0.0854 -0.0566,0.139727 0,0.04187 0.0128,0.08074 0.0347,0.112939 -0.0322,-0.02188 -0.0711,-0.03469 -0.11294,-0.03469 -0.0543,0 -0.10353,0.02163 -0.13973,0.05661 -0.0362,-0.03499 -0.0854,-0.05661 -0.13972,-0.05661 -0.0543,0 -0.10353,0.02163 -0.13973,0.05661 -0.0362,-0.03499 -0.0854,-0.05661 -0.13973,-0.05661 -0.0419,0 -0.0807,0.01281 -0.11293,0.03469 0.0219,-0.0322 0.0347,-0.07106 0.0347,-0.112939 0,-0.05433 -0.0216,-0.103528 -0.0566,-0.139727 0.035,-0.0362 0.0566,-0.0854 0.0566,-0.139727 0,-0.05433 -0.0216,-0.103528 -0.0566,-0.139727 0.035,-0.0362 0.0566,-0.0854 0.0566,-0.139726 0,-0.05433 -0.0216,-0.103529 -0.0566,-0.139727 0.035,-0.0362 0.0566,-0.0854 0.0566,-0.139727 0,-0.05433 -0.0216,-0.103528 -0.0566,-0.139727 0.035,-0.0362 0.0566,-0.0854 0.0566,-0.139727 0,-0.04187 -0.0128,-0.08074 -0.0347,-0.112938 0.0322,0.02188 0.0711,0.03469 0.11293,0.03469 0.0543,0 0.10353,-0.02163 0.13973,-0.05661 z m 3.49317,1.33092 c -0.11114,0 -0.2012,0.09007 -0.2012,0.201206 0,0.05433 0.0216,0.103529 0.0566,0.139727 -0.035,0.0362 -0.0566,0.0854 -0.0566,0.139727 0,0.05433 0.0216,0.103528 0.0566,0.139727 -0.035,0.0362 -0.0566,0.0854 -0.0566,0.139727 0,0.04187 0.0128,0.08074 0.0347,0.112938 -0.0322,-0.02188 -0.0711,-0.03469 -0.11294,-0.03469 -0.0419,0 -0.0807,0.01281 -0.11294,0.03469 0.0219,-0.0322 0.0347,-0.07106 0.0347,-0.112938 0,-0.111141 -0.0901,-0.201207 -0.20121,-0.201207 -0.0543,0 -0.10353,0.02163 -0.13973,0.05661 -0.0362,-0.03499 -0.0854,-0.05661 -0.13972,-0.05661 -0.11114,0 -0.20121,0.09007 -0.20121,0.201207 0,0.04187 0.0128,0.08074 0.0347,0.112938 -0.0322,-0.02188 -0.0711,-0.03469 -0.11294,-0.03469 -0.11114,0 -0.20121,0.09007 -0.20121,0.201207 0,0.05433 0.0216,0.103529 0.0566,0.139727 -0.035,0.0362 -0.0566,0.0854 -0.0566,0.139727 0,0.05433 0.0216,0.103528 0.0566,0.139727 -0.035,0.0362 -0.0566,0.0854 -0.0566,0.139727 0,0.11114 0.0901,0.201206 0.20121,0.201206 0.0419,0 0.0807,-0.01281 0.11294,-0.03469 -0.0219,0.0322 -0.0347,0.07106 -0.0347,0.112939 0,0.111141 0.0901,0.201207 0.20121,0.201207 0.0543,0 0.10353,-0.02163 0.13972,-0.05661 0.0362,0.03499 0.0854,0.05661 0.13973,0.05661 0.0543,0 0.10353,-0.02163 0.13973,-0.05661 0.0362,0.03499 0.0854,0.05661 0.13972,0.05661 0.0543,0 0.10353,-0.02163 0.13973,-0.05661 0.0362,0.03499 0.0854,0.05661 0.13973,0.05661 0.11114,0 0.2012,-0.09007 0.2012,-0.201207 0,-0.05433 -0.0216,-0.103528 -0.0566,-0.139727 0.035,-0.0362 0.0566,-0.0854 0.0566,-0.139727 0,-0.05433 -0.0216,-0.103528 -0.0566,-0.139727 0.035,-0.0362 0.0566,-0.0854 0.0566,-0.139727 0,-0.05433 -0.0216,-0.103528 -0.0566,-0.139726 0.035,-0.0362 0.0566,-0.0854 0.0566,-0.139727 0,-0.05433 -0.0216,-0.103528 -0.0566,-0.139727 0.035,-0.0362 0.0566,-0.0854 0.0566,-0.139727 0,-0.05433 -0.0216,-0.103528 -0.0566,-0.139727 0.035,-0.0362 0.0566,-0.0854 0.0566,-0.139727 0,-0.05433 -0.0216,-0.103528 -0.0566,-0.139726 0.035,-0.0362 0.0566,-0.0854 0.0566,-0.139727 0,-0.111141 -0.0901,-0.201207 -0.2012,-0.201207 z m -11.17815,0.558907 c -0.11114,0 -0.2012,0.09007 -0.2012,0.201207 0,0.05433 0.0216,0.103528 0.0566,0.139727 -0.035,0.0362 -0.0566,0.0854 -0.0566,0.139727 0,0.05433 0.0216,0.103528 0.0566,0.139726 -0.035,0.0362 -0.0566,0.0854 -0.0566,0.139727 0,0.05433 0.0216,0.103529 0.0566,0.139727 -0.035,0.0362 -0.0566,0.0854 -0.0566,0.139727 0,0.05433 0.0216,0.103528 0.0566,0.139727 -0.035,0.0362 -0.0566,0.0854 -0.0566,0.139727 0,0.11114 0.0901,0.201206 0.2012,0.201206 0.11114,0 0.20121,-0.09007 0.20121,-0.201206 0,-0.05433 -0.0216,-0.103529 -0.0566,-0.139727 0.035,-0.0362 0.0566,-0.0854 0.0566,-0.139727 0,-0.04187 -0.0128,-0.08074 -0.0347,-0.112939 0.0322,0.02188 0.0711,0.03469 0.11294,0.03469 0.0543,0 0.10353,-0.02163 0.13972,-0.05661 0.0362,0.03499 0.0854,0.05661 0.13973,0.05661 0.0543,0 0.10353,-0.02163 0.13973,-0.05661 0.0362,0.03499 0.0854,0.05661 0.13972,0.05661 0.11115,0 0.20121,-0.09007 0.20121,-0.201206 0,-0.04187 -0.0128,-0.08074 -0.0347,-0.112939 0.0322,0.02188 0.0711,0.03469 0.11294,0.03469 0.11114,0 0.2012,-0.09007 0.2012,-0.201206 0,-0.111141 -0.0901,-0.201207 -0.2012,-0.201207 -0.0419,0 -0.0807,0.01281 -0.11294,0.03469 0.0219,-0.0322 0.0347,-0.07106 0.0347,-0.112939 0,-0.111141 -0.0901,-0.201207 -0.20121,-0.201207 -0.0543,0 -0.10352,0.02163 -0.13972,0.05661 -0.0362,-0.03499 -0.0854,-0.05661 -0.13973,-0.05661 -0.0543,0 -0.10353,0.02163 -0.13973,0.05661 -0.0362,-0.03499 -0.0854,-0.05661 -0.13972,-0.05661 -0.0543,0 -0.10353,0.02163 -0.13973,0.05661 -0.0362,-0.03499 -0.0854,-0.05661 -0.13973,-0.05661 z m 1.95618,0 c -0.11114,0 -0.20121,0.09007 -0.20121,0.201207 0,0.04187 0.0128,0.08074 0.0347,0.112938 -0.0322,-0.02188 -0.0711,-0.03469 -0.11294,-0.03469 -0.11114,0 -0.20121,0.09007 -0.20121,0.201207 0,0.05433 0.0216,0.103529 0.0566,0.139727 -0.035,0.0362 -0.0566,0.0854 -0.0566,0.139727 0,0.05433 0.0216,0.103528 0.0566,0.139727 -0.035,0.0362 -0.0566,0.0854 -0.0566,0.139727 0,0.11114 0.0901,0.201206 0.20121,0.201206 0.0419,0 0.0807,-0.01281 0.11294,-0.03469 -0.0219,0.0322 -0.0347,0.07106 -0.0347,0.112939 0,0.111141 0.0901,0.201207 0.20121,0.201207 0.0543,0 0.10353,-0.02163 0.13973,-0.05661 0.0362,0.03499 0.0854,0.05661 0.13972,0.05661 0.0543,0 0.10353,-0.02163 0.13973,-0.05661 0.0362,0.03499 0.0854,0.05661 0.13973,0.05661 0.11114,0 0.2012,-0.09007 0.2012,-0.201207 0,-0.04187 -0.0128,-0.08074 -0.0347,-0.112939 0.0322,0.02188 0.0711,0.03469 0.11294,0.03469 0.11114,0 0.20121,-0.09007 0.20121,-0.201206 0,-0.05433 -0.0216,-0.103529 -0.0566,-0.139727 0.035,-0.0362 0.0566,-0.0854 0.0566,-0.139727 0,-0.05433 -0.0216,-0.103529 -0.0566,-0.139727 0.035,-0.0362 0.0566,-0.0854 0.0566,-0.139727 0,-0.11114 -0.0901,-0.201207 -0.20121,-0.201207 -0.0419,0 -0.0807,0.01281 -0.11294,0.03469 0.0219,-0.0322 0.0347,-0.07106 0.0347,-0.112938 0,-0.111141 -0.0901,-0.201207 -0.2012,-0.201207 -0.0543,0 -0.10353,0.02163 -0.13973,0.05661 -0.0362,-0.03499 -0.0854,-0.05661 -0.13973,-0.05661 -0.0543,0 -0.10352,0.02163 -0.13972,0.05661 -0.0362,-0.03499 -0.0854,-0.05661 -0.13973,-0.05661 z m 1.39727,0 c -0.11114,0 -0.20121,0.09007 -0.20121,0.201207 0,0.05433 0.0216,0.103528 0.0566,0.139727 -0.035,0.0362 -0.0566,0.0854 -0.0566,0.139727 0,0.05433 0.0216,0.103528 0.0566,0.139726 -0.035,0.0362 -0.0566,0.0854 -0.0566,0.139727 0,0.05433 0.0216,0.103529 0.0566,0.139727 -0.035,0.0362 -0.0566,0.0854 -0.0566,0.139727 0,0.11114 0.0901,0.201207 0.20121,0.201207 0.0419,0 0.0807,-0.01281 0.11294,-0.03469 -0.0219,0.0322 -0.0347,0.07106 -0.0347,0.112938 0,0.111141 0.0901,0.201207 0.2012,0.201207 0.11114,0 0.20121,-0.09007 0.20121,-0.201207 0,-0.04187 -0.0128,-0.08074 -0.0347,-0.112938 0.0322,0.02188 0.0711,0.03469 0.11293,0.03469 0.0419,0 0.0807,-0.01281 0.11294,-0.03469 -0.0219,0.0322 -0.0347,0.07106 -0.0347,0.112938 0,0.111141 0.0901,0.201207 0.20121,0.201207 0.11114,0 0.20121,-0.09007 0.20121,-0.201207 0,-0.04187 -0.0128,-0.08074 -0.0347,-0.112938 0.0322,0.02188 0.0711,0.03469 0.11294,0.03469 0.11114,0 0.20121,-0.09007 0.20121,-0.201207 0,-0.05433 -0.0216,-0.103528 -0.0566,-0.139727 0.035,-0.0362 0.0566,-0.0854 0.0566,-0.139727 0,-0.05433 -0.0216,-0.103528 -0.0566,-0.139727 0.035,-0.0362 0.0566,-0.0854 0.0566,-0.139726 0,-0.05433 -0.0216,-0.103529 -0.0566,-0.139727 0.004,-0.0038 0.007,-0.0076 0.0107,-0.01172 0.0287,-0.03478 0.0459,-0.07938 0.0459,-0.128003 0,-0.111141 -0.0901,-0.201207 -0.20121,-0.201207 -0.007,0 -0.0138,3.47e-4 -0.0206,0.001 -0.10147,0.0103 -0.18064,0.09596 -0.18064,0.20016 0,0.05433 0.0216,0.103528 0.0566,0.139726 -0.035,0.0362 -0.0566,0.0854 -0.0566,0.139727 0,0.05433 0.0216,0.103529 0.0566,0.139727 -0.035,0.0362 -0.0566,0.0854 -0.0566,0.139727 0,0.05433 0.0216,0.103528 0.0566,0.139727 -0.035,0.0362 -0.0566,0.0854 -0.0566,0.139727 0,0.04187 0.0128,0.08074 0.0347,0.112938 -0.0322,-0.02188 -0.0711,-0.03469 -0.11294,-0.03469 -0.0419,0 -0.0807,0.01281 -0.11294,0.03469 0.0219,-0.0322 0.0347,-0.07107 0.0347,-0.112938 0,-0.05433 -0.0216,-0.103529 -0.0566,-0.139727 0.035,-0.0362 0.0566,-0.0854 0.0566,-0.139727 0,-0.111141 -0.0901,-0.201207 -0.2012,-0.201207 -0.11114,0 -0.20121,0.09007 -0.20121,0.201207 0,0.05433 0.0216,0.103528 0.0566,0.139727 -0.035,0.0362 -0.0566,0.0854 -0.0566,0.139727 0,0.04187 0.0128,0.08074 0.0347,0.112938 -0.0322,-0.02188 -0.0711,-0.03469 -0.11294,-0.03469 -0.0419,0 -0.0807,0.01281 -0.11294,0.03469 0.0219,-0.0322 0.0347,-0.07107 0.0347,-0.112938 0,-0.05433 -0.0216,-0.103529 -0.0566,-0.139727 0.035,-0.0362 0.0566,-0.0854 0.0566,-0.139727 0,-0.05433 -0.0216,-0.103528 -0.0566,-0.139727 0.035,-0.0362 0.0566,-0.0854 0.0566,-0.139727 0,-0.05433 -0.0216,-0.103528 -0.0566,-0.139727 0.035,-0.0362 0.0566,-0.0854 0.0566,-0.139726 0,-0.111141 -0.0901,-0.201207 -0.20121,-0.201207 z m 1.95617,0 c -0.11114,0 -0.2012,0.09007 -0.2012,0.201207 0,0.04187 0.0128,0.08074 0.0347,0.112938 -0.0322,-0.02188 -0.0711,-0.03469 -0.11294,-0.03469 -0.11114,0 -0.20121,0.09007 -0.20121,0.201207 0,0.05433 0.0216,0.103529 0.0566,0.139727 -0.035,0.0362 -0.0566,0.0854 -0.0566,0.139727 0,0.05433 0.0216,0.103528 0.0566,0.139727 -0.035,0.0362 -0.0566,0.0854 -0.0566,0.139727 0,0.11114 0.0901,0.201206 0.20121,0.201206 0.0419,0 0.0807,-0.01281 0.11294,-0.03469 -0.0219,0.0322 -0.0347,0.07106 -0.0347,0.112939 0,0.111141 0.0901,0.201207 0.2012,0.201207 0.0543,0 0.10353,-0.02163 0.13973,-0.05661 0.0362,0.03499 0.0854,0.05661 0.13973,0.05661 0.0543,0 0.10353,-0.02163 0.13972,-0.05661 0.0362,0.03499 0.0854,0.05661 0.13973,0.05661 0.11114,0 0.20121,-0.09007 0.20121,-0.201207 0,-0.11114 -0.0901,-0.201207 -0.20121,-0.201207 -0.0543,0 -0.10353,0.02163 -0.13973,0.05661 -0.0362,-0.03499 -0.0854,-0.05661 -0.13972,-0.05661 -0.0543,0 -0.10353,0.02163 -0.13973,0.05661 -0.0362,-0.03499 -0.0854,-0.05661 -0.13973,-0.05661 -0.0419,0 -0.0807,0.01281 -0.11293,0.03469 0.0219,-0.0322 0.0347,-0.07106 0.0347,-0.112938 0,-0.04187 -0.0128,-0.08074 -0.0347,-0.112939 0.0322,0.02188 0.0711,0.03469 0.11293,0.03469 0.0543,0 0.10353,-0.02163 0.13973,-0.05661 0.0362,0.03499 0.0854,0.05661 0.13973,0.05661 0.0543,0 0.10353,-0.02163 0.13972,-0.05661 0.0362,0.03499 0.0854,0.05661 0.13973,0.05661 0.0543,0 0.10353,-0.02163 0.13973,-0.05661 0.0362,0.03499 0.0854,0.05661 0.13973,0.05661 0.11114,0 0.2012,-0.09007 0.2012,-0.201207 0,-0.05433 -0.0216,-0.103528 -0.0566,-0.139727 0.035,-0.0362 0.0566,-0.0854 0.0566,-0.139726 0,-0.111141 -0.0901,-0.201207 -0.2012,-0.201207 -0.0419,0 -0.0807,0.01281 -0.11294,0.03469 0.0219,-0.0322 0.0347,-0.07107 0.0347,-0.112939 0,-0.11114 -0.0901,-0.201206 -0.20121,-0.201206 -0.0543,0 -0.10353,0.02163 -0.13973,0.05661 -0.0362,-0.03499 -0.0854,-0.05661 -0.13972,-0.05661 -0.0543,0 -0.10353,0.02163 -0.13973,0.05661 -0.0362,-0.03499 -0.0854,-0.05661 -0.13973,-0.05661 z m 1.39727,0 c -0.11114,0 -0.2012,0.09007 -0.2012,0.201207 0,0.05433 0.0216,0.103528 0.0566,0.139727 -0.035,0.0362 -0.0566,0.0854 -0.0566,0.139727 0,0.05433 0.0216,0.103528 0.0566,0.139726 -0.035,0.0362 -0.0566,0.0854 -0.0566,0.139727 0,0.05433 0.0216,0.103529 0.0566,0.139727 -0.035,0.0362 -0.0566,0.0854 -0.0566,0.139727 0,0.05433 0.0216,0.103528 0.0566,0.139727 -0.035,0.0362 -0.0566,0.0854 -0.0566,0.139727 0,0.11114 0.0901,0.201206 0.2012,0.201206 0.11114,0 0.20121,-0.09007 0.20121,-0.201206 0,-0.05433 -0.0216,-0.103529 -0.0566,-0.139727 0.035,-0.0362 0.0566,-0.0854 0.0566,-0.139727 0,-0.05433 -0.0216,-0.103528 -0.0566,-0.139727 0.035,-0.0362 0.0566,-0.0854 0.0566,-0.139727 0,-0.04187 -0.0128,-0.08074 -0.0347,-0.112938 0.0322,0.02188 0.0711,0.03469 0.11294,0.03469 0.11114,0 0.2012,-0.09007 0.2012,-0.201207 0,-0.04187 -0.0128,-0.08074 -0.0347,-0.112939 0.0322,0.02188 0.0711,0.03469 0.11294,0.03469 0.0543,0 0.10353,-0.02163 0.13973,-0.05661 0.0362,0.03499 0.0854,0.05661 0.13972,0.05661 0.0419,0 0.0807,-0.01281 0.11294,-0.03469 -0.0219,0.0322 -0.0347,0.07106 -0.0347,0.112939 0,0.111141 0.0901,0.201207 0.20121,0.201207 0.11114,0 0.20121,-0.09007 0.20121,-0.201207 0,-0.11114 -0.0901,-0.201207 -0.20121,-0.201207 -0.0419,0 -0.0807,0.01281 -0.11294,0.03469 0.0219,-0.0322 0.0347,-0.07107 0.0347,-0.112938 0,-0.111141 -0.0901,-0.201207 -0.20121,-0.201207 -0.0543,0 -0.10352,0.02163 -0.13972,0.05661 -0.0362,-0.03499 -0.0854,-0.05661 -0.13973,-0.05661 -0.11114,0 -0.20121,0.09007 -0.20121,0.201207 0,0.04187 0.0128,0.08074 0.0347,0.112938 -0.0322,-0.02188 -0.0711,-0.03469 -0.11294,-0.03469 -0.0419,0 -0.0807,0.01281 -0.11294,0.03469 0.0219,-0.0322 0.0347,-0.07107 0.0347,-0.112938 0,-0.111141 -0.0901,-0.201207 -0.20121,-0.201208 z m 1.95618,0 c -0.11114,0 -0.20121,0.09007 -0.20121,0.201207 0,0.04187 0.0128,0.08074 0.0347,0.112938 -0.0322,-0.02188 -0.0711,-0.03469 -0.11294,-0.03469 -0.11114,0 -0.2012,0.09007 -0.2012,0.201207 0,0.05433 0.0216,0.103529 0.0566,0.139727 -0.035,0.0362 -0.0566,0.0854 -0.0566,0.139727 0,0.05433 0.0216,0.103528 0.0566,0.139727 -0.035,0.0362 -0.0566,0.0854 -0.0566,0.139727 0,0.11114 0.0901,0.201206 0.2012,0.201206 0.0419,0 0.0807,-0.01281 0.11294,-0.03469 -0.0219,0.0322 -0.0347,0.07106 -0.0347,0.112939 0,0.111141 0.0901,0.201207 0.20121,0.201207 0.0543,0 0.10353,-0.02163 0.13973,-0.05661 0.0362,0.03499 0.0854,0.05661 0.13972,0.05661 0.0543,0 0.10353,-0.02163 0.13973,-0.05661 0.0362,0.03499 0.0854,0.05661 0.13973,0.05661 0.11114,0 0.2012,-0.09007 0.2012,-0.201207 0,-0.11114 -0.0901,-0.201207 -0.2012,-0.201207 -0.0543,0 -0.10353,0.02163 -0.13973,0.05661 -0.0362,-0.03499 -0.0854,-0.05661 -0.13973,-0.05661 -0.0543,0 -0.10353,0.02163 -0.13972,0.05661 -0.0362,-0.03499 -0.0854,-0.05661 -0.13973,-0.05661 -0.0419,0 -0.0807,0.01281 -0.11294,0.03469 0.0219,-0.0322 0.0347,-0.07106 0.0347,-0.112938 0,-0.04187 -0.0128,-0.08074 -0.0347,-0.112939 0.0322,0.02188 0.0711,0.03469 0.11294,0.03469 0.0543,0 0.10353,-0.02163 0.13973,-0.05661 0.0362,0.03499 0.0854,0.05661 0.13972,0.05661 0.0543,0 0.10353,-0.02163 0.13973,-0.05661 0.0362,0.03499 0.0854,0.05661 0.13973,0.05661 0.0543,0 0.10353,-0.02163 0.13972,-0.05661 0.0362,0.03499 0.0854,0.05661 0.13973,0.05661 0.11114,0 0.20121,-0.09007 0.20121,-0.201207 0,-0.05433 -0.0216,-0.103528 -0.0566,-0.139727 0.035,-0.0362 0.0566,-0.0854 0.0566,-0.139726 0,-0.111141 -0.0901,-0.201207 -0.20121,-0.201207 -0.0419,0 -0.0807,0.01281 -0.11294,0.03469 0.0219,-0.0322 0.0347,-0.07107 0.0347,-0.112939 0,-0.11114 -0.0901,-0.201206 -0.20121,-0.201206 -0.0543,0 -0.10352,0.02163 -0.13972,0.05661 -0.0362,-0.03499 -0.0854,-0.05661 -0.13973,-0.05661 -0.0543,0 -0.10353,0.02163 -0.13973,0.05661 -0.0362,-0.03499 -0.0854,-0.05661 -0.13972,-0.05661 z m -8.24389,0.345802 c 0.0362,0.03499 0.0854,0.05661 0.13973,0.05661 0.0543,0 0.10353,-0.02163 0.13973,-0.05661 0.0362,0.03499 0.0854,0.05661 0.13973,0.05661 0.0419,0 0.0807,-0.01281 0.11293,-0.03469 -0.0219,0.0322 -0.0347,0.07107 -0.0347,0.112939 0,0.04187 0.0128,0.08074 0.0347,0.112939 -0.0322,-0.02188 -0.0711,-0.03469 -0.11293,-0.03469 -0.0543,0 -0.10353,0.02163 -0.13973,0.05661 -0.0362,-0.03499 -0.0854,-0.05661 -0.13973,-0.05661 -0.0543,0 -0.10353,0.02163 -0.13973,0.05661 -0.0362,-0.03499 -0.0854,-0.05661 -0.13972,-0.05661 -0.0419,0 -0.0807,0.01281 -0.11294,0.03469 0.0219,-0.0322 0.0347,-0.07106 0.0347,-0.112939 0,-0.04187 -0.0128,-0.08074 -0.0347,-0.112939 0.0322,0.02188 0.0711,0.03469 0.11294,0.03469 0.0543,0 0.10353,-0.02163 0.13972,-0.05661 z m 1.67673,0 c 0.0362,0.03499 0.0854,0.05661 0.13972,0.05661 0.0543,0 0.10353,-0.02163 0.13973,-0.05661 0.0362,0.03499 0.0854,0.05661 0.13973,0.05661 0.0419,0 0.0807,-0.01281 0.11294,-0.03469 -0.0219,0.0322 -0.0347,0.07107 -0.0347,0.112939 0,0.05433 0.0216,0.103528 0.0566,0.139727 -0.035,0.0362 -0.0566,0.0854 -0.0566,0.139727 0,0.05433 0.0216,0.103528 0.0566,0.139727 -0.035,0.0362 -0.0566,0.0854 -0.0566,0.139726 0,0.04187 0.0128,0.08074 0.0347,0.112939 -0.0322,-0.02188 -0.0711,-0.03469 -0.11294,-0.03469 -0.0543,0 -0.10353,0.02163 -0.13973,0.05661 -0.0362,-0.03499 -0.0854,-0.05661 -0.13973,-0.05661 -0.0543,0 -0.10352,0.02163 -0.13972,0.05661 -0.0362,-0.03499 -0.0854,-0.05661 -0.13973,-0.05661 -0.0419,0 -0.0807,0.01281 -0.11294,0.03469 0.0219,-0.0322 0.0347,-0.07106 0.0347,-0.112939 0,-0.05433 -0.0216,-0.103528 -0.0566,-0.139726 0.035,-0.0362 0.0566,-0.0854 0.0566,-0.139727 0,-0.05433 -0.0216,-0.103529 -0.0566,-0.139727 0.035,-0.0362 0.0566,-0.0854 0.0566,-0.139727 0,-0.04187 -0.0128,-0.08074 -0.0347,-0.112939 0.0322,0.02188 0.0711,0.03469 0.11294,0.03469 0.0543,0 0.10353,-0.02163 0.13973,-0.05661 z m 3.35344,0 c 0.0362,0.03499 0.0854,0.05661 0.13973,0.05661 0.0543,0 0.10353,-0.02163 0.13972,-0.05661 0.0362,0.03499 0.0854,0.05661 0.13973,0.05661 0.0419,0 0.0807,-0.01281 0.11294,-0.03469 -0.0219,0.0322 -0.0347,0.07107 -0.0347,0.112939 0,0.04187 0.0128,0.08074 0.0347,0.112939 -1.5e-4,-1.01e-4 -3.1e-4,-2.24e-4 -4.6e-4,-3.24e-4 -0.0321,-0.02169 -0.0708,-0.03436 -0.1125,-0.03436 -0.0543,0 -0.10353,0.02162 -0.13973,0.05661 -0.0362,-0.03499 -0.0854,-0.05661 -0.13973,-0.05661 -0.0543,0 -0.10353,0.02162 -0.13972,0.05661 -0.004,-0.0037 -0.008,-0.0073 -0.0117,-0.01068 -0.0348,-0.0287 -0.0794,-0.04594 -0.128,-0.04594 -0.0417,0 -0.0804,0.01267 -0.1125,0.03436 -1.7e-4,10e-5 -2.9e-4,2.16e-4 -4.4e-4,3.24e-4 0.0219,-0.0322 0.0347,-0.07107 0.0347,-0.112939 0,-0.04187 -0.0128,-0.08074 -0.0347,-0.112939 0.0322,0.02188 0.0711,0.03469 0.11294,0.03469 0.0543,0 0.10353,-0.02163 0.13972,-0.05661 z m 3.35345,0 c 0.0362,0.03499 0.0854,0.05661 0.13972,0.05661 0.0543,0 0.10353,-0.02163 0.13973,-0.05661 0.0362,0.03499 0.0854,0.05661 0.13973,0.05661 0.0419,0 0.0807,-0.01281 0.11293,-0.03469 -0.0219,0.0322 -0.0347,0.07107 -0.0347,0.112939 0,0.04187 0.0128,0.08074 0.0347,0.112939 -1.5e-4,-1.01e-4 -3e-4,-2.24e-4 -4.6e-4,-3.24e-4 -0.0321,-0.02169 -0.0708,-0.03436 -0.1125,-0.03436 -0.0543,0 -0.10353,0.02162 -0.13973,0.05661 -0.0362,-0.03499 -0.0854,-0.05661 -0.13972,-0.05661 -0.0543,0 -0.10353,0.02162 -0.13973,0.05661 -0.004,-0.0037 -0.008,-0.0073 -0.0117,-0.01068 -0.0348,-0.0287 -0.0794,-0.04594 -0.128,-0.04594 -0.0417,0 -0.0804,0.01267 -0.11251,0.03436 -1.5e-4,10e-5 -3e-4,2.16e-4 -4.6e-4,3.24e-4 0.0219,-0.0322 0.0347,-0.07107 0.0347,-0.112939 0,-0.04187 -0.0128,-0.08074 -0.0347,-0.112939 0.0322,0.02188 0.0711,0.03469 0.11294,0.03469 0.0543,0 0.10353,-0.02163 0.13973,-0.05661 z m 1.67672,0 c 0.0362,0.03499 0.0854,0.05661 0.13972,0.05661 0.0419,0 0.0807,-0.01281 0.11294,-0.03469 -0.0219,0.0322 -0.0347,0.07107 -0.0347,0.112939 0,0.111141 0.0901,0.201207 0.20121,0.201207 0.0419,0 0.0807,-0.01281 0.11294,-0.03469 -0.0219,0.0322 -0.0347,0.07107 -0.0347,0.112938 0,0.05433 0.0216,0.103529 0.0566,0.139727 -0.035,0.0362 -0.0566,0.0854 -0.0566,0.139727 0,0.04187 0.0128,0.08074 0.0347,0.112939 -0.0322,-0.02188 -0.0711,-0.03469 -0.11294,-0.03469 -0.0543,0 -0.10353,0.02163 -0.13973,0.05661 -0.0362,-0.03499 -0.0854,-0.05661 -0.13972,-0.05661 -0.0543,0 -0.10353,0.02163 -0.13973,0.05661 -0.0362,-0.03499 -0.0854,-0.05661 -0.13973,-0.05661 -0.0419,0 -0.0807,0.01281 -0.11294,0.03469 0.0219,-0.0322 0.0347,-0.07106 0.0347,-0.112939 0,-0.05433 -0.0216,-0.103529 -0.0566,-0.139727 0.035,-0.0362 0.0566,-0.0854 0.0566,-0.139727 0,-0.05433 -0.0216,-0.103528 -0.0566,-0.139727 0.035,-0.0362 0.0566,-0.0854 0.0566,-0.139726 0,-0.04187 -0.0128,-0.08074 -0.0347,-0.112939 0.0322,0.02188 0.0711,0.03469 0.11294,0.03469 0.0543,0 0.10353,-0.02163 0.13973,-0.05661 z"
       style="fill:#ffffff;stroke-width:0.0771024"
       inkscape:connector-curvature="0" />
  </g>
  <g
     aria-label="orsinium.dev"
     transform="rotate(37.181278)"
     id="text4146"
     style="font-size:10.2803px;line-height:0%;font-family:'Nimbus Sans L';-inkscape-font-specification:'Nimbus Sans L';letter-spacing:0px;word-spacing:0px;fill:#b3b3b3;fill-opacity:0.425532;stroke-width:1px">
    <path
       d="m 199.27743,-129.20584 c -1.36934,0 -2.18354,0.97149 -2.18354,2.59989 0,1.63766 0.8142,2.5999 2.19279,2.5999 1.36934,0 2.19279,-0.97149 2.19279,-2.56289 0,-1.68392 -0.7957,-2.6369 -2.20204,-2.6369 z m 0.009,0.71243 c 0.86971,0 1.38784,0.71242 1.38784,1.91522 0,1.14728 -0.53663,1.85971 -1.38784,1.85971 -0.86046,0 -1.38785,-0.71243 -1.38785,-1.88747 0,-1.17504 0.52739,-1.88746 1.38785,-1.88746 z"
       style="font-size:9.25229px;line-height:1.25"
       id="path963" />
    <path
       d="m 202.54348,-129.06706 v 4.8482 h 0.77719 v -2.51662 c 0.009,-1.16579 0.49038,-1.68392 1.55439,-1.65616 v -0.78644 c -0.12953,-0.0185 -0.20355,-0.0278 -0.29607,-0.0278 -0.49963,0 -0.87897,0.29607 -1.32308,1.01775 v -0.87897 z"
       style="font-size:9.25229px;line-height:1.25"
       id="path965" />
    <path
       d="m 209.08483,-127.71622 c -0.009,-0.95299 -0.63841,-1.48962 -1.75794,-1.48962 -1.12878,0 -1.85971,0.58289 -1.85971,1.48037 0,0.75868 0.3886,1.11952 1.53588,1.39709 l 0.72168,0.17579 c 0.53663,0.12954 0.74944,0.32383 0.74944,0.66617 0,0.46261 -0.45337,0.76794 -1.12878,0.76794 -0.41636,0 -0.76794,-0.12028 -0.96224,-0.32383 -0.12028,-0.13878 -0.1758,-0.27757 -0.22206,-0.6199 h -0.8142 c 0.037,1.11952 0.66617,1.65616 1.93373,1.65616 1.2213,0 1.99849,-0.6014 1.99849,-1.53588 0,-0.72168 -0.4071,-1.11953 -1.36933,-1.35084 l -0.74019,-0.17579 c -0.62915,-0.14804 -0.89747,-0.35159 -0.89747,-0.69392 0,-0.45337 0.39785,-0.73093 1.027,-0.73093 0.61991,0 0.95299,0.26831 0.9715,0.77719 z"
       style="font-size:9.25229px;line-height:1.25"
       id="path967" />
    <path
       d="m 211.04629,-129.06706 h -0.76794 v 4.8482 h 0.76794 z m 0,-1.89672 h -0.77719 v 0.97149 h 0.77719 z"
       style="font-size:9.25229px;line-height:1.25"
       id="path969" />
    <path
       d="m 212.3601,-129.06706 v 4.8482 h 0.7772 v -2.67391 c 0,-0.98999 0.51812,-1.63765 1.31382,-1.63765 0.61065,0 0.99925,0.37009 0.99925,0.95298 v 3.35858 h 0.76794 v -3.6639 c 0,-0.80495 -0.6014,-1.32308 -1.53588,-1.32308 -0.72168,0 -1.18429,0.27757 -1.6099,0.95298 v -0.8142 z"
       style="font-size:9.25229px;line-height:1.25"
       id="path971" />
    <path
       d="m 218.24456,-129.06706 h -0.76794 v 4.8482 h 0.76794 z m 0,-1.89672 h -0.77719 v 0.97149 h 0.77719 z"
       style="font-size:9.25229px;line-height:1.25"
       id="path973" />
    <path
       d="m 223.37031,-124.21886 v -4.8482 h -0.76794 v 2.74793 c 0,0.99 -0.51813,1.63766 -1.32308,1.63766 -0.61065,0 -0.99925,-0.37009 -0.99925,-0.95299 v -3.4326 h -0.76794 v 3.73793 c 0,0.80495 0.6014,1.32308 1.54514,1.32308 0.71242,0 1.16579,-0.24982 1.61915,-0.88822 v 0.67541 z"
       style="font-size:9.25229px;line-height:1.25"
       id="path975" />
    <path
       d="m 224.70264,-129.06706 v 4.8482 h 0.77719 v -3.044 c 0,-0.70317 0.50888,-1.26756 1.13803,-1.26756 0.57364,0 0.89747,0.35158 0.89747,0.97149 v 3.34007 h 0.7772 v -3.044 c 0,-0.70317 0.50887,-1.26756 1.13803,-1.26756 0.56439,0 0.89747,0.36084 0.89747,0.97149 v 3.34007 h 0.77719 v -3.63615 c 0,-0.86971 -0.49962,-1.35083 -1.40635,-1.35083 -0.64766,0 -1.03625,0.1943 -1.48961,0.74018 -0.28683,-0.51813 -0.67542,-0.74018 -1.30458,-0.74018 -0.64766,0 -1.08252,0.24056 -1.48962,0.82345 v -0.68467 z"
       style="font-size:9.25229px;line-height:1.25"
       id="path977" />
    <path
       d="m 233.52931,-125.18109 h -0.96224 v 0.96223 h 0.96224 z"
       style="font-size:9.25229px;line-height:1.25"
       id="path979" />
    <path
       d="m 238.91414,-130.96378 h -0.76794 v 2.50737 c -0.32383,-0.49037 -0.84196,-0.74943 -1.48962,-0.74943 -1.25831,0 -2.08177,1.0085 -2.08177,2.55363 0,1.63766 0.7957,2.64616 2.10953,2.64616 0.66616,0 1.12878,-0.24982 1.54513,-0.85121 v 0.6384 h 0.68467 z m -2.12803,2.47962 c 0.83271,0 1.36009,0.73093 1.36009,1.89672 0,1.11952 -0.53663,1.85971 -1.35084,1.85971 -0.85121,0 -1.4156,-0.74944 -1.4156,-1.87822 0,-1.12878 0.56439,-1.87821 1.40635,-1.87821 z"
       style="font-size:9.25229px;line-height:1.25"
       id="path981" />
    <path
       d="m 244.22495,-126.38389 c 0,-0.74019 -0.0555,-1.1843 -0.1943,-1.54514 -0.31458,-0.79569 -1.05476,-1.27681 -1.96149,-1.27681 -1.35083,0 -2.22055,1.027 -2.22055,2.62765 0,1.60065 0.83271,2.57214 2.20205,2.57214 1.11027,0 1.87821,-0.62916 2.07251,-1.68392 h -0.77719 c -0.2128,0.63841 -0.64766,0.97149 -1.26756,0.97149 -0.49037,0 -0.90673,-0.22206 -1.16579,-0.62916 -0.18505,-0.27756 -0.24981,-0.55513 -0.25907,-1.03625 z m -3.55288,-0.62916 c 0.0648,-0.89747 0.61065,-1.48036 1.38784,-1.48036 0.78645,0 1.33233,0.61065 1.33233,1.48036 z"
       style="font-size:9.25229px;line-height:1.25"
       id="path983" />
    <path
       d="m 247.1209,-124.21886 1.85971,-4.8482 h -0.86971 l -1.36934,3.93223 -1.29532,-3.93223 h -0.86972 l 1.70243,4.8482 z"
       style="font-size:9.25229px;line-height:1.25"
       id="path985" />
  </g>
</svg>
