<?xml version="1.0" encoding="UTF-8" standalone="no"?>
<svg
   width="3600"
   height="3600"
   viewBox="0 0 368.64 368.6747"
   preserveAspectRatio="xMinYMin meet"
   id="svg2"
   version="1.1"
   inkscape:version="1.1.2 (0a00cf5339, 2022-02-04)"
   sodipodi:docname="python.svg"
   inkscape:export-filename="/home/gram/projects/other/stickers/3sticker/python.png"
   inkscape:export-xdpi="50.619999"
   inkscape:export-ydpi="50.619999"
   xmlns:inkscape="http://www.inkscape.org/namespaces/inkscape"
   xmlns:sodipodi="http://sodipodi.sourceforge.net/DTD/sodipodi-0.dtd"
   xmlns="http://www.w3.org/2000/svg"
   xmlns:svg="http://www.w3.org/2000/svg"
   xmlns:rdf="http://www.w3.org/1999/02/22-rdf-syntax-ns#"
   xmlns:cc="http://creativecommons.org/ns#"
   xmlns:dc="http://purl.org/dc/elements/1.1/">
  <metadata
     id="metadata22">
    <rdf:RDF>
      <cc:Work
         rdf:about="">
        <dc:format>image/svg+xml</dc:format>
        <dc:type
           rdf:resource="http://purl.org/dc/dcmitype/StillImage" />
      </cc:Work>
    </rdf:RDF>
  </metadata>
  <sodipodi:namedview
     pagecolor="#ffffff"
     bordercolor="#666666"
     borderopacity="1"
     objecttolerance="10"
     gridtolerance="10"
     guidetolerance="10"
     inkscape:pageopacity="0"
     inkscape:pageshadow="2"
     inkscape:window-width="1712"
     inkscape:window-height="860"
     id="namedview20"
     showgrid="false"
     inkscape:snap-bbox="true"
     inkscape:bbox-paths="true"
     inkscape:bbox-nodes="true"
     inkscape:snap-bbox-edge-midpoints="true"
     inkscape:zoom="0.094779115"
     inkscape:cx="1292.4788"
     inkscape:cy="2162.9238"
     inkscape:window-x="0"
     inkscape:window-y="30"
     inkscape:window-maximized="1"
     inkscape:current-layer="svg2"
     fit-margin-top="0"
     fit-margin-left="0"
     fit-margin-right="0"
     fit-margin-bottom="0"
     inkscape:snap-global="false"
     inkscape:pagecheckerboard="0">
    <inkscape:grid
       type="xygrid"
       id="grid3350"
       originx="57.344"
       originy="57.349394" />
  </sodipodi:namedview>
  <defs
     id="defs4">
    <linearGradient
       x1="24.714632"
       y1="22.897127"
       x2="151.13583"
       y2="148.33623"
       id="a"
       gradientTransform="matrix(1.1202469,0,0,1.1227451,41.920954,40.772429)"
       gradientUnits="userSpaceOnUse">
      <stop
         stop-color="#387EB8"
         offset="0%"
         id="stop7" />
      <stop
         stop-color="#366994"
         offset="100%"
         id="stop9" />
    </linearGradient>
    <linearGradient
       x1="102.48345"
       y1="103.26573"
       x2="238.2592"
       y2="231.90517"
       id="b"
       gradientTransform="matrix(1.1202468,0,0,1.1227454,41.920954,40.772429)"
       gradientUnits="userSpaceOnUse">
      <stop
         stop-color="#FFE052"
         offset="0%"
         id="stop12" />
      <stop
         stop-color="#FFC331"
         offset="100%"
         id="stop14" />
    </linearGradient>
  </defs>
  <circle
     style="fill:#ffffff;fill-opacity:1;stroke:none;stroke-width:1.14851928;stroke-miterlimit:4;stroke-dasharray:none;stroke-opacity:1"
     id="path3352"
     cx="184.33736"
     cy="184.33736"
     r="183.76309" />
  <path
     d="m 184.25666,40.853177 c -72.70879,0 -68.16898,31.530842 -68.16898,31.530842 l 0.0807,32.666911 69.38468,0 0,9.80748 -96.943181,0 c 0,0 -46.526356,-5.27663 -46.526356,68.08599 0,73.36486 40.609346,70.76299 40.609346,70.76299 l 24.235511,0 0,-34.04411 c 0,0 -1.30654,-40.60935 39.96112,-40.60935 l 68.8172,0 c 0,0 38.66355,0.62467 38.66355,-37.3671 l 0,-62.817204 c 0,0 5.87215,-38.016449 -70.11364,-38.016449 z m -38.25869,21.967851 a 12.471028,12.471028 0 0 1 12.48224,12.482243"
     id="path16"
     inkscape:connector-curvature="0"
     style="fill:url(#a)" />
  <path
     d="m 186.32133,325.77356 c 72.70879,0 68.16897,-31.53084 68.16897,-31.53084 l -0.0807,-32.6658 -69.3858,0 0,-9.80748 96.94318,0 c 0,0 46.52636,5.27664 46.52636,-68.08822 0,-73.36374 -40.60935,-70.76187 -40.60935,-70.76187 l -24.23552,0 0,34.04299 c 0,0 1.30655,40.60935 -39.96112,40.60935 l -68.81719,0 c 0,0 -38.66356,-0.62468 -38.66356,37.36822 l 0,62.81832 c 0,0 -5.87103,38.01533 70.11365,38.01533 z m 38.25869,-21.96561"
     id="path18"
     inkscape:connector-curvature="0"
     style="fill:url(#b)" />
  <g
     aria-label="@orsinium"
     transform="rotate(57.160011)"
     id="text4146"
     style="line-height:0%;font-family:'Nimbus Sans L';-inkscape-font-specification:'Nimbus Sans L';letter-spacing:0px;word-spacing:0px;fill:#808080;stroke-width:1px">
    <path
       d="m 228.07783,112.50384 -0.35201,1.05601 c -0.4,-0.92801 -1.072,-1.39201 -1.95201,-1.39201 -2.14401,0 -4.11202,2.11201 -4.11202,4.43203 0,1.66401 1.12,2.92801 2.60801,2.92801 0.84801,0 1.53601,-0.352 2.27202,-1.152 0.144,0.816 0.736,1.232 1.76001,1.232 1.2,0 2.16001,-0.464 2.97602,-1.424 0.88,-1.02401 1.376,-2.30402 1.376,-3.56803 0,-3.26402 -3.08802,-5.95203 -6.81604,-5.95203 -1.90401,0 -3.92002,0.784 -5.32803,2.06401 -1.56801,1.42401 -2.52802,3.56802 -2.52802,5.66403 0,3.55203 3.23202,6.40004 7.28005,6.40004 1.18401,0 2.44801,-0.24 3.61602,-0.672 l -0.448,-1.07201 c -1.32801,0.36801 -2.20802,0.51201 -3.10402,0.51201 -3.37602,0 -5.98404,-2.35202 -5.98404,-5.40804 0,-3.36002 2.91202,-6.25604 6.28804,-6.25604 3.07202,0 5.63204,2.24002 5.63204,4.92803 0,1.85602 -1.32801,3.66403 -2.68802,3.66403 -0.432,0 -0.80001,-0.32 -0.80001,-0.70401 0,-0.144 0.064,-0.432 0.192,-0.8 l 1.44001,-4.48003 z m -2.40002,0.688 c 0.89601,0 1.55201,0.65601 1.50401,1.53601 -0.032,0.80001 -0.464,2.14402 -0.86401,2.73602 -0.448,0.656 -1.04,1.04001 -1.63201,1.04001 -0.88,0 -1.58401,-0.83201 -1.58401,-1.88801 0,-1.79202 1.23201,-3.42403 2.57602,-3.42403 z"
       style="font-size:16.0001px;line-height:1.25"
       id="path935" />
    <path
       d="m 238.02988,111.89584 c -2.36802,0 -3.77603,1.68001 -3.77603,4.49602 0,2.83202 1.40801,4.49603 3.79203,4.49603 2.36801,0 3.79202,-1.68001 3.79202,-4.43203 0,-2.91201 -1.37601,-4.56002 -3.80802,-4.56002 z m 0.016,1.232 c 1.50401,0 2.40001,1.23201 2.40001,3.31202 0,1.98402 -0.928,3.21602 -2.40001,3.21602 -1.48801,0 -2.40002,-1.232 -2.40002,-3.26402 0,-2.03201 0.91201,-3.26402 2.40002,-3.26402 z"
       style="font-size:16.0001px;line-height:1.25"
       id="path937" />
    <path
       d="m 243.67791,112.13584 v 8.38405 h 1.34401 v -4.35203 c 0.016,-2.01601 0.848,-2.91202 2.68801,-2.86401 v -1.36001 c -0.224,-0.032 -0.352,-0.048 -0.512,-0.048 -0.864,0 -1.52001,0.512 -2.28801,1.76001 v -1.52001 z"
       style="font-size:16.0001px;line-height:1.25"
       id="path939" />
    <path
       d="m 254.98994,114.47185 c -0.016,-1.64801 -1.10401,-2.57601 -3.04002,-2.57601 -1.95201,0 -3.21602,1.008 -3.21602,2.56001 0,1.31201 0.672,1.93601 2.65602,2.41602 l 1.248,0.304 c 0.92801,0.224 1.29601,0.56 1.29601,1.15201 0,0.8 -0.784,1.328 -1.95201,1.328 -0.72,0 -1.32801,-0.208 -1.66401,-0.56 -0.208,-0.24 -0.304,-0.48 -0.384,-1.07201 h -1.40801 c 0.064,1.93602 1.15201,2.86402 3.34402,2.86402 2.11201,0 3.45602,-1.04 3.45602,-2.65601 0,-1.24801 -0.704,-1.93602 -2.36801,-2.33602 l -1.28001,-0.304 c -1.08801,-0.256 -1.55201,-0.608 -1.55201,-1.20001 0,-0.784 0.688,-1.26401 1.77601,-1.26401 1.07201,0 1.64801,0.46401 1.68001,1.34401 z"
       style="font-size:16.0001px;line-height:1.25"
       id="path941" />
    <path
       d="m 258.38193,112.13584 h -1.32801 v 8.38405 h 1.32801 z m 0,-3.28002 h -1.34401 v 1.68001 h 1.34401 z"
       style="font-size:16.0001px;line-height:1.25"
       id="path943" />
    <path
       d="m 260.65391,112.13584 v 8.38405 h 1.34401 v -4.62403 c 0,-1.71201 0.89601,-2.83202 2.27201,-2.83202 1.05601,0 1.72802,0.64001 1.72802,1.64801 v 5.80804 h 1.328 v -6.33604 c 0,-1.39201 -1.04,-2.28801 -2.65601,-2.28801 -1.24801,0 -2.04802,0.48 -2.78402,1.64801 v -1.40801 z"
       style="font-size:16.0001px;line-height:1.25"
       id="path945" />
    <path
       d="m 270.82997,112.13584 h -1.32801 v 8.38405 h 1.32801 z m 0,-3.28002 h -1.34401 v 1.68001 h 1.34401 z"
       style="font-size:16.0001px;line-height:1.25"
       id="path947" />
    <path
       d="m 279.694,120.51989 v -8.38405 h -1.32801 v 4.75203 c 0,1.71201 -0.896,2.83201 -2.28801,2.83201 -1.05601,0 -1.72801,-0.64 -1.72801,-1.64801 v -5.93603 h -1.32801 v 6.46404 c 0,1.39201 1.04001,2.28801 2.67202,2.28801 1.232,0 2.01601,-0.432 2.80001,-1.53601 v 1.16801 z"
       style="font-size:16.0001px;line-height:1.25"
       id="path949" />
    <path
       d="m 281.99801,112.13584 v 8.38405 h 1.34401 v -5.26403 c 0,-1.21601 0.88,-2.19202 1.96801,-2.19202 0.99201,0 1.55201,0.60801 1.55201,1.68001 v 5.77604 h 1.34401 v -5.26403 c 0,-1.21601 0.88,-2.19202 1.96801,-2.19202 0.97601,0 1.55201,0.62401 1.55201,1.68001 v 5.77604 h 1.34401 v -6.28804 c 0,-1.50401 -0.86401,-2.33601 -2.43202,-2.33601 -1.12,0 -1.79201,0.336 -2.57601,1.28 -0.49601,-0.896 -1.16801,-1.28 -2.25602,-1.28 -1.12,0 -1.87201,0.416 -2.57601,1.42401 v -1.18401 z"
       style="font-size:16.0001px;line-height:1.25"
       id="path951" />
  </g>
</svg>
