<?xml version="1.0" encoding="UTF-8" standalone="no"?>
<!-- Created with Inkscape (http://www.inkscape.org/) -->

<svg
   xmlns:dc="http://purl.org/dc/elements/1.1/"
   xmlns:cc="http://creativecommons.org/ns#"
   xmlns:rdf="http://www.w3.org/1999/02/22-rdf-syntax-ns#"
   xmlns:svg="http://www.w3.org/2000/svg"
   xmlns="http://www.w3.org/2000/svg"
   xmlns:sodipodi="http://sodipodi.sourceforge.net/DTD/sodipodi-0.dtd"
   xmlns:inkscape="http://www.inkscape.org/namespaces/inkscape"
   width="3600"
   height="3600"
   id="svg2"
   sodipodi:version="0.32"
   inkscape:version="0.92.4 (5da689c313, 2019-01-14)"
   version="1.0"
   sodipodi:docname="silly_walk.svg"
   inkscape:export-filename="/home/gram/projects/other/stickers/3sticker/silly_walk.png"
   inkscape:export-xdpi="202.24719"
   inkscape:export-ydpi="202.24719">
  <defs
     id="defs4" />
  <sodipodi:namedview
     id="base"
     pagecolor="#ffffff"
     bordercolor="#666666"
     borderopacity="1.0"
     inkscape:pageopacity="0.0"
     inkscape:pageshadow="2"
     inkscape:zoom="0.15792759"
     inkscape:cx="-120.27689"
     inkscape:cy="2309.308"
     inkscape:document-units="px"
     inkscape:current-layer="layer4"
     inkscape:window-width="1600"
     inkscape:window-height="822"
     inkscape:window-x="1080"
     inkscape:window-y="1047"
     showgrid="false"
     inkscape:window-maximized="1"
     showguides="true"
     inkscape:guide-bbox="true"
     inkscape:snap-bbox="true"
     inkscape:bbox-paths="false"
     inkscape:bbox-nodes="false"
     inkscape:snap-bbox-edge-midpoints="false"
     inkscape:snap-bbox-midpoints="true"
     inkscape:snap-nodes="false"
     fit-margin-top="0"
     fit-margin-left="0"
     fit-margin-right="0"
     fit-margin-bottom="0">
    <inkscape:grid
       type="xygrid"
       id="grid3342"
       originx="1020"
       originy="1240" />
  </sodipodi:namedview>
  <metadata
     id="metadata7">
    <rdf:RDF>
      <cc:Work
         rdf:about="">
        <dc:format>image/svg+xml</dc:format>
        <dc:type
           rdf:resource="http://purl.org/dc/dcmitype/StillImage" />
        <dc:title />
      </cc:Work>
    </rdf:RDF>
  </metadata>
  <g
     inkscape:groupmode="layer"
     id="layer1"
     inkscape:label="backplane"
     style="display:inline"
     transform="translate(1020,1307.6378)" />
  <g
     inkscape:groupmode="layer"
     id="layer2"
     inkscape:label="body"
     style="display:inline"
     transform="translate(1020,1960.0001)" />
  <g
     inkscape:groupmode="layer"
     id="layer3"
     inkscape:label="leg-minute"
     style="display:inline"
     transform="translate(1020,1960.0001)" />
  <g
     inkscape:groupmode="layer"
     id="layer4"
     inkscape:label="leg-hour"
     style="display:inline"
     transform="translate(1020,1960.0001)">
    <circle
       style="fill:#ffffff;stroke:none;stroke-width:4.4943819;stroke-opacity:1"
       id="path3344"
       cx="780"
       cy="-160.00006"
       r="1797.7528" />
    <g
       id="g3370"
       transform="matrix(4.494382,0,0,4.494382,-2538.5367,447.71863)">
      <path
         inkscape:connector-curvature="0"
         id="path3034"
         d="m 761.35764,-488.67645 c -1.071,-0.0208 -2.1736,0.0165 -3.2699,0.0573 -6.8205,0.24918 -14.1119,1.66359 -21.5693,3.95819 -10.2078,3.56482 -15.2591,11.58773 -15.2591,11.58773 l -2.3518,24.09329 -19.9058,8.77685 15.7181,1.43413 0,6.94116 -4.1303,12.96448 -6.4822,11.58774 3.2125,2.35195 0,6.02334 -13.4234,10.1536 c 0,0 -19.1682,6.13806 -29.6579,15.31644 -17.701,14.42321 -32.9274,32.00967 -32.9274,32.00967 -8.5228,14.4232 -12.5056,30.11663 -12.5056,30.11663 -7.2115,15.07881 -10.6699,35.22211 -10.6699,35.22211 l 1.3767,59.83169 8.8343,32.87015 2.2946,64.47824 23.1754,-2.81087 c 2.6658,7.17693 9.7921,11.91687 15.7754,16.6932 6.8739,5.487168 13.9231,13.236118 22.7166,13.423418 9.9526,0.21197 19.6869,-2.52891 28.9119,-6.99854 l 4.4745,11.64509 9.2357,-3.67136 4.6466,13.88235 -3.7861,6.53959 -46.2936,15.71801 0,12.04665 -52.833,3.72874 9.2931,106.584146 160.3924,-5.5644 -2.8109,-107.502006 -25.929,-0.9752 -2.8108,-12.96449 -15.9474,-6.19542 c 1.115,-1.4983 2.138,-3.10283 2.9829,-4.93339 -0.9272,-15.76169 -8.3179,-25.92897 -8.3179,-25.92897 l 6.4823,-4.646568 -6.4248,-21.11031 c 1.8659,-1.76515 3.6986,-3.55681 5.4494,-5.33496 5.3126,-5.39493 4.9786,-12.80065 9.6949,-20.02038 l 1.893,-0.40156 0.1137,-2.29459 4.9909,-101.99497 0,-8.31792 c 0,0 7.1296,-13.07103 9.752,-25.52743 0,-17.70119 -25.929,-62.06891 -25.929,-62.06891 l -30.6328,-44.51524 -3.2125,-9.29313 20.3644,6.48225 6.0235,-13.42341 6.0233,-2.81089 -6.0233,-11.1288 2.8108,-11.58774 7.8591,-0.91784 1.8357,9.29314 8.8342,5.10547 -0.459,10.21097 8.318,1.37677 2.8109,-9.29314 -5.5645,-9.23576 6.0233,-8.8342 13.4234,0.45891 7.4576,6.48225 -9.7521,6.48225 5.5643,5.10547 9.2358,-7.85899 -1.3767,-9.75206 18.0698,1.89304 -18.9877,-12.56292 0,-23.17546 c 0,0 -9.4816,-11.25994 -16.6932,-13.88232 -5.8081,-3.54946 -12.6387,-5.24546 -20.135,-5.39232 z m -6.7692,86.04749 0.9752,16.23429 -5.1054,3.21245 15.718,0.9752 14.3985,2.75352 -13.4234,-8.83422 -12.5629,-14.34124 z m -59.3728,247.3005 c 0.3086,-0.0314 0.601,0 0.9179,0 5.0692,0 9.1784,4.10931 9.1784,9.1784 0,5.06908 -4.1092,9.1784 -9.1784,9.1784 -5.0691,0 -9.1785,-4.10932 -9.1785,-9.1784 0,-4.75227 3.6325,-8.70838 8.2606,-9.1784 z m 26.9043,91.497168 -2.7536,4.70392 13.9398,5.56441 c 0,0 6.1218,-2.22741 11.7598,-7.51482 l 15.0869,5.67913 -0.9178,9.23578 -75.0908,1.89303 0,-7.45745 37.9757,-12.104 z"
         style="display:inline;fill:#000000;fill-opacity:1;stroke:#000000;stroke-width:1.83567977px;stroke-linecap:butt;stroke-linejoin:miter;stroke-opacity:1" />
      <path
         inkscape:connector-curvature="0"
         id="path3832"
         d="m 690.10914,-192.08416 c -10.983,0.10316 -22.5042,8.07582 -29.1987,16.75057 -5.9562,7.71806 -7.0981,19.05485 -5.5645,28.6825 1.5024,9.43025 9.669,16.52763 13.9398,25.0685 4.9163,9.8318 13.4235,30.116628 13.4235,30.116628 l 26.8469,106.641516 -69.5265,159.015756 -13.8823,15.77528 0,25.01114 4.6465,3.26989 30.5756,0 11.5877,-6.48233 28.2809,6.02341 35.681,-0.45893 c 0,0 8.3659,2.27314 9.2931,-6.99852 -13.9073,-6.49004 -32.4111,-10.21097 -32.4111,-10.21097 l -14.3987,-11.07153 -6.9986,-13.02176 -11.5876,-3.21244 3.7288,-15.77528 38.0329,8.31783 13.8823,-58.39756 c 0,0 37.761,-76.299996 38.4919,-101.5360357 0.8329,-28.7580563 -25.5274,-132.5705043 -25.5274,-132.5705043 -0.2882,-1.4967 -27.1201,-58.61097 -54.6688,-64.47824 -1.5311,-0.32608 -3.0776,-0.47364 -4.6467,-0.45892 z m 5.5072,36.88569 c 0.3085,-0.0314 0.6009,0 0.9177,0 5.0691,0 9.1785,4.10932 9.1785,9.17839 0,5.06908 -4.1094,9.1784 -9.1785,9.1784 -5.069,0 -9.1784,-4.10932 -9.1784,-9.1784 0,-4.75226 3.6323,-8.70837 8.2607,-9.17839 z"
         style="display:inline;fill:#000000;fill-opacity:1;stroke:#000000;stroke-width:1.83567977px;stroke-linecap:butt;stroke-linejoin:miter;stroke-opacity:1" />
      <path
         inkscape:connector-curvature="0"
         id="path3811"
         d="m 843.23694,-279.07802 c -2.9773,0.0315 -5.1053,0.22946 -5.1053,0.22946 l -62.5854,27.30575 -49.7354,27.07625 c 0,0 -64.6837,34.19447 -80.1963,64.87984 -5.6961,11.26743 -6.1169,26.02549 -1.721,37.86088 2.6656,7.17695 9.7918,11.91689 15.7753,16.69322 6.8739,5.487178 13.9232,13.236108 22.7166,13.423418 25.2136,0.537 47.5892,-19.243658 66.7157,-35.681028 8.0398,-6.90956 19.045,-25.47006 19.045,-25.47006 l 46.351,-46.80985 29.1986,80.65519 -0.4588,14.80018 6.9412,7.457448 0.459,18.52889 -11.5878,17.15213 -3.2124,15.31645 18.5288,9.6947 18.5289,0.91783 28.7398,23.69175 44.5152,16.6358363 2.2946,-6.94116 -20.3644,-13.8823263 -16.6934,-28.28095 -6.0232,-20.88086 -7.9163,-2.75351 -15.2591,-27.36311 25.929,-21.798688 -22.2576,-44.51523 -10.1538,-37.0578 -7.9164,-58.39757 c 0,0 -3.0564,-15.24922 -8.7767,-19.50409 -3.5208,-2.61874 -10.8133,-3.03556 -15.7754,-2.98299 z m -147.9443,123.73631 c 0.3085,-0.0314 0.601,0 0.9179,0 5.069,0 9.1784,4.10931 9.1784,9.17839 0,5.06909 -4.1094,9.1784 -9.1784,9.1784 -5.0691,0 -9.1784,-4.10931 -9.1784,-9.1784 0,-4.75225 3.6323,-8.70836 8.2605,-9.17839 z"
         style="display:inline;fill:#000000;fill-opacity:1;stroke:#000000;stroke-width:1.83567977px;stroke-linecap:butt;stroke-linejoin:miter;stroke-opacity:1" />
      <rect
         y="-165.42003"
         x="681.49835"
         height="31.819805"
         width="35.355339"
         id="rect4146"
         style="display:inline;fill:#000000;stroke:#000000;stroke-opacity:1" />
    </g>
    <text
       xml:space="preserve"
       style="font-style:normal;font-variant:normal;font-weight:normal;font-stretch:normal;line-height:0%;font-family:'Nimbus Sans L';-inkscape-font-specification:'Nimbus Sans L';letter-spacing:0px;word-spacing:0px;fill:#808080;fill-opacity:1;stroke:none;stroke-width:1px;stroke-linecap:butt;stroke-linejoin:miter;stroke-opacity:1"
       x="-102.84359"
       y="913.75262"
       id="text4146"
       transform="rotate(57.160009)"><tspan
         sodipodi:role="line"
         id="tspan4148"
         x="-102.84359"
         y="913.75262"
         style="font-size:156.2364502px;line-height:1.25;fill:#808080">orsinium.dev</tspan></text>
  </g>
  <g
     inkscape:groupmode="layer"
     id="layer5"
     inkscape:label="hole"
     transform="translate(1020,1960.0001)" />
</svg>
