<?xml version="1.0" encoding="UTF-8" standalone="no"?>
<svg
   version="1.1"
   height="116.9447"
   width="340.21265"
   id="svg134"
   sodipodi:docname="typescript.svg"
   inkscape:version="1.1.2 (0a00cf5339, 2022-02-04)"
   inkscape:export-filename="/home/gram/Documents/craft/flat-art/typescript.png"
   inkscape:export-xdpi="599.90717"
   inkscape:export-ydpi="599.90717"
   xmlns:inkscape="http://www.inkscape.org/namespaces/inkscape"
   xmlns:sodipodi="http://sodipodi.sourceforge.net/DTD/sodipodi-0.dtd"
   xmlns="http://www.w3.org/2000/svg"
   xmlns:svg="http://www.w3.org/2000/svg">
  <defs
     id="defs138" />
  <sodipodi:namedview
     id="namedview136"
     pagecolor="#ffffff"
     bordercolor="#666666"
     borderopacity="1.0"
     inkscape:pageshadow="2"
     inkscape:pageopacity="0.0"
     inkscape:pagecheckerboard="0"
     showgrid="false"
     inkscape:snap-global="true"
     inkscape:zoom="1.584133"
     inkscape:cx="161.28696"
     inkscape:cy="94.057759"
     inkscape:window-width="1712"
     inkscape:window-height="860"
     inkscape:window-x="0"
     inkscape:window-y="30"
     inkscape:window-maximized="1"
     inkscape:current-layer="g857"
     fit-margin-top="0"
     fit-margin-left="0"
     fit-margin-right="0"
     fit-margin-bottom="0" />
  <g
     id="g857"
     transform="matrix(0.4509926,0,0,0.4509926,-0.88020273,147.22164)">
    <rect
       style="fill:none;fill-opacity:1;stroke:#000000;stroke-width:1.33728;stroke-linecap:round;stroke-linejoin:round;stroke-opacity:0.159386"
       id="rect34642"
       width="753.02686"
       height="257.96786"
       x="2.6203411"
       y="-325.77051"
       ry="25.566389" />
    <text
       xml:space="preserve"
       style="font-size:40px;line-height:1.25;font-family:'Nikkyou Sans';-inkscape-font-specification:'Nikkyou Sans'"
       x="261.84735"
       y="-88.69455"
       id="text12554"><tspan
         sodipodi:role="line"
         id="tspan12552"
         x="261.84735"
         y="-88.69455" /></text>
    <path
       fill-rule="nonzero"
       fill="#131b28"
       d="m 136.64824,-133.90469 c 0,0 8.501,0.10988 13.905,0.10988 -4.1052,0 -10.885,-0.0756 -13.912,-0.11225 0.003,0 0.005,0.002 0.008,0.002 z"
       id="path58-5" />
    <path
       fill-rule="nonzero"
       fill="#0868ac"
       d="m 37.376734,-221.48569 c -8.335,11.98 -7.2974,27.566 -0.93018,40.295 0.15138,0.30518 0.31006,0.60546 0.46631,0.90576 0.10012,0.19043 0.19409,0.38574 0.29785,0.57373 0.05862,0.11225 0.1245,0.22216 0.18555,0.32959 0.10862,0.20263 0.21972,0.39551 0.33202,0.59326 0.19776,0.34912 0.4004,0.6958 0.60791,1.0425 0.11475,0.19042 0.22828,0.38085 0.34669,0.57128 0.22949,0.37109 0.46509,0.7373 0.70556,1.1035 0.10012,0.15625 0.19775,0.3125 0.30029,0.46386 0.33204,0.49561 0.67139,0.98877 1.0217,1.4746 0.0087,0.0125 0.01825,0.0269 0.02925,0.039 0.055,0.0781 0.116,0.15381 0.17212,0.23194 0.30274,0.41747 0.61524,0.83007 0.9314,1.2378 0.116,0.14892 0.23315,0.29785 0.35034,0.44677 0.28199,0.35401 0.56885,0.70558 0.8606,1.0571 0.10862,0.13184 0.2185,0.26366 0.32836,0.39306 0.39185,0.46143 0.79101,0.92041 1.1987,1.3696 0.0075,0.007 0.01713,0.0171 0.02437,0.0244 0.01713,0.0195 0.03175,0.0317 0.04637,0.0512 0.39795,0.43457 0.80566,0.85937 1.2183,1.2842 0.12816,0.13184 0.25879,0.26368 0.39062,0.39308 0.31982,0.32226 0.64452,0.63965 0.9729,0.95458 0.13305,0.12695 0.26489,0.25635 0.39795,0.37842 0.43822,0.4126 0.88134,0.81787 1.333,1.2134 0.0075,0.007 0.01337,0.0125 0.02075,0.0171 0.07688,0.0684 0.15625,0.13184 0.23194,0.19775 0.39795,0.34424 0.80322,0.68604 1.2109,1.023 0.16601,0.13428 0.33448,0.26612 0.50171,0.40039 0.33325,0.26611 0.67016,0.52979 1.0095,0.78858 0.17945,0.13672 0.35889,0.27343 0.53956,0.41016 0.37475,0.27587 0.75195,0.54687 1.1328,0.81299 0.13915,0.10012 0.27344,0.19775 0.41259,0.29296 0.039,0.0269 0.0745,0.0537 0.1135,0.0806 0.36134,0.24902 0.7312,0.48827 1.0999,0.72754 0.15869,0.105 0.31616,0.21483 0.47608,0.31737 0.5664,0.35889 1.1414,0.7129 1.7224,1.0547 0.15746,0.0904 0.31738,0.17822 0.47606,0.26856 0.42725,0.24658 0.85694,0.48828 1.2927,0.7251 0.2356,0.12695 0.4773,0.24658 0.71534,0.36865 0.30761,0.16113 0.61279,0.3247 0.92529,0.48095 0.07075,0.0343 0.14405,0.0684 0.21362,0.1025 0.12574,0.061 0.25269,0.11963 0.37842,0.18311 0.48461,0.23194 0.9729,0.45899 1.4661,0.67872 0.105,0.0464 0.2063,0.0928 0.31006,0.13916 0.56518,0.24657 1.1352,0.48339 1.7102,0.71045 0.13794,0.0561 0.2771,0.10987 0.41626,0.16356 0.53222,0.20509 1.0718,0.40773 1.6138,0.59815 0.06838,0.0244 0.13429,0.0464 0.20264,0.0707 0.59449,0.20753 1.1951,0.40039 1.7993,0.58838 0.14404,0.0415 0.2893,0.0879 0.43456,0.1294 0.61524,0.18555 1.2232,0.40771 1.8579,0.5249 40.309996,7.3511 52.019006,-24.224 52.019006,-24.224 -9.83401,12.812 -27.290006,16.191 -43.829006,12.429 -0.62622,-0.1416 -1.2341,-0.33691 -1.8457,-0.51758 -0.15504,-0.0464 -0.30762,-0.0927 -0.46021,-0.13916 -0.59692,-0.1831 -1.189,-0.37597 -1.7773,-0.57861 -0.08062,-0.0292 -0.16236,-0.0586 -0.24415,-0.0879 -0.52734,-0.18555 -1.0486,-0.38086 -1.5674,-0.58105 -0.14649,-0.0586 -0.29298,-0.11475 -0.43945,-0.17334 -0.56885,-0.22461 -1.134,-0.45899 -1.6919,-0.70312 -0.11475,-0.0489 -0.22461,-0.10013 -0.33814,-0.14894 -0.47974,-0.21728 -0.95459,-0.437 -1.427,-0.66406 -0.13671,-0.0659 -0.27344,-0.12939 -0.4126,-0.19775 -0.371,-0.181 -0.738,-0.374 -1.104,-0.562 -0.245,-0.129 -0.494,-0.251 -0.737,-0.386 -0.447,-0.239 -0.886,-0.488 -1.323,-0.742 -0.148,-0.083 -0.298,-0.163 -0.447,-0.249 -0.581,-0.342 -1.155,-0.696 -1.723,-1.055 -0.157,-0.1 -0.31,-0.207 -0.465,-0.31 -0.412,-0.266 -0.822,-0.537 -1.226,-0.815 -0.134,-0.091 -0.263,-0.188 -0.395,-0.278 -0.39,-0.276 -0.776,-0.555 -1.159,-0.838 -0.174,-0.129 -0.345,-0.259 -0.514,-0.388 -0.351,-0.269 -0.7,-0.54 -1.046,-0.818 -0.15625,-0.1245 -0.3125,-0.24902 -0.46631,-0.37354 -0.43945,-0.36132 -0.87402,-0.7251 -1.3025,-1.0986 -0.04512,-0.039 -0.094,-0.0781 -0.14282,-0.11963 -0.46386,-0.40771 -0.91919,-0.8252 -1.3696,-1.2451 -0.13062,-0.1245 -0.25758,-0.24659 -0.38575,-0.3711 -0.33325,-0.31738 -0.66161,-0.6372 -0.98389,-0.96435 -0.12939,-0.1294 -0.25879,-0.25635 -0.38574,-0.38575 -0.41015,-0.41991 -0.81299,-0.84473 -1.2073,-1.2768 -0.0195,-0.022 -0.04025,-0.0415 -0.05975,-0.0635 -0.41749,-0.45655 -0.8252,-0.92285 -1.2244,-1.394 -0.10862,-0.12939 -0.21362,-0.2539 -0.32105,-0.38085 -0.29785,-0.35889 -0.59326,-0.72266 -0.88135,-1.0889 -0.108,-0.132 -0.216,-0.267 -0.323,-0.403 -0.347,-0.45 -0.686,-0.899 -1.018,-1.355 -9.1823,-12.525 -12.481,-29.8 -5.142,-43.987"
       id="path94-4" />
    <path
       fill-rule="nonzero"
       fill="#0868ac"
       d="m 63.250234,-231.57869 c -6.0278,8.6743 -5.7007,20.286 -0.99854,29.46 0.78858,1.5381 1.6748,3.0298 2.666,4.4507 0.90331,1.2939 1.9043,2.8345 3.103,3.8745 0.43458,0.47852 0.88868,0.94482 1.3525,1.4038 0.11712,0.11963 0.23681,0.23438 0.35645,0.35157 0.45044,0.43701 0.9082,0.8667 1.3818,1.2842 0.0195,0.0146 0.03663,0.0341 0.05613,0.0489 0.005,0.005 0.01,0.007 0.01337,0.0125 0.52368,0.45899 1.0644,0.90089 1.6138,1.3354 0.12212,0.0927 0.24292,0.19044 0.36621,0.28565 0.55054,0.42237 1.1121,0.8374 1.6882,1.2329 0.01713,0.0125 0.03175,0.0244 0.04888,0.0366 0.25391,0.17578 0.5127,0.33936 0.77026,0.50781 0.12325,0.0806 0.24049,0.16602 0.365,0.2417 0.41138,0.26367 0.82762,0.52002 1.2512,0.7666 0.05987,0.0366 0.11838,0.0684 0.177,0.1025 0.365,0.20995 0.73486,0.41747 1.106,0.61767 0.12939,0.0732 0.26122,0.13672 0.39306,0.20508 0.25635,0.13427 0.5127,0.271 0.77392,0.40039 0.039,0.0195 0.07937,0.0366 0.11712,0.0538 0.53101,0.26122 1.0669,0.5127 1.6138,0.75195 0.11712,0.0513 0.23804,0.0976 0.35644,0.14648 0.43701,0.18555 0.87891,0.36622 1.3232,0.53712 0.18799,0.0708 0.37841,0.13916 0.5664,0.20751 0.40284,0.14892 0.80689,0.28565 1.2146,0.42236 0.18432,0.0586 0.365,0.11963 0.54932,0.17579 0.57982,0.18066 1.1523,0.40771 1.7566,0.50781 31.122996,5.1562 38.308006,-18.806 38.308006,-18.806 -6.47701,9.3286 -19.02001,13.779 -32.405006,10.305 -0.59449,-0.15625 -1.1804,-0.32715 -1.7627,-0.51027 -0.17822,-0.0537 -0.35279,-0.11225 -0.52979,-0.17088 -0.41381,-0.13429 -0.82519,-0.27589 -1.2329,-0.42482 -0.18676,-0.0684 -0.37352,-0.13671 -0.55664,-0.20751 -0.44678,-0.1709 -0.88868,-0.34912 -1.3269,-0.53467 -0.11962,-0.0513 -0.24049,-0.0976 -0.35768,-0.15137 -0.54931,-0.23926 -1.0901,-0.49072 -1.6235,-0.7544 -0.27466,-0.13427 -0.54444,-0.27587 -0.81421,-0.41503 -0.15625,-0.0805 -0.31372,-0.16113 -0.46998,-0.2417 -0.34668,-0.18799 -0.69091,-0.3833 -1.0303,-0.58105 -0.0805,-0.0464 -0.16479,-0.0904 -0.24658,-0.13917 -0.42115,-0.24658 -0.83619,-0.50048 -1.2476,-0.76171 -0.12695,-0.0806 -0.24902,-0.16846 -0.37598,-0.25147 -0.271,-0.17578 -0.54199,-0.354 -0.8081,-0.53467 -0.57374,-0.39551 -1.1316,-0.81055 -1.6821,-1.2305 -0.12695,-0.10013 -0.2539,-0.19775 -0.37841,-0.29785 -5.859,-4.626 -10.503,-10.947 -12.711,-18.115 -2.314,-7.434 -1.815,-15.779 2.194,-22.551"
       id="path96-5" />
    <path
       fill-rule="nonzero"
       fill="#0868ac"
       d="m 85.011234,-239.11969 c -3.5535,5.2295 -3.9026,11.724 -1.4368,17.5 2.6001,6.1304 7.9285,10.94 14.147,13.22 0.25635,0.0953 0.5127,0.18066 0.77271,0.26855 0.1135,0.0342 0.22582,0.0733 0.34058,0.10737 0.36621,0.11475 0.72998,0.24903 1.1084,0.31983 17.184996,3.3203 21.845996,-8.8184 23.087006,-10.605 -4.08321,5.8789 -10.94501,7.29 -19.36401,5.2466 -0.665,-0.162 -1.396,-0.402 -2.037,-0.629 -0.822,-0.293 -1.631996,-0.627 -2.418996,-1.005 -1.495,-0.718 -2.92,-1.59 -4.241,-2.588 -7.534,-5.716 -12.214,-16.621 -7.298,-25.502"
       id="path98-0" />
    <g
       aria-label="TypeScript"
       id="text3242"
       style="font-weight:bold;font-size:140.064px;line-height:1.25;font-family:Inconsolata;-inkscape-font-specification:'Inconsolata Bold';fill:#131b28;stroke-width:3.50158">
      <path
         d="m 203.03114,-234.48502 h -17.18119 l -9.89785,70.21875 h -17.92819 l 9.7111,-70.21875 h -17.36793 l 1.86752,-14.56665 h 53.03756 z"
         style="font-weight:normal;font-family:Timmana;-inkscape-font-specification:Timmana"
         id="path18937" />
      <path
         d="m 246.35748,-172.67011 h -0.37351 q -0.56025,0.56026 -2.42777,2.24103 -1.68077,1.49401 -4.10855,3.36153 -2.42777,1.68077 -5.78931,2.98804 -3.36153,1.30726 -7.28333,1.30726 -9.3376,0 -12.32563,-5.60256 -2.98803,-5.78931 -1.49401,-17.55469 l 6.34956,-44.44697 h 17.55469 l -5.78931,40.15168 q -0.3735,3.73504 -0.56026,6.16281 0,2.24103 0.56026,3.54829 0.56026,1.30726 1.86752,2.05427 1.30726,0.56026 3.17478,0.56026 1.86752,0 3.73504,-0.74701 1.86752,-0.93376 3.54829,-2.05427 1.68077,-1.30727 2.98803,-2.42778 1.30727,-1.30726 2.05427,-1.86752 l 6.34957,-45.38073 h 17.36794 l -10.08461,71.52601 q -1.86752,13.07264 -8.59059,19.23546 -6.72307,6.34957 -19.79571,6.34957 -6.90983,0 -12.51239,-1.49402 -5.60256,-1.49402 -8.40384,-2.42778 l 3.36154,-11.95212 q 2.80128,0.93376 7.09658,1.86752 4.48204,0.93376 9.15084,0.93376 2.24103,0 4.10855,-0.37351 2.05427,-0.18675 3.54829,-1.49401 1.49401,-1.30727 2.61452,-3.73504 1.12051,-2.42778 1.86752,-6.53632 z"
         style="font-weight:normal;font-family:Timmana;-inkscape-font-specification:Timmana"
         id="path18939" />
      <path
         d="m 315.82901,-217.11708 q -1.68077,0 -3.36153,0.74701 -1.68077,0.74701 -3.17479,1.86752 -1.49401,1.12051 -2.80128,2.61453 -1.30726,1.30726 -1.86752,2.05427 l -4.6688,33.0551 q 2.98803,1.49402 7.28333,1.49402 6.53632,0 10.45811,-4.85556 3.92179,-4.85555 5.60256,-16.62092 1.49402,-11.39187 -0.56025,-15.87392 -1.86752,-4.48205 -6.90983,-4.48205 z m -25.77177,-13.25939 h 16.24742 l -0.56026,8.59059 h 0.18676 q 0.93376,-1.12051 2.80128,-2.80128 2.05427,-1.68077 4.48204,-3.36154 2.42778,-1.68076 5.41581,-2.80128 2.98803,-1.12051 6.34957,-1.12051 4.48205,0 8.03034,2.05427 3.54828,2.05428 5.60256,6.16282 2.24102,4.10854 2.98803,10.45811 0.93376,6.16282 -0.18675,14.94016 -1.30727,9.15085 -4.2953,15.87392 -2.80128,6.72307 -6.90982,11.20512 -3.9218,4.2953 -8.9641,6.53632 -5.0423,2.05427 -10.27136,2.05427 -7.09658,0 -12.69914,-2.61453 l -4.48204,30.25383 h -17.18119 z"
         style="font-weight:normal;font-family:Timmana;-inkscape-font-specification:Timmana"
         id="path18941" />
      <path
         d="m 378.3909,-219.54486 q -3.36154,0 -6.90982,3.73504 -3.36154,3.54829 -4.6688,12.88589 h 17.55468 q 1.30727,-9.52435 -0.56025,-13.07264 -1.86752,-3.54829 -5.41581,-3.54829 z m 16.06067,50.60979 q -0.74701,0.56026 -2.80128,1.68077 -1.86752,0.93376 -5.0423,2.05427 -2.98803,0.93376 -7.09658,1.68077 -3.92179,0.93376 -8.59059,0.93376 -5.41581,0 -10.27136,-1.86752 -4.6688,-1.86752 -7.84358,-5.78931 -2.98803,-4.10854 -4.2953,-10.27136 -1.30726,-6.34957 0,-14.94016 1.30727,-9.52435 4.2953,-16.24742 3.17478,-6.72307 7.28333,-11.20512 4.29529,-4.48205 9.3376,-6.72307 5.22905,-2.24103 10.83161,-2.24103 5.41581,0 9.7111,1.86752 4.2953,1.68077 7.09658,5.41581 2.80128,3.73504 3.92179,9.52435 1.12051,5.78931 0,14.0064 -0.56025,3.54829 -1.30726,6.16282 -0.56026,2.42777 -0.93376,2.80128 h -33.42861 q -1.30726,8.59059 1.86752,12.51238 3.36154,3.73504 8.9641,3.73504 2.42777,0 4.85555,-0.3735 2.61453,-0.56026 4.6688,-1.30727 2.24102,-0.74701 3.92179,-1.49401 1.68077,-0.74701 2.98803,-1.49402 z"
         style="font-weight:normal;font-family:Timmana;-inkscape-font-specification:Timmana"
         id="path18943" />
      <path
         d="m 447.30228,-250.54569 q 5.0423,0 8.59059,0.74701 3.73504,0.56026 6.34957,1.68077 2.61453,0.93376 4.29529,1.86752 1.86752,0.93376 2.80128,1.30726 l -6.16281,12.88589 q -0.74701,-0.3735 -2.42778,-1.12051 -1.68077,-0.93376 -3.73504,-1.68077 -2.05427,-0.93376 -4.48205,-1.49402 -2.42777,-0.747 -5.22905,-0.747 -2.80128,0 -5.04231,1.12051 -2.05427,0.93376 -3.54828,2.42777 -1.49402,1.30727 -2.42778,2.98804 -0.93376,1.49401 -0.93376,2.80128 -0.56026,3.92179 1.30726,6.72307 2.05428,2.80128 5.22906,5.22905 3.17478,2.42778 6.90982,4.85556 3.9218,2.42777 6.90983,5.60256 3.17478,2.98803 5.0423,7.28332 1.86752,4.10855 0.93376,10.08461 -1.68077,11.95213 -9.7111,18.6752 -8.03034,6.72307 -22.03674,6.72307 -5.0423,0 -8.77734,-0.74701 -3.73504,-0.747 -6.53632,-1.86752 -2.61453,-1.12051 -4.48205,-2.05427 -1.68077,-1.12051 -2.80128,-1.68077 l 5.97606,-12.88588 q 0.93376,0.3735 2.42778,1.30726 1.68077,0.93376 3.73504,1.86752 2.05427,0.74701 4.6688,1.49402 2.61453,0.56025 5.0423,0.56025 2.42778,0 4.6688,-0.56025 2.42778,-0.56026 4.2953,-1.86752 2.05427,-1.30727 3.36154,-2.98804 1.30726,-1.86752 1.68076,-4.29529 0.56026,-3.73504 -1.49401,-6.16282 -2.05427,-2.61452 -5.22906,-4.85555 -3.17478,-2.42777 -6.90982,-4.85555 -3.73504,-2.61453 -6.90983,-5.78931 -3.17478,-3.17479 -5.0423,-7.47008 -1.68077,-4.2953 -0.74701,-10.64487 1.49402,-11.39187 9.52435,-17.92819 8.03034,-6.53632 20.91623,-6.53632 z"
         style="font-weight:normal;font-family:Timmana;-inkscape-font-specification:Timmana"
         id="path18945" />
      <path
         d="m 519.20173,-168.74831 q -0.93376,0.56025 -2.80128,1.49401 -1.86752,0.93376 -4.2953,2.05427 -2.42777,0.93376 -5.60256,1.68077 -3.17478,0.93376 -6.90982,0.93376 -13.25939,0 -19.0487,-8.21709 -5.60256,-8.21708 -3.17479,-25.58502 2.42778,-18.11494 10.83162,-26.70553 8.40384,-8.77735 22.22349,-8.77735 5.22905,0 9.3376,1.12051 4.10854,0.93376 5.60256,1.49402 l -3.9218,12.88589 q -1.12051,-0.37351 -4.10854,-1.12051 -2.80128,-0.93376 -6.34957,-0.93376 -6.53632,0 -10.27136,5.22905 -3.73504,5.04231 -5.22905,16.24743 -1.68077,11.39187 0.747,16.06067 2.61453,4.48204 8.21709,4.48204 3.92179,0 7.47008,-1.30726 3.54829,-1.49402 4.85555,-1.86752 z"
         style="font-weight:normal;font-family:Timmana;-inkscape-font-specification:Timmana"
         id="path18947" />
      <path
         d="m 547.40103,-164.26627 h -17.36794 l 9.3376,-66.1102 h 15.31366 l -0.56025,8.77734 h 0.18675 q 2.80128,-4.48205 7.09658,-7.47008 4.29529,-2.98803 8.59059,-2.98803 2.05427,0 2.98803,0.56026 1.12051,0.3735 2.05427,0.747 l -3.54829,15.12692 q -1.12051,-0.18676 -2.98803,-0.74701 -1.68077,-0.56026 -3.73504,-0.56026 -2.42777,0 -4.85555,1.49402 -2.42778,1.49401 -6.16282,4.85555 z"
         style="font-weight:normal;font-family:Timmana;-inkscape-font-specification:Timmana"
         id="path18949" />
      <path
         d="m 610.89655,-250.54569 q -0.74701,4.48205 -3.92179,7.47008 -3.17479,2.80128 -7.28333,2.80128 -4.2953,0 -6.72307,-2.80128 -2.42778,-2.98803 -1.86752,-7.47008 0.93376,-4.6688 4.10854,-7.65683 3.17478,-2.98803 7.47008,-2.98803 4.10854,0 6.34957,2.98803 2.42777,2.98803 1.86752,7.65683 z m -13.44615,86.27942 h -17.36793 l 8.96409,-64.98969 17.9282,-2.42778 z"
         style="font-weight:normal;font-family:Timmana;-inkscape-font-specification:Timmana"
         id="path18951" />
      <path
         d="m 655.34333,-217.11708 q -1.68077,0 -3.36154,0.74701 -1.68077,0.74701 -3.17478,1.86752 -1.49402,1.12051 -2.80128,2.61453 -1.30727,1.30726 -1.86752,2.05427 l -4.6688,33.0551 q 2.98803,1.49402 7.28332,1.49402 6.53632,0 10.45812,-4.85556 3.92179,-4.85555 5.60255,-16.62092 1.49402,-11.39187 -0.56025,-15.87392 -1.86752,-4.48205 -6.90982,-4.48205 z m -25.77178,-13.25939 h 16.24742 l -0.56025,8.59059 h 0.18675 q 0.93376,-1.12051 2.80128,-2.80128 2.05427,-1.68077 4.48205,-3.36154 2.42777,-1.68076 5.41581,-2.80128 2.98803,-1.12051 6.34956,-1.12051 4.48205,0 8.03034,2.05427 3.54829,2.05428 5.60256,6.16282 2.24102,4.10854 2.98803,10.45811 0.93376,6.16282 -0.18675,14.94016 -1.30727,9.15085 -4.2953,15.87392 -2.80128,6.72307 -6.90982,11.20512 -3.92179,4.2953 -8.9641,6.53632 -5.0423,2.05427 -10.27136,2.05427 -7.09657,0 -12.69913,-2.61453 l -4.48205,30.25383 h -17.18118 z"
         style="font-weight:normal;font-family:Timmana;-inkscape-font-specification:Timmana"
         id="path18953" />
      <path
         d="m 726.86928,-230.37647 -1.49402,12.69913 h -14.3799 l -4.48205,31.74784 q -0.74701,4.2953 0,6.34957 0.74701,2.05427 3.92179,2.05427 2.98804,0 5.22906,-0.74701 2.24102,-0.93376 2.98803,-1.12051 v 12.32563 q -0.74701,0.18676 -2.24102,0.93376 -1.49402,0.74701 -3.54829,1.68077 -1.86752,0.74701 -4.6688,1.30727 -2.61453,0.56025 -5.60256,0.56025 -8.9641,0 -12.13888,-4.6688 -3.17478,-4.85555 -1.68077,-16.24742 l 5.04231,-34.17562 h -7.09658 l 1.68077,-12.69913 h 7.09657 l 2.24103,-15.87392 17.74144,-2.80128 -2.80128,18.6752 z"
         style="font-weight:normal;font-family:Timmana;-inkscape-font-specification:Timmana"
         id="path18955" />
    </g>
    <g
       aria-label="write more, do less"
       id="text16162"
       style="font-size:37.8062px;line-height:1.25;font-family:Timmana;-inkscape-font-specification:Timmana;fill:#0868ac;stroke-width:1.41774">
      <path
         d="m 339.69914,-152.89869 -7.20838,17.84452 h -4.43593 l -1.15939,-11.5939 -4.48634,11.5939 h -4.2847 l -2.01633,-17.84452 h 4.63756 l 0.90735,12.04757 4.43593,-12.04757 h 3.88143 l 1.10898,12.04757 4.18389,-12.04757 z"
         id="path18958" />
      <path
         d="m 345.39522,-135.05417 h -4.68797 l 2.52041,-17.84452 h 4.13348 l -0.15122,2.36918 h 0.0504 q 0.75613,-1.20979 1.91552,-2.01633 1.15939,-0.80653 2.31878,-0.80653 0.55449,0 0.80653,0.15123 0.30245,0.10081 0.55449,0.20163 l -0.95776,4.08307 q -0.30245,-0.0504 -0.80653,-0.20163 -0.45367,-0.15123 -1.00816,-0.15123 -0.65531,0 -1.31062,0.40327 -0.65531,0.40326 -1.66347,1.31061 z"
         id="path18960" />
      <path
         d="m 362.53398,-158.34279 q -0.20163,1.2098 -1.05857,2.01633 -0.85694,0.75613 -1.96592,0.75613 -1.15939,0 -1.8147,-0.75613 -0.65531,-0.80653 -0.50408,-2.01633 0.25204,-1.2602 1.10898,-2.06674 0.85694,-0.80653 2.01633,-0.80653 1.10898,0 1.71388,0.80653 0.65531,0.80654 0.50408,2.06674 z m -3.62939,23.28862 h -4.68797 l 2.4196,-17.54207 4.83919,-0.65531 z"
         id="path18962" />
      <path
         d="m 374.78314,-152.89869 -0.40327,3.42776 h -3.88143 l -1.2098,8.5694 q -0.20164,1.15939 0,1.71388 0.20163,0.55449 1.05857,0.55449 0.80653,0 1.41143,-0.20163 0.6049,-0.25204 0.80653,-0.30245 v 3.32695 q -0.20163,0.0504 -0.60489,0.25204 -0.40327,0.20163 -0.95776,0.45367 -0.50408,0.20164 -1.26021,0.35286 -0.70571,0.15123 -1.51225,0.15123 -2.41959,0 -3.27653,-1.26021 -0.85694,-1.31062 -0.45368,-4.38552 l 1.36103,-9.22471 h -1.91552 l 0.45368,-3.42776 h 1.91551 l 0.6049,-4.28471 4.78878,-0.75612 -0.75612,5.04083 z"
         id="path18964" />
      <path
         d="m 384.46151,-149.97501 q -0.90734,0 -1.8651,1.00816 -0.90735,0.95776 -1.26021,3.47817 h 4.73838 q 0.35286,-2.57082 -0.15123,-3.52858 -0.50408,-0.95775 -1.46184,-0.95775 z m 4.33512,13.66063 q -0.20164,0.15123 -0.75613,0.45368 -0.50408,0.25204 -1.36102,0.55449 -0.80653,0.25204 -1.91552,0.45367 -1.05857,0.25205 -2.31878,0.25205 -1.46184,0 -2.77245,-0.50409 -1.26021,-0.50408 -2.11715,-1.56265 -0.80653,-1.10898 -1.15939,-2.77246 -0.35286,-1.71388 0,-4.03266 0.35286,-2.57082 1.15939,-4.38552 0.85694,-1.8147 1.96592,-3.02449 1.15939,-1.2098 2.52042,-1.8147 1.41143,-0.6049 2.92368,-0.6049 1.46184,0 2.62123,0.50408 1.15939,0.45368 1.91551,1.46184 0.75612,1.00817 1.05857,2.57082 0.30245,1.56266 0,3.78062 -0.15122,0.95776 -0.35285,1.66348 -0.15123,0.6553 -0.25204,0.75612 h -9.02308 q -0.35286,2.31878 0.50408,3.37735 0.90735,1.00817 2.4196,1.00817 0.6553,0 1.31061,-0.10082 0.70572,-0.15122 1.26021,-0.35286 0.6049,-0.20163 1.05857,-0.40326 0.45367,-0.20163 0.80653,-0.40327 z"
         id="path18966" />
      <path
         d="m 407.29639,-152.89869 h 4.13348 l -0.20163,2.36918 q 0.25204,-0.20163 0.6553,-0.6553 0.45368,-0.50409 1.05858,-0.95776 0.6049,-0.45367 1.41143,-0.80653 0.80653,-0.35286 1.8147,-0.35286 1.56265,0 2.36918,0.6049 0.80654,0.55449 1.00817,2.11715 0.20163,-0.30245 0.65531,-0.75613 0.45367,-0.45367 1.10898,-0.85694 0.65531,-0.45367 1.46184,-0.75612 0.80653,-0.35286 1.71388,-0.35286 2.26837,0 3.0749,1.41143 0.80653,1.41143 0.35286,4.73838 l -1.61306,12.09798 h -4.68797 l 1.56265,-11.69472 q 0.25205,-1.15939 0.0504,-1.81469 -0.20163,-0.65531 -1.10898,-0.65531 -0.45367,0 -0.90735,0.25204 -0.40326,0.20163 -0.80653,0.50408 -0.35286,0.30245 -0.6049,0.65531 -0.25204,0.30245 -0.35286,0.55449 l -1.66347,12.1988 h -4.53674 l 1.66347,-11.69472 q 0.20163,-1.15939 0,-1.81469 -0.20163,-0.65531 -1.15939,-0.65531 -0.45368,0 -0.90735,0.25204 -0.40327,0.20163 -0.75612,0.50408 -0.30245,0.30245 -0.6049,0.65531 -0.25204,0.30245 -0.35286,0.55449 l -1.71388,12.1988 h -4.63756 z"
         id="path18968" />
      <path
         d="m 440.06172,-144.02684 q 0.45368,-3.12531 -0.0504,-4.48634 -0.50408,-1.36102 -1.96592,-1.36102 -1.46184,0 -2.31878,1.36102 -0.85694,1.36103 -1.26021,4.48634 -0.45367,3.22613 0,4.63756 0.45368,1.36102 1.96593,1.36102 1.46184,0 2.31878,-1.41143 0.90735,-1.41143 1.31061,-4.58715 z m 4.8392,0 q -0.35286,2.57082 -1.1594,4.33511 -0.75612,1.76429 -1.91551,2.92368 -1.15939,1.15939 -2.67164,1.66347 -1.51224,0.50409 -3.22613,0.50409 -1.71388,0 -3.0749,-0.50409 -1.36102,-0.55449 -2.21796,-1.66347 -0.80654,-1.15939 -1.10899,-2.92368 -0.30245,-1.76429 0.10082,-4.33511 0.30245,-2.47 1.10898,-4.23429 0.80654,-1.76429 1.96593,-2.87327 1.15939,-1.10899 2.62122,-1.61307 1.46184,-0.55449 3.17573,-0.55449 1.76428,0 3.12531,0.55449 1.36102,0.50408 2.21796,1.61307 0.85694,1.10898 1.15939,2.87327 0.30245,1.76429 -0.10081,4.23429 z"
         id="path18970" />
      <path
         d="m 451.05071,-135.05417 h -4.68797 l 2.52041,-17.84452 h 4.13348 l -0.15123,2.36918 h 0.0504 q 0.75613,-1.20979 1.91552,-2.01633 1.15939,-0.80653 2.31878,-0.80653 0.55449,0 0.80653,0.15123 0.30245,0.10081 0.55449,0.20163 l -0.95776,4.08307 q -0.30245,-0.0504 -0.80653,-0.20163 -0.45367,-0.15123 -1.00816,-0.15123 -0.65531,0 -1.31062,0.40327 -0.65531,0.40326 -1.66347,1.31061 z"
         id="path18972" />
      <path
         d="m 468.29029,-149.97501 q -0.90735,0 -1.86511,1.00816 -0.90735,0.95776 -1.2602,3.47817 h 4.73837 q 0.35286,-2.57082 -0.15122,-3.52858 -0.50409,-0.95775 -1.46184,-0.95775 z m 4.33511,13.66063 q -0.20163,0.15123 -0.75613,0.45368 -0.50408,0.25204 -1.36102,0.55449 -0.80653,0.25204 -1.91551,0.45367 -1.05858,0.25205 -2.31878,0.25205 -1.46184,0 -2.77246,-0.50409 -1.2602,-0.50408 -2.11714,-1.56265 -0.80654,-1.10898 -1.15939,-2.77246 -0.35286,-1.71388 0,-4.03266 0.35285,-2.57082 1.15939,-4.38552 0.85694,-1.8147 1.96592,-3.02449 1.15939,-1.2098 2.52041,-1.8147 1.41143,-0.6049 2.92368,-0.6049 1.46184,0 2.62123,0.50408 1.15939,0.45368 1.91551,1.46184 0.75613,1.00817 1.05858,2.57082 0.30245,1.56266 0,3.78062 -0.15123,0.95776 -0.35286,1.66348 -0.15122,0.6553 -0.25204,0.75612 h -9.02308 q -0.35286,2.31878 0.50408,3.37735 0.90735,1.00817 2.4196,1.00817 0.65531,0 1.31061,-0.10082 0.70572,-0.15122 1.26021,-0.35286 0.6049,-0.20163 1.05857,-0.40326 0.45368,-0.20163 0.80654,-0.40327 z"
         id="path18974" />
      <path
         d="m 477.6158,-137.37295 q 0.15123,-0.70571 0.70572,-1.15939 0.55449,-0.45367 1.10898,-0.45367 1.8147,0.15122 1.51225,1.91551 -0.10082,0.6049 -0.45368,1.2098 -0.35286,0.6049 -0.85694,1.2098 -0.45367,0.6049 -1.00816,1.15939 -0.55449,0.6049 -1.00817,1.10898 l -1.51225,-0.70572 q 0.50409,-0.55449 0.90735,-1.20979 0.45368,-0.65531 0.6049,-1.2098 0.0504,-0.40327 -0.10082,-0.80654 -0.10081,-0.40326 0.10082,-0.90734 z"
         id="path18976" />
      <path
         d="m 502.6686,-138.58275 q 0.85694,0 1.66347,-0.50408 0.85695,-0.55449 1.36103,-1.15939 l 1.2602,-8.77104 q -0.55449,-0.30245 -1.05857,-0.45367 -0.45367,-0.15123 -1.05857,-0.15123 -1.71388,0 -2.72205,1.2098 -0.95776,1.2098 -1.41143,4.38552 -0.40327,3.12531 0.0504,4.2847 0.50408,1.15939 1.91551,1.15939 z m 6.95634,3.52858 h -3.93184 v -2.11715 q -1.00817,0.90735 -2.4196,1.76429 -1.41143,0.80654 -3.17572,0.80654 -1.10898,0 -2.11715,-0.50409 -0.95775,-0.50408 -1.56265,-1.56265 -0.6049,-1.10898 -0.80653,-2.82287 -0.20164,-1.71388 0.15122,-4.13347 0.35286,-2.67164 1.2098,-4.48634 0.85694,-1.8147 2.01633,-2.92368 1.15939,-1.15939 2.57082,-1.66347 1.41143,-0.50408 2.82286,-0.50408 0.80654,0 1.56266,0.20163 0.75612,0.20163 1.46184,0.55449 l 1.05857,-7.61165 4.73838,-0.65531 z"
         id="path18978" />
      <path
         d="m 525.2515,-144.02684 q 0.45367,-3.12531 -0.0504,-4.48634 -0.50409,-1.36102 -1.96593,-1.36102 -1.46183,0 -2.31878,1.36102 -0.85694,1.36103 -1.2602,4.48634 -0.45368,3.22613 0,4.63756 0.45367,1.36102 1.96592,1.36102 1.46184,0 2.31878,-1.41143 0.90735,-1.41143 1.31062,-4.58715 z m 4.83919,0 q -0.35286,2.57082 -1.15939,4.33511 -0.75613,1.76429 -1.91552,2.92368 -1.15939,1.15939 -2.67163,1.66347 -1.51225,0.50409 -3.22613,0.50409 -1.71388,0 -3.07491,-0.50409 -1.36102,-0.55449 -2.21796,-1.66347 -0.80653,-1.15939 -1.10898,-2.92368 -0.30245,-1.76429 0.10081,-4.33511 0.30245,-2.47 1.10899,-4.23429 0.80653,-1.76429 1.96592,-2.87327 1.15939,-1.10899 2.62123,-1.61307 1.46184,-0.55449 3.17572,-0.55449 1.76429,0 3.12531,0.55449 1.36102,0.50408 2.21797,1.61307 0.85694,1.10898 1.15939,2.87327 0.30244,1.76429 -0.10082,4.23429 z"
         id="path18980" />
      <path
         d="m 548.74169,-135.05417 h -4.68797 l 3.47817,-25.0025 4.78878,-0.65531 z"
         id="path18982" />
      <path
         d="m 562.25104,-149.97501 q -0.90735,0 -1.8651,1.00816 -0.90735,0.95776 -1.26021,3.47817 h 4.73838 q 0.35285,-2.57082 -0.15123,-3.52858 -0.50408,-0.95775 -1.46184,-0.95775 z m 4.33511,13.66063 q -0.20163,0.15123 -0.75612,0.45368 -0.50408,0.25204 -1.36102,0.55449 -0.80654,0.25204 -1.91552,0.45367 -1.05857,0.25205 -2.31878,0.25205 -1.46184,0 -2.77245,-0.50409 -1.26021,-0.50408 -2.11715,-1.56265 -0.80653,-1.10898 -1.15939,-2.77246 -0.35286,-1.71388 0,-4.03266 0.35286,-2.57082 1.15939,-4.38552 0.85694,-1.8147 1.96592,-3.02449 1.15939,-1.2098 2.52042,-1.8147 1.41143,-0.6049 2.92367,-0.6049 1.46184,0 2.62123,0.50408 1.15939,0.45368 1.91552,1.46184 0.75612,1.00817 1.05857,2.57082 0.30245,1.56266 0,3.78062 -0.15122,0.95776 -0.35286,1.66348 -0.15122,0.6553 -0.25204,0.75612 h -9.02308 q -0.35285,2.31878 0.50409,3.37735 0.90735,1.00817 2.41959,1.00817 0.65531,0 1.31062,-0.10082 0.70571,-0.15122 1.2602,-0.35286 0.6049,-0.20163 1.05858,-0.40326 0.45367,-0.20163 0.80653,-0.40327 z"
         id="path18984" />
      <path
         d="m 571.32451,-139.13724 q 0.15123,0.0504 0.55449,0.25204 0.40327,0.20164 0.90735,0.40327 0.55449,0.15122 1.10899,0.30245 0.60489,0.15122 1.20979,0.15122 1.05858,0 1.61307,-0.30245 0.6049,-0.35285 0.75612,-1.36102 0.10082,-0.65531 -0.30245,-1.2098 -0.40326,-0.6049 -1.05857,-1.15939 -0.6049,-0.55449 -1.36102,-1.10898 -0.75613,-0.6049 -1.36103,-1.31061 -0.6049,-0.75613 -0.95775,-1.66348 -0.35286,-0.90735 -0.20164,-2.11714 0.35286,-2.36919 2.06674,-3.67981 1.76429,-1.36102 4.68797,-1.36102 1.76429,0 2.82286,0.30245 1.10898,0.25204 1.56266,0.40327 l -0.70572,3.42776 q -0.40326,-0.0504 -1.41143,-0.35286 -0.95775,-0.30245 -2.06674,-0.30245 -2.11714,0 -2.36919,1.41143 -0.10081,0.65531 0.30245,1.2098 0.45368,0.50408 1.10899,1.05857 0.6553,0.50409 1.46184,1.10898 0.80653,0.5545 1.46184,1.26021 0.6553,0.70572 1.00816,1.66347 0.35286,0.90735 0.15123,2.16756 -0.10082,1.10898 -0.6049,2.06674 -0.50409,0.95776 -1.36103,1.71388 -0.80653,0.70572 -2.01633,1.10898 -1.2098,0.45368 -2.87327,0.45368 -1.10898,0 -2.01633,-0.15123 -0.85694,-0.15122 -1.56266,-0.40327 -0.6553,-0.25204 -1.15939,-0.45367 -0.45367,-0.25204 -0.6553,-0.40327 z"
         id="path18986" />
      <path
         d="m 585.89245,-139.13724 q 0.15122,0.0504 0.55449,0.25204 0.40326,0.20164 0.90735,0.40327 0.55449,0.15122 1.10898,0.30245 0.6049,0.15122 1.2098,0.15122 1.05857,0 1.61306,-0.30245 0.6049,-0.35285 0.75612,-1.36102 0.10082,-0.65531 -0.30245,-1.2098 -0.40326,-0.6049 -1.05857,-1.15939 -0.6049,-0.55449 -1.36102,-1.10898 -0.75613,-0.6049 -1.36103,-1.31061 -0.60489,-0.75613 -0.95775,-1.66348 -0.35286,-0.90735 -0.20164,-2.11714 0.35286,-2.36919 2.06674,-3.67981 1.76429,-1.36102 4.68797,-1.36102 1.76429,0 2.82287,0.30245 1.10898,0.25204 1.56265,0.40327 l -0.70571,3.42776 q -0.40327,-0.0504 -1.41144,-0.35286 -0.95775,-0.30245 -2.06673,-0.30245 -2.11715,0 -2.36919,1.41143 -0.10082,0.65531 0.30245,1.2098 0.45367,0.50408 1.10898,1.05857 0.65531,0.50409 1.46184,1.10898 0.80653,0.5545 1.46184,1.26021 0.65531,0.70572 1.00816,1.66347 0.35286,0.90735 0.15123,2.16756 -0.10082,1.10898 -0.6049,2.06674 -0.50408,0.95776 -1.36102,1.71388 -0.80654,0.70572 -2.01634,1.10898 -1.20979,0.45368 -2.87327,0.45368 -1.10898,0 -2.01633,-0.15123 -0.85694,-0.15122 -1.56265,-0.40327 -0.65531,-0.25204 -1.15939,-0.45367 -0.45368,-0.25204 -0.65531,-0.40327 z"
         id="path18988" />
    </g>
  </g>
</svg>
